<?xml version="1.0" encoding="utf-8"?>
<!-- Generator: Adobe Illustrator 27.0.0, SVG Export Plug-In . SVG Version: 6.00 Build 0)  -->
<svg version="1.1" id="Capa_1" xmlns="http://www.w3.org/2000/svg" xmlns:xlink="http://www.w3.org/1999/xlink" x="0px" y="0px"
	 viewBox="0 0 60 60" style="enable-background:new 0 0 60 60;" xml:space="preserve">
<style type="text/css">
	.st0{fill:#FFFFFF;}
	.st1{fill:#090A0C;}
	.st2{fill:#D9D8DB;}
	.st3{fill:#888990;}
	.st4{fill:#6A6A6F;}
	.st5{fill:#69696D;}
	.st6{fill:#4B4A51;}
	.st7{fill:#C7C6CC;}
	.st8{fill:#98D2F4;}
</style>
<g id="Capa_1_00000058557931593491325620000002984333730877041836_">
	<rect x="11.5" y="11.1" class="st0" width="40" height="37.2"/>
	<path class="st0" d="M30,0.5c16.1,0,29.5,13,29.5,29.5c0,16.3-13.1,29.5-29.5,29.5c-16.5,0-29.6-13.4-29.5-29.6
		C0.5,13.7,13.8,0.5,30,0.5z M43.4,25.4c0-0.2,0-0.4,0-0.5c0-1.1-0.5-1.5-1.5-1.5c-8.8,0-17.7,0-26.5,0c-1,0-1.5,0.5-1.5,1.5
		c0,1.7,0,3.4,0,5c0,4.8,1.9,8.7,5.6,11.7c0.2,0.1,0.4,0.2,0.4,0.5c-1.4,0-2.8,0-4.2,0c-1.1,0-1.7,0.4-1.8,1.3
		c0,0.9,0.6,1.4,1.8,1.4c8.7,0,17.3,0,26,0c0.2,0,0.3,0,0.5,0c0.7-0.1,1.2-0.6,1.3-1.2c0-0.7-0.4-1.3-1.1-1.4c-0.3,0-0.6,0-0.8,0
		c-1.4,0-2.7,0-4.3,0c2.5-1.8,4.2-4,5.3-6.7c1.3,0,2.6,0,3.9,0c2.2-0.1,4.2-1.5,4.9-3.7c0.7-2.1,0-4.5-1.7-5.8
		C47.7,24.4,45.7,24.3,43.4,25.4z M30,16.6c0-1.3,0-2.5,0-3.8c0-1-0.7-1.6-1.3-1.6c-0.7,0-1.4,0.7-1.4,1.6c0,2.5,0,5.1,0,7.6
		c0,1,0.5,1.6,1.3,1.6c0.9,0,1.4-0.6,1.4-1.6C30,19.1,30,17.8,30,16.6z M20.6,18.6c0,0.6,0,1.3,0,1.9c0,0.9,0.6,1.5,1.4,1.4
		c0.8,0,1.3-0.6,1.3-1.4c0-1.3,0-2.6,0-3.8c0-0.9-0.6-1.5-1.4-1.5c-0.8,0-1.3,0.6-1.3,1.4C20.6,17.3,20.6,18,20.6,18.6z M34,18.6
		c0,0.7,0,1.3,0,2c0,0.8,0.5,1.3,1.3,1.3c0.8,0,1.4-0.5,1.4-1.3c0-1.3,0-2.7,0-4c0-0.8-0.6-1.4-1.4-1.4c-0.7,0-1.3,0.6-1.3,1.4
		C34,17.3,34,18,34,18.6z"/>
	<path class="st1" d="M36.1,33.8c-0.3,0.6-0.4,0.7-1.1,0.7c-4,0-8,0-12,0c-0.2,0-0.3,0-0.5,0c-0.1,0.2-0.1,0.3-0.1,0.5
		c0,1.9,0,3.8,0,5.7c0,1.3-0.5,2.4-1.5,3.2c-1.6,1.3-4.1,1.1-5.4-0.5c-0.2-0.2-0.3-0.4-0.5-0.7c-0.1-0.2-0.2-0.5-0.4-0.8
		c-0.4,0-0.9,0-1.4,0c-1.1-0.1-2-0.6-2.7-1.4c-0.8-0.8-1.1-1.9-1.1-3c0-0.6,0-1.2,0-1.8c-0.3-0.1-0.6,0-0.8,0c-1.2,0-2.4-1-2.7-2
		c0-0.1,0-0.2-0.2-0.3c0-1.6,0-3.1,0-4.7c0.1,0,0.1-0.1,0.1-0.1c0.4-1.2,1.4-2.2,3.1-2.2c0.2,0,0.3,0,0.5,0c0.1-0.2,0.1-0.3,0.1-0.5
		c0-0.7,0-1.4,0.1-2.2c0.2-1.3,0.9-2.3,2-2.9c0.7-0.5,1.6-0.6,2.5-0.6c0.2,0,0.5,0,0.7,0c0.1-0.1,0.2-0.2,0.2-0.3
		c0.6-1.5,1.7-2.3,3.2-2.5c2.3-0.2,4.2,1.5,4.3,3.6c0,2,0,4,0,6.1c0,0.2,0,0.3,0,0.5c5,0,10,0,15,0c0.1-0.1,0.1-0.3,0.1-0.4
		c0-1.9,0-3.9,0-5.8c0-1.1,0.3-2,1-2.8c1.9-2.1,5.4-1.5,6.5,1.1c0.1,0.1,0.1,0.3,0.2,0.4c0.4,0,0.9,0,1.4,0.1c1.4,0.1,2.4,0.8,3.2,2
		c0.5,0.7,0.6,1.6,0.6,2.4c0,0.6,0,1.2,0,1.8c0.3,0,0.6,0,0.9,0c1.3,0.1,2.4,1.1,2.6,2.2c0,0.1,0,0.1,0.1,0.1c0,1.5,0,3.1,0,4.6
		c-0.1,0-0.1,0.1-0.1,0.2c-0.3,1.1-1.4,2.1-2.8,2.1c-0.2,0-0.5,0-0.7,0c-0.1,0.2-0.1,0.3-0.1,0.5c0,0.7,0,1.4-0.1,2.2
		c-0.2,1.3-0.9,2.3-1.9,3c-0.7,0.5-1.6,0.6-2.5,0.6c-0.2,0-0.5,0-0.7,0c-0.1,0.1-0.2,0.2-0.2,0.3c-0.6,1.5-1.7,2.3-3.2,2.5
		c-2.3,0.3-4.2-1.5-4.3-3.6c-0.1-2.3,0-4.6,0-6.8c0-0.2,0-0.3,0-0.5c0-1.5,0-3.1,0-4.6c0,0,0,0-0.1-0.1c-0.1,0-0.1,0-0.2,0
		c-3.4,0-6.7,0-10.1,0c-0.1,0-0.2,0-0.3,0c-1.4,0-2.8,0-4.2,0c0,0,0,0-0.1,0c0,1.3,0,2.6,0,3.9c1.5,0,2.9,0,4.3,0c0.2,0,0.3,0,0.5,0
		c2.6,0,5.2,0,7.8,0C35.7,33.1,35.9,33.2,36.1,33.8z M46.7,21.7c-0.4-0.2-0.8,0-1.3-0.1c0,6.3,0,12.5,0,18.8c0.4,0,0.9,0.1,1.3-0.1
		c0.7-0.1,1.3-0.4,1.7-1c0.5-0.6,0.6-1.4,0.6-2.1c0-3.7,0-7.4,0-11.1c0-0.7,0-1.4-0.1-2.2C48.9,22.9,47.9,21.8,46.7,21.7z
		 M13.3,21.7c-0.7,0.1-1.3,0.4-1.7,1c-0.5,0.6-0.6,1.4-0.6,2.1c0,3.7,0,7.4,0,11.1c0,0.7,0,1.4,0.1,2.2c0.1,1.2,1.1,2.3,2.3,2.4
		c0.4,0.2,0.8,0,1.3,0.1c0-0.2,0-0.4,0-0.5c0-4.2,0-8.5,0-12.8c0-0.1,0-0.3,0-0.4c0.1-0.5,0.2-0.8,0.8-0.8c0.5,0.1,0.7,0.3,0.7,0.8
		c0,0.1,0,0.2,0,0.3c0,4.6,0,9.1,0,13.7c0,0.4,0.1,0.7,0.2,1.1c0.4,1.1,1.8,1.8,2.9,1.4c0.5-0.1,0.9-0.4,1.2-0.7
		c0.4-0.5,0.6-1.1,0.6-1.8c0-6.4,0-12.9,0-19.3c0-0.3,0-0.6-0.1-0.8c-0.2-0.7-0.8-1.6-1.7-1.7c-0.4-0.2-0.9-0.2-1.3,0
		c-1.1,0.3-1.8,1.2-1.8,2.3c0,0.7,0,1.4,0,2.1c0,0.1,0,0.3,0,0.4c-0.1,0.4-0.4,0.4-0.7,0.5c-0.5-0.1-0.7-0.5-0.7-1
		c0-0.1,0-0.2,0-0.4c0-0.4,0-0.8,0-1.3C14.1,21.7,13.7,21.6,13.3,21.7z M42.1,18.9c-0.4-0.2-0.9-0.1-1.3,0c-1.1,0.3-1.8,1.3-1.8,2.5
		c0,6.5,0,13,0,19.4c0,0.9,0.3,1.6,1.1,2.1c0.6,0.4,1.3,0.6,2.1,0.3c0.1,0,0.2,0,0.2,0c1-0.4,1.5-1.3,1.6-2.2c0-0.4,0-0.8,0-1.3
		c0-6.1,0-12.2,0-18.3c0-0.4,0-0.8-0.2-1.2C43.4,19.6,42.9,19,42.1,18.9z M9.5,27.8c-0.3,0-0.5,0-0.7,0c-0.7,0-1.5,0.6-1.5,1.5
		c0,1.1,0,2.3,0,3.4c0,0.7,0.5,1.3,1.2,1.5c0.4,0.1,0.7,0.1,1.1,0C9.5,32.1,9.5,30,9.5,27.8z M50.5,27.9c0,2.2,0,4.3,0,6.4
		c0.3,0,0.5,0,0.7,0c0.8,0,1.5-0.6,1.5-1.5c0-1.2,0-2.3,0-3.5c0-0.7-0.6-1.4-1.3-1.5C51.1,27.8,50.8,27.9,50.5,27.9z"/>
	<path class="st2" d="M26.8,29.1c0.1,0,0.2,0,0.3,0c3.4,0,6.7,0,10.1,0c0.1,0,0.2,0,0.2,0c0,0,0.1,0.1,0.1,0.1c0,1.5,0,3.1,0,4.6
		c-0.5,0-0.9,0-1.4,0c-0.2-0.6-0.4-0.7-1.1-0.7c-2.6,0-5.2,0-7.8,0c-0.2,0-0.3,0-0.5,0c0-0.4-0.1-0.8-0.1-1.2
		C26.7,30.9,26.7,30,26.8,29.1z"/>
	<path class="st3" d="M42.1,18.9c0.8,0.1,1.3,0.7,1.6,1.4c0.2,0.4,0.2,0.8,0.2,1.2c0,6.1,0,12.2,0,18.3c0,0.4,0,0.8,0,1.3
		c0,0.9-0.6,1.8-1.6,2.2c-0.1,0-0.2,0-0.2,0c-0.1-0.1-0.2-0.3-0.3-0.4c-0.5-0.6-0.7-1.2-0.7-1.9c0-6.5,0-13.1,0-19.6
		c0-0.3,0.1-0.7,0.2-1C41.4,19.7,41.8,19.3,42.1,18.9z"/>
	<path class="st3" d="M19.2,18.9c0.8,0.1,1.5,1,1.7,1.7c0.1,0.3,0.1,0.6,0.1,0.8c0,6.4,0,12.9,0,19.3c0,0.7-0.2,1.3-0.6,1.8
		c-0.3,0.4-0.7,0.7-1.2,0.7c0-0.1-0.1-0.1-0.1-0.2c-0.5-0.6-0.8-1.3-0.8-2c0-6.6,0-13.3,0-19.9c0-0.2,0-0.3,0-0.5
		C18.5,20,18.8,19.4,19.2,18.9z"/>
	<path class="st4" d="M19.2,18.9c-0.4,0.5-0.8,1.1-0.9,1.8c0,0.2,0,0.3,0,0.5c0,6.6,0,13.3,0,19.9c0,0.8,0.3,1.4,0.8,2
		c0,0.1,0.1,0.1,0.1,0.2c-1.1,0.4-2.5-0.3-2.9-1.4c-0.1-0.4-0.2-0.7-0.2-1.1c0-4.6,0-9.1,0-13.7c0-0.1,0-0.2,0-0.3
		c0-0.5-0.2-0.7-0.7-0.8c0-0.6,0-1.1,0-1.7c0.3-0.1,0.6-0.2,0.7-0.5c0-0.1,0-0.3,0-0.4c0-0.7,0-1.4,0-2.1c0-1.1,0.7-2.1,1.8-2.3
		C18.3,18.7,18.8,18.7,19.2,18.9z"/>
	<path class="st4" d="M42.1,18.9c-0.3,0.4-0.6,0.8-0.8,1.4c-0.1,0.3-0.2,0.7-0.2,1c0,6.5,0,13.1,0,19.6c0,0.7,0.2,1.4,0.7,1.9
		c0.1,0.1,0.2,0.3,0.3,0.4c-0.7,0.2-1.4,0.1-2.1-0.3c-0.7-0.5-1.1-1.3-1.1-2.1c0-6.5,0-13,0-19.4c0-1.2,0.7-2.2,1.8-2.5
		C41.2,18.7,41.6,18.7,42.1,18.9z"/>
	<path class="st5" d="M13.3,40.4c-1.2-0.1-2.2-1.2-2.3-2.4c-0.1-0.7-0.1-1.4-0.1-2.2c0-3.7,0-7.4,0-11.1c0-0.8,0.1-1.5,0.6-2.1
		c0.4-0.6,1-0.9,1.7-1C13.3,27.9,13.3,34.2,13.3,40.4z"/>
	<path class="st5" d="M46.7,21.7c1.2,0.1,2.2,1.2,2.3,2.4c0.1,0.7,0.1,1.4,0.1,2.2c0,3.7,0,7.4,0,11.1c0,0.8-0.1,1.5-0.6,2.1
		c-0.4,0.6-1,0.9-1.7,1C46.7,34.2,46.7,27.9,46.7,21.7z"/>
	<path class="st6" d="M13.3,40.4c0-6.2,0-12.5,0-18.7c0.4-0.2,0.8,0,1.3-0.1c0,0.4,0,0.9,0,1.3c0,0.1,0,0.2,0,0.4
		c0,0.5,0.2,0.9,0.7,1c0,0.6,0,1.1,0,1.7c-0.6,0.1-0.6,0.3-0.8,0.8c0,0.1,0,0.2,0,0.4c0,4.2,0,8.5,0,12.8c0,0.2,0,0.3,0,0.5
		C14.1,40.4,13.7,40.6,13.3,40.4z"/>
	<path class="st6" d="M46.7,21.7c0,6.2,0,12.5,0,18.7c-0.4,0.2-0.8,0-1.3,0.1c0-6.3,0-12.5,0-18.8C45.9,21.7,46.3,21.6,46.7,21.7z"
		/>
	<path class="st7" d="M26.8,29.1c-0.1,0.9-0.1,1.9-0.1,2.8c0,0.4,0.2,0.8,0.1,1.2c-1.4,0-2.9,0-4.3,0c0-1.3,0-2.6,0-3.9
		c0,0,0,0,0.1,0C24,29.1,25.4,29,26.8,29.1z"/>
	<path class="st8" d="M9.5,27.8c0,2.2,0,4.3,0,6.4c-0.4,0-0.7,0.1-1.1,0c-0.7-0.2-1.1-0.8-1.2-1.5c0-1.1,0-2.3,0-3.4
		c0-1,0.8-1.5,1.5-1.5C9,27.8,9.2,27.8,9.5,27.8z"/>
	<path class="st8" d="M50.5,27.9c0.3,0,0.6,0,1,0c0.7,0.1,1.3,0.7,1.3,1.5c0,1.2,0,2.3,0,3.5c0,0.8-0.7,1.5-1.5,1.5
		c-0.2,0-0.5,0-0.7,0C50.5,32.1,50.5,30,50.5,27.9z"/>
</g>
</svg>
