<?xml version="1.0" encoding="utf-8"?>
<!-- Generator: Adobe Illustrator 27.0.0, SVG Export Plug-In . SVG Version: 6.00 Build 0)  -->
<svg version="1.1" id="Capa_1" xmlns="http://www.w3.org/2000/svg" xmlns:xlink="http://www.w3.org/1999/xlink" x="0px" y="0px"
	 viewBox="0 0 60 60" style="enable-background:new 0 0 60 60;" xml:space="preserve">
<style type="text/css">
	.st0{fill:#885EA4;}
</style>
<path class="st0" d="M53.3,23.6c0.1,2.8-0.5,5.5-1.5,8.1c-0.8,2.1-1.9,4-3.2,5.8c-1.4,2-2.9,3.9-4.3,5.9c-2.9,4-5.8,8-8.8,12.1
	c-0.6,0.8-1.1,1.7-1.7,2.5c-1.8,2.3-4.9,2.3-6.6-0.1c-3.3-4.5-6.5-9-9.7-13.6c-1.8-2.5-3.5-5-5.3-7.5C9.1,32.4,7.7,27.4,8.1,22
	c0.3-4.9,2.2-9.3,5.4-13.1c3.9-4.7,8.9-7.3,14.8-8c7.5-0.8,13.9,1.6,19,7.1c3.2,3.5,5.2,7.6,5.8,12.4c0.1,0.5,0.1,1.1,0.2,1.6
	C53.3,22.6,53.3,23.1,53.3,23.6L53.3,23.6z M30.7,34.3c5.6,0,10.3-5.1,10.2-10.3c-0.1-5.8-4.5-10.3-10.2-10.3
	c-5.7,0-10.1,4.5-10.2,10.2C20.4,29.2,25.1,34.3,30.7,34.3L30.7,34.3z"/>
</svg>
