<?xml version="1.0" encoding="utf-8"?>
<!-- Generator: Adobe Illustrator 27.0.0, SVG Export Plug-In . SVG Version: 6.00 Build 0)  -->
<svg version="1.1" id="Capa_1" xmlns="http://www.w3.org/2000/svg" xmlns:xlink="http://www.w3.org/1999/xlink" x="0px" y="0px"
	 viewBox="0 0 60 60" style="enable-background:new 0 0 60 60;" xml:space="preserve">
<style type="text/css">
	.st0{fill:#CDD2DA;}
	.st1{fill:#D84755;}
	.st2{fill:#030405;}
	.st3{fill:#E6E9ED;}
	.st4{fill:#F5F6F8;}
	.st5{fill:#EA5867;}
</style>
<g id="Capa_2_00000144329821250015292530000013521478993750783379_">
	<rect x="11.3" y="11.1" class="st0" width="40" height="37.2"/>
	<path class="st0" d="M29.8,0.5c16.1,0,29.5,13,29.5,29.5c0,16.3-13.1,29.5-29.5,29.5c-16.5,0-29.6-13.4-29.5-29.6
		C0.3,13.7,13.6,0.5,29.8,0.5z M43.2,25.4c0-0.2,0-0.4,0-0.5c0-1.1-0.5-1.5-1.5-1.5c-8.8,0-17.7,0-26.5,0c-1,0-1.5,0.5-1.5,1.5
		c0,1.7,0,3.4,0,5c0,4.8,1.9,8.7,5.6,11.7c0.2,0.1,0.4,0.2,0.4,0.5c-1.4,0-2.8,0-4.2,0c-1.1,0-1.7,0.4-1.8,1.3
		c0,0.9,0.6,1.4,1.8,1.4c8.7,0,17.3,0,26,0c0.2,0,0.3,0,0.5,0c0.7-0.1,1.2-0.6,1.3-1.2c0-0.7-0.4-1.3-1.1-1.4c-0.3,0-0.6,0-0.8,0
		c-1.4,0-2.7,0-4.3,0c2.5-1.8,4.2-4,5.3-6.7c1.3,0,2.6,0,3.9,0c2.2-0.1,4.2-1.5,4.9-3.7c0.7-2.1,0-4.5-1.7-5.8
		C47.5,24.4,45.5,24.3,43.2,25.4z M29.8,16.6c0-1.3,0-2.5,0-3.8c0-1-0.7-1.6-1.3-1.6c-0.7,0-1.4,0.7-1.4,1.6c0,2.5,0,5.1,0,7.6
		c0,1,0.5,1.6,1.3,1.6c0.9,0,1.4-0.6,1.4-1.6C29.8,19.1,29.8,17.8,29.8,16.6z M20.4,18.6c0,0.6,0,1.3,0,1.9c0,0.9,0.6,1.5,1.4,1.4
		c0.8,0,1.3-0.6,1.3-1.4c0-1.3,0-2.6,0-3.8c0-0.9-0.6-1.5-1.4-1.5c-0.8,0-1.3,0.6-1.3,1.4C20.4,17.3,20.4,18,20.4,18.6z M33.8,18.6
		c0,0.7,0,1.3,0,2c0,0.8,0.5,1.3,1.3,1.3c0.8,0,1.4-0.5,1.4-1.3c0-1.3,0-2.7,0-4c0-0.8-0.6-1.4-1.4-1.4c-0.7,0-1.3,0.6-1.3,1.4
		C33.8,17.3,33.8,18,33.8,18.6z"/>
	<path class="st1" d="M16.6,26c0,0-0.1,0.1-0.1,0.1C16.4,26.1,16.5,26,16.6,26z"/>
</g>
<g id="Capa_1_00000177449218348014293350000006867521000003348882_">
	<path class="st2" d="M15.6,12.6c0-0.8,0-1.6,0-2.3c0-0.8,0.4-1.2,1.2-1.2c3.3,0,6.6,0,9.9,0c1.3,0,2.3,0.6,3.2,1.5
		c0.2,0,0.3-0.2,0.5-0.3c0.9-0.8,2-1.2,3.2-1.2c3.1,0,6.3,0,9.4,0c1,0,1.4,0.4,1.4,1.3c0,0.7,0,1.4,0,2.3c0.8,0,1.5,0,2.3,0
		c0.9,0,1.3,0.4,1.3,1.3c0,7.9,0,15.8,0,23.7c0,1-0.4,1.4-1.4,1.4c-11.1,0-22.1,0-33.2,0c-1,0-1.4-0.4-1.4-1.5c0-7.9,0-15.7,0-23.6
		c0-1,0.4-1.4,1.4-1.4c0.6,0,1.3,0,1.9,0C15.4,12.7,15.5,12.7,15.6,12.6z M31.2,33.6c3.6-1,7.2-0.2,10.8-0.6c0-7.2,0-14.3,0-21.5
		c-2.7,0-5.4,0-8,0c-1.8,0-2.7,1-2.7,2.7c0,5.5,0,11.1,0,16.6C31.2,31.8,31.2,32.7,31.2,33.6z M28.8,33.7c0-0.1,0-0.2,0-0.3
		c0-6.5,0-13,0-19.5c0-1.4-1.1-2.4-2.5-2.5c-2.3,0-4.7,0-7.1,0c-0.4,0-0.8,0-1.2,0c0,7.2,0,14.4,0,21.6c2.4,0,4.8,0,7.2,0
		C26.5,33.1,27.7,33.1,28.8,33.7z M14.5,15.1c0,7.2,0,14.4,0,21.5c4.7,0,9.3,0,14,0c-0.6-0.8-1.3-1.2-2.2-1.2c-3.1,0-6.1,0-9.2,0
		c-1.1,0-1.5-0.4-1.5-1.5c0-6,0-12.1,0-18.1c0-0.3,0.1-0.5-0.1-0.8C15.2,15.1,14.9,15.1,14.5,15.1z M31.6,36.7c4.7,0,9.3,0,14,0
		c0-7.2,0-14.4,0-21.6c-0.4,0-0.7-0.1-1.1,0c0,0.3,0,0.5,0,0.8c0,6,0,12.1,0,18.1c0,1.1-0.4,1.5-1.5,1.5c-3.1,0-6.1,0-9.2,0
		C32.9,35.5,32.2,35.8,31.6,36.7z"/>
	<path class="st2" d="M30,48.7c-5.5,0-10.9,0-16.4,0c-1.2,0-1.6-0.4-1.6-1.6c0-1,0-2,0-3c0-1,0.4-1.4,1.4-1.4c11.1,0,22.2,0,33.3,0
		c0.9,0,1.3,0.5,1.3,1.3c0,1.1,0,2.1,0,3.2c0,1-0.4,1.4-1.5,1.4C41.1,48.7,35.5,48.7,30,48.7z M28.8,46.3c-0.6-0.9-1.3-1.2-2.3-1.2
		c-3.7,0.1-7.4,0-11.2,0c-0.3,0-0.5-0.1-0.8,0.1c0,0.4,0,0.7,0,1.1C19.2,46.3,24,46.3,28.8,46.3z M45.6,45.2c-4.8,0-9.5,0-14.4,0
		c0.6,0.7,1.2,1.2,2.2,1.2c3.8-0.1,7.6,0,11.4,0c0.2,0,0.5,0.1,0.8-0.1C45.6,45.9,45.6,45.6,45.6,45.2z"/>
	<path class="st3" d="M31.2,33.6c0-0.9,0-1.8,0-2.7c0-5.5,0-11.1,0-16.6c0-1.8,1-2.7,2.7-2.7c2.7,0,5.3,0,8,0c0,7.2,0,14.4,0,21.5
		C38.4,33.4,34.8,32.6,31.2,33.6z"/>
	<path class="st4" d="M28.8,33.7c-1.1-0.7-2.3-0.6-3.5-0.6c-2.4,0-4.8,0-7.2,0c0-7.2,0-14.4,0-21.6c0.4,0,0.8,0,1.2,0
		c2.3,0,4.7,0,7.1,0c1.4,0,2.5,1,2.5,2.5c0,6.5,0,13,0,19.5C28.8,33.5,28.8,33.6,28.8,33.7z"/>
	<path class="st5" d="M14.5,15.1c0.4,0,0.7,0,1.1,0c0.1,0.3,0.1,0.6,0.1,0.8c0,6,0,12.1,0,18.1c0,1.1,0.4,1.5,1.5,1.5
		c3.1,0,6.1,0,9.2,0c0.9,0,1.6,0.3,2.2,1.2c-4.7,0-9.3,0-14,0C14.5,29.5,14.5,22.4,14.5,15.1z"/>
	<path class="st5" d="M31.6,36.7c0.5-0.8,1.3-1.1,2.2-1.2c3.1,0,6.1,0,9.2,0c1.1,0,1.5-0.4,1.5-1.5c0-6,0-12.1,0-18.1
		c0-0.3,0-0.5,0-0.8c0.4-0.1,0.8-0.1,1.1,0c0,7.2,0,14.3,0,21.6C41,36.7,36.4,36.7,31.6,36.7z"/>
	<path class="st5" d="M28.8,46.3c-4.8,0-9.5,0-14.3,0c0-0.4,0-0.7,0-1.1c0.3-0.1,0.6-0.1,0.8-0.1c3.7,0,7.4,0,11.2,0
		C27.5,45.1,28.2,45.4,28.8,46.3z"/>
	<path class="st3" d="M45.6,45.2c0,0.4,0,0.7,0,1.1c-0.3,0.1-0.5,0.1-0.8,0.1c-3.8,0-7.6,0-11.4,0c-1.1,0-1.6-0.4-2.2-1.2
		C36.1,45.2,40.9,45.2,45.6,45.2z"/>
</g>
</svg>
