<?xml version="1.0" encoding="utf-8"?>
<!-- Generator: Adobe Illustrator 27.0.0, SVG Export Plug-In . SVG Version: 6.00 Build 0)  -->
<svg version="1.1" id="Capa_1" xmlns="http://www.w3.org/2000/svg" xmlns:xlink="http://www.w3.org/1999/xlink" x="0px" y="0px"
	 viewBox="0 0 60 60" style="enable-background:new 0 0 60 60;" xml:space="preserve">
<style type="text/css">
	.st0{fill:#090909;}
	.st1{fill:#EAEAF4;}
	.st2{fill:#F2916E;}
	.st3{fill:#F5A381;}
	.st4{fill:#F3F4F9;}
	.st5{fill:#D1D0E6;}
	.st6{fill:#F3F3F8;}
	.st7{fill:#E9EAF3;}
	.st8{fill:#D0CEE4;}
	.st9{fill:#101011;}
	.st10{fill:#0F0F10;}
	.st11{fill:#0C0E0E;}
</style>
<g>
	<path class="st0" d="M29.4,59.2c-1.6-0.4-2.7-1.6-3.8-2.7c-3.7-3.7-7.4-7.4-11.1-11.2c-3-3.1-4.8-6.7-5.4-11
		c-1.3-8.6,1.6-15.6,8.4-20.9c0,0,0.1-0.1,0.2-0.1c0-1.9,0.3-3.7,1.1-5.4C19,7.1,19.5,6.4,20,5.7c0.3-0.5,0.8-0.7,1.3-0.4
		c0.5,0.6,0.5,0.8,0,1.5c-4,5.8-1.8,13.7,4.7,16.4c1.6,0.7,3.3,1,5,0.8c0.4,0,0.8,0,1.1-0.1c7.1-1.3,11.1-9,7.9-15.5
		c-1.8-3.6-4.7-5.7-8.8-6.1c-0.2,0-0.4-0.1-0.6-0.1c-2.5-0.1-4.8,0.6-6.8,2c-0.6,0.5-0.9,0.4-1.5,0c-0.2-0.5-0.1-0.9,0.4-1.3
		c7.2-5.4,18-1.3,19.8,7.5c0.2,1,0.3,2,0.3,3c1.7,1.3,3.2,2.7,4.4,4.4c2.3,3.1,3.8,6.5,4.2,10.3c0.8,7.2-1.4,13.2-6.5,18.3
		c-3.7,3.7-7.4,7.4-11.2,11.2c-0.8,0.8-1.8,1.4-2.9,1.7C30.5,59.2,29.9,59.2,29.4,59.2z M40,27.2c-0.8,0.2-1,0.1-1.4-0.6
		c-0.5-0.9-1.1-1.8-1.7-2.7c-0.3,0.2-0.5,0.3-0.7,0.4c0.9,2.2,1.4,4.4,1.5,6.7c0,0.9-0.1,1.1-0.9,1.3c-0.6,0.2-1.1,0.5-1.5,1
		c-0.6,0.7-0.4,1.4,0.5,1.7c0.6,0.2,1.3,0.2,2,0.1c1.7-0.2,2.8-1.3,3-2.9c0.1-0.8-0.1-1.6-0.4-2.3c-0.2-0.6-0.1-1,0.4-1.3
		c0.8,0,1,0.1,1.3,0.8c0.6,1.7,0.7,3.3-0.1,4.9c0.2,0.2,0.3,0.3,0.5,0.5c0.8,0.9,1.2,1.9,1,3.1c-0.3,2-1.8,3.2-3.8,3.2
		c-4.4,0-8.7,0-13.1,0c-1.8,0-3.6,0-5.3,0c-2.2,0-3.9-2.1-3.5-4.3c0.2-1,0.7-1.8,1.4-2.4c-0.6-1.1-0.7-2.3-0.5-3.5
		c0.2-1.3,0.7-2.4,1.2-3.6c0.8-1.6,1.7-3,2.7-4.5c-2.3-2-3.8-4.4-4.4-7.4c-0.1,0.1-0.2,0.1-0.2,0.2c-5.3,4.6-7.6,10.4-6.9,17.4
		c0.4,4.2,2,7.8,4.9,10.9c2.1,2.3,4.3,4.4,6.5,6.6c2,2,3.9,4,5.9,5.9c1.3,1.3,3.1,1.4,4.4,0.2c1.5-1.4,2.8-2.8,4.2-4.2
		c0.1,0,0.1-0.1,0.2-0.1c2.5-2.5,5.1-5,7.5-7.6c3.4-3.4,5.3-7.5,5.7-12.3c0.4-5.3-1-10.1-4.4-14.2c-0.8-1-1.7-2-2.9-2.8
		c-0.3,1.5-0.8,2.9-1.6,4.1c-0.8,1.3-1.7,2.4-2.8,3.3c0.6,1,1.2,1.9,1.8,2.8C40.5,26.4,40.5,26.6,40,27.2z M24.7,30.8
		c1.4,0.6,2.4,1.4,2.8,2.9c1.9,0,3.8,0,5.7,0c0.4-1.5,1.4-2.3,2.7-2.9c0-1.7-0.7-4.6-1.3-5.7c-4.1,0.9-4,1-8.5,0
		C25.2,26.9,24.8,28.8,24.7,30.8z M27.1,35.5c-1.3,2-5.1,1.9-7.2,0.4c-0.8,0.6-1.1,1.4-0.8,2.3c0.2,0.8,1,1.4,2,1.4c3,0,6,0,9.1,0
		c1.2,0,2.1-0.8,2.1-2c0-1.1-0.8-2-2-2C29.2,35.4,28.1,35.5,27.1,35.5z M23.7,23.9c-0.2,0.4-0.5,0.7-0.7,1c-1.2,1.8-2.3,3.7-2.8,5.8
		c-0.3,1.4-0.3,2.7,0.9,3.6c1.2,0.9,2.5,1.1,3.9,0.6c0.8-0.2,1-1,0.5-1.7c-0.4-0.5-1-0.8-1.6-1c-0.6-0.2-0.8-0.5-0.9-1.1
		c0-0.7,0.1-1.5,0.2-2.2c0.2-1.6,0.7-3.2,1.3-4.7C24.1,24.2,23.9,24.1,23.7,23.9z M33.4,39.5c2,0,4,0,5.9,0c0.1,0,0.3,0,0.4,0
		c0.8-0.1,1.5-0.7,1.7-1.5c0.2-0.9-0.1-1.6-0.9-2.1c-2.2,1.5-4.7,1.6-6.9,0.1C34.1,37.1,34.1,38.3,33.4,39.5z"/>
	<path class="st1" d="M22.5,4.1c0.6,0.5,0.8,0.5,1.5,0c2.1-1.4,4.3-2.1,6.8-2c0.2,0,0.4,0.1,0.6,0.1c-2.6,1.2-4.6,3-5.9,5.6
		c-0.3,0.6-0.7,1.2-0.7,1.9c-0.1,0-0.2,0.1-0.2,0.1c-0.4,0.4-0.8,0.5-1.3,0c-0.3-0.3-0.8-0.2-1.1,0.2c-0.3,0.3-0.3,0.7,0,1.1
		c0.6,0.7,1.3,0.9,2.2,0.8c-0.1,0.2-0.1,0.4-0.1,0.6c0,0.9,0,1.8,0.2,2.7c0.6,3.5,2.6,6.1,5.6,8c0.4,0.2,0.8,0.3,1.1,0.7
		c-1.7,0.2-3.4-0.1-5-0.8c-6.5-2.7-8.8-10.7-4.7-16.4c0.5-0.7,0.5-0.9,0-1.5C21.7,4.9,22.1,4.5,22.5,4.1z"/>
	<path class="st2" d="M36.6,52.4c-1.4,1.4-2.8,2.9-4.2,4.2c-1.3,1.2-3.1,1.1-4.4-0.2c-2-2-4-3.9-5.9-5.9c-2.2-2.2-4.4-4.3-6.5-6.6
		c-2.8-3.1-4.5-6.7-4.9-10.9c-0.7-7,1.6-12.8,6.9-17.4c0.1,0,0.1-0.1,0.2-0.2c0.6,3,2.1,5.5,4.4,7.4c-1,1.5-1.9,2.9-2.7,4.5
		c-0.5,1.1-1,2.3-1.2,3.6c-0.2,1.2-0.1,2.4,0.5,3.5c-0.8,0.7-1.3,1.4-1.4,2.4c-0.4,2.2,1.3,4.3,3.5,4.3c1.8,0,3.6,0,5.3,0
		c0.6,1.2,1.4,2.3,2.3,3.3c2.5,2.6,5,5.1,7.6,7.6C36.3,52.2,36.4,52.3,36.6,52.4z"/>
	<path class="st3" d="M36.6,52.4c-0.1-0.1-0.3-0.2-0.4-0.4c-2.5-2.5-5.1-5-7.6-7.6c-0.9-1-1.8-2-2.3-3.3c4.4,0,8.7,0,13.1,0
		c2,0,3.5-1.2,3.8-3.2c0.2-1.2-0.2-2.2-1-3.1c-0.1-0.2-0.3-0.3-0.5-0.5c0.8-1.6,0.7-3.2,0.1-4.9c-0.2-0.8-0.4-0.9-1.3-0.8
		c-0.2-0.5-0.4-1-0.6-1.5c0.5-0.6,0.5-0.8,0.1-1.5c-0.6-0.9-1.2-1.8-1.8-2.8c1.1-0.9,2.1-2,2.8-3.3c0.8-1.3,1.3-2.6,1.6-4.1
		c1.1,0.8,2,1.8,2.9,2.8c3.4,4.2,4.8,8.9,4.4,14.2c-0.4,4.8-2.3,8.9-5.7,12.3c-2.5,2.5-5,5-7.5,7.6C36.7,52.4,36.6,52.4,36.6,52.4z"
		/>
	<path class="st4" d="M24.8,9.7c0-0.7,0.4-1.3,0.7-1.9c1.3-2.6,3.3-4.4,5.9-5.6c4.1,0.4,7,2.5,8.8,6.1c3.2,6.5-0.8,14.2-7.9,15.5
		c-0.4,0.1-0.8,0.1-1.1,0.1c-0.3-0.4-0.8-0.5-1.1-0.7c-3-1.9-4.9-4.5-5.6-8c-0.2-0.9-0.2-1.8-0.2-2.7c0-0.2,0-0.4,0.1-0.6
		c0.3-0.1,0.6-0.2,0.9-0.4c0.4-0.3,0.7-0.6,0.5-1.1C25.6,9.9,25.2,9.8,24.8,9.7z M30.2,13.1c0.9,0,1.6-0.3,2.2-0.9
		c0.4-0.4,0.4-0.9,0-1.3c-0.3-0.3-0.8-0.3-1.2,0c-0.8,0.6-1.2,0.6-2,0c-0.5-0.4-0.9-0.4-1.3,0c-0.4,0.4-0.3,0.9,0.1,1.3
		C28.7,12.8,29.4,13.1,30.2,13.1z M36.7,12c0.7,0,1.2-0.2,1.7-0.8c0.3-0.4,0.3-0.8,0-1.1c-0.3-0.4-0.8-0.4-1.2-0.1
		c-0.4,0.3-0.7,0.3-1.1,0C35.8,9.6,35.4,9.7,35,10c-0.3,0.3-0.3,0.8,0,1.2C35.5,11.7,36.1,12,36.7,12z"/>
	<path class="st5" d="M24.7,30.8c0.1-2,0.6-3.9,1.3-5.7c4.5,1,4.4,0.9,8.5,0c0.7,1.1,1.3,4,1.3,5.7c-1.3,0.6-2.4,1.4-2.7,2.9
		c-1.9,0-3.8,0-5.7,0C27.1,32.2,26,31.4,24.7,30.8z"/>
	<path class="st6" d="M27.1,35.5c1,0,2.1,0,3.1,0c1.2,0,2,0.9,2,2c0,1.1-0.9,2-2.1,2c-3,0-6,0-9.1,0c-0.9,0-1.7-0.6-2-1.4
		c-0.3-0.9,0-1.7,0.8-2.3C22,37.4,25.8,37.5,27.1,35.5z"/>
	<path class="st7" d="M40,27.2c0.2,0.5,0.4,1,0.6,1.5C40.1,29,40,29.4,40.2,30c0.2,0.7,0.5,1.5,0.4,2.3c-0.2,1.6-1.3,2.7-3,2.9
		c-0.7,0.1-1.3,0.1-2-0.1c-0.8-0.3-1.1-1-0.5-1.7c0.4-0.5,0.9-0.8,1.5-1c0.8-0.3,1-0.5,0.9-1.3c0-2.3-0.6-4.5-1.5-6.7
		c0.2-0.1,0.5-0.3,0.7-0.4c0.6,0.9,1.2,1.8,1.7,2.7C39,27.3,39.2,27.3,40,27.2z"/>
	<path class="st7" d="M23.7,23.9c0.3,0.2,0.5,0.3,0.7,0.4c-0.6,1.5-1.1,3.1-1.3,4.7c-0.1,0.7-0.2,1.4-0.2,2.2c0,0.6,0.3,1,0.9,1.1
		c0.6,0.2,1.2,0.5,1.6,1c0.5,0.7,0.4,1.4-0.5,1.7c-1.4,0.4-2.7,0.3-3.9-0.6c-1.2-0.9-1.3-2.2-0.9-3.6c0.5-2.1,1.6-4,2.8-5.8
		C23.2,24.6,23.4,24.3,23.7,23.9z"/>
	<path class="st8" d="M33.4,39.5c0.6-1.2,0.7-2.3,0.2-3.6c2.2,1.5,4.6,1.5,6.9-0.1c0.8,0.5,1.1,1.3,0.9,2.1
		c-0.2,0.8-0.8,1.4-1.7,1.5c-0.1,0-0.3,0-0.4,0C37.4,39.5,35.5,39.5,33.4,39.5z"/>
	<path class="st9" d="M24.8,9.7c0.4,0,0.8,0.2,0.9,0.7c0.1,0.5-0.2,0.8-0.5,1.1c-0.3,0.2-0.6,0.3-0.9,0.4c-0.9,0.1-1.6-0.1-2.2-0.8
		c-0.3-0.4-0.3-0.7,0-1.1s0.7-0.5,1.1-0.2c0.5,0.4,0.9,0.4,1.3,0C24.6,9.8,24.7,9.8,24.8,9.7z"/>
	<path class="st10" d="M30.2,13.1c-0.8,0-1.5-0.3-2.1-0.9c-0.4-0.4-0.5-0.9-0.1-1.3c0.3-0.4,0.8-0.4,1.3,0c0.7,0.6,1.2,0.6,2,0
		c0.4-0.4,0.9-0.4,1.2,0c0.4,0.4,0.4,0.9,0,1.3C31.9,12.8,31.1,13.1,30.2,13.1z"/>
	<path class="st11" d="M36.7,12c-0.7,0-1.2-0.2-1.7-0.7c-0.3-0.4-0.4-0.9,0-1.2c0.4-0.4,0.8-0.4,1.2-0.1c0.4,0.3,0.7,0.3,1.1,0
		c0.4-0.3,0.9-0.3,1.2,0.1c0.3,0.4,0.3,0.8,0,1.1C38,11.7,37.4,11.9,36.7,12z"/>
</g>
</svg>
