<?xml version="1.0" encoding="utf-8"?>
<!-- Generator: Adobe Illustrator 27.0.0, SVG Export Plug-In . SVG Version: 6.00 Build 0)  -->
<svg version="1.1" id="Capa_1" xmlns="http://www.w3.org/2000/svg" xmlns:xlink="http://www.w3.org/1999/xlink" x="0px" y="0px"
	 viewBox="0 0 60 60" style="enable-background:new 0 0 60 60;" xml:space="preserve">
<style type="text/css">
	.st0{fill:#47A2DB;}
	.st1{fill:#020203;}
</style>
<path class="st0" d="M53.3,23.6c0.1,2.8-0.5,5.5-1.5,8.1c-0.8,2.1-1.9,4-3.2,5.8c-1.4,2-2.9,3.9-4.3,5.9c-2.9,4-5.8,8-8.8,12.1
	c-0.6,0.8-1.1,1.7-1.7,2.5c-1.8,2.3-4.9,2.3-6.6-0.1c-3.3-4.5-6.5-9-9.7-13.6c-1.8-2.5-3.5-5-5.3-7.5C9.1,32.4,7.7,27.4,8.1,22
	c0.3-4.9,2.2-9.3,5.4-13.1c3.9-4.7,8.9-7.3,14.8-8c7.5-0.8,13.9,1.6,19,7.1c3.2,3.5,5.2,7.6,5.8,12.4c0.1,0.5,0.1,1.1,0.2,1.6
	C53.3,22.6,53.3,23.1,53.3,23.6L53.3,23.6z M30.7,34.3c5.6,0,10.3-5.1,10.2-10.3c-0.1-5.8-4.5-10.3-10.2-10.3
	c-5.7,0-10.1,4.5-10.2,10.2C20.4,29.2,25.1,34.3,30.7,34.3L30.7,34.3z"/>
<rect x="17.5" y="13.7" class="st0" width="27" height="21.3"/>
<path class="st1" d="M30.5,29.7c0,0.2,0,0.4,0,0.5c0,2.3,0,4.6,0,6.9c0,1.6-1,2.6-2.6,2.6c-1,0-2,0-3,0c-1.6,0-2.6-1-2.6-2.6
	c0-8.4,0-16.7,0-25.1c0-1.4,0.8-2.4,2.2-2.6C27,9.1,29.6,8.9,32.2,9c2.4,0.1,4.6,0.6,6.6,2c2.4,1.6,3.7,3.9,4,6.8
	c0.2,2.1,0,4.2-1,6.1c-1.3,2.6-3.5,4.2-6.3,5.1c-1.5,0.5-3,0.7-4.5,0.7C30.9,29.7,30.7,29.7,30.5,29.7z M24.1,24.6
	c0,4.1,0,8.3,0,12.4c0,0.7,0.2,0.9,0.9,0.9c0.9,0,1.8,0,2.8,0c0.7,0,0.9-0.2,0.9-0.9c0-2.6,0-5.2,0-7.8c0-1.1,0.3-1.4,1.4-1.4
	c1.4,0,2.9-0.1,4.3-0.4c1.8-0.5,3.5-1.3,4.8-2.7c1.8-2,2.3-4.3,2-6.8c-0.3-2.6-1.6-4.6-4-5.9c-1.2-0.7-2.6-1-4-1.1
	c-2.8-0.2-5.5-0.1-8.2,0.4c-0.7,0.1-0.8,0.2-0.8,0.9C24.1,16.3,24.1,20.4,24.1,24.6z"/>
<path class="st1" d="M28.6,19.3c0-1.2,0-2.3,0-3.5c0-0.7,0.3-1.1,1-1.1c1.3-0.1,2.7-0.1,4,0.3c2.2,0.7,3.1,2.4,3,4.5
	c-0.2,2.5-1.7,4-4.1,4.3c-0.9,0.1-1.9,0.1-2.8,0.1c-0.7,0-1-0.4-1-1.1C28.6,21.6,28.6,20.5,28.6,19.3z M30.5,22.1c1,0,2-0.1,2.9-0.5
	c0.7-0.3,1.2-0.9,1.3-1.7c0.1-0.5,0.1-1,0.1-1.4c-0.1-0.7-0.4-1.2-1.1-1.5c-1-0.5-2-0.5-3.1-0.4C30.5,18.4,30.5,20.2,30.5,22.1z"/>
</svg>
