<?xml version="1.0" encoding="utf-8"?>
<!-- Generator: Adobe Illustrator 27.0.0, SVG Export Plug-In . SVG Version: 6.00 Build 0)  -->
<svg version="1.1" id="Capa_1" xmlns="http://www.w3.org/2000/svg" xmlns:xlink="http://www.w3.org/1999/xlink" x="0px" y="0px"
	 viewBox="0 0 60 60" style="enable-background:new 0 0 60 60;" xml:space="preserve">
<style type="text/css">
	.st0{fill:#CDD2DA;}
	.st1{fill:#0D0C0D;}
	.st2{fill:#F0F5F9;}
	.st3{fill:#93D3F0;}
	.st4{fill:#ACDDF2;}
	.st5{fill:#F29597;}
	.st6{fill:#EF7D83;}
	.st7{fill:#DADFE9;}
	.st8{fill:#CDD3DC;}
	.st9{fill:#060A0B;}
	.st10{fill:#F3A1AE;}
	.st11{fill:#040607;}
	.st12{fill:#4A5661;}
	.st13{fill:#8FCEE9;}
	.st14{fill:#A8D7EB;}
</style>
<g id="Capa_4">
	<rect x="11.7" y="11.1" class="st0" width="40" height="37.2"/>
	<path class="st0" d="M30.2,0.5c16.1,0,29.5,13,29.5,29.5c0,16.3-13.1,29.5-29.5,29.5c-16.5,0-29.6-13.4-29.5-29.6
		C0.7,13.7,14,0.5,30.2,0.5z M43.6,25.4c0-0.2,0-0.4,0-0.5c0-1.1-0.5-1.5-1.5-1.5c-8.8,0-17.7,0-26.5,0c-1,0-1.5,0.5-1.5,1.5
		c0,1.7,0,3.4,0,5c0,4.8,1.9,8.7,5.6,11.7c0.2,0.1,0.4,0.2,0.4,0.5c-1.4,0-2.8,0-4.2,0c-1.1,0-1.7,0.4-1.8,1.3
		c0,0.9,0.6,1.4,1.8,1.4c8.7,0,17.3,0,26,0c0.2,0,0.3,0,0.5,0c0.7-0.1,1.2-0.6,1.3-1.2c0-0.7-0.4-1.3-1.1-1.4c-0.3,0-0.6,0-0.8,0
		c-1.4,0-2.7,0-4.3,0c2.5-1.8,4.2-4,5.3-6.7c1.3,0,2.6,0,3.9,0c2.2-0.1,4.2-1.5,4.9-3.7c0.7-2.1,0-4.5-1.7-5.8
		C47.8,24.4,45.8,24.3,43.6,25.4z M30.2,16.6c0-1.3,0-2.5,0-3.8c0-1-0.7-1.6-1.3-1.6c-0.7,0-1.4,0.7-1.4,1.6c0,2.5,0,5.1,0,7.6
		c0,1,0.5,1.6,1.3,1.6c0.9,0,1.4-0.6,1.4-1.6C30.2,19.1,30.2,17.8,30.2,16.6z M20.8,18.6c0,0.6,0,1.3,0,1.9c0,0.9,0.6,1.5,1.4,1.4
		c0.8,0,1.3-0.6,1.3-1.4c0-1.3,0-2.6,0-3.8c0-0.9-0.6-1.5-1.4-1.5c-0.8,0-1.3,0.6-1.3,1.4C20.8,17.3,20.8,18,20.8,18.6z M34.2,18.6
		c0,0.7,0,1.3,0,2c0,0.8,0.5,1.3,1.3,1.3c0.8,0,1.4-0.5,1.4-1.3c0-1.3,0-2.7,0-4c0-0.8-0.6-1.4-1.4-1.4c-0.7,0-1.3,0.6-1.3,1.4
		C34.2,17.3,34.2,18,34.2,18.6z"/>
	<path class="st1" d="M46.3,48.9c-5,0-10,0-15,0c-0.6-0.3-1.3-0.5-1.7-1.1c-0.2,0.1-0.2,0.2-0.3,0.3c-0.4,0.4-0.8,0.6-1.2,0.7
		c-0.1,0-0.3,0-0.4,0.1c-5,0-10,0-15,0c-0.1-0.1-0.2-0.1-0.3-0.1c-1.8-0.5-3.1-2.2-3.1-4.1c0-5.8,0-11.7,0-17.5
		c0-1.3,0.5-2.3,1.5-3.2c0.4-0.4,1-0.6,1.5-0.8c0.1-1.6,0.9-2.6,2.5-3c0-0.4-0.1-0.8-0.1-1.1c0-1.7,0-3.5,0-5.2c0-0.5,0-1,0.1-1.4
		c0.5-2.4,2.7-4.2,5.1-4.2c6.4,0,12.9,0,19.3,0c0.4,0,0.7,0,1.1,0.1c2.5,0.6,4.2,2.7,4.2,5.3c0,1.9,0,3.8,0,5.6c0,0.3-0.1,0.6,0,0.9
		c1.6,0.4,2.3,1.4,2.5,3c0.1,0,0.1,0.1,0.2,0.1c1.4,0.5,2.3,1.5,2.7,2.9c0,0.1,0,0.3,0.1,0.4c0,4.7,0,9.3,0,14
		c-0.2,0.1-0.3,0.4-0.6,0.3c-0.5-0.1-0.6-0.3-0.6-0.8c0-1.7,0-3.3,0-5c0-2.6,0-5.3,0-7.9c0-1.2-0.5-2.1-1.5-2.6
		c-0.1,0-0.2-0.1-0.3-0.1c0,0.2,0,0.3,0,0.5c0,5.7,0,11.4,0,17.2c0,0.1,0,0.3,0,0.4c0,1.7-1.5,2.8-3.1,2.4c-1.3-0.3-2.7-0.5-4.1-0.6
		c-2.8-0.2-5.6,0.1-8.3,0.7c-0.4,0.1-0.8,0.2-1.2,0.2c0,0.2,0,0.4,0,0.5c0,1.1,0.8,1.8,1.9,1.8c4.5,0,9.1,0,13.6,0
		c1.7,0,3-1.3,3.1-3.1c0-0.5,0-1,0-1.5c0-0.4,0.1-0.6,0.6-0.7c0.3,0,0.4,0.2,0.6,0.3c0,0.9,0,1.9,0,2.8c-0.1,0.1-0.1,0.2-0.1,0.3
		c-0.5,1.6-1.5,2.5-3,3C46.6,48.9,46.4,48.8,46.3,48.9z M33.5,23.7c0.6-0.2,1.2-0.2,1.8-0.2c1.2,0,2.3,0,3.5,0c0.3,0,0.7,0,1-0.1
		c1.8-0.3,3.3-1.9,3.4-3.7c0.1-2.1,0.1-4.2,0-6.3c-0.1-2.1-1.8-3.8-3.9-3.9c-2.2-0.1-4.3,0-6.5,0c-0.1,0-0.2,0-0.3,0
		c-4.1,0-8.3,0-12.4,0c-0.3,0-0.6,0-0.9,0.1c-1.8,0.3-3.3,1.9-3.4,3.7c-0.1,2.1,0,4.2,0,6.3c0,1.9,1.6,3.8,4,3.9
		c0.5,0,0.7,0.1,0.8,0.6c-0.2,0.5-0.3,0.6-0.8,0.6c-1.1,0-2-0.4-2.9-1c-0.8-0.6-1.5-1.4-1.9-2.4c-0.5,0.1-0.8,0.2-1.1,0.6
		c-0.3,0.4-0.4,0.8-0.4,1.3c0,2.8,0,5.6,0,8.5c0,2.2,0,4.4,0,6.6c0,0.9,0.7,1.5,1.7,1.3c1.6-0.4,3.3-0.6,4.9-0.6
		c2.6-0.1,5.2,0.1,7.7,0.7c1,0.2,2.1,0.4,3.1,0.1c2.1-0.5,4.2-0.8,6.4-0.9c1.3,0,2.5,0,3.7,0.2c1.1,0.1,2.1,0.3,3.2,0.5
		c0.8,0.2,1.5-0.4,1.5-1.2c0-0.1,0-0.2,0-0.4c0-4.9,0-9.8,0-14.7c0-0.1,0-0.2,0-0.4c0-0.9-0.6-1.5-1.6-1.7c0,0,0,0.1-0.1,0.1
		c-1,2.1-2.7,3.2-5.1,3.2c-1.4,0-2.7,0-4.1,0c-0.2,0-0.4,0-0.6,0c-0.8,0.2-1.3,0.6-1.7,1.3c-0.4,0.8-0.7,1.5-1.1,2.3
		c-0.4,0.8-1.1,1.2-2,1.2c-0.8,0-1.5-0.4-1.9-1.2s-0.8-1.5-1.2-2.3c-0.4-0.8-1.1-1.3-2.1-1.3c-0.5,0-0.9,0-1.4,0
		c-0.5,0-0.6-0.1-0.8-0.6c0.1-0.5,0.3-0.6,0.8-0.6c0.4,0,0.9,0,1.3,0c1.5,0,2.6,0.7,3.3,2c0.4,0.7,0.7,1.4,1.1,2.1
		c0.2,0.4,0.5,0.6,0.9,0.6c0.4,0,0.7-0.3,0.9-0.6c0.3-0.6,0.6-1.2,0.9-1.8C31.8,24.8,32.5,24.1,33.5,23.7z M12.2,24.5
		c-0.1,0-0.2,0-0.3,0.1c-1,0.6-1.6,1.5-1.6,2.7c0,5.8,0,11.6,0,17.4c0,1.8,1.3,3.1,3.1,3.1c4.5,0,9,0,13.5,0c1.3,0,2.1-1.1,1.8-2.4
		c-0.4-0.1-0.7-0.1-1.1-0.2c-1.6-0.4-3.2-0.6-4.8-0.7c-2.6-0.2-5.2,0-7.8,0.6c-0.9,0.2-1.7-0.1-2.3-0.7c-0.5-0.5-0.7-1.2-0.7-1.9
		c0-5.8,0-11.6,0-17.3C12.2,24.9,12.3,24.7,12.2,24.5z M45.6,40.6c-0.6,0.3-1.3,0.4-1.9,0.2c-1.9-0.4-3.8-0.6-5.7-0.6
		c-2.3,0-4.5,0.3-6.7,0.8c-0.4,0.1-0.7,0.1-1.1,0.2c0,1,0,1.9,0,2.9c0.2,0,0.4,0,0.5-0.1c2-0.5,4-0.8,6.1-0.9c1.1,0,2.2,0,3.3,0.1
		c1.3,0.1,2.7,0.3,4,0.6c0.8,0.2,1.5-0.3,1.5-1C45.7,42.1,45.6,41.4,45.6,40.6z M28.9,41.3c-0.2-0.1-0.5-0.1-0.7-0.1
		c-2.2-0.5-4.3-0.8-6.5-0.9c-1.7,0-3.5,0.1-5.2,0.4c-0.4,0.1-0.9,0.2-1.3,0.3c-0.6,0.1-1.1,0-1.7-0.3c0,0.7,0,1.4,0,2
		c0,0.9,0.7,1.4,1.6,1.2c1.6-0.3,3.3-0.6,4.9-0.6c2.6-0.1,5.2,0.1,7.8,0.7c0.4,0.1,0.8,0.2,1.2,0.2C28.9,43.2,28.9,42.2,28.9,41.3z"
		/>
	<path class="st2" d="M22.2,24.1c0.2,0.5,0.3,0.6,0.8,0.6c0.5,0,0.9,0,1.4,0c0.9,0,1.7,0.4,2.1,1.3c0.4,0.8,0.8,1.5,1.2,2.3
		c0.4,0.8,1,1.2,1.9,1.2c0.9,0,1.5-0.4,2-1.2c0.4-0.7,0.8-1.5,1.1-2.3c0.4-0.7,0.9-1.1,1.7-1.3c0.2,0,0.4,0,0.6,0c1.4,0,2.7,0,4.1,0
		c2.3,0,4-1.1,5.1-3.2c0,0,0-0.1,0.1-0.1c1,0.1,1.5,0.8,1.6,1.7c0,0.1,0,0.2,0,0.4c0,4.9,0,9.8,0,14.7c0,0.1,0,0.2,0,0.4
		c0,0.8-0.7,1.4-1.5,1.2c-1.1-0.2-2.1-0.4-3.2-0.5c-1.2-0.1-2.5-0.2-3.7-0.2c-2.2,0.1-4.3,0.4-6.4,0.9c-1.1,0.2-2.1,0.1-3.1-0.1
		c-2.5-0.6-5.1-0.8-7.7-0.7c-1.7,0.1-3.3,0.3-4.9,0.6c-0.9,0.2-1.7-0.4-1.7-1.3c0-2.2,0-4.4,0-6.6c0-2.8,0-5.6,0-8.5
		c0-0.5,0.1-0.9,0.4-1.3c0.3-0.3,0.7-0.5,1.1-0.6c0.4,1,1,1.8,1.9,2.4c0.9,0.6,1.8,0.9,2.9,1c0.5,0,0.6-0.1,0.8-0.6
		C21.1,24.1,21.7,24.1,22.2,24.1z M23.6,33.2c-0.4,0.1-0.9,0.2-1.2,0.4c-1,0.7-1,1.8-0.2,2.5c0.9,0.8,2.3,0.7,3.2,0
		c0.5-0.4,0.7-1.1,0.4-1.7c-0.3-0.5-0.7-0.8-1.2-0.9c0.3-0.5,0.2-1,0.1-1.5c0-0.3-0.3-0.4-0.6-0.4c-0.3,0-0.5,0.2-0.5,0.5
		C23.5,32.3,23.4,32.8,23.6,33.2z M34.6,33.3c-0.2,0-0.4,0.1-0.6,0.3c-0.9,0.7-1,1.7-0.2,2.4c0.8,0.7,2.1,0.8,3,0.2
		c0.9-0.6,1-1.6,0.2-2.3c-0.4-0.4-0.9-0.6-1.5-0.6c0.1-0.4,0.1-0.9,0-1.3c0-0.2-0.3-0.4-0.5-0.5c-0.3,0-0.6,0.1-0.6,0.4
		C34.4,32.3,34.3,32.9,34.6,33.3z M29.5,31.9c-0.4,0-0.8,0-1.3,0.2c-0.6,0.2-0.9,0.6-1,1.2c-0.1,0.4,0,0.8,0.1,1.2
		c0.4,1.4,1.8,2.1,3.1,1.6c0.9-0.4,1.6-1.4,1.5-2.5c0-0.7-0.4-1.2-1.1-1.4C30.4,31.9,30,31.8,29.5,31.9z"/>
	<path class="st3" d="M22.2,24.1c-0.5,0-1,0-1.5,0c-0.1-0.5-0.2-0.6-0.8-0.6c-2.4-0.1-3.9-2.1-4-3.9c0-2.1-0.1-4.2,0-6.3
		c0.1-1.8,1.6-3.4,3.4-3.7c0.3,0,0.6-0.1,0.9-0.1c4.1,0,8.3,0,12.4,0c0.1,0,0.2,0,0.3,0c-0.1,0.1-0.2,0.2-0.3,0.2
		c-1,0.7-1.6,1.6-1.9,2.8c-0.2,0.7-0.1,1.4-0.1,2.1c-0.2-0.2-0.4-0.4-0.6-0.5c-0.2-0.2-0.6-0.2-0.8,0c-0.2,0.2-0.2,0.5,0,0.8
		c0.1,0.1,0.1,0.2,0.2,0.2c0.4,0.4,0.9,0.9,1.3,1.3c0,0,0,0.1-0.1,0.1c-0.5,0.5-0.9,0.9-1.4,1.4c-0.3,0.3-0.4,0.7-0.1,0.9
		c0.3,0.3,0.6,0.2,0.9-0.1c0.1-0.1,0.3-0.3,0.4-0.4c0,0.7-0.1,1.3,0.1,2c0.4,1.4,1.1,2.5,2.4,3.2c0.2,0.1,0.3,0.2,0.5,0.2
		c-1,0.4-1.7,1.1-2.1,2.1c-0.3,0.6-0.6,1.2-0.9,1.8c-0.2,0.4-0.5,0.6-0.9,0.6c-0.4,0-0.7-0.3-0.9-0.6c-0.3-0.7-0.7-1.4-1.1-2.1
		c-0.7-1.3-1.8-2-3.3-2c-0.4,0-0.9,0-1.3,0C22.4,23.5,22.3,23.6,22.2,24.1z M24.6,15.3c0.1-0.1,0.3,0,0.4-0.1s0.2,0,0.4,0
		c0.3,0,0.5-0.3,0.5-0.5s-0.2-0.5-0.4-0.6c-0.1,0-0.3,0-0.4,0c-0.7,0-1.3,0-2,0c0-0.3,0-0.5,0-0.7c0-0.4-0.3-0.6-0.6-0.6
		c-0.3,0-0.6,0.3-0.6,0.6c0,0.2,0,0.5,0,0.7c-0.6,0-1.2,0-1.8,0c-0.2,0-0.3,0-0.5,0c-0.4,0-0.6,0.3-0.6,0.6c0,0.3,0.2,0.5,0.6,0.6
		c0.2,0,0.4,0,0.6,0c0.1,1.1,0.5,2.1,1.3,3c-0.6,0.3-1.2,0.4-1.8,0.4c-0.4,0-0.6,0.2-0.6,0.6c0,0.3,0.2,0.6,0.6,0.6c0.3,0,0.7,0,1,0
		c0.7-0.1,1.3-0.4,1.8-0.7c0.1,0,0.2,0.1,0.2,0.1c0.8,0.4,1.7,0.6,2.6,0.6c0.4,0,0.6-0.3,0.6-0.6c0-0.3-0.2-0.6-0.6-0.6
		c-0.1,0-0.3,0-0.4,0c-0.5,0-1-0.1-1.4-0.4C24.1,17.4,24.5,16.4,24.6,15.3z"/>
	<path class="st4" d="M30.5,14.6c0-0.7,0-1.4,0.1-2.1c0.3-1.2,0.9-2.1,1.9-2.8c0.1-0.1,0.2-0.1,0.3-0.2c2.2,0,4.3,0,6.5,0
		c2.1,0.1,3.8,1.8,3.9,3.9c0.1,2.1,0.1,4.2,0,6.3c-0.1,1.8-1.6,3.5-3.4,3.7c-0.3,0.1-0.7,0.1-1,0.1c-1.2,0-2.3,0-3.5,0
		c-0.6,0-1.2,0-1.8,0.2c-0.2,0-0.4-0.1-0.5-0.2c-1.3-0.7-2-1.8-2.4-3.2c-0.2-0.7-0.1-1.3-0.1-2c0.4-0.5,0.9-0.9,1.3-1.3
		c0.4-0.4,0.4-0.7,0-1.1C31.4,15.5,30.9,15.1,30.5,14.6z M38.6,18.5c0.1,0.1,0.1,0.1,0.1,0.2c0.1,0.3,0.2,0.5,0.3,0.8
		c0.1,0.3,0.4,0.4,0.7,0.3s0.4-0.4,0.4-0.7c0-0.1-0.1-0.2-0.1-0.3c-0.4-0.9-0.7-1.9-1.1-2.8c-0.3-0.8-0.6-1.5-0.8-2.3
		c-0.2-0.4-0.4-0.6-0.8-0.6c-0.3,0-0.5,0.2-0.6,0.5c-0.4,1-0.8,2-1.1,3c-0.3,0.8-0.6,1.5-0.9,2.3c-0.2,0.5,0.2,0.9,0.7,0.8
		c0.2-0.1,0.4-0.2,0.5-0.4c0.1-0.3,0.2-0.6,0.4-0.8C37.1,18.5,37.9,18.5,38.6,18.5z"/>
	<path class="st5" d="M49.3,40.9c0,0.5,0,1,0,1.5c-0.4,0.1-0.6,0.3-0.6,0.7c0,0.5,0,1,0,1.5c0,1.7-1.3,3.1-3.1,3.1
		c-4.5,0-9.1,0-13.6,0c-1,0-1.9-0.8-1.9-1.8c0-0.2,0-0.3,0-0.5c0.4-0.1,0.8-0.2,1.2-0.2c2.7-0.6,5.5-0.9,8.3-0.7
		c1.4,0.1,2.7,0.3,4.1,0.6c1.6,0.4,3-0.7,3.1-2.4c0-0.1,0-0.3,0-0.4c0-5.7,0-11.4,0-17.2c0-0.2,0-0.3,0-0.5c0.1-0.1,0.2,0,0.3,0.1
		c1,0.6,1.5,1.5,1.5,2.6c0,2.6,0,5.3,0,7.9c0,1.7,0,3.3,0,5C48.7,40.6,48.8,40.8,49.3,40.9z"/>
	<path class="st6" d="M12.2,24.5c0.1,0.2,0,0.3,0,0.5c0,5.8,0,11.6,0,17.3c0,0.7,0.2,1.4,0.7,1.9c0.6,0.7,1.4,0.9,2.3,0.7
		c2.6-0.6,5.2-0.7,7.8-0.6c1.6,0.1,3.2,0.4,4.8,0.7c0.4,0.1,0.7,0.1,1.1,0.2c0.3,1.3-0.5,2.4-1.8,2.4c-4.5,0-9,0-13.5,0
		c-1.8,0-3.1-1.3-3.1-3.1c0-5.8,0-11.6,0-17.4c0-1.2,0.5-2.1,1.6-2.7C12,24.6,12.1,24.5,12.2,24.5z"/>
	<path class="st7" d="M45.6,40.6c0,0.8,0,1.5,0,2.2c-0.1,0.7-0.8,1.2-1.5,1c-1.3-0.3-2.7-0.5-4-0.6c-1.1-0.1-2.2-0.1-3.3-0.1
		c-2.1,0.1-4.1,0.4-6.1,0.9c-0.2,0-0.3,0-0.5,0.1c0-0.9,0-1.9,0-2.9c0.4-0.1,0.7-0.1,1.1-0.2c2.2-0.5,4.4-0.8,6.7-0.8
		c1.9,0,3.9,0.2,5.7,0.6C44.4,41,45,40.9,45.6,40.6z"/>
	<path class="st8" d="M28.9,41.3c0,1,0,1.9,0,2.8c-0.4,0-0.8-0.1-1.2-0.2c-2.6-0.6-5.1-0.8-7.8-0.7c-1.7,0.1-3.3,0.3-4.9,0.6
		c-0.8,0.2-1.5-0.4-1.6-1.2c0-0.6,0-1.3,0-2c0.6,0.3,1.1,0.4,1.7,0.3c0.4-0.1,0.9-0.2,1.3-0.3c1.7-0.3,3.4-0.4,5.2-0.4
		c2.2,0,4.4,0.4,6.5,0.9C28.4,41.2,28.7,41.1,28.9,41.3z"/>
	<path class="st9" d="M29.5,31.9c0.4,0,0.9,0,1.3,0.1c0.7,0.2,1,0.7,1.1,1.4c0.1,1.1-0.6,2.1-1.5,2.5c-1.2,0.5-2.6-0.2-3.1-1.6
		c-0.1-0.4-0.1-0.8-0.1-1.2c0.1-0.6,0.4-1,1-1.2C28.7,31.9,29.1,31.8,29.5,31.9z M29.5,33c-0.1,0-0.2,0-0.2,0
		c-0.9,0.1-1,0.2-0.8,1.1c0,0,0,0,0,0c0.2,0.6,1.1,1.2,1.8,0.4c0.3-0.3,0.4-0.6,0.4-0.9c0-0.4,0-0.4-0.4-0.5
		C30,33.1,29.8,33,29.5,33z"/>
	<path class="st10" d="M35.5,33.2c0.6,0.1,1.1,0.2,1.5,0.6c0.7,0.7,0.6,1.7-0.2,2.3c-0.9,0.6-2.2,0.6-3-0.2
		c-0.8-0.7-0.7-1.8,0.2-2.4c0.2-0.1,0.4-0.2,0.6-0.3C35,33.6,35.2,33.5,35.5,33.2z"/>
	<path class="st10" d="M24.5,33.3c0.5,0.2,0.9,0.4,1.2,0.9c0.3,0.6,0.1,1.3-0.4,1.7c-0.9,0.8-2.3,0.8-3.2,0
		c-0.8-0.7-0.8-1.7,0.2-2.5c0.4-0.3,0.8-0.4,1.2-0.4C23.9,33.5,24,33.6,24.5,33.3z"/>
	<path class="st1" d="M24.5,33.3c-0.5,0.2-0.6,0.2-0.9-0.1c-0.1-0.4-0.1-0.9-0.1-1.3c0-0.2,0.3-0.4,0.5-0.5c0.3,0,0.6,0.1,0.6,0.4
		C24.7,32.3,24.8,32.9,24.5,33.3z"/>
	<path class="st1" d="M35.5,33.2c-0.4,0.3-0.5,0.4-0.9,0.1c-0.3-0.5-0.2-1-0.1-1.5c0-0.3,0.3-0.4,0.6-0.4c0.3,0,0.5,0.2,0.5,0.5
		C35.6,32.3,35.7,32.8,35.5,33.2z"/>
	<path class="st9" d="M24.6,15.3c-0.1,1.1-0.5,2-1.2,2.9c0.5,0.2,0.9,0.4,1.4,0.4c0.1,0,0.3,0,0.4,0c0.3,0,0.6,0.2,0.6,0.6
		c0,0.3-0.2,0.6-0.6,0.6c-0.9,0.1-1.8-0.2-2.6-0.6c-0.1,0-0.1-0.1-0.2-0.1c-0.6,0.3-1.2,0.6-1.8,0.7c-0.3,0-0.7,0-1,0
		c-0.4,0-0.6-0.3-0.6-0.6c0-0.3,0.3-0.6,0.6-0.6c0.6,0,1.2-0.1,1.8-0.4c-0.7-0.8-1.1-1.8-1.3-3c-0.2,0-0.4,0-0.6,0
		c-0.4,0-0.6-0.2-0.6-0.6c0-0.3,0.2-0.6,0.6-0.6c0.2,0,0.3,0,0.5,0c0.6,0,1.2,0,1.8,0c0.1-0.3,0-0.5,0-0.7c0-0.4,0.3-0.6,0.6-0.6
		c0.3,0,0.6,0.2,0.6,0.6c0,0.2,0,0.5,0,0.7c0.7,0,1.3,0,2,0c0.1,0,0.3,0,0.4,0c0.3,0.1,0.4,0.4,0.4,0.6c0,0.3-0.2,0.5-0.5,0.5
		c-0.1,0-0.2,0-0.4,0C24.8,15.3,24.7,15.2,24.6,15.3z M21.3,15.3c0.1,0.9,0.4,1.6,1,2.2c0.6-0.6,0.9-1.4,1-2.2
		C22.7,15.3,22,15.3,21.3,15.3z"/>
	<path class="st11" d="M30.5,14.6c0.4,0.5,0.9,0.9,1.3,1.3c0.4,0.4,0.4,0.7,0,1.1c-0.4,0.4-0.9,0.9-1.3,1.3
		c-0.2,0.1-0.3,0.3-0.4,0.4c-0.3,0.3-0.7,0.4-0.9,0.1c-0.3-0.3-0.2-0.6,0.1-0.9c0.5-0.5,0.9-0.9,1.4-1.4c0,0,0,0,0.1-0.1
		c-0.4-0.4-0.9-0.9-1.3-1.3c-0.1-0.1-0.2-0.1-0.2-0.2c-0.2-0.2-0.2-0.6,0-0.8c0.2-0.2,0.5-0.2,0.8,0C30.1,14.2,30.3,14.4,30.5,14.6z
		"/>
	<path class="st9" d="M38.6,18.5c-0.8,0-1.6,0-2.4,0c-0.2,0.2-0.2,0.6-0.4,0.8c-0.1,0.2-0.2,0.4-0.5,0.4c-0.5,0.1-0.8-0.3-0.7-0.8
		c0.3-0.8,0.6-1.5,0.9-2.3c0.4-1,0.8-2,1.1-3c0.1-0.3,0.3-0.5,0.6-0.5c0.4,0,0.6,0.1,0.8,0.6c0.3,0.8,0.6,1.5,0.8,2.3
		c0.4,0.9,0.7,1.8,1.1,2.8c0,0.1,0.1,0.2,0.1,0.3c0.1,0.3-0.1,0.6-0.4,0.7c-0.3,0.1-0.6,0-0.7-0.3c-0.1-0.2-0.2-0.5-0.3-0.8
		C38.8,18.6,38.7,18.5,38.6,18.5z M36.7,17.2c0.5,0,1,0,1.5,0c-0.2-0.7-0.5-1.3-0.8-2C37.2,15.9,37,16.6,36.7,17.2z"/>
	<path class="st12" d="M29.5,33c0.2,0,0.5,0,0.7,0.1c0.4,0.1,0.4,0.2,0.4,0.5c0,0.3-0.1,0.7-0.4,0.9c-0.7,0.7-1.5,0.2-1.8-0.4
		c0,0,0,0,0,0c-0.2-0.9-0.1-1,0.8-1.1C29.4,33,29.5,33,29.5,33z"/>
	<path class="st13" d="M21.3,15.3c0.7,0,1.3,0,2,0c-0.1,0.9-0.4,1.6-1,2.2C21.7,16.9,21.4,16.2,21.3,15.3z"/>
	<path class="st14" d="M36.7,17.2c0.2-0.6,0.5-1.3,0.8-2c0.3,0.7,0.5,1.3,0.8,2C37.7,17.2,37.2,17.2,36.7,17.2z"/>
</g>
</svg>
