<?xml version="1.0" encoding="utf-8"?>
<!-- Generator: Adobe Illustrator 27.0.0, SVG Export Plug-In . SVG Version: 6.00 Build 0)  -->
<svg version="1.1" id="Capa_1" xmlns="http://www.w3.org/2000/svg" xmlns:xlink="http://www.w3.org/1999/xlink" x="0px" y="0px"
	 viewBox="0 0 60 60" style="enable-background:new 0 0 60 60;" xml:space="preserve">
<style type="text/css">
	.st0{fill:#FCD2A8;}
	.st1{fill:#060607;}
	.st2{fill:#090708;}
	.st3{fill:#EA5867;}
	.st4{fill:#D84755;}
</style>
<g id="Capa_3">
	<rect x="11.5" y="11" class="st0" width="40" height="37.2"/>
	<path class="st0" d="M30,0.4c16.1,0,29.5,13,29.5,29.5c0,16.3-13.1,29.5-29.5,29.5C13.5,59.4,0.4,46,0.5,29.8
		C0.5,13.6,13.8,0.4,30,0.4z M43.4,25.3c0-0.2,0-0.4,0-0.5c0-1.1-0.5-1.5-1.5-1.5c-8.8,0-17.7,0-26.5,0c-1,0-1.5,0.5-1.5,1.5
		c0,1.7,0,3.4,0,5c0,4.8,1.9,8.7,5.6,11.7c0.2,0.1,0.4,0.2,0.4,0.5c-1.4,0-2.8,0-4.2,0c-1.1,0-1.7,0.4-1.8,1.3
		c0,0.9,0.6,1.4,1.8,1.4c8.7,0,17.3,0,26,0c0.2,0,0.3,0,0.5,0c0.7-0.1,1.2-0.6,1.3-1.2c0-0.7-0.4-1.3-1.1-1.4c-0.3,0-0.6,0-0.8,0
		c-1.4,0-2.7,0-4.3,0c2.5-1.8,4.2-4,5.3-6.7c1.3,0,2.6,0,3.9,0c2.2-0.1,4.2-1.5,4.9-3.7c0.7-2.1,0-4.5-1.7-5.8
		C47.7,24.3,45.7,24.2,43.4,25.3z M30,16.5c0-1.3,0-2.5,0-3.8c0-1-0.7-1.6-1.3-1.6c-0.7,0-1.4,0.7-1.4,1.6c0,2.5,0,5.1,0,7.6
		c0,1,0.5,1.6,1.3,1.6c0.9,0,1.4-0.6,1.4-1.6C30,19,30,17.7,30,16.5z M20.6,18.5c0,0.6,0,1.3,0,1.9c0,0.9,0.6,1.5,1.4,1.4
		c0.8,0,1.3-0.6,1.3-1.4c0-1.3,0-2.6,0-3.8c0-0.9-0.6-1.5-1.4-1.5c-0.8,0-1.3,0.6-1.3,1.4C20.6,17.2,20.6,17.9,20.6,18.5z M34,18.5
		c0,0.7,0,1.3,0,2c0,0.8,0.5,1.3,1.3,1.3c0.8,0,1.4-0.5,1.4-1.3c0-1.3,0-2.7,0-4c0-0.8-0.6-1.4-1.4-1.4c-0.7,0-1.3,0.6-1.3,1.4
		C34,17.2,34,17.9,34,18.5z"/>
	<path class="st1" d="M46.9,24.3c2.7-1.3,5.1-1.1,7.3,0.6c2.1,1.6,2.9,4.5,2.1,7c-0.8,2.6-3.2,4.4-5.9,4.4c-1.5,0-3.1,0-4.7,0
		c-1.3,3.2-3.3,5.9-6.3,8c1.9,0,3.5,0,5.1,0c0.3,0,0.7,0,1,0c0.8,0.1,1.4,0.9,1.4,1.7c-0.1,0.8-0.6,1.4-1.5,1.5c-0.2,0-0.4,0-0.6,0
		c-10.4,0-20.8,0-31.2,0c-1.5,0-2.2-0.5-2.1-1.6c0-1.1,0.7-1.6,2.1-1.6c1.7,0,3.4,0,5.1,0c0-0.4-0.3-0.4-0.4-0.6
		c-4.4-3.6-6.7-8.3-6.7-14.1c0-2,0-4,0-6c0-1.3,0.6-1.8,1.8-1.8c10.6,0,21.2,0,31.8,0c1.2,0,1.8,0.6,1.8,1.8
		C46.9,23.9,46.9,24,46.9,24.3z M32.4,44c0.1,0,0.2,0,0.3,0c5.6-1.6,9.1-5.2,10.6-10.9c0.5-2,0.4-4.1,0.4-6.2c0-0.6,0-1.2,0-1.8
		c-1.2,0-2.2,0-3.2,0c-0.4,0-0.7,0-1.1,0c-5.9,0-11.8,0-17.7,0c-2.2,0-4.5,0-6.7,0c-0.1,0-0.2,0-0.2,0.2c0,1.5-0.1,3,0,4.5
		c0.2,6.1,3,10.6,8.4,13.3C26.1,44.5,29.2,44.8,32.4,44z M46.7,33.1c1.3,0,2.4,0,3.5,0c1.7,0,3.1-1.4,3.2-3.1c0-1.7-1.3-3.2-3-3.3
		c-1.6-0.1-3.3,1.2-3.4,2.9C46.9,30.8,46.8,31.9,46.7,33.1z"/>
	<path class="st1" d="M30.8,13.8c0,1.5,0,3,0,4.5c0,1.3-0.6,2-1.6,1.9c-1,0-1.6-0.7-1.6-1.9c0-3,0-6.1,0-9.1c0-1.1,0.8-1.9,1.7-1.9
		c0.8,0,1.7,0.7,1.6,1.9C30.8,10.8,30.8,12.3,30.8,13.8z"/>
	<path class="st2" d="M19.5,16.2c0-0.8,0-1.5,0-2.3c0-1,0.6-1.7,1.6-1.7c0.9,0,1.6,0.7,1.7,1.7c0,1.5,0,3.1,0,4.6
		c0,1-0.6,1.7-1.6,1.7c-1,0-1.6-0.6-1.6-1.7C19.5,17.8,19.5,17,19.5,16.2z"/>
	<path class="st2" d="M35.6,16.2c0-0.8,0-1.6,0-2.4c0-0.9,0.7-1.6,1.6-1.6c0.9,0,1.6,0.6,1.7,1.6c0,1.6,0,3.2,0,4.8
		c0,1-0.7,1.6-1.7,1.6c-0.9,0-1.5-0.6-1.5-1.6C35.6,17.8,35.6,17,35.6,16.2z"/>
	<path class="st3" d="M14.9,25.1c2.2,0,4.5,0,6.7,0c5.9,0,11.8,0,17.7,0c0.4,0,0.7,0,1.1,0c0,1,0,2,0,3c0.1,2.7-0.2,5.3-1.2,7.8
		c-0.9,2.3-2.3,4.2-4.2,5.9c-0.8,0.8-1.8,1.3-2.7,2.1c-3.2,0.9-6.3,0.5-9.3-0.9c-5.5-2.7-8.3-7.2-8.4-13.3c0-1.5,0-3,0-4.5
		C14.8,25.2,14.8,25.2,14.9,25.1z"/>
	<path class="st4" d="M32.4,44c0.8-0.7,1.8-1.3,2.7-2.1c1.9-1.6,3.2-3.6,4.2-5.9c1-2.5,1.3-5.2,1.2-7.8c0-1,0-2,0-3c1,0,2.1,0,3.2,0
		c0,0.6,0,1.2,0,1.8c0,2.1,0.1,4.2-0.4,6.2c-1.5,5.6-5,9.2-10.6,10.9C32.6,44,32.5,44,32.4,44z"/>
	<path class="st4" d="M16.8,26c0,0-0.1,0.1-0.1,0.1C16.6,26,16.6,25.9,16.8,26z"/>
</g>
</svg>
