<?xml version="1.0" encoding="utf-8"?>
<!-- Generator: Adobe Illustrator 27.0.0, SVG Export Plug-In . SVG Version: 6.00 Build 0)  -->
<svg version="1.1" xmlns="http://www.w3.org/2000/svg" xmlns:xlink="http://www.w3.org/1999/xlink" x="0px" y="0px"
	 viewBox="0 0 469.3 469.4" style="enable-background:new 0 0 469.3 469.4;" xml:space="preserve">
<style type="text/css">
	.st0{display:none;}
	.st1{display:inline;fill:#26A8F7;}
	.st2{fill:#BFDE76;}
	.st3{fill:#FFFFFF;}
	.st4{display:inline;fill:#FF9E7B;}
	.st5{display:inline;fill:#FFFFFF;}
	.st6{display:inline;fill:#01C78A;}
	.st7{display:inline;fill:#86F1FB;}
	.st8{display:inline;fill:#EA3838;}
	.st9{display:inline;fill:#FBFBFB;}
	.st10{display:inline;fill:#D7A570;}
	.st11{fill:#FBFBFB;}
	.st12{display:inline;}
	.st13{display:none;fill:#FBFBFB;}
</style>
<g id="Capa_3" class="st0">
	<path class="st1" d="M412.2,184.5c0.4,22-4,43-11.4,63.6c-6,16.6-14.6,31.6-25,45.7c-11.2,15.3-22.5,30.5-33.6,45.8
		c-22.9,31.4-45.7,62.8-68.5,94.3c-4.6,6.4-8.8,13.1-13.6,19.4c-13.8,18.1-38.4,18.1-51.7-0.4c-25.4-35.2-50.6-70.7-75.7-106.1
		c-13.9-19.6-27.7-39.3-41.6-58.9c-24.6-34.8-35.1-73.7-32.2-116c2.7-38.6,17.3-72.5,41.9-102.4C131,32.8,170.1,12.1,216.7,7
		c58.4-6.4,108.7,12.6,148.6,55.7c25.1,27.1,40.7,59.6,45.6,96.6c0.6,4.2,1,8.5,1.2,12.8C412.3,176.3,412.2,180.4,412.2,184.5
		L412.2,184.5z M235.2,267.9c43.9,0.1,80.3-39.6,79.8-80.7c-0.6-45-35.1-80.3-79.6-80.3c-44.3,0-78.8,35.3-79.5,79.9
		C155.2,228.2,191.8,267.8,235.2,267.9L235.2,267.9z"/>
	<rect x="132.2" y="106.9" class="st1" width="211" height="166.4"/>
</g>
<g id="Capa_9">
	<path class="st2" d="M412.3,184.5c0.4,22-4,43-11.4,63.6c-6,16.6-14.6,31.6-25,45.7c-11.2,15.3-22.5,30.5-33.6,45.8
		c-22.9,31.4-45.7,62.8-68.5,94.3c-4.6,6.4-8.8,13.1-13.6,19.4c-13.8,18.1-38.4,18.1-51.7-0.4c-25.4-35.2-50.6-70.7-75.7-106.1
		c-13.9-19.6-27.7-39.3-41.6-58.9c-24.6-34.8-35.1-73.7-32.2-116c2.7-38.6,17.3-72.5,41.9-102.4C131.1,32.8,170.2,12.1,216.8,7
		c58.4-6.4,108.7,12.6,148.6,55.7c25.1,27.1,40.7,59.6,45.6,96.6c0.6,4.2,1,8.5,1.2,12.8C412.4,176.3,412.3,180.4,412.3,184.5
		L412.3,184.5z M235.3,267.9c43.9,0.1,80.3-39.6,79.8-80.7c-0.6-45-35.1-80.3-79.6-80.3c-44.3,0-78.8,35.3-79.5,79.9
		C155.3,228.2,191.9,267.8,235.3,267.9L235.3,267.9z"/>
	<rect x="132.3" y="106.9" class="st2" width="211" height="166.4"/>
	<path class="st3" d="M145.2,188.1c0-33.9,0-67.9,0-101.8c0-10,3.5-14,13.4-15.5c21-3.1,42.2-4.6,63.4-4.2
		c21,0.5,41.7,3.1,61.1,11.7c32,14.3,51.6,39,58.8,73c6.5,30.9,4.2,61.2-8.8,90.2c-13.3,29.6-36.1,48.6-66.9,58.3
		c-24.1,7.7-48.9,9.1-73.9,8c-11.4-0.5-22.9-1.4-34.3-2.2c-8.2-0.6-12.8-5.6-12.9-14C145.2,257.3,145.2,222.7,145.2,188.1z
		 M198.3,260.4c12.8,0.4,25.2,0.7,37.4-1.7c24.6-4.9,42.5-18.2,50.5-42.6c6-18.5,6.7-37.5,2.2-56.5c-4.9-20.7-17.9-34.4-38.2-41.1
		c-10.4-3.4-21.1-4.6-32-4.6c-6.6,0-13.3,0.5-20,0.7C198.3,163.4,198.3,211.7,198.3,260.4z"/>
</g>
<g id="Z" class="st0">
	<path class="st4" d="M412.3,184.9c0.4,22-4,43-11.4,63.6c-6,16.6-14.6,31.6-25,45.7c-11.2,15.3-22.5,30.5-33.6,45.8
		c-22.9,31.4-45.7,62.8-68.5,94.3c-4.6,6.4-8.8,13.1-13.6,19.4c-13.8,18.1-38.4,18.1-51.7-0.4c-25.4-35.2-50.6-70.7-75.7-106.1
		c-13.9-19.6-27.7-39.3-41.6-58.9c-24.6-34.8-35.1-73.7-32.2-116c2.7-38.6,17.3-72.5,41.9-102.4c30.2-36.7,69.3-57.4,115.9-62.5
		C275.2,1,325.5,20,365.4,63.1c25.1,27.1,40.7,59.6,45.6,96.6c0.6,4.2,1,8.5,1.2,12.8C412.4,176.7,412.3,180.8,412.3,184.9
		L412.3,184.9z M235.3,268.3c43.9,0.1,80.3-39.6,79.8-80.7c-0.6-45-35.1-80.3-79.6-80.3c-44.3,0-78.8,35.3-79.5,79.9
		C155.3,228.6,191.9,268.2,235.3,268.3L235.3,268.3z"/>
	<rect x="132.3" y="107.3" class="st4" width="211" height="166.4"/>
	<path class="st5" d="M253.7,124.1c-1.7,0-2.8,0-3.8,0c-24.6,0-49.3,0-73.9,0c-9,0-13.6-4.6-13.6-13.6c0-6.5,0-13,0-19.5
		c0.1-7.6,5-12.5,12.6-12.5c44.6,0,89.2,0,133.8,0c7.5,0,12.4,4.8,12.6,12.3c0.1,4.9,0,9.8,0,14.7c0,3.6-1.4,6.5-3.4,9.4
		c-31.5,46-62.9,92.1-94.3,138.1c-0.8,1.1-1.5,2.3-2.7,4c1.5,0,2.6,0,3.6,0c28.1,0,56.3,0,84.4,0c9.2,0,13.8,4.6,13.8,13.7
		c0,6.5,0,13,0,19.5c-0.1,7.4-5.1,12.4-12.5,12.4c-48.4,0-96.8,0-145.2,0c-7.4,0-12.3-5.1-12.4-12.5c0-4.3,0.1-8.6,0-12.9
		c-0.1-3.8,1-7,3.1-10.1c30-43.9,60-87.7,90-131.6C248.4,131.9,250.9,128.3,253.7,124.1z"/>
</g>
<g id="CH" class="st0">
	<path class="st6" d="M412.5,184.5c0.4,22-4,43-11.4,63.6c-6,16.6-14.6,31.6-25,45.7c-11.2,15.3-22.5,30.5-33.6,45.8
		c-22.9,31.4-45.7,62.8-68.5,94.3c-4.6,6.4-8.8,13.1-13.6,19.4c-13.8,18.1-38.4,18.1-51.7-0.4c-25.4-35.2-50.6-70.7-75.7-106.1
		c-13.9-19.6-27.7-39.3-41.6-58.9c-24.6-34.8-35.1-73.7-32.2-116c2.7-38.6,17.3-72.5,41.9-102.4C131.3,32.8,170.4,12.1,217,7
		c58.4-6.4,108.7,12.6,148.6,55.7c25.1,27.1,40.7,59.6,45.6,96.6c0.6,4.2,1,8.5,1.2,12.8C412.6,176.3,412.5,180.4,412.5,184.5
		L412.5,184.5z M235.5,267.9c43.9,0.1,80.3-39.6,79.8-80.7c-0.6-45-35.1-80.3-79.6-80.3c-44.3,0-78.8,35.3-79.5,79.9
		C155.5,228.2,192.1,267.8,235.5,267.9L235.5,267.9z"/>
	<rect x="132.5" y="106.9" class="st6" width="211" height="166.4"/>
	<path class="st5" d="M172.5,275.2c-16.6-0.2-32.4-3.3-46.8-11.8c-17.7-10.4-29-25.9-34.4-45.5c-6.5-23.6-5.8-47,4.4-69.5
		c11.8-25.8,32.3-41.1,59.9-46.8c18.5-3.8,36.9-2.9,55,3.2c2.1,0.7,4.1,1.6,6.1,2.6c3.9,2,5.7,6.2,4.5,10.4
		c-1.5,5.5-3.1,11-4.8,16.4c-1.8,5.6-7.4,7.7-13.1,5.3c-14.3-6.1-29.1-7-44-2.7c-15.5,4.5-25.3,15-29.9,30.2
		c-4.2,13.9-4.3,28.1,0,42c5.3,17.2,17.2,27.2,34.9,30.2c13.7,2.3,27.1,1,40-4.4c5.6-2.3,11.1,0.4,12.7,6.2c1.4,5,2.7,10,3.9,15
		c1.2,4.8-0.7,9-5.2,11.1c-8.2,3.9-17,5.8-25.9,6.8C184.1,274.5,178.3,274.7,172.5,275.2z"/>
	<path class="st5" d="M264.3,201.4c0,1.2,0,2.1,0,3.1c0,19.6,0,39.1,0,58.7c0,7.1-3.6,10.7-10.6,10.7c-6,0-12,0-18,0
		c-6,0-9.8-3.8-9.8-9.8c0-51.1,0-102.2,0-153.3c0-6.2,3.8-9.9,10-9.9c6.2,0,12.3,0,18.5,0c6.1,0,9.9,3.8,10,9.9
		c0,17.3,0,34.5,0,51.8c0,0.9,0,1.8,0,2.8c18.8,0,37.3,0,56.3,0c0-0.9,0-1.8,0-2.7c0-17,0-34.1,0-51.1c0-7.3,3.4-10.8,10.7-10.8
		c6.1,0,12.2,0,18.3,0c5.8,0,9.6,3.8,9.6,9.5c0,51.3,0,102.6,0,154c0,5.7-3.9,9.5-9.6,9.5c-6,0-12,0-18,0c-7.6,0-10.9-3.4-10.9-11
		c0-19.5,0-39,0-58.5c0-3,0-3-3-3c-16.8,0-33.6,0-50.4,0C266.4,201.4,265.5,201.4,264.3,201.4z"/>
</g>
<g id="C1" class="st0">
	<path class="st7" d="M411.5,184.5c0.4,22-4,43-11.4,63.6c-6,16.6-14.6,31.6-25,45.7c-11.2,15.3-22.5,30.5-33.6,45.8
		c-22.9,31.4-45.7,62.8-68.5,94.3c-4.6,6.4-8.8,13.1-13.6,19.4c-13.8,18.1-38.4,18.1-51.7-0.4c-25.4-35.2-50.6-70.7-75.7-106.1
		c-13.9-19.6-27.7-39.3-41.6-58.9c-24.6-34.8-35.1-73.7-32.2-116c2.7-38.6,17.3-72.5,41.9-102.4C130.3,32.8,169.4,12.1,216,7
		c58.4-6.4,108.7,12.6,148.6,55.7c25.1,27.1,40.7,59.6,45.6,96.6c0.6,4.2,1,8.5,1.2,12.8C411.6,176.3,411.5,180.4,411.5,184.5
		L411.5,184.5z M234.5,267.9c43.9,0.1,80.3-39.6,79.8-80.7c-0.6-45-35.1-80.3-79.6-80.3c-44.3,0-78.8,35.3-79.5,79.9
		C154.5,228.2,191.1,267.8,234.5,267.9L234.5,267.9z"/>
	<rect x="131.5" y="106.9" class="st7" width="211" height="166.4"/>
	<path class="st5" d="M197.7,288.1c-19.1-0.2-37.2-3.8-53.8-13.6c-20.4-12-33.4-29.8-39.6-52.3c-7.5-27.1-6.6-54,5.1-79.8
		c13.5-29.7,37.2-47.3,68.9-53.8c21.3-4.3,42.4-3.3,63.2,3.6c2.4,0.8,4.7,1.8,7,3c4.5,2.4,6.5,7.1,5.2,12
		c-1.7,6.3-3.5,12.6-5.5,18.8c-2.1,6.5-8.5,8.9-15.1,6.1c-16.5-7-33.4-8.1-50.5-3.1c-17.8,5.1-29.1,17.2-34.4,34.8
		c-4.8,16-4.9,32.3,0,48.3c6.1,19.7,19.8,31.2,40.1,34.7c15.7,2.7,31.2,1.1,46-5.1c6.4-2.7,12.7,0.4,14.6,7.1
		c1.6,5.7,3.1,11.5,4.5,17.2c1.4,5.6-0.8,10.3-6,12.8c-9.4,4.5-19.5,6.6-29.8,7.8C211,287.3,204.3,287.6,197.7,288.1z"/>
	<path class="st5" d="M296.6,139.2c-4.8,2.7-9,5.1-13.3,7.5c-7.4,4.1-14.1,1.1-16.2-7.4c-1.4-5.8-2.9-11.6-4.1-17.4
		c-1.1-4.9,0.8-9.4,5-11.8c12.2-7,24.5-13.9,36.8-20.6c1.5-0.8,3.3-1.2,5-1.2c6.3-0.1,12.6-0.1,18.9,0c6.1,0.1,10.4,4.5,10.6,10.9
		c0,0.5,0,1.1,0,1.6c0,57.3,0,114.7-0.1,172c0,2.7-0.8,5.6-2,7.9c-1.7,3.2-4.8,4.6-8.3,4.6c-7.1,0-14.2,0-21.3,0
		c-6.8,0-11-4.4-11-11.6c0-16.8,0-33.6,0-50.4c0-26.9,0-53.7,0-80.6C296.6,141.9,296.6,140.9,296.6,139.2z"/>
</g>
<g id="P" class="st0">
	<path class="st1" d="M411.5,184.5c0.4,22-4,43-11.4,63.6c-6,16.6-14.6,31.6-25,45.7c-11.2,15.3-22.5,30.5-33.6,45.8
		c-22.9,31.4-45.7,62.8-68.5,94.3c-4.6,6.4-8.8,13.1-13.6,19.4c-13.8,18.1-38.4,18.1-51.7-0.4c-25.4-35.2-50.6-70.7-75.7-106.1
		c-13.9-19.6-27.7-39.3-41.6-58.9c-24.6-34.8-35.1-73.7-32.2-116c2.7-38.6,17.3-72.5,41.9-102.4C130.3,32.8,169.4,12.1,216,7
		c58.4-6.4,108.7,12.6,148.6,55.7c25.1,27.1,40.7,59.6,45.6,96.6c0.6,4.2,1,8.5,1.2,12.8C411.6,176.3,411.5,180.4,411.5,184.5
		L411.5,184.5z M234.5,267.9c43.9,0.1,80.3-39.6,79.8-80.7c-0.6-45-35.1-80.3-79.6-80.3c-44.3,0-78.8,35.3-79.5,79.9
		C154.5,228.2,191.1,267.8,234.5,267.9L234.5,267.9z"/>
	<rect x="131.5" y="106.9" class="st1" width="211" height="166.4"/>
	<path class="st5" d="M219,231.8c0,1.8,0,3.2,0,4.6c0,24.6,0,49.1,0,73.7c0,10.7-5.4,16.3-15.8,16.4c-9.2,0-18.4,0.1-27.7,0
		c-9.7-0.1-15.4-5.9-15.4-15.8c0-78.6,0-157.3,0-235.9c0-9.1,4.8-14.5,13.6-15.9c23.1-3.7,46.3-5.2,69.6-4.2
		c20.1,0.9,39.4,4.9,56.6,16.3c20.4,13.6,31.3,33.2,34,57.7c2,18.3-0.1,36.1-8.2,52.8c-10.5,21.6-28,35-49.8,42.9
		c-16.8,6.1-34.2,7.9-52,7.5C222.4,231.8,221,231.8,219,231.8z M219.1,177.4c11.8,1,23.2,0.8,34.2-3c11.7-4,19.2-12.1,21.2-24.7
		c0.8-5,0.8-10.3,0.4-15.4c-0.9-10.2-6.2-17.7-15.5-21.5c-5.4-2.2-11.3-3.8-17-4.3c-7.7-0.7-15.5-0.2-23.3-0.2
		C219.1,131.6,219.1,154.3,219.1,177.4z"/>
</g>
<g id="A" class="st0">
	<path class="st8" d="M411.6,184.9c0.4,22-4,43-11.4,63.6c-6,16.6-14.6,31.6-25,45.7c-11.2,15.3-22.5,30.5-33.6,45.8
		c-22.9,31.4-45.7,62.8-68.5,94.3c-4.6,6.4-8.8,13.1-13.6,19.4c-13.8,18.1-38.4,18.1-51.7-0.4c-25.4-35.2-50.6-70.7-75.7-106.1
		c-13.9-19.6-27.7-39.3-41.6-58.9c-24.6-34.8-35.1-73.7-32.2-116c2.7-38.6,17.3-72.5,41.9-102.4c30.2-36.7,69.3-57.4,115.9-62.5
		C274.5,1,324.8,20,364.7,63.1c25.1,27.1,40.7,59.6,45.6,96.6c0.6,4.2,1,8.5,1.2,12.8C411.7,176.7,411.6,180.8,411.6,184.9
		L411.6,184.9z M234.6,268.3c43.9,0.1,80.3-39.6,79.8-80.7c-0.6-45-35.1-80.3-79.6-80.3c-44.3,0-78.8,35.3-79.5,79.9
		C154.6,228.6,191.2,268.2,234.6,268.3L234.6,268.3z"/>
	<rect x="131.6" y="107.3" class="st8" width="211" height="166.4"/>
	<path class="st9" d="M317.9,306.4c-4.8,0-9.7,0-14.5,0c-7.5,0-11.9-3.2-14.4-10.3c-6.5-19.1-13-38.2-19.4-57.3
		c-0.8-2.4-1.8-3.3-4.4-3.2c-18.1,0.1-36.2,0.1-54.2,0c-2.4,0-3.3,0.8-4,2.9c-6.1,18.8-12.3,37.5-18.5,56.2
		c-2.9,8.9-6.8,11.7-16.4,11.7c-8.6,0-17.3,0-25.9,0c-11.2,0-17.3-8.4-13.7-19c19.2-56.7,38.5-113.4,57.7-170
		c5.9-17.4,11.8-34.8,17.8-52.2c2.7-7.9,6.9-10.9,15.3-10.9c10.2,0,20.4,0,30.7,0c9.3,0,13.1,2.7,16.1,11.6
		C295,139,320,212.1,344.9,285.2c1.2,3.6,2.7,7.1,1.6,11.1c-1.7,6-6.5,10-12.7,10.1C328.5,306.5,323.2,306.4,317.9,306.4
		C317.9,306.4,317.9,306.4,317.9,306.4z M223.3,185.5c10.3,0,20,0,30,0c-5-14.7-9.9-29-15-44.1C233,156.7,228.2,171,223.3,185.5z"/>
</g>
<g id="u" class="st0">
	<path class="st10" d="M411.5,184.6c0.4,22-4,43-11.4,63.6c-6,16.6-14.6,31.6-25,45.7c-11.2,15.3-22.5,30.5-33.6,45.8
		c-22.9,31.4-45.7,62.8-68.5,94.3c-4.6,6.4-8.8,13.1-13.6,19.4c-13.8,18.1-38.4,18.1-51.7-0.4c-25.4-35.2-50.6-70.7-75.7-106.1
		c-13.9-19.6-27.7-39.3-41.6-58.9c-24.6-34.8-35.1-73.7-32.2-116c2.7-38.6,17.3-72.5,41.9-102.4C130.3,32.9,169.4,12.2,216,7.1
		c58.4-6.4,108.7,12.6,148.6,55.7c25.1,27.1,40.7,59.6,45.6,96.6c0.6,4.2,1,8.5,1.2,12.8C411.6,176.4,411.5,180.5,411.5,184.6
		L411.5,184.6z M234.5,268c43.9,0.1,80.3-39.6,79.8-80.7c-0.6-45-35.1-80.3-79.6-80.3c-44.3,0-78.8,35.3-79.5,79.9
		C154.5,228.3,191.1,267.9,234.5,268L234.5,268z"/>
	<rect x="131.5" y="105.3" class="st10" width="211" height="166.4"/>
	<path class="st5" d="M275.9,161.8c0-22.1,0.4-44.1-0.1-66.2c-0.3-12.9,7.4-17.8,18.3-17.2c8.4,0.5,16.9,0.1,25.2,0.1
		c9.3,0,15.1,5.3,15.1,14c0,44,0.1,88.1-0.1,132.1c-0.1,21.4-4.5,42-16.1,60.7c-14,22.7-35.6,35.6-62.9,40.2
		c-20.4,3.4-40.7,2.9-60.6-3.5c-27.1-8.8-44-27.2-53.3-52.1c-5.4-14.4-7.7-29.2-7.8-44.4c-0.1-44.4-0.1-88.7-0.1-133.1
		c0-8.6,5.8-13.9,14.8-13.9c9.3,0,18.8,0,28.1,0c10,0,15.5,5.2,15.6,14.7c0,42.2,0,84.3,0,126.5c0,11.9,0.9,23.6,5.4,34.8
		c4.9,12.1,13.2,21,27.5,23c14.6,2.1,28.1,0.3,38.2-11.2c7.1-8.1,10-17.9,11.3-28.2c0.8-6.8,1.2-13.8,1.2-20.6
		C276,198.9,275.9,180.4,275.9,161.8z"/>
	<path class="st11" d="M284.9,182.9c5.8,0,11.6,0,17.4,0c1.2,0,2.2,1.8,2.3,5.3c0.1,6.5,0.1,13,0,19.5c-0.1,3-0.8,4.8-1.7,5.3
		c-0.2,0.1-0.4,0.1-0.6,0.1c-11.5,0-23.1,0-34.6,0c-1.3,0-2.1-1.8-2.4-5.4c-0.1-0.8-0.1-1.7-0.1-2.5c0-4.7,0-9.4,0-14.2
		c0-5.3,0.8-8.2,2.4-8.2c2.1,0,4.3,0,6.4,0C277.6,182.9,281.3,182.9,284.9,182.9z"/>
</g>
<g id="U1" class="st0">
	<path class="st10" d="M411.5,183.9c0.4,22-4,43-11.4,63.6c-6,16.6-14.6,31.6-25,45.7c-11.2,15.3-22.5,30.5-33.6,45.8
		c-22.9,31.4-45.7,62.8-68.5,94.3c-4.6,6.4-8.8,13.1-13.6,19.4c-13.8,18.1-38.4,18.1-51.7-0.4c-25.4-35.2-50.6-70.7-75.7-106.1
		c-13.9-19.6-27.7-39.3-41.6-58.9c-24.6-34.8-35.1-73.7-32.2-116c2.7-38.6,17.3-72.5,41.9-102.4C130.3,32.2,169.4,11.5,216,6.4
		C274.4,0,324.7,19,364.6,62.1c25.1,27.1,40.7,59.6,45.6,96.6c0.6,4.2,1,8.5,1.2,12.8C411.6,175.7,411.5,179.8,411.5,183.9
		L411.5,183.9z M234.5,267.3c43.9,0.1,80.3-39.6,79.8-80.7c-0.6-45-35.1-80.3-79.6-80.3c-44.3,0-78.8,35.3-79.5,79.9
		C154.5,227.6,191.1,267.2,234.5,267.3L234.5,267.3z"/>
	<rect x="131.5" y="104.6" class="st10" width="211" height="166.4"/>
	<g id="Capa_2_00000067217050054915117510000003051267401774499475_" class="st12">
		<path class="st3" d="M311.6,139.5c-4.8,2.7-9,5.1-13.3,7.5c-7.4,4.1-14.1,1.1-16.2-7.4c-1.4-5.8-2.9-11.6-4.1-17.4
			c-1.1-4.9,0.8-9.4,5-11.8c12.2-7,24.5-13.9,36.8-20.6c1.5-0.8,3.3-1.2,5-1.2c6.3-0.1,12.6-0.1,18.9,0c6.1,0.1,10.4,4.5,10.6,10.9
			c0,0.5,0,1.1,0,1.6c0,57.3,0,114.7-0.1,172c0,2.7-0.8,5.6-2,7.9c-1.7,3.2-4.8,4.6-8.3,4.6c-7.1,0-14.2,0-21.3,0
			c-6.8,0-11-4.4-11-11.6c0-16.8,0-33.6,0-50.4c0-26.9,0-53.7,0-80.6C311.6,142.2,311.6,141.2,311.6,139.5z"/>
		<path class="st3" d="M215.5,154.6c0-17.5,0.3-34.9-0.1-52.4c-0.2-10.2,5.5-14.1,13.6-13.6c6.2,0.4,12.5,0.1,18.7,0.1
			c6.9,0,11.2,4.2,11.2,11.1c0,34.8,0.1,69.7-0.1,104.5c-0.1,16.9-3.3,33.2-11.9,48c-10.4,18-26.4,28.2-46.6,31.8
			c-15.1,2.7-30.2,2.3-44.9-2.8c-20.1-7-32.6-21.5-39.5-41.2c-4-11.4-5.7-23.1-5.8-35.1c-0.1-35.1-0.1-70.2-0.1-105.3
			c0-6.8,4.3-11,11-11c6.9,0,13.9,0,20.8,0c7.4,0,11.5,4.1,11.6,11.6c0,33.4,0,66.7,0,100.1c0,9.4,0.7,18.7,4,27.5
			c3.6,9.6,9.8,16.6,20.4,18.2c10.8,1.7,20.8,0.2,28.3-8.9c5.3-6.4,7.4-14.2,8.4-22.3c0.6-5.4,0.9-10.9,0.9-16.3
			C215.6,184,215.5,169.3,215.5,154.6z"/>
		<path class="st13" d="M285.6,179.9c5.8,0,11.6,0,17.4,0c1.2,0,2.2,1.8,2.3,5.3c0.1,6.5,0.1,13,0,19.5c-0.1,3-0.8,4.8-1.7,5.3
			c-0.2,0.1-0.4,0.1-0.6,0.1c-11.5,0-23.1,0-34.6,0c-1.3,0-2.1-1.8-2.4-5.4c-0.1-0.8-0.1-1.7-0.1-2.5c0-4.7,0-9.4,0-14.2
			c0-5.3,0.8-8.2,2.4-8.2c2.1,0,4.3,0,6.4,0C278.3,179.9,282,179.9,285.6,179.9z"/>
	</g>
</g>
</svg>
