<?xml version="1.0" encoding="utf-8"?>
<!-- Generator: Adobe Illustrator 27.0.0, SVG Export Plug-In . SVG Version: 6.00 Build 0)  -->
<svg version="1.1" xmlns="http://www.w3.org/2000/svg" xmlns:xlink="http://www.w3.org/1999/xlink" x="0px" y="0px"
	 viewBox="0 0 469.3 469.4" style="enable-background:new 0 0 469.3 469.4;" xml:space="preserve">
<style type="text/css">
	.st0{display:none;}
	.st1{display:inline;fill:#26A8F7;}
	.st2{display:inline;}
	.st3{fill:#D7A570;}
	.st4{display:none;fill:#FFFFFF;}
	.st5{fill:#FFFFFF;}
	.st6{display:none;fill:#FBFBFB;}
</style>
<g id="Capa_1">
	<g id="Capa_2_00000125582739659264851840000012856344240561482396_" class="st0">
		<path class="st1" d="M412,184.2c0.4,22-4,43-11.4,63.6c-6,16.6-14.6,31.6-25,45.7c-11.2,15.3-22.5,30.5-33.6,45.8
			c-22.9,31.4-45.7,62.8-68.5,94.3c-4.6,6.4-8.8,13.1-13.6,19.4c-13.8,18.1-38.4,18.1-51.7-0.4c-25.4-35.2-50.6-70.7-75.7-106.1
			c-13.9-19.6-27.7-39.3-41.6-58.9c-24.6-34.8-35.1-73.7-32.2-116C61.4,133,76,99.1,100.6,69.2c30.2-36.7,69.3-57.4,115.9-62.5
			c58.4-6.4,108.7,12.6,148.6,55.7c25.1,27.1,40.7,59.6,45.6,96.6c0.6,4.2,1,8.5,1.2,12.8C412.1,176,412,180.1,412,184.2L412,184.2z
			 M235,267.6c43.9,0.1,80.3-39.6,79.8-80.7c-0.6-45-35.1-80.3-79.6-80.3c-44.3,0-78.8,35.3-79.5,79.9
			C155,227.9,191.6,267.5,235,267.6L235,267.6z"/>
		<rect x="132" y="106.6" class="st1" width="211" height="166.4"/>
		<path class="st2" d="M233.3,231.3c0,1.8,0,3,0,4.2c0,18,0,36,0,54c0,12.5-7.8,20.4-20.3,20.5c-7.9,0.1-15.8,0.1-23.7,0
			c-12.2-0.1-20.2-8.2-20.2-20.4c0-65.3,0-130.6,0-195.9c0-11,6.6-18.6,17.3-20.3c20.2-3.1,40.5-4.5,60.9-3.6
			c18.5,0.9,36.2,4.7,51.8,15.3c18.8,12.7,28.9,30.7,31.2,53.2c1.7,16.6-0.3,32.8-8,47.8c-10.4,20.4-27.5,32.7-48.9,39.6
			c-11.5,3.7-23.3,5.4-35.3,5.6C236.6,231.4,235.2,231.3,233.3,231.3z M183.5,191.5c0,32.4,0,64.8,0,97.2c0,5.5,1.4,6.9,6.9,6.9
			c7.2,0,14.4,0,21.6,0c5.6,0,6.9-1.3,6.9-6.8c0-20.4,0-40.8,0-61.2c0-8.7,2.2-10.9,10.8-10.6c11.2,0.3,22.3-0.4,33.3-3.1
			c14.3-3.6,27.2-9.9,37.3-20.9c13.9-15.3,17.6-33.7,15.6-53.5c-2.1-20.7-12.4-36.2-30.9-45.9c-9.7-5.1-20.1-7.7-30.9-8.6
			c-21.6-1.9-43.1-0.6-64.4,2.8c-5.2,0.8-6.1,1.9-6.1,7.3C183.5,127.1,183.5,159.3,183.5,191.5z"/>
		<path class="st2" d="M218.9,150.2c0-9,0-18,0-27c0-5.7,2.3-8.4,7.9-8.8c10.4-0.7,20.8-0.9,30.9,2.2c17.5,5.3,24.5,18.6,23.1,35.3
			c-1.7,19.3-12.9,31-32.2,33.5c-7.2,0.9-14.5,0.8-21.8,0.8c-5.4,0-7.9-2.9-7.9-8.4C218.9,168.6,218.9,159.4,218.9,150.2z
			 M233.4,172.3c7.9-0.2,15.4-0.4,22.4-3.8c5.5-2.7,9-7,10-13c0.6-3.7,0.6-7.6,0.4-11.3c-0.4-5.7-3.5-9.7-8.5-12.1
			c-7.7-3.7-15.9-3.7-24.3-3.4C233.4,143.2,233.4,157.5,233.4,172.3z"/>
	</g>
	<path class="st3" d="M412.2,184.5c0.4,22-4,43-11.4,63.6c-6,16.6-14.6,31.6-25,45.7c-11.2,15.3-22.5,30.5-33.6,45.8
		c-22.9,31.4-45.7,62.8-68.5,94.3c-4.6,6.4-8.8,13.1-13.6,19.4c-13.8,18.1-38.4,18.1-51.7-0.4c-25.4-35.2-50.6-70.7-75.7-106.1
		c-13.9-19.6-27.7-39.3-41.6-58.9c-24.6-34.8-35.1-73.7-32.2-116c2.7-38.6,17.3-72.5,41.9-102.4C131,32.8,170.1,12.1,216.7,7
		c58.4-6.4,108.7,12.6,148.6,55.7c25.1,27.1,40.7,59.6,45.6,96.6c0.6,4.2,1,8.5,1.2,12.8C412.3,176.3,412.2,180.4,412.2,184.5
		L412.2,184.5z M235.2,267.9c43.9,0.1,80.3-39.6,79.8-80.7c-0.6-45-35.1-80.3-79.6-80.3c-44.3,0-78.8,35.3-79.5,79.9
		C155.2,228.2,191.8,267.8,235.2,267.9L235.2,267.9z"/>
	<rect x="132.2" y="106.9" class="st3" width="211" height="166.4"/>
	<path class="st4" d="M221.3,241.5c0,1.8,0,3.2,0,4.6c0,24.6,0,49.1,0,73.7c0,10.7-5.4,16.3-15.8,16.4c-9.2,0-18.4,0.1-27.7,0
		c-9.7-0.1-15.4-5.9-15.4-15.8c0-78.6,0-157.3,0-235.9c0-9.1,4.8-14.5,13.6-15.9c23.1-3.7,46.3-5.2,69.6-4.2
		c20.1,0.9,39.4,4.9,56.6,16.3c20.4,13.6,31.3,33.2,34,57.7c2,18.3-0.1,36.1-8.2,52.8c-10.5,21.6-28,35-49.8,42.9
		c-16.8,6.1-34.2,7.9-52,7.5C224.7,241.5,223.3,241.5,221.3,241.5z M221.4,187.2c11.8,1,23.2,0.8,34.2-3c11.7-4,19.2-12.1,21.2-24.7
		c0.8-5,0.8-10.3,0.4-15.4c-0.9-10.2-6.2-17.7-15.5-21.5c-5.4-2.2-11.3-3.8-17-4.3c-7.7-0.7-15.5-0.2-23.3-0.2
		C221.4,141.3,221.4,164,221.4,187.2z"/>
</g>
<g id="Capa_2">
	<path class="st5" d="M304.1,150.5c-4.8,2.7-9,5.1-13.3,7.5c-7.4,4.1-14.1,1.1-16.2-7.4c-1.4-5.8-2.9-11.6-4.1-17.4
		c-1.1-4.9,0.8-9.4,5-11.8c12.2-7,24.5-13.9,36.8-20.6c1.5-0.8,3.3-1.2,5-1.2c6.3-0.1,12.6-0.1,18.9,0c6.1,0.1,10.4,4.5,10.6,10.9
		c0,0.5,0,1.1,0,1.6c0,57.3,0,114.7-0.1,172c0,2.7-0.8,5.6-2,7.9c-1.7,3.2-4.8,4.6-8.3,4.6c-7.1,0-14.2,0-21.3,0
		c-6.8,0-11-4.4-11-11.6c0-16.8,0-33.6,0-50.4c0-26.9,0-53.7,0-80.6C304.1,153.2,304.1,152.2,304.1,150.5z"/>
	<path class="st5" d="M208,165.6c0-17.5,0.3-34.9-0.1-52.4c-0.2-10.2,5.5-14.1,13.6-13.6c6.2,0.4,12.5,0.1,18.7,0.1
		c6.9,0,11.2,4.2,11.2,11.1c0,34.8,0.1,69.7-0.1,104.5c-0.1,16.9-3.3,33.2-11.9,48c-10.4,18-26.4,28.2-46.6,31.8
		c-15.1,2.7-30.2,2.3-44.9-2.8c-20.1-7-32.6-21.5-39.5-41.2c-4-11.4-5.7-23.1-5.8-35.1c-0.1-35.1-0.1-70.2-0.1-105.3
		c0-6.8,4.3-11,11-11c6.9,0,13.9,0,20.8,0c7.4,0,11.5,4.1,11.6,11.6c0,33.4,0,66.7,0,100.1c0,9.4,0.7,18.7,4,27.5
		c3.6,9.6,9.8,16.6,20.4,18.2c10.8,1.7,20.8,0.2,28.3-8.9c5.3-6.4,7.4-14.2,8.4-22.3c0.6-5.4,0.9-10.9,0.9-16.3
		C208.1,195,208,180.3,208,165.6z"/>
	<path class="st6" d="M278.1,190.9c5.8,0,11.6,0,17.4,0c1.2,0,2.2,1.8,2.3,5.3c0.1,6.5,0.1,13,0,19.5c-0.1,3-0.8,4.8-1.7,5.3
		c-0.2,0.1-0.4,0.1-0.6,0.1c-11.5,0-23.1,0-34.6,0c-1.3,0-2.1-1.8-2.4-5.4c-0.1-0.8-0.1-1.7-0.1-2.5c0-4.7,0-9.4,0-14.2
		c0-5.3,0.8-8.2,2.4-8.2c2.1,0,4.3,0,6.4,0C270.8,190.9,274.5,190.9,278.1,190.9z"/>
</g>
</svg>
