<?xml version="1.0" encoding="utf-8"?>
<!-- Generator: Adobe Illustrator 27.0.0, SVG Export Plug-In . SVG Version: 6.00 Build 0)  -->
<svg version="1.1" id="Capa_1" xmlns="http://www.w3.org/2000/svg" xmlns:xlink="http://www.w3.org/1999/xlink" x="0px" y="0px"
	 viewBox="0 0 520 520" style="enable-background:new 0 0 520 520;" xml:space="preserve">
<style type="text/css">
	.st0{fill:#504F9D;}
	.st1{fill:#FEFEFF;}
	.st2{fill:#5DB246;}
	.st3{fill:#5CB245;}
	.st4{fill:#FCFEFC;}
</style>
<path class="st0" d="M264.7,45.9c37.4,0,74.8,0.6,112.1-0.1c58.2-1.1,106.5,53.9,105.3,105.5c-1,41.2,0.2,82.5-0.3,123.7
	c-0.4,35.4-14.5,64.2-44.4,84.3c-17.7,11.9-37.7,16.3-58.9,16.3c-36.7-0.1-73.4,0-110.1-0.1c-4.3,0-7.6,1.2-10.8,4
	c-30.8,26.6-61.8,53.1-92.6,79.7c-7.6,6.6-16.1,8.4-25.2,4.2c-9.3-4.3-12.8-12.4-12.9-22.2c-0.1-16,0-32,0-48
	c0-5.9-0.2-11.8,0.1-17.7c0.2-3.6-1-5.4-4.5-6.4c-13.8-3.8-26.3-10.3-37.4-19.2c-22.1-17.7-33.2-41.1-34.2-69.2
	c-1.7-47.8-1.5-95.6-0.1-143.4C52,93.5,87,54.5,131,47.5c7.3-1.2,14.7-1.7,22.1-1.7C190.3,45.9,227.5,45.9,264.7,45.9z M151.2,437.7
	c2.7-0.4,3.7-1.9,4.9-2.9c29.1-25,58.3-49.9,87.2-75.2c6.9-6,14.3-8.8,23.4-8.8c37,0.1,74.1,0.1,111.1,0c5,0,10.2,0.1,15.1-0.7
	c39.3-6.3,64.7-36,64.7-76c0.1-41.9,0.1-83.8,0-125.8c-0.1-39.6-37.7-78.1-77.2-78.3c-77.1-0.3-154.2-0.3-231.3,0
	C105,70.3,74.6,104.7,74.5,144c-0.1,44.1-0.8,88.2,0.2,132.3c0.7,30.8,14.9,52.5,42.8,65c9.5,4.3,19.6,7.1,29.5,10.2
	c3.3,1.1,4.4,2.6,4.3,6c-0.2,19.7-0.1,39.4-0.1,59.1C151.2,423.5,151.2,430.4,151.2,437.7z"/>
<path class="st1" d="M151.2,437.7c0-7.3,0-14.1,0-21c0-19.7-0.1-39.4,0.1-59.1c0-3.4-1-5-4.3-6c-9.9-3.1-20-6-29.5-10.2
	c-27.8-12.5-42.1-34.2-42.8-65c-1-44.1-0.3-88.2-0.2-132.3c0.1-39.3,30.5-73.7,74.6-73.9c77.1-0.3,154.2-0.3,231.3,0
	c39.5,0.2,77.1,38.7,77.2,78.3c0.1,41.9,0.1,83.8,0,125.8c-0.1,39.9-25.4,69.7-64.7,76c-4.9,0.8-10.1,0.7-15.1,0.7
	c-37,0.1-74.1,0.1-111.1,0c-9.1,0-16.5,2.8-23.4,8.8c-28.9,25.2-58.1,50.2-87.2,75.2C154.9,435.8,153.9,437.3,151.2,437.7z
	 M264.6,263.4c2.6-6.5,4.8-12.6,7.6-18.5c1.4-2.9,0.5-4.5-1.5-6.5c-5.7-5.7-11-11.8-16.8-17.5c-2.9-2.9-3.1-4.8-0.4-8.2
	c13.3-16.8,25.1-34.6,32.1-55.1c0.8-2.2,1.8-2.8,4-2.8c4.9,0.1,9.8,0.2,14.6-0.1c6-0.3,10.1-4.4,10.6-10.2
	c0.6-6.8-4.7-11.9-12.6-11.9c-16.3-0.1-32.7-0.2-49,0.1c-4.1,0.1-5.1-1.3-4.9-5.1c0.2-3.8,0.6-7.7-0.4-11.6c-1.4-5.4-6.3-9-11.6-8.5
	c-5.5,0.5-9.7,4.6-10,10.2c-0.2,3.2-0.4,6.4,0,9.6c0.4,4.2-1,5.4-5.2,5.4c-16.3-0.2-32.7-0.2-49-0.1c-8.3,0-13.4,5.6-12.3,13
	c0.9,5.9,5.5,9.2,13.1,9.2c28.5,0,56.9,0.1,85.4,0c3.7,0,5.3,0.2,3.3,4.5c-6.2,13.4-14.3,25.5-23.1,37.2c-1.6,2.2-2.6,2-4-0.2
	c-5.3-7.8-10.8-15.4-16.3-23.1c-1-1.4-1.8-3.2-4.1-3.2c-7.8,0.1-15.7,0-23.5,0c-0.2,2.4,1.2,3.6,2.1,4.9
	c8.7,12.6,17.3,25.2,26.4,37.6c2.5,3.3,2.2,5.1-0.6,7.8c-7.7,7.6-14.9,15.5-22.6,23.1c-6.1,6-12.6,11.7-18.7,17.7
	c-3.6,3.5-4.3,8.8-2.1,13c2.3,4.3,7,6.5,11.9,5.7c2.8-0.5,4.9-2.1,6.9-3.9c13.7-12.2,26.9-25,39.2-38.6c2.5-2.8,3.8-3,6.4,0
	C247.1,246.3,255.4,254.9,264.6,263.4z M319,193.8c-7.3,0.3-12,4.2-14.7,10.9c-11.7,28.9-23.4,57.9-35.1,86.8
	c-2.9,7.3-0.6,13.4,5.8,15.9c6.1,2.4,11.9-0.4,14.8-7.4c2.7-6.5,5.4-13,7.9-19.6c1-2.6,2.3-3.5,5.1-3.5c11.3,0.2,22.5,0.2,33.8,0
	c3.1-0.1,4.4,1.1,5.4,3.8c2.7,6.9,5.5,13.7,8.5,20.5c2.8,6.2,8.8,8.6,14.5,6.2c5.7-2.4,8.4-8.6,5.8-14.7
	c-12.2-29.8-24.5-59.6-36.9-89.4C331.3,196.9,326.1,193.8,319,193.8z"/>
<path class="st2" d="M264.6,263.4c-9.3-8.5-17.5-17.1-25.4-26.1c-2.6-3-3.9-2.8-6.4,0c-12.3,13.7-25.4,26.4-39.2,38.6
	c-2,1.8-4.2,3.4-6.9,3.9c-4.9,0.9-9.6-1.4-11.9-5.7c-2.2-4.2-1.6-9.4,2.1-13c6.1-6,12.6-11.6,18.7-17.7c7.6-7.6,14.9-15.6,22.6-23.1
	c2.8-2.7,3-4.5,0.6-7.8c-9.1-12.3-17.7-25-26.4-37.6c-0.9-1.3-2.3-2.5-2.1-4.9c7.9,0,15.7,0.1,23.5,0c2.4,0,3.1,1.7,4.1,3.2
	c5.5,7.7,10.9,15.4,16.3,23.1c1.5,2.1,2.4,2.3,4,0.2c8.8-11.7,16.9-23.8,23.1-37.2c2-4.3,0.4-4.5-3.3-4.5c-28.4,0.1-56.9,0.1-85.4,0
	c-7.6,0-12.2-3.3-13.1-9.2c-1.1-7.4,4-13,12.3-13c16.3-0.1,32.7-0.2,49,0.1c4.3,0.1,5.6-1.2,5.2-5.4c-0.3-3.2-0.2-6.4,0-9.6
	c0.4-5.6,4.5-9.7,10-10.2c5.3-0.5,10.2,3.1,11.6,8.5c1,3.8,0.6,7.7,0.4,11.6c-0.2,3.9,0.8,5.2,4.9,5.1c16.3-0.3,32.7-0.2,49-0.1
	c7.9,0,13.2,5.1,12.6,11.9c-0.5,5.7-4.6,9.9-10.6,10.2c-4.9,0.2-9.8,0.2-14.6,0.1c-2.1,0-3.2,0.6-4,2.8c-7,20.5-18.8,38.3-32.1,55.1
	c-2.7,3.4-2.5,5.3,0.4,8.2c5.7,5.7,11.1,11.7,16.8,17.5c2,2,2.9,3.6,1.5,6.5C269.5,250.8,267.2,256.9,264.6,263.4z"/>
<path class="st3" d="M319,193.8c7.1,0.1,12.3,3.2,14.9,9.5c12.4,29.7,24.7,59.5,36.9,89.4c2.5,6.2-0.2,12.3-5.8,14.7
	c-5.7,2.4-11.7-0.1-14.5-6.2c-3-6.7-5.8-13.6-8.5-20.5c-1-2.7-2.3-3.9-5.4-3.8c-11.3,0.2-22.5,0.2-33.8,0c-2.8,0-4.2,0.8-5.1,3.5
	c-2.4,6.6-5.2,13.1-7.9,19.6c-2.9,7-8.7,9.8-14.8,7.4c-6.4-2.5-8.7-8.6-5.8-15.9c11.7-29,23.4-57.9,35.1-86.8
	C307,197.9,311.8,194,319,193.8z M308.1,254.7c7.3,0,13.7,0,20,0c1.9,0,3-0.4,2.1-2.5c-3.4-8.2-6.8-16.4-10.7-25.7
	C315.5,236.5,311.9,245.3,308.1,254.7z"/>
<path class="st4" d="M308.1,254.7c3.8-9.4,7.3-18.2,11.4-28.2c3.9,9.3,7.3,17.5,10.7,25.7c0.9,2.2-0.2,2.6-2.1,2.5
	C321.8,254.6,315.4,254.7,308.1,254.7z"/>
</svg>
