<?xml version="1.0" encoding="utf-8"?>
<!-- Generator: Adobe Illustrator 27.0.0, SVG Export Plug-In . SVG Version: 6.00 Build 0)  -->
<svg version="1.1" id="Capa_1" xmlns="http://www.w3.org/2000/svg" xmlns:xlink="http://www.w3.org/1999/xlink" x="0px" y="0px"
	 viewBox="0 0 520 520" style="enable-background:new 0 0 520 520;" xml:space="preserve">
<style type="text/css">
	.st0{fill:#FFFFFF;}
	.st1{fill:#070504;}
	.st2{fill:#0A0605;}
	.st3{fill:#EA5666;}
	.st4{fill:#D84554;}
</style>
<g id="Capa_1_00000109728075146680034250000013388769011823434426_">
</g>
<g id="Capa_2_00000049204064373058449840000018443749030798250671_">
</g>
<g id="Capa_3">
	<rect x="103.3" y="99.8" class="st0" width="338.9" height="314.9"/>
	<path class="st0" d="M260.2,9.9c136.7,0.2,250,110.4,250,250.2c0,138.5-111.4,250.1-250,250.1C120,510.3,9.5,396.6,9.8,259.1
		C10.1,122,122.6,9.9,260.2,9.9z M373.9,220.7c0-2,0-3.2,0-4.3c-0.2-9-4.1-13-12.9-13c-74.9,0-149.7,0-224.6,0
		c-8.8,0-12.8,4.1-12.8,13c0,14.2,0,28.4,0,42.6c0.1,40.6,16.1,73.7,47.4,99.5c1.3,1,3.4,1.7,3.2,4.2c-12,0-23.8,0-35.6,0
		c-9.7,0-14.8,3.8-15,11.2c-0.2,7.8,4.8,11.6,15.1,11.6c73.4,0,146.9,0,220.3,0c1.4,0,2.9,0,4.3-0.1c5.9-0.5,10.2-4.7,10.6-10.5
		c0.4-5.9-3.7-11.1-9.7-12.1c-2.3-0.4-4.7-0.2-7.1-0.2c-11.5,0-22.9,0-36.1,0c21.1-15.5,35.3-34.3,44.6-56.9
		c11.3,0,22.2,0.2,33.1-0.1c19-0.5,35.4-13.1,41.3-31.4c5.8-17.7,0-37.8-14.6-49.2C409.7,212.9,392.7,211.7,373.9,220.7z
		 M260.1,146.4c0-10.6-0.4-21.3,0.1-31.9c0.4-8.4-5.9-13.5-11.4-13.5c-6.2-0.1-11.8,5.7-11.7,13.2c0.4,21.5,0.1,43,0.2,64.5
		c0,8.5,4.1,13.2,11.2,13.3c7.4,0.1,11.5-4.7,11.6-13.7C260.2,167.7,260.1,157,260.1,146.4z M180.5,163.6c0,5.4-0.1,10.9,0,16.3
		c0.2,7.6,4.7,12.3,11.6,12.1c6.6-0.1,11-4.7,11.1-12c0.1-10.8,0.1-21.7,0-32.5c-0.1-7.5-5-12.5-11.6-12.3
		c-6.4,0.2-10.9,5-11.1,12.2C180.4,152.7,180.5,158.2,180.5,163.6z M294.3,163.7c0,5.7-0.1,11.3,0,17c0.2,6.8,4.6,11.2,10.9,11.4
		c6.7,0.2,11.6-4.3,11.7-11.3c0.2-11.3,0.2-22.6,0-34c-0.1-6.9-5.3-11.8-11.7-11.6c-6.2,0.2-10.8,4.9-11,11.5
		C294.1,152.3,294.3,158,294.3,163.7z"/>
	<path class="st1" d="M403.4,212.6c22.6-10.8,43-9.4,61.8,5.4c17.5,13.7,24.5,37.8,17.5,59.1c-7.1,21.9-26.8,37-49.6,37.6
		c-13.1,0.4-26.1,0.1-39.7,0.1c-11.2,27-28.2,49.6-53.5,68.2c15.8,0,29.6,0,43.3,0c2.8,0,5.7-0.2,8.5,0.2
		c7.2,1.2,12.1,7.5,11.6,14.5c-0.5,6.9-5.5,11.9-12.7,12.6c-1.7,0.2-3.4,0.1-5.1,0.1c-88.1,0-176.3,0-264.4,0
		c-12.4,0-18.4-4.6-18.1-13.9c0.2-8.9,6.3-13.4,18-13.5c14.2,0,28.4,0,42.8,0c0.2-3-2.3-3.8-3.8-5c-37.6-30.9-56.8-70.6-57-119.4
		c0-17.1,0-34.1,0-51.2c0-10.8,4.8-15.6,15.4-15.6c89.8,0,179.7,0,269.5,0c10.5,0,15.2,4.8,15.5,15.6
		C403.5,208.8,403.4,210.2,403.4,212.6z M280.5,379.3c0.8,0,1.8,0.2,2.5,0c47.2-13.8,77.4-44.2,89.7-92c4.4-17.3,3.3-35,3.3-52.5
		c0-5,0-10,0-15.2c-9.9,0-18.6,0-27.4,0c-3.1-0.1-6.2-0.3-9.4-0.3c-50.1,0-100.1,0-150.2,0c-19,0-38.1,0.2-57.1,0.2
		c-1.1-0.3-1.5,0.2-1.4,1.3c-0.1,12.8-0.6,25.5-0.2,38.3c1.4,51.7,25.1,89.7,71.6,112.4C226.9,383.6,253.4,386.6,280.5,379.3z
		 M401.3,287.4c10.7,0,20.3,0.1,29.9,0c14.6-0.3,26.5-12.2,26.7-26.6c0.3-14.2-11.3-26.7-25.8-27.8c-13.8-1.1-27.6,10.3-28.5,24.7
		C403.1,267.3,402.5,276.9,401.3,287.4z"/>
	<path class="st1" d="M266.9,123.5c0,12.8,0,25.5,0,38.3c0,10.8-5,16.6-13.9,16.5c-8.5-0.1-13.4-5.8-13.4-16
		c0-25.8,0.3-51.6-0.2-77.4c-0.2-9,6.5-15.9,14-15.8c6.6,0.1,14.1,6.1,13.6,16.2C266.4,97.9,266.9,110.7,266.9,123.5z"/>
	<path class="st2" d="M171.3,144.1c0-6.5-0.1-13,0-19.5c0.2-8.6,5.5-14.4,13.3-14.6c8-0.2,13.9,5.8,14,14.8c0.2,13,0.2,26,0,39.1
		c-0.1,8.7-5.4,14.2-13.3,14.4c-8.3,0.2-13.7-5.4-13.9-14.6C171.2,157.1,171.3,150.6,171.3,144.1z"/>
	<path class="st2" d="M307.8,144.2c0-6.8-0.2-13.6,0-20.4c0.3-8,5.8-13.6,13.2-13.8c7.7-0.2,13.9,5.5,14,13.9
		c0.2,13.6,0.3,27.2,0,40.8c-0.2,8.4-6.1,13.8-14.1,13.6c-7.6-0.2-12.9-5.5-13.1-13.7C307.7,157.7,307.8,150.9,307.8,144.2z"/>
	<path class="st3" d="M132.1,219.5c19-0.1,38.1-0.2,57.1-0.2c50.1,0,100.1,0,150.2,0c3.1,0,6.2,0.2,9.4,0.3c0,8.5-0.2,17.1,0.1,25.6
		c0.9,22.9-1.5,45.2-10.2,66.5c-7.9,19.4-19.6,36-35.5,50c-7.2,6.4-15.4,11.3-22.6,17.6c-27.2,7.3-53.6,4.3-78.5-7.8
		c-46.5-22.7-70.2-60.7-71.6-112.4c-0.3-12.7,0.1-25.5,0.2-38.3C131.1,220.4,131.6,220,132.1,219.5z"/>
	<path class="st4" d="M280.5,379.3c7.2-6.3,15.4-11.2,22.6-17.6c15.9-13.9,27.5-30.6,35.5-50c8.7-21.3,11.1-43.7,10.2-66.5
		c-0.3-8.5-0.1-17.1-0.1-25.6c8.8,0,17.5,0,27.4,0c0,5.2,0,10.2,0,15.2c-0.1,17.6,1.1,35.3-3.3,52.5c-12.3,47.8-42.5,78.2-89.7,92
		C282.3,379.6,281.4,379.3,280.5,379.3z"/>
	<path class="st4" d="M147.8,226.5c-0.4,0.4-0.8,0.7-1.2,1.1C146.5,226.6,146.8,226.2,147.8,226.5z"/>
</g>
</svg>
