<?xml version="1.0" encoding="utf-8"?>
<!-- Generator: Adobe Illustrator 27.0.0, SVG Export Plug-In . SVG Version: 6.00 Build 0)  -->
<svg version="1.1" id="Capa_1" xmlns="http://www.w3.org/2000/svg" xmlns:xlink="http://www.w3.org/1999/xlink" x="0px" y="0px"
	 viewBox="0 0 520 520" style="enable-background:new 0 0 520 520;" xml:space="preserve">
<style type="text/css">
	.st0{fill:#0A0808;}
	.st1{fill:#EAEAF3;}
	.st2{fill:#F2916E;}
	.st3{fill:#F4A281;}
	.st4{fill:#F4F5F9;}
	.st5{fill:#D1D0E6;}
	.st6{fill:#F3F3F8;}
	.st7{fill:#E9E9F2;}
	.st8{fill:#D0CFE5;}
	.st9{fill:#101011;}
	.st10{fill:#0F0F10;}
	.st11{fill:#0D0E0E;}
</style>
<g>
	<path class="st0" d="M252.2,511.6c-13.7-3.4-22.8-13.2-32.3-22.7c-31.3-31.5-63.1-62.5-93.9-94.5c-25-25.9-40.6-57.2-45.9-92.8
		c-10.7-72.6,13.3-131.8,70.8-177.5c0.4-0.3,0.7-0.6,1.3-1.1c0.2-15.9,2.8-31.4,9.4-46c3.1-6.8,6.8-13.1,11.1-19.3
		c2.9-4.2,6.4-5.7,11.2-3.5c4.3,5.1,4.3,7.2,0.4,12.8c-34.3,48.8-15.1,116.1,40,139.3c13.6,5.7,27.7,8.6,42.6,6.6
		c3.2,0.1,6.4-0.3,9.6-0.9c60.5-11.2,94.1-76.5,67-131.4c-15.1-30.6-40-48.3-74.4-51.9c-1.6-0.2-3.1-0.7-4.7-0.7
		c-21.1-0.8-40.4,4.7-57.8,16.8c-5.5,3.9-7.9,3.8-12.8-0.4c-2-4.5-0.8-7.9,3.2-10.9c61.1-45.4,152.4-10.8,168,63.9
		c1.8,8.4,2.3,17,2.7,25.7c14.2,10.6,26.8,22.8,37.5,37c19.7,26,32,55.2,35.7,87.7c6.8,60.6-12,112.1-55,155
		c-31.6,31.5-63.1,63-94.5,94.6c-7,7.1-15.3,11.5-24.7,14.1C261.9,511.6,257,511.6,252.2,511.6z M342.1,240.1
		c-6.4,1.4-8.1,0.6-11.5-5c-4.6-7.6-9.2-15.2-14.7-22.6c-2.2,1.3-4.2,2.5-6.3,3.7c7.6,18.3,12.2,37.1,12.5,56.7
		c0.1,7.3-1.1,8.9-8,11.2c-5,1.7-9.5,4.1-12.8,8.3c-4.8,6.1-3.1,11.9,4.1,14.5c5.5,1.9,11.2,1.8,16.8,1.2
		c14.1-1.5,23.9-11.2,25.2-24.6c0.6-6.7-1.2-13.2-3.3-19.5c-1.6-4.8-0.8-8.5,3.5-11.3c7-0.3,8.5,0.7,10.6,7.2
		c4.7,14.1,6,28.1-1.2,41.6c1.5,1.6,2.7,2.8,3.9,4.2c6.6,7.4,9.9,15.9,8.3,25.9c-2.8,16.9-15.2,27.3-32.5,27.3
		c-37,0.1-73.9,0.1-110.9,0.2c-15.1-0.1-30.2,0-45.2-0.2c-18.6-0.2-33.1-18.1-30-36.4c1.4-8.4,5.8-15,12.2-20.6
		c-4.8-9.5-6.1-19.3-4.3-29.7c1.9-10.6,5.7-20.5,10.3-30.1c6.4-13.3,14.4-25.6,22.9-38c-19.8-16.7-32.3-37.7-37.6-63.1
		c-1.1,0.7-1.6,0.9-2.1,1.3c-44.7,39.2-64.5,88.4-58.6,147.5c3.5,35.2,17.3,66.3,41.3,92.2c17.8,19.3,36.8,37.5,55.3,56.1
		c16.7,16.8,33.4,33.6,50.2,50.2c11.1,11,26.5,12,37.5,1.6c12.3-11.5,23.8-23.8,35.7-35.8c0.5-0.4,1.1-0.7,1.5-1.2
		c21.3-21.3,42.8-42.5,63.9-64c28.4-28.8,44.9-63.5,48.2-103.9c3.6-45-8.7-85.5-37.2-120.7c-7-8.6-14.7-16.7-24.2-23.8
		c-2.5,12.9-6.9,24.4-13.3,35.1c-6.4,10.8-14.6,20.1-24,28c5.1,8.2,10.1,15.9,14.9,23.8C346.7,233.3,346.5,235.1,342.1,240.1z
		 M212.5,270.9c11.5,4.9,20.5,12,23.5,24.6c16.1,0,32,0,48,0c3.1-12.7,12.2-19.7,23.2-24.6c0-14.5-5.8-39.1-11.4-48.3
		c-35.1,7.6-34.1,8.5-72.2,0C217.2,237.9,213.3,253.8,212.5,270.9z M233.4,310.3c-11.4,17.3-43.2,16.2-60.8,3.1
		c-6.6,4.7-9.1,11.8-6.9,19.1c2.1,7,8.7,11.7,16.6,11.8c25.6,0.1,51.2,0.1,76.8,0c10.2,0,17.5-7.1,17.6-16.7
		c0.1-9.7-7.1-17-17.2-17.2C250.8,310.2,242,310.3,233.4,310.3z M203.9,212.6c-2.1,3-4.2,5.8-6.1,8.8c-10,15.5-19.5,31.3-24,49.5
		c-2.8,11.5-2.2,22.5,7.9,30.5c9.8,7.8,21.3,8.9,33.1,5.4c7.1-2.1,8.6-8.2,4-14.1c-3.5-4.5-8.3-7.2-13.7-8.6
		c-5.1-1.3-7.2-4.4-7.3-9.4c-0.1-6.2,0.5-12.3,1.4-18.4c1.9-13.8,5.9-27,11.2-40C208.1,215,206.2,213.9,203.9,212.6z M286.8,344.3
		c17.1,0,33.5,0,50,0c1.1,0,2.3,0,3.4-0.1c7-1,12.7-6.1,14.2-12.8c1.7-7.4-0.9-13.7-7.3-18c-19,12.9-39.9,13.3-58.4,0.6
		C292.8,324.5,292.2,334.3,286.8,344.3z"/>
	<path class="st1" d="M193.8,44.5c4.9,4.2,7.2,4.3,12.8,0.4c17.4-12.1,36.6-17.6,57.8-16.8c1.6,0.1,3.1,0.5,4.7,0.7
		c-22.4,9.9-39.2,25.8-50.2,47.7c-2.5,4.9-5.6,9.9-5.6,15.8c-0.7,0.3-1.6,0.5-2.1,1c-3.7,3.8-7,3.9-11.2,0.3c-2.9-2.4-6.5-1.4-9,1.6
		c-2.5,2.9-2.6,6.2-0.1,9.2c4.9,5.9,11.3,7.6,18.6,6.5c-1.2,1.5-1,3.4-1,5.1c-0.1,7.6,0.4,15,1.8,22.5c5.5,29.8,21.7,52.1,47.1,68.2
		c3.2,2,7.2,2.9,9.6,6.3c-14.8,2-29-0.9-42.6-6.6c-55.1-23.2-74.4-90.5-40-139.3c4-5.7,3.9-7.7-0.4-12.8
		C187.7,51.5,190.9,48.2,193.8,44.5z"/>
	<path class="st2" d="M313.5,454.2c-11.9,12-23.4,24.2-35.7,35.8c-11,10.3-26.4,9.3-37.5-1.6c-16.8-16.7-33.5-33.4-50.2-50.2
		c-18.5-18.6-37.5-36.8-55.3-56.1c-23.9-26-37.8-57-41.3-92.2c-5.9-59.2,13.9-108.4,58.6-147.5c0.5-0.4,1.1-0.7,2.1-1.3
		c5.3,25.4,17.8,46.4,37.6,63.1c-8.5,12.3-16.5,24.7-22.9,38c-4.6,9.6-8.4,19.5-10.3,30.1c-1.9,10.4-0.5,20.2,4.3,29.7
		c-6.4,5.6-10.8,12.2-12.2,20.6c-3.1,18.3,11.4,36.2,30,36.4c15.1,0.2,30.2,0.1,45.2,0.2c5,10.4,11.9,19.6,19.8,27.8
		c21.1,21.7,42.7,42.9,64.1,64.3C311,452.2,312.3,453.2,313.5,454.2z"/>
	<path class="st3" d="M313.5,454.2c-1.2-1.1-2.5-2-3.6-3.2c-21.4-21.4-43-42.6-64.1-64.3c-7.9-8.2-14.9-17.3-19.8-27.8
		c37-0.1,73.9-0.1,110.9-0.2c17.2,0,29.7-10.4,32.5-27.3c1.6-9.9-1.7-18.5-8.3-25.9c-1.2-1.3-2.4-2.6-3.9-4.2
		c7.2-13.5,5.8-27.5,1.2-41.6c-2.1-6.5-3.6-7.5-10.6-7.2c-1.8-4.2-3.7-8.4-5.5-12.6c4.3-5,4.6-6.8,1.1-12.5
		c-4.8-7.9-9.8-15.6-14.9-23.8c9.4-8,17.6-17.3,24-28c6.4-10.7,10.8-22.3,13.3-35.1c9.5,7.1,17.2,15.1,24.2,23.8
		c28.5,35.2,40.9,75.7,37.2,120.7c-3.3,40.3-19.7,75-48.2,103.9c-21.2,21.5-42.6,42.7-63.9,64C314.5,453.5,314,453.8,313.5,454.2z"
		/>
	<path class="st4" d="M213.3,92.3c0.1-5.9,3.2-10.9,5.6-15.8c11-21.8,27.8-37.7,50.2-47.7c34.4,3.6,59.3,21.3,74.4,51.9
		c27.1,54.9-6.5,120.2-67,131.4c-3.2,0.6-6.4,1-9.6,0.9c-2.3-3.4-6.4-4.2-9.6-6.3c-25.4-16.1-41.6-38.4-47.1-68.2
		c-1.4-7.5-1.9-15-1.8-22.5c0-1.8-0.2-3.6,1-5.1c2.7-0.7,5.2-1.8,7.4-3.5c3-2.4,5.6-5,4.5-9.4C220.2,93.9,217,92.7,213.3,92.3z
		 M259.8,120.8c7.3,0,13.6-2.6,18.7-7.9c3.4-3.5,3.4-7.8,0.4-10.8c-2.9-2.9-6.7-2.8-10.4,0.2c-6.4,5.2-10.5,5.2-16.8,0.2
		c-4-3.2-7.9-3.3-10.8-0.2c-3.1,3.2-2.7,7.5,1.1,11.2C246.9,118.3,252.9,120.8,259.8,120.8z M314.7,111.1c5.6-0.1,10.4-2.1,14.1-6.4
		c2.7-3.1,2.7-6.5,0.1-9.7c-2.5-3.1-6.7-3.7-9.9-0.9c-3.2,2.7-5.7,2.9-8.9,0.1c-3.3-2.9-6.9-2.4-9.9,0.7c-2.7,2.8-2.6,6.9,0.3,10
		C304.3,109.1,309.1,111.1,314.7,111.1z"/>
	<path class="st5" d="M212.5,270.9c0.8-17.1,4.7-33,11.1-48.2c38.1,8.5,37,7.7,72.2,0c5.6,9.3,11.4,33.8,11.4,48.3
		c-11.1,4.8-20.2,11.8-23.2,24.6c-16,0-31.8,0-48,0C233,282.9,223.9,275.9,212.5,270.9z"/>
	<path class="st6" d="M233.4,310.3c8.7,0,17.4-0.1,26.2,0c10.1,0.2,17.3,7.5,17.2,17.2c-0.1,9.6-7.4,16.7-17.6,16.7
		c-25.6,0.1-51.2,0.1-76.8,0c-7.9,0-14.5-4.8-16.6-11.8c-2.2-7.3,0.3-14.4,6.9-19.1C190.1,326.5,221.9,327.6,233.4,310.3z"/>
	<path class="st7" d="M342.1,240.1c1.8,4.2,3.7,8.4,5.5,12.6c-4.4,2.8-5.1,6.6-3.5,11.3c2.1,6.3,3.9,12.7,3.3,19.5
		c-1.3,13.5-11.1,23.1-25.2,24.6c-5.6,0.6-11.3,0.8-16.8-1.2c-7.2-2.6-8.9-8.4-4.1-14.5c3.3-4.2,7.9-6.6,12.8-8.3
		c6.9-2.4,8.1-3.9,8-11.2c-0.3-19.6-4.9-38.4-12.5-56.7c2.1-1.2,4.1-2.4,6.3-3.7c5.5,7.4,10.2,14.9,14.7,22.6
		C334,240.8,335.7,241.5,342.1,240.1z"/>
	<path class="st7" d="M203.9,212.6c2.2,1.3,4.2,2.4,6.3,3.6c-5.3,13-9.3,26.2-11.2,40c-0.8,6.1-1.5,12.2-1.4,18.4
		c0.1,5,2.2,8.1,7.3,9.4c5.4,1.4,10.2,4.1,13.7,8.6c4.6,5.9,3.1,12-4,14.1c-11.8,3.5-23.3,2.4-33.1-5.4c-10-8-10.7-19-7.9-30.5
		c4.5-18.2,13.9-34,24-49.5C199.7,218.4,201.8,215.6,203.9,212.6z"/>
	<path class="st8" d="M286.8,344.3c5.4-10,6-19.8,1.9-30.3c18.4,12.7,39.3,12.3,58.4-0.6c6.4,4.2,9,10.6,7.3,18
		c-1.5,6.7-7.2,11.8-14.2,12.8c-1.1,0.2-2.3,0.1-3.4,0.1C320.3,344.3,303.9,344.3,286.8,344.3z"/>
	<path class="st9" d="M213.3,92.3c3.8,0.4,6.9,1.6,8,5.8c1.1,4.4-1.5,7-4.5,9.4c-2.2,1.7-4.7,2.7-7.4,3.5c-7.3,1-13.7-0.7-18.6-6.5
		c-2.5-3-2.4-6.3,0.1-9.2c2.5-2.9,6.2-4,9-1.6c4.2,3.6,7.5,3.4,11.2-0.3C211.6,92.8,212.5,92.6,213.3,92.3z"/>
	<path class="st10" d="M259.8,120.8c-7,0-12.9-2.5-17.9-7.4c-3.8-3.7-4.1-7.9-1.1-11.2c2.9-3.1,6.8-3,10.8,0.2
		c6.3,5,10.4,5,16.8-0.2c3.7-3,7.5-3.1,10.4-0.2c3,3,3,7.3-0.4,10.8C273.4,118.2,267.2,120.9,259.8,120.8z"/>
	<path class="st11" d="M314.7,111.1c-5.6,0-10.4-1.9-14.3-6.1c-2.9-3.1-3-7.3-0.3-10c3-3.1,6.6-3.6,9.9-0.7c3.2,2.8,5.7,2.6,8.9-0.1
		c3.2-2.7,7.4-2.2,9.9,0.9c2.6,3.2,2.6,6.6-0.1,9.7C325.1,108.9,320.4,111,314.7,111.1z"/>
</g>
</svg>
