<?xml version="1.0" encoding="utf-8"?>
<!-- Generator: Adobe Illustrator 27.0.0, SVG Export Plug-In . SVG Version: 6.00 Build 0)  -->
<svg version="1.1" xmlns="http://www.w3.org/2000/svg" xmlns:xlink="http://www.w3.org/1999/xlink" x="0px" y="0px"
	 viewBox="0 0 520 520" style="enable-background:new 0 0 520 520;" xml:space="preserve">
<style type="text/css">
	.st0{fill:#FFFFFF;}
	.st1{fill:#08090B;}
	.st2{fill:#D9D8DB;}
	.st3{fill:#888890;}
	.st4{fill:#69696E;}
	.st5{fill:#68686D;}
	.st6{fill:#4A4A51;}
	.st7{fill:#C6C5CB;}
	.st8{fill:#97D2F4;}
	.st9{display:none;}
	.st10{display:inline;fill:#CDD2DA;}
	.st11{display:inline;fill:#D84554;}
	.st12{display:inline;fill:#020303;}
	.st13{display:inline;fill:#E6E9ED;}
	.st14{display:inline;fill:#F5F6F8;}
	.st15{display:inline;fill:#EA5666;}
	.st16{display:inline;fill:#FBD1A7;}
	.st17{display:inline;fill:#070504;}
	.st18{display:inline;fill:#0A0605;}
</style>
<g id="Capa_1">
	<rect x="103.3" y="98.4" class="st0" width="338.9" height="314.9"/>
	<path class="st0" d="M260.3,8.6c136.7,0.2,250,110.4,249.9,250.2c0,138.5-111.4,250.1-250,250.1C120,509,9.5,395.2,9.8,257.7
		C10.1,120.6,122.6,8.5,260.3,8.6z M373.9,219.4c0-2,0-3.2,0-4.3c-0.2-9-4.1-13-12.9-13c-74.9,0-149.7,0-224.6,0
		c-8.8,0-12.8,4.1-12.8,13c0,14.2,0,28.4,0,42.6c0.1,40.6,16.1,73.7,47.4,99.5c1.3,1,3.4,1.7,3.2,4.2c-12,0-23.8,0-35.6,0
		c-9.7,0-14.8,3.8-15,11.2c-0.2,7.8,4.8,11.6,15.1,11.6c73.4,0,146.9,0,220.3,0c1.4,0,2.9,0,4.3-0.1c5.9-0.5,10.2-4.7,10.6-10.5
		c0.4-5.9-3.7-11.1-9.7-12.1c-2.3-0.4-4.7-0.2-7.1-0.2c-11.5,0-22.9,0-36.1,0c21.1-15.5,35.3-34.3,44.6-56.9
		c11.3,0,22.2,0.2,33.1-0.1c19-0.5,35.4-13.1,41.3-31.4c5.8-17.7,0-37.8-14.6-49.2C409.7,211.5,392.7,210.4,373.9,219.4z
		 M260.2,145.1c0-10.6-0.4-21.3,0.1-31.9c0.4-8.4-5.9-13.5-11.4-13.5c-6.2-0.1-11.8,5.7-11.7,13.2c0.4,21.5,0.1,43,0.2,64.5
		c0,8.5,4.1,13.2,11.2,13.3c7.4,0.1,11.5-4.7,11.6-13.7C260.2,166.3,260.2,155.7,260.2,145.1z M180.5,162.3c0,5.4-0.1,10.9,0,16.3
		c0.2,7.6,4.7,12.3,11.6,12.1c6.6-0.1,11-4.7,11.1-12c0.1-10.8,0.1-21.7,0-32.5c-0.1-7.5-5-12.5-11.6-12.3
		c-6.4,0.2-10.9,5-11.1,12.2C180.4,151.4,180.5,156.8,180.5,162.3z M294.3,162.3c0,5.7-0.1,11.3,0,17c0.2,6.8,4.6,11.2,10.9,11.4
		c6.7,0.2,11.6-4.3,11.7-11.3c0.2-11.3,0.2-22.6,0-34c-0.1-6.9-5.3-11.8-11.7-11.6c-6.2,0.2-10.8,4.9-11,11.5
		C294.1,151,294.3,156.7,294.3,162.3z"/>
	<path class="st1" d="M312,290.9c-2.3,5.5-3.3,6.1-9.5,6.1c-33.8,0-67.7,0-101.5,0c-1.5,0-2.9,0-4.3,0c-0.9,1.4-0.5,2.8-0.5,4.1
		c0,16.2-0.1,32.4,0,48.7c0.1,11.1-4,20.1-12.5,27.2c-13.3,11.1-34.5,9.1-45.5-4.2c-1.5-1.8-2.9-3.8-4.1-5.9
		c-1.2-2.1-1.7-4.4-3.1-6.8c-3.8-0.2-7.8-0.1-11.7-0.4c-9.3-0.8-17-4.7-23.3-11.5c-6.7-7.2-9.4-15.8-9.5-25.4c-0.1-5,0-10.1,0-15.3
		c-2.5-0.7-4.9-0.4-7.2-0.4c-10.5-0.1-20.1-8.3-22.7-17c-0.2-0.7,0-2-1.3-2.2c0-13.3,0-26.6,0-39.9c0.6-0.1,0.7-0.6,0.9-1.1
		c3.2-10.5,12-18.4,25.9-18.5c1.3,0,2.7,0,3.9,0c1-1.3,0.5-2.7,0.5-4c0.2-6.1-0.3-12.2,0.7-18.3c1.7-10.9,7.5-19.1,16.6-25
		c6.3-4.1,13.5-5.3,20.9-5.4c2,0,4,0,5.8,0c1.2-0.7,1.3-1.8,1.7-2.8c5.1-12.4,14.2-19.8,27.5-21.3c19.4-2.1,35.8,12.9,36.2,30.9
		c0.4,17.2,0.1,34.3,0.2,51.5c0,1.4-0.4,2.9,0.4,4.4c42.3,0,84.7,0,127,0c0.8-1.2,0.5-2.4,0.5-3.6c0-16.4,0.1-32.7,0-49.1
		c-0.1-8.9,2.6-16.6,8.5-23.4c15.8-18.1,46-12.9,55,9.4c0.5,1.2,0.5,2.6,2,3.8c3.6,0.3,7.6,0.1,11.6,0.5
		c11.8,1.2,20.7,6.9,27.1,16.7c4,6.2,5.5,13.2,5.5,20.4c0.1,4.9,0,9.8,0,15c2.8,0.3,5.5,0.3,8,0.4c11,0.6,20.4,9.3,22.4,18.9
		c0.1,0.5,0.2,1,0.8,1.2c0,13,0,26.1,0,39.1c-1.1,0.2-0.9,1.2-1.1,1.9c-2.9,9.3-12.1,17.4-23.7,17.4c-2,0-4,0-5.9,0
		c-0.9,1.5-0.5,2.8-0.5,4.1c-0.2,6.1,0.3,12.2-0.7,18.3c-1.7,10.9-7.4,19.2-16.5,25.1c-6.3,4.1-13.5,5.4-20.9,5.5c-2,0-4,0-5.9,0
		c-1.1,0.6-1.3,1.7-1.7,2.6c-5,12.4-14.2,19.9-27.4,21.4c-19.3,2.2-35.9-12.6-36.3-30.8c-0.5-19.3-0.2-38.6-0.2-57.9
		c0-1.5-0.1-2.9-0.1-4.4c0-13.1,0.1-26.3,0.1-39.4c0-0.2-0.3-0.4-0.6-0.7c-0.6,0-1.2,0-1.9,0c-28.6,0-57.2,0-85.8,0
		c-0.9,0-1.8,0.1-2.8,0.2c-12-0.4-23.9-0.2-35.9-0.1c-0.2,0-0.4,0.3-0.6,0.4c0,11.1,0,22.1,0,33.2c12.3,0,24.4,0,36.5,0
		c1.5,0.1,2.9,0.2,4.4,0.2c21.9,0,43.8,0,65.7,0C308.7,284.7,310,285.6,312,290.9z M401.6,188.5c-3.6-1.3-7.2-0.4-11-0.5
		c0,53.3,0,106.2,0,159.5c3.8-0.1,7.5,0.8,11-0.5c6.2-0.7,10.8-3.7,14.6-8.5c4.2-5.3,5.2-11.5,5.3-17.9c0.1-31.2,0.1-62.5,0-93.7
		c0-6.1,0.1-12.2-0.6-18.3C419.8,198.8,411.6,189.3,401.6,188.5z M118.4,188.5c-6.2,0.7-10.8,3.7-14.6,8.5
		c-4.2,5.3-5.2,11.5-5.3,17.9c-0.1,31.2-0.1,62.5,0,93.7c0,6.1-0.1,12.2,0.6,18.3c1.1,9.8,9.3,19.3,19.3,20.1
		c3.6,1.3,7.2,0.4,11.2,0.5c0-1.7,0-3.1,0-4.6c0-36,0-72,0-108.1c0-1.1-0.2-2.2,0-3.2c1.2-4.5,1.3-6.6,6.4-7.2
		c4.1,0.5,6.1,2.6,6.3,6.7c0,0.9,0,1.9,0,2.8c0,38.6,0,77.3,0,115.9c0,3.2,0.5,6.3,1.6,9.3c3.3,9.1,15.1,15.3,24.9,11.7
		c4.4-0.5,7.6-3.1,10.2-6.3c3.7-4.3,5-9.5,5-15.1c0-54.5,0-108.9,0-163.4c0-2.4-0.3-4.8-0.8-7.1c-1.5-6.2-7.2-13.3-14.4-14.3
		c-3.8-1.7-7.6-1.3-11.4-0.2c-9,2.4-15.1,10.4-15.1,19.9c0,6,0,11.9,0,17.9c0,1.2-0.1,2.3-0.4,3.5c-0.8,3.2-3.5,3.6-5.9,4.6
		c-4.5-0.9-6.1-4.1-6.3-8.2c-0.1-1.1,0-2.1,0-3.2c0-3.5,0-7.1,0-10.9C125.6,188.1,122,187.2,118.4,188.5z M362.4,164.6
		c-3.8-1.6-7.6-1.2-11.4-0.2c-9.2,2.6-15,10.7-15,20.9c0,54.9,0,109.8,0,164.7c0,7.4,2.6,13.7,8.9,18.1c5.4,3.7,11.2,4.8,17.5,2.7
		c0.7-0.1,1.4,0,2-0.2c8.2-3.2,12.9-10.6,13.2-18.3c0.1-3.6,0.1-7.2,0.1-10.8c0-51.6,0-103.3,0-154.9c0-3.6-0.1-7.2-1.6-10.5
		C373.3,170.2,369.2,165.8,362.4,164.6z M86.4,240.5c-2.3,0-4.3,0.1-6.2,0c-6-0.2-12.8,4.7-12.9,12.9c-0.2,9.6-0.1,19.1,0,28.7
		c0.1,6.1,4,11,9.8,12.5c3.1,0.8,6.2,0.5,9.3,0.2C86.4,276.6,86.4,258.8,86.4,240.5z M433.7,240.6c0,18.3,0,36.2,0,54.3
		c2.2,0,4.1,0,6.1,0c7.1-0.2,12.8-5.4,12.9-12.5c0.2-9.8,0.2-19.6,0-29.5c-0.1-6.3-5-11.7-10.9-12.3
		C439.2,240.3,436.5,240.6,433.7,240.6z"/>
	<path class="st2" d="M232.8,251c0.9-0.1,1.8-0.2,2.8-0.2c28.6,0,57.2,0,85.8,0c0.7,0,1.3,0,1.9,0c0.3,0.3,0.6,0.5,0.6,0.7
		c0,13.1,0,26.3-0.1,39.4c-3.9,0-7.9,0-11.8,0c-1.9-5.3-3.3-6.2-9.1-6.2c-21.9,0-43.8,0-65.7,0c-1.5,0-2.9-0.1-4.4-0.2
		c0.4-3.3-1-6.4-0.9-9.8C232.2,266.8,231.8,258.9,232.8,251z"/>
	<path class="st3" d="M362.4,164.6c6.8,1.2,10.9,5.6,13.6,11.6c1.5,3.3,1.6,6.9,1.6,10.5c0,51.6,0,103.3,0,154.9
		c0,3.6,0.1,7.2-0.1,10.8c-0.3,7.7-5,15.1-13.2,18.3c-0.6,0.2-1.3,0.2-2,0.2c-0.8-1.2-1.4-2.5-2.4-3.6c-4-4.8-5.6-10.4-5.6-16.5
		c-0.1-55.4,0-110.7,0-166.1c0-2.9,0.7-5.7,1.4-8.5C356.9,171.7,360.1,168.4,362.4,164.6z"/>
	<path class="st3" d="M168.8,164.6c7.2,1,12.9,8.1,14.4,14.3c0.5,2.3,0.9,4.7,0.8,7.1c0,54.5,0,108.9,0,163.4c0,5.6-1.3,10.8-5,15.1
		c-2.7,3.2-5.9,5.8-10.2,6.3c-0.1-0.7-0.7-1.1-1.1-1.6c-4.1-5.1-6.9-10.7-6.9-17.3c-0.1-56.1,0-112.3,0-168.4c0-1.3,0.2-2.6,0.4-3.9
		C162.3,173.8,165.4,169.1,168.8,164.6z"/>
	<path class="st4" d="M168.8,164.6c-3.5,4.5-6.5,9.2-7.6,15c-0.2,1.3-0.4,2.6-0.4,3.9c0,56.1,0,112.3,0,168.4
		c0,6.6,2.8,12.2,6.9,17.3c0.4,0.5,1,0.9,1.1,1.6c-9.7,3.7-21.6-2.6-24.9-11.7c-1.1-3-1.6-6.1-1.6-9.3c0-38.6,0-77.3,0-115.9
		c0-0.9,0-1.9,0-2.8c-0.2-4-2.1-6.1-6.3-6.7c0-4.8,0-9.5-0.1-14.3c2.4-1,5.1-1.4,5.9-4.6c0.3-1.2,0.4-2.3,0.4-3.5c0-6,0-11.9,0-17.9
		c0-9.5,6.1-17.5,15.1-19.9C161.2,163.4,165.1,162.9,168.8,164.6z"/>
	<path class="st4" d="M362.4,164.6c-2.3,3.8-5.5,7.1-6.6,11.6c-0.7,2.8-1.4,5.6-1.4,8.5c0,55.4,0,110.7,0,166.1
		c0,6,1.6,11.7,5.6,16.5c0.9,1.1,1.6,2.4,2.4,3.6c-6.3,2.1-12.1,1-17.5-2.7c-6.3-4.4-8.9-10.6-8.9-18.1c0-54.9,0-109.8,0-164.7
		c0-10.2,5.8-18.3,15-20.9C354.8,163.4,358.6,163,362.4,164.6z"/>
	<path class="st5" d="M118.4,347c-10-0.8-18.3-10.3-19.3-20.1c-0.7-6.1-0.5-12.2-0.6-18.3c-0.1-31.2-0.1-62.5,0-93.7
		c0-6.4,1.1-12.6,5.3-17.9c3.8-4.8,8.5-7.9,14.6-8.5C118.4,241.3,118.4,294.1,118.4,347z"/>
	<path class="st5" d="M401.6,188.5c10,0.8,18.3,10.3,19.3,20.1c0.7,6.1,0.5,12.2,0.6,18.3c0.1,31.2,0.1,62.5,0,93.7
		c0,6.4-1.1,12.6-5.3,17.9c-3.8,4.8-8.5,7.9-14.6,8.5C401.6,294.1,401.6,241.3,401.6,188.5z"/>
	<path class="st6" d="M118.4,347c0-52.8,0-105.7,0-158.5c3.6-1.3,7.2-0.3,11.2-0.5c0,3.8,0,7.3,0,10.9c0,1.1,0,2.1,0,3.2
		c0.2,4.2,1.8,7.3,6.3,8.2c0,4.8,0,9.5,0.1,14.3c-5.1,0.6-5.2,2.7-6.4,7.2c-0.3,1,0,2.1,0,3.2c0,36,0,72,0,108.1c0,1.4,0,2.9,0,4.6
		C125.6,347.3,122,348.3,118.4,347z"/>
	<path class="st6" d="M401.6,188.5c0,52.8,0,105.7,0,158.5c-3.6,1.3-7.2,0.4-11,0.5c0-53.3,0-106.2,0-159.5
		C394.4,188.1,398,187.2,401.6,188.5z"/>
	<path class="st7" d="M232.8,251c-1,7.9-0.6,15.8-0.9,23.7c-0.1,3.3,1.3,6.5,0.9,9.8c-12.1,0-24.2,0-36.5,0c0-11.1,0-22.1,0-33.2
		c0.2-0.1,0.4-0.4,0.6-0.4C208.9,250.8,220.9,250.6,232.8,251z"/>
	<path class="st8" d="M86.4,240.5c0,18.3,0,36.1,0,54.3c-3.1,0.2-6.3,0.5-9.3-0.2c-5.8-1.5-9.7-6.4-9.8-12.5
		c-0.1-9.6-0.2-19.1,0-28.7c0.1-8.2,6.9-13.1,12.9-12.9C82.1,240.5,84.1,240.5,86.4,240.5z"/>
	<path class="st8" d="M433.7,240.6c2.8,0,5.5-0.2,8.1,0c5.9,0.7,10.8,6,10.9,12.3c0.2,9.8,0.2,19.7,0,29.5
		c-0.2,7.1-5.8,12.3-12.9,12.5c-2,0-3.9,0-6.1,0C433.7,276.8,433.7,258.9,433.7,240.6z"/>
</g>
<g id="Capa_2" class="st9">
	<rect x="102.2" y="100.4" class="st10" width="338.9" height="314.9"/>
	<path class="st10" d="M259.1,10.5C395.8,10.7,509,120.9,509,260.7c0,138.5-111.4,250.1-250,250.1C118.9,510.9,8.4,397.2,8.6,259.7
		C8.9,122.6,121.5,10.5,259.1,10.5z M372.8,221.3c0-2,0-3.2,0-4.3c-0.2-9-4.1-13-12.9-13c-74.9,0-149.7,0-224.6,0
		c-8.8,0-12.8,4.1-12.8,13c0,14.2,0,28.4,0,42.6c0.1,40.6,16.1,73.7,47.4,99.5c1.3,1,3.4,1.7,3.2,4.2c-12,0-23.8,0-35.6,0
		c-9.7,0-14.8,3.8-15,11.2c-0.2,7.8,4.8,11.6,15.1,11.6c73.4,0,146.9,0,220.3,0c1.4,0,2.9,0,4.3-0.1c5.9-0.5,10.2-4.7,10.6-10.5
		c0.4-5.9-3.7-11.1-9.7-12.1c-2.3-0.4-4.7-0.2-7.1-0.2c-11.5,0-22.9,0-36.1,0c21.1-15.5,35.3-34.3,44.6-56.9
		c11.3,0,22.2,0.2,33.1-0.1c19-0.5,35.4-13.1,41.3-31.4c5.8-17.7,0-37.8-14.6-49.2C408.6,213.5,391.6,212.3,372.8,221.3z M259,147
		c0-10.6-0.4-21.3,0.1-31.9c0.4-8.4-5.9-13.5-11.4-13.5c-6.2-0.1-11.8,5.7-11.7,13.2c0.4,21.5,0.1,43,0.2,64.5
		c0,8.5,4.1,13.2,11.2,13.3c7.4,0.1,11.5-4.7,11.6-13.7C259,168.3,259,157.6,259,147z M179.3,164.2c0,5.4-0.1,10.9,0,16.3
		c0.2,7.6,4.7,12.3,11.6,12.1c6.6-0.1,11-4.7,11.1-12c0.1-10.8,0.1-21.7,0-32.5c-0.1-7.5-5-12.5-11.6-12.3
		c-6.4,0.2-10.9,5-11.1,12.2C179.2,153.4,179.3,158.8,179.3,164.2z M293.1,164.3c0,5.7-0.1,11.3,0,17c0.2,6.8,4.6,11.2,10.9,11.4
		c6.7,0.2,11.6-4.3,11.7-11.3c0.2-11.3,0.2-22.6,0-34c-0.1-6.9-5.3-11.8-11.7-11.6c-6.2,0.2-10.8,4.9-11,11.5
		C293,152.9,293.1,158.6,293.1,164.3z"/>
	<path class="st11" d="M146.6,227.1c-0.4,0.4-0.8,0.7-1.2,1.1C145.4,227.2,145.7,226.8,146.6,227.1z"/>
	<path class="st12" d="M137.5,123c0-6.8-0.1-13.4,0-19.9c0.1-6.5,3.7-10.2,10.2-10.2c28-0.1,56-0.2,84,0.1
		c10.9,0.1,19.8,5.3,27.4,12.8c2.1-0.1,2.9-1.8,4.2-2.8c7.9-6.6,16.9-10.1,27.3-10.1c26.5,0.1,53,0,79.5,0c8.2,0,11.6,3.3,11.7,11.4
		c0,6.1,0,12.2,0,19.1c6.5,0,12.8,0,19.1,0c7.7,0,11.4,3.5,11.4,11c0,67,0,134,0,201c0,8.3-3.7,11.9-12.1,11.9
		c-93.7,0-187.5,0-281.2,0c-8.7,0-12.1-3.6-12.1-12.5c0-66.6,0-133.2,0-199.8c0-8.5,3.3-11.7,11.9-11.8c5.5,0,11,0,16.5,0
		C135.9,123.3,136.3,123.2,137.5,123z M269.9,300.5c30.2-8.5,61.1-1.4,91.3-4.7c0-60.8,0-121.5,0-182.6c-23,0-45.6,0-68.2,0
		c-15,0-23.1,8.1-23.1,23.2c0,47,0,94.1,0,141.1C269.9,285.3,269.9,293.1,269.9,300.5z M249.1,301.6c0.2-1.2,0.4-1.8,0.4-2.4
		c0-55.1,0.1-110.2,0-165.3c0-12.1-8.9-20.7-21-20.8c-19.9-0.1-39.8,0-59.8,0c-3.5,0-7,0-10.5,0c0,61.4,0,122.2,0,183.2
		c20.6,0,40.9,0.1,61.2,0C229.6,296.3,239.8,296,249.1,301.6z M127.8,143.9c0,61.3,0,122,0,182.6c39.5,0,78.6,0,118.4,0
		c-4.7-7.2-10.9-9.8-18.6-9.8c-25.9,0-51.7,0-77.6,0c-9.4,0-12.4-3-12.4-12.5c0-51.1,0-102.2,0-153.3c0-2.3,0.6-4.6-0.7-7
		C134,143.9,131.1,143.9,127.8,143.9z M273.3,326.5c40,0,79.2,0,118.3,0c0-61.2,0-121.9,0-182.7c-3.4-0.1-6.3-0.5-9.7,0.4
		c0,2.2,0,4.5,0,6.8c0,51.1,0,102.2,0,153.3c0,9.4-3.1,12.4-12.6,12.4c-25.9,0-51.7,0-77.6,0C284.1,316.8,277.8,319.3,273.3,326.5z"
		/>
	<path class="st12" d="M259.3,428.8c-46.2,0-92.5,0-138.7,0c-10.5,0-13.6-3.1-13.6-13.6c0-8.5-0.1-17,0-25.4
		c0.1-8.1,3.6-11.9,11.5-11.9c94.2,0,188.3,0,282.5,0c7.5,0,11.3,3.9,11.4,11.3c0.1,9.1,0.1,18.2,0,27.4
		c-0.1,8.6-3.7,12.2-12.5,12.2C353,428.8,306.1,428.8,259.3,428.8z M249.1,408.2c-4.9-7.7-11-10.4-19.8-10.2
		c-31.6,0.6-63.1,0.2-94.7,0.3c-2.3,0-4.6-0.6-6.9,0.6c0,3.1,0,6.1,0,9.4C168.3,408.2,208.4,408.2,249.1,408.2z M391.8,398.7
		c-40.3,0-80.8,0-121.8,0c5,6.3,9.9,10.2,18.8,10c32.2-0.7,64.4-0.3,96.6-0.3c2.1,0,4.2,0.5,6.4-0.5
		C391.8,404.9,391.8,402,391.8,398.7z"/>
	<path class="st13" d="M269.9,300.5c0-7.4,0-15.2,0-23c0-47,0-94.1,0-141.1c0-15.1,8.1-23.2,23.1-23.2c22.6,0,45.3,0,68.2,0
		c0,61.1,0,121.8,0,182.6C330.9,299,300.1,291.9,269.9,300.5z"/>
	<path class="st14" d="M249.1,301.6c-9.4-5.7-19.5-5.3-29.7-5.2c-20.3,0.1-40.6,0-61.2,0c0-61.1,0-121.8,0-183.2c3.5,0,7,0,10.5,0
		c19.9,0,39.8-0.1,59.8,0c12.1,0.1,21,8.7,21,20.8c0.1,55.1,0,110.2,0,165.3C249.5,299.9,249.3,300.4,249.1,301.6z"/>
	<path class="st15" d="M127.8,143.9c3.3,0,6.2,0,9.1,0c1.2,2.4,0.6,4.8,0.7,7c0,51.1,0,102.2,0,153.3c0,9.5,3,12.5,12.4,12.5
		c25.9,0,51.7,0,77.6,0c7.6,0,13.8,2.6,18.6,9.8c-39.8,0-78.9,0-118.4,0C127.8,265.9,127.8,205.2,127.8,143.9z"/>
	<path class="st15" d="M273.3,326.5c4.5-7.2,10.8-9.7,18.4-9.8c25.9,0,51.7,0,77.6,0c9.5,0,12.6-3,12.6-12.4c0-51.1,0-102.2,0-153.3
		c0-2.3,0-4.6,0-6.8c3.4-0.9,6.4-0.5,9.7-0.4c0,60.8,0,121.5,0,182.7C352.5,326.5,313.3,326.5,273.3,326.5z"/>
	<path class="st15" d="M249.1,408.2c-40.7,0-80.9,0-121.4,0c0-3.2,0-6.3,0-9.4c2.3-1.1,4.7-0.6,6.9-0.6c31.6,0,63.1,0.3,94.7-0.3
		C238.2,397.8,244.2,400.5,249.1,408.2z"/>
	<path class="st13" d="M391.8,398.7c0,3.4,0,6.3,0,9.2c-2.2,1.1-4.4,0.5-6.4,0.5c-32.2,0-64.4-0.4-96.6,0.3
		c-8.9,0.2-13.8-3.7-18.8-10C311,398.7,351.5,398.7,391.8,398.7z"/>
</g>
<g id="Capa_3" class="st9">
	<rect x="99.3" y="99.7" class="st16" width="338.9" height="314.9"/>
	<path class="st16" d="M256.2,9.8C392.9,10,506.2,120.2,506.2,260c0,138.5-111.4,250.1-250,250.1C116,510.2,5.5,396.5,5.8,259
		C6.1,121.9,118.6,9.8,256.2,9.8z M369.9,220.6c0-2,0-3.2,0-4.3c-0.2-9-4.1-13-12.9-13c-74.9,0-149.7,0-224.6,0
		c-8.8,0-12.8,4.1-12.8,13c0,14.2,0,28.4,0,42.6c0.1,40.6,16.1,73.7,47.4,99.5c1.3,1,3.4,1.7,3.2,4.2c-12,0-23.8,0-35.6,0
		c-9.7,0-14.8,3.8-15,11.2c-0.2,7.8,4.8,11.6,15.1,11.6c73.4,0,146.9,0,220.3,0c1.4,0,2.9,0,4.3-0.1c5.9-0.5,10.2-4.7,10.6-10.5
		c0.4-5.9-3.7-11.1-9.7-12.1c-2.3-0.4-4.7-0.2-7.1-0.2c-11.5,0-22.9,0-36.1,0c21.1-15.5,35.3-34.3,44.6-56.9
		c11.3,0,22.2,0.2,33.1-0.1c19-0.5,35.4-13.1,41.3-31.4c5.8-17.7,0-37.8-14.6-49.2C405.7,212.8,388.7,211.6,369.9,220.6z
		 M256.1,146.3c0-10.6-0.4-21.3,0.1-31.9c0.4-8.4-5.9-13.5-11.4-13.5c-6.2-0.1-11.8,5.7-11.7,13.2c0.4,21.5,0.1,43,0.2,64.5
		c0,8.5,4.1,13.2,11.2,13.3c7.4,0.1,11.5-4.7,11.6-13.7C256.2,167.6,256.1,156.9,256.1,146.3z M176.5,163.5c0,5.4-0.1,10.9,0,16.3
		c0.2,7.6,4.7,12.3,11.6,12.1c6.6-0.1,11-4.7,11.1-12c0.1-10.8,0.1-21.7,0-32.5c-0.1-7.5-5-12.5-11.6-12.3
		c-6.4,0.2-10.9,5-11.1,12.2C176.4,152.6,176.5,158.1,176.5,163.5z M290.3,163.6c0,5.7-0.1,11.3,0,17c0.2,6.8,4.6,11.2,10.9,11.4
		c6.7,0.2,11.6-4.3,11.7-11.3c0.2-11.3,0.2-22.6,0-34c-0.1-6.9-5.3-11.8-11.7-11.6c-6.2,0.2-10.8,4.9-11,11.5
		C290.1,152.2,290.3,157.9,290.3,163.6z"/>
	<path class="st17" d="M399.4,212.5c22.6-10.8,43-9.4,61.8,5.4c17.5,13.7,24.5,37.8,17.5,59.1c-7.1,21.9-26.8,37-49.6,37.6
		c-13.1,0.4-26.1,0.1-39.7,0.1c-11.2,27-28.2,49.6-53.5,68.2c15.8,0,29.6,0,43.3,0c2.8,0,5.7-0.2,8.5,0.2
		c7.2,1.2,12.1,7.5,11.6,14.5c-0.5,6.9-5.5,11.9-12.7,12.6c-1.7,0.2-3.4,0.1-5.1,0.1c-88.1,0-176.3,0-264.4,0
		c-12.4,0-18.4-4.6-18.1-13.9c0.2-8.9,6.3-13.4,18-13.5c14.2,0,28.4,0,42.8,0c0.2-3-2.3-3.8-3.8-5C118.4,347,99.2,307.3,99,258.5
		c0-17.1,0-34.1,0-51.2c0-10.8,4.8-15.6,15.4-15.6c89.8,0,179.7,0,269.5,0c10.5,0,15.2,4.8,15.5,15.6
		C399.5,208.7,399.4,210.1,399.4,212.5z M276.5,379.2c0.8,0,1.8,0.2,2.5,0c47.2-13.8,77.4-44.2,89.7-92c4.4-17.3,3.3-35,3.3-52.5
		c0-5,0-10,0-15.2c-9.9,0-18.6,0-27.4,0c-3.1-0.1-6.2-0.3-9.4-0.3c-50.1,0-100.1,0-150.2,0c-19,0-38.1,0.2-57.1,0.2
		c-1.1-0.3-1.5,0.2-1.4,1.3c-0.1,12.8-0.6,25.5-0.2,38.3c1.4,51.7,25.1,89.7,71.6,112.4C222.9,383.5,249.4,386.5,276.5,379.2z
		 M397.3,287.3c10.7,0,20.3,0.1,29.9,0c14.6-0.3,26.5-12.2,26.7-26.6c0.3-14.2-11.3-26.7-25.8-27.8c-13.8-1.1-27.6,10.3-28.5,24.7
		C399.1,267.2,398.5,276.8,397.3,287.3z"/>
	<path class="st17" d="M262.9,123.4c0,12.8,0,25.5,0,38.3c0,10.8-5,16.6-13.9,16.5c-8.5-0.1-13.4-5.8-13.4-16
		c0-25.8,0.3-51.6-0.2-77.4c-0.2-9,6.5-15.9,14-15.8c6.6,0.1,14.1,6.1,13.6,16.2C262.4,97.8,262.9,110.6,262.9,123.4z"/>
	<path class="st18" d="M167.3,144c0-6.5-0.1-13,0-19.5c0.2-8.6,5.5-14.4,13.3-14.6c8-0.2,13.9,5.8,14,14.8c0.2,13,0.2,26,0,39.1
		c-0.1,8.7-5.4,14.2-13.3,14.4c-8.3,0.2-13.7-5.4-13.9-14.6C167.2,157,167.3,150.5,167.3,144z"/>
	<path class="st18" d="M303.8,144.1c0-6.8-0.2-13.6,0-20.4c0.3-8,5.8-13.6,13.2-13.8c7.7-0.2,13.9,5.5,14,13.9
		c0.2,13.6,0.3,27.2,0,40.8c-0.2,8.4-6.1,13.8-14.1,13.6c-7.6-0.2-12.9-5.5-13.1-13.7C303.7,157.6,303.8,150.8,303.8,144.1z"/>
	<path class="st15" d="M128.1,219.4c19-0.1,38.1-0.2,57.1-0.2c50.1,0,100.1,0,150.2,0c3.1,0,6.2,0.2,9.4,0.3
		c0,8.5-0.2,17.1,0.1,25.6c0.9,22.9-1.5,45.2-10.2,66.5c-7.9,19.4-19.6,36-35.5,50c-7.2,6.4-15.4,11.3-22.6,17.6
		c-27.2,7.3-53.6,4.3-78.5-7.8c-46.5-22.7-70.2-60.7-71.6-112.4c-0.3-12.7,0.1-25.5,0.2-38.3C127.1,220.3,127.6,219.9,128.1,219.4z"
		/>
	<path class="st11" d="M276.5,379.2c7.2-6.3,15.4-11.2,22.6-17.6c15.9-13.9,27.5-30.6,35.5-50c8.7-21.3,11.1-43.7,10.2-66.5
		c-0.3-8.5-0.1-17.1-0.1-25.6c8.8,0,17.5,0,27.4,0c0,5.2,0,10.2,0,15.2c-0.1,17.6,1.1,35.3-3.3,52.5c-12.3,47.8-42.5,78.2-89.7,92
		C278.3,379.5,277.4,379.2,276.5,379.2z"/>
	<path class="st11" d="M143.8,226.4c-0.4,0.4-0.8,0.7-1.2,1.1C142.5,226.5,142.8,226.1,143.8,226.4z"/>
</g>
</svg>
