<?xml version="1.0" encoding="utf-8"?>
<!-- Generator: Adobe Illustrator 27.0.0, SVG Export Plug-In . SVG Version: 6.00 Build 0)  -->
<svg version="1.1" xmlns="http://www.w3.org/2000/svg" xmlns:xlink="http://www.w3.org/1999/xlink" x="0px" y="0px"
	 viewBox="0 0 469.3 469.4" style="enable-background:new 0 0 469.3 469.4;" xml:space="preserve">
<style type="text/css">
	.st0{display:none;}
	.st1{display:inline;fill:#26A8F7;}
	.st2{display:inline;fill:#E8AA60;}
	.st3{display:inline;fill:#FFFFFF;}
	.st4{display:inline;fill:#4444EA;}
	.st5{fill:#26A8F7;}
	.st6{fill:#FFFFFF;}
	.st7{display:inline;fill:#9DAAD1;}
	.st8{display:inline;fill:#FFAFF4;}
	.st9{display:inline;fill:#D7A570;}
	.st10{display:inline;fill:#FBFBFB;}
	.st11{display:inline;fill:#FEFEFE;}
	.st12{display:inline;fill:#C250FE;}
	.st13{display:inline;fill:#BFDE76;}
	.st14{display:inline;fill:#FF9E7B;}
	.st15{display:inline;fill:#01C78A;}
	.st16{display:inline;fill:#86F1FB;}
	.st17{display:inline;fill:#EA3838;}
	.st18{fill:#FBFBFB;}
	.st19{display:inline;}
	.st20{display:none;fill:#FBFBFB;}
</style>
<g id="Capa_3" class="st0">
	<path class="st1" d="M412.2,184.5c0.4,22-4,43-11.4,63.6c-6,16.6-14.6,31.6-25,45.7c-11.2,15.3-22.5,30.5-33.6,45.8
		c-22.9,31.4-45.7,62.8-68.5,94.3c-4.6,6.4-8.8,13.1-13.6,19.4c-13.8,18.1-38.4,18.1-51.7-0.4c-25.4-35.2-50.6-70.7-75.7-106.1
		c-13.9-19.6-27.7-39.3-41.6-58.9c-24.6-34.8-35.1-73.7-32.2-116c2.7-38.6,17.3-72.5,41.9-102.4C131,32.8,170.1,12.1,216.7,7
		c58.4-6.4,108.7,12.6,148.6,55.7c25.1,27.1,40.7,59.6,45.6,96.6c0.6,4.2,1,8.5,1.2,12.8C412.3,176.3,412.2,180.4,412.2,184.5
		L412.2,184.5z M235.2,267.9c43.9,0.1,80.3-39.6,79.8-80.7c-0.6-45-35.1-80.3-79.6-80.3c-44.3,0-78.8,35.3-79.5,79.9
		C155.2,228.2,191.8,267.8,235.2,267.9L235.2,267.9z"/>
	<rect x="132.2" y="106.9" class="st1" width="211" height="166.4"/>
</g>
<g id="J" class="st0">
	<path class="st2" d="M411.5,183.9c0.4,22-4,43-11.4,63.6c-6,16.6-14.6,31.6-25,45.7c-11.2,15.3-22.5,30.5-33.6,45.8
		c-22.9,31.4-45.7,62.8-68.5,94.3c-4.6,6.4-8.8,13.1-13.6,19.4c-13.8,18.1-38.4,18.1-51.7-0.4c-25.4-35.2-50.6-70.7-75.7-106.1
		c-13.9-19.6-27.7-39.3-41.6-58.9c-24.6-34.8-35.1-73.7-32.2-116c2.7-38.6,17.3-72.5,41.9-102.4C130.3,32.2,169.4,11.5,216,6.4
		C274.4,0,324.7,19,364.6,62.1c25.1,27.1,40.7,59.6,45.6,96.6c0.6,4.2,1,8.5,1.2,12.8C411.6,175.7,411.5,179.8,411.5,183.9
		L411.5,183.9z M234.5,267.3c43.9,0.1,80.3-39.6,79.8-80.7c-0.6-45-35.1-80.3-79.6-80.3c-44.3,0-78.8,35.3-79.5,79.9
		C154.5,227.6,191.1,267.2,234.5,267.3L234.5,267.3z"/>
	<rect x="131.5" y="106.3" class="st2" width="211" height="166.4"/>
	<path class="st3" d="M277.2,141.4c0,23.8,0.2,47.5-0.1,71.3c-0.2,11.3-2.7,22.4-7.1,32.8c-7.4,17.4-20.1,29.1-38.2,34.4
		c-19.3,5.7-38.6,5-57.7-1.5c-6.5-2.2-9.5-7.3-8.4-14c1.1-6.6,2.4-13.1,3.6-19.7c1.6-8.7,8.5-12.7,16.9-9.8
		c8.2,2.8,16.6,3.4,25.1,2.3c5.7-0.8,10.2-3.9,11.9-9.2c2-5.9,3.2-12.1,4.1-18.3c0.7-4.4,0.4-9,0.4-13.5c0-41.8,0-83.7,0-125.5
		c0-2.1,0.1-4.2,0.6-6.2c1.4-5.1,6.1-8.3,11.8-8.4c8.1-0.1,16.2,0,24.3,0c8.1,0,13.1,4.9,13.2,13c0.1,6.4,0,12.8,0,19.2
		c0,17.7,0,35.3,0,53C277.5,141.4,277.4,141.4,277.2,141.4z"/>
</g>
<g id="N" class="st0">
	<path class="st4" d="M412.6,184.9c0.4,22-4,43-11.4,63.6c-6,16.6-14.6,31.6-25,45.7c-11.2,15.3-22.5,30.5-33.6,45.8
		c-22.9,31.4-45.7,62.8-68.5,94.3c-4.6,6.4-8.8,13.1-13.6,19.4c-13.8,18.1-38.4,18.1-51.7-0.4c-25.4-35.2-50.6-70.7-75.7-106.1
		c-13.9-19.6-27.7-39.3-41.6-58.9c-24.6-34.8-35.1-73.7-32.2-116c2.7-38.6,17.3-72.5,41.9-102.4c30.2-36.7,69.3-57.4,115.9-62.5
		C275.5,1,325.8,20,365.7,63.1c25.1,27.1,40.7,59.6,45.6,96.6c0.6,4.2,1,8.5,1.2,12.8C412.7,176.7,412.6,180.8,412.6,184.9
		L412.6,184.9z M235.6,268.3c43.9,0.1,80.3-39.6,79.8-80.7c-0.6-45-35.1-80.3-79.6-80.3c-44.3,0-78.8,35.3-79.5,79.9
		C155.6,228.6,192.2,268.2,235.6,268.3L235.6,268.3z"/>
	<rect x="132.6" y="107.3" class="st4" width="211" height="166.4"/>
	<path class="st3" d="M192.2,169.4c0,0.9,0,1.8,0,2.8c0,40.1,0.1,80.2,0.1,120.3c0,9.6-4.9,14.4-14.5,14.4c-7.9,0-15.7,0-23.6,0
		c-7.8,0-12.9-5.1-13.2-12.9c0-0.6,0-1.3,0-1.9c0-69.5,0-138.9,0-208.4c0-2,0.1-4.1,0.6-6c1.5-5.3,6.3-8.8,11.9-8.9
		c10.1-0.1,20.2,0,30.2,0c5.3,0,8.9,2.8,11.6,7.2c14.9,23.6,29.8,47.1,44.7,70.7c11.1,17.7,22.2,35.4,33.3,53.1
		c0.4,0.6,0.8,1.1,1.7,2.5c0-1.9,0-2.8,0-3.7c0-38.5-0.1-77-0.1-115.5c0-9.3,5-14.2,14.4-14.2c7.9,0,15.7,0,23.6,0
		c7.9,0,13.1,5.1,13.3,13.1c0.1,3.1,0,6.2,0,9.2c0,66.8,0,133.6-0.1,200.5c0,2.8-0.3,5.8-1.4,8.3c-2,4.5-5.9,6.9-10.9,7
		c-9.4,0.1-18.9,0.1-28.3,0c-5.2,0-8.7-2.8-11.3-7c-12.9-20.7-25.9-41.3-38.8-62c-13.9-22.3-27.7-44.6-41.6-67c-0.3-0.5-0.7-1-1-1.6
		C192.6,169.3,192.4,169.3,192.2,169.4z"/>
</g>
<g id="M" class="st0">
	<path class="st4" d="M413,184.9c0.4,22-4,43-11.4,63.6c-6,16.6-14.6,31.6-25,45.7c-11.2,15.3-22.5,30.5-33.6,45.8
		c-22.9,31.4-45.7,62.8-68.5,94.3c-4.6,6.4-8.8,13.1-13.6,19.4c-13.8,18.1-38.4,18.1-51.7-0.4c-25.4-35.2-50.6-70.7-75.7-106.1
		c-13.9-19.6-27.7-39.3-41.6-58.9c-24.6-34.8-35.1-73.7-32.2-116c2.7-38.6,17.3-72.5,41.9-102.4c30.2-36.7,69.3-57.4,115.9-62.5
		C275.9,1,326.2,20,366.1,63.1c25.1,27.1,40.7,59.6,45.6,96.6c0.6,4.2,1,8.5,1.2,12.8C413.1,176.7,413,180.8,413,184.9L413,184.9z
		 M236,268.3c43.9,0.1,80.3-39.6,79.8-80.7c-0.6-45-35.1-80.3-79.6-80.3c-44.3,0-78.8,35.3-79.5,79.9
		C156,228.6,192.6,268.2,236,268.3L236,268.3z"/>
	<rect x="133" y="107.3" class="st4" width="211" height="166.4"/>
	<path class="st3" d="M235.8,199.1c1.3-3.8,2.3-7.1,3.5-10.4c13-35.8,26.1-71.6,39.2-107.4c1.9-5.2,5.7-7.7,11.2-7.7
		c9.9,0,19.8,0,29.8,0c6.9,0,11.4,4.2,11.9,11.2c0.8,12.6,1.6,25.2,2.3,37.8c1.4,23,2.9,45.9,4.3,68.9c1.2,19.1,2.4,38.3,3.6,57.4
		c0.5,7.6,1,15.1,1.5,22.7c0.5,6.1-4.3,11.8-10.4,12c-8.4,0.2-16.8,0.2-25.3,0c-5.3-0.1-9.8-4.1-10.3-9.7
		c-0.8-8.1-1.1-16.2-1.5-24.4c-1.4-24.6-2.7-49.1-4.1-73.7c-0.1-0.9-0.2-1.8-0.8-2.8c-2.1,5.8-4.2,11.7-6.4,17.5
		c-10.1,27.6-20.1,55.3-30.2,82.9c-2.4,6.7-5.7,9-12.8,9c-5.1,0-10.3,0-15.4,0c-6.6,0-10.2-2.5-12.3-8.8
		c-8.8-25.8-17.6-51.6-26.3-77.5c-2.1-6.2-4.2-12.4-6.8-18.5c-0.4,5.7-0.7,11.4-1.1,17.1c-1.6,25.5-3.1,51-4.7,76.5
		c-0.6,8.7-4.6,12.4-13.3,12.4c-6.9,0-13.9,0-20.8,0c-7.3-0.1-12.1-5.5-11.6-12.8c1.7-23.3,3.2-46.7,4.9-70
		c1.6-22.8,3.2-45.5,4.8-68.3c1.1-16.1,2.2-32.1,3.4-48.2c0.5-6.9,5-10.8,11.9-10.8c9.7,0,19.5,0,29.2,0c6.2,0,9.9,2.5,11.9,8.3
		c13.3,38.3,26.6,76.6,39.9,114.9C235.1,197.4,235.4,198,235.8,199.1z"/>
</g>
<g id="ZE" class="st0">
	<path class="st1" d="M412.9,184.9c0.4,22-4,43-11.4,63.6c-6,16.6-14.6,31.6-25,45.7c-11.2,15.3-22.5,30.5-33.6,45.8
		c-22.9,31.4-45.7,62.8-68.5,94.3c-4.6,6.4-8.8,13.1-13.6,19.4c-13.8,18.1-38.4,18.1-51.7-0.4c-25.4-35.2-50.6-70.7-75.7-106.1
		c-13.9-19.6-27.7-39.3-41.6-58.9c-24.6-34.8-35.1-73.7-32.2-116c2.7-38.6,17.3-72.5,41.9-102.4c30.2-36.7,69.3-57.4,115.9-62.5
		C275.8,1,326.1,20,366,63.1c25.1,27.1,40.7,59.6,45.6,96.6c0.6,4.2,1,8.5,1.2,12.8C413,176.7,412.9,180.8,412.9,184.9L412.9,184.9z
		 M235.9,268.3c43.9,0.1,80.3-39.6,79.8-80.7c-0.6-45-35.1-80.3-79.6-80.3c-44.3,0-78.8,35.3-79.5,79.9
		C155.9,228.6,192.5,268.2,235.9,268.3L235.9,268.3z"/>
	<rect x="132.9" y="107.3" class="st1" width="211" height="166.4"/>
	<path class="st3" d="M189.3,123.2c-1.4,0-2.3,0-3.1,0c-20,0-40.1,0-60.1,0c-7.3,0-11.1-3.8-11.1-11.1c0-5.3,0-10.5,0-15.8
		c0-6.2,4-10.1,10.3-10.1c36.2,0,72.5,0,108.7,0c6.1,0,10.1,3.9,10.2,10c0.1,4,0,7.9,0,11.9c0,2.9-1.1,5.3-2.7,7.6
		c-25.6,37.4-51.1,74.8-76.6,112.2c-0.6,0.9-1.3,1.9-2.2,3.3c1.2,0,2.1,0,2.9,0c22.9,0,45.7,0,68.6,0c7.5,0,11.2,3.7,11.2,11.2
		c0,5.3,0,10.5,0,15.8c0,6-4.1,10.1-10.1,10.1c-39.3,0-78.6,0-118,0c-6,0-10-4.1-10.1-10.1c0-3.5,0.1-7,0-10.5
		c-0.1-3.1,0.8-5.7,2.6-8.2c24.4-35.6,48.8-71.3,73.2-106.9C185,129.6,187,126.7,189.3,123.2z"/>
	<path class="st3" d="M294.5,123.2c0,10.8,0,21.2,0,32c1,0,2,0,2.9,0c16.5,0,32.9,0,49.4,0c7,0,10.9,3.8,10.9,10.8
		c0,5.1,0,10.2,0,15.3c0,6.8-3.8,10.7-10.7,10.7c-16.5,0-32.9,0-49.4,0c-1,0-1.9,0-3,0c0,13.2,0,26,0,39.2c0.9,0,1.9,0,2.8,0
		c18.8,0,37.6,0,56.4,0c7.3,0,11.1,3.8,11.1,11c0,5.3,0,10.5,0,15.8c0,6.1-4.1,10.2-10.3,10.2c-30.2,0-60.3,0-90.5,0
		c-6.1,0-10.2-4.1-10.2-10.3c0-53.8,0-107.7,0-161.5c0-6.3,4.1-10.3,10.4-10.3c28.8,0,57.6,0,86.4,0c6.5,0,10.5,3.9,10.6,10.4
		c0.1,5.4,0.1,10.9,0,16.3c-0.1,6.5-4.1,10.3-10.6,10.3c-17.7,0-35.4,0-53,0C296.7,123.2,295.7,123.2,294.5,123.2z"/>
</g>
<g id="ZB">
	<path class="st5" d="M412.5,184.9c0.4,22-4,43-11.4,63.6c-6,16.6-14.6,31.6-25,45.7c-11.2,15.3-22.5,30.5-33.6,45.8
		c-22.9,31.4-45.7,62.8-68.5,94.3c-4.6,6.4-8.8,13.1-13.6,19.4c-13.8,18.1-38.4,18.1-51.7-0.4c-25.4-35.2-50.6-70.7-75.7-106.1
		c-13.9-19.6-27.7-39.3-41.6-58.9c-24.6-34.8-35.1-73.7-32.2-116c2.7-38.6,17.3-72.5,41.9-102.4C131.3,33.2,170.4,12.5,217,7.4
		C275.4,1,325.7,20,365.6,63.1c25.1,27.1,40.7,59.6,45.6,96.6c0.6,4.2,1,8.5,1.2,12.8C412.6,176.7,412.5,180.8,412.5,184.9
		L412.5,184.9z M235.5,268.3c43.9,0.1,80.3-39.6,79.8-80.7c-0.6-45-35.1-80.3-79.6-80.3c-44.3,0-78.8,35.3-79.5,79.9
		C155.5,228.6,192.1,268.2,235.5,268.3L235.5,268.3z"/>
	<rect x="132.5" y="107.3" class="st5" width="211" height="166.4"/>
	<path class="st6" d="M188.9,123.2c-1.4,0-2.3,0-3.1,0c-20,0-40.1,0-60.1,0c-7.3,0-11.1-3.8-11.1-11.1c0-5.3,0-10.5,0-15.8
		c0-6.2,4-10.1,10.3-10.1c36.2,0,72.5,0,108.7,0c6.1,0,10.1,3.9,10.2,10c0.1,4,0,7.9,0,11.9c0,2.9-1.1,5.3-2.7,7.6
		c-25.6,37.4-51.1,74.8-76.6,112.2c-0.6,0.9-1.3,1.9-2.2,3.3c1.2,0,2.1,0,2.9,0c22.9,0,45.7,0,68.6,0c7.5,0,11.2,3.7,11.2,11.2
		c0,5.3,0,10.5,0,15.8c0,6-4.1,10.1-10.1,10.1c-39.3,0-78.6,0-118,0c-6,0-10-4.1-10.1-10.1c0-3.5,0.1-7,0-10.5
		c-0.1-3.1,0.8-5.7,2.6-8.2c24.4-35.6,48.8-71.3,73.2-106.9C184.6,129.6,186.5,126.7,188.9,123.2z"/>
	<path class="st6" d="M353.9,169.8c6.5,4.5,11.9,10,15.8,17c12.5,22.2,7,57.5-22.8,72.4c-9.9,5-20.6,7.3-31.5,8.4
		c-16.9,1.7-33.7,1-50.6-0.9c-6.8-0.8-10-4.2-10-11.1c0-35.4,0-70.8,0-106.2c0-16.6,0-33.2,0-49.7c0-6.8,2.7-10.1,9.4-11.3
		c18.2-3.2,36.4-4.3,54.8-2.4c13.3,1.4,25.6,5.6,35.9,14.5c11.8,10.3,16.1,23.5,14.8,38.7c-0.9,11.6-6.2,21.2-14.6,29
		c-0.4,0.3-0.7,0.7-1,1C354,169.4,354,169.5,353.9,169.8z M295.2,232.6c7.6,1.2,19.6,0,26.3-2.5c8.6-3.3,12.9-9.4,13.1-18.5
		c0.2-8.5-4.1-14.8-12.3-18.4c-8.7-3.7-17.8-3.5-27.1-3.3C295.2,204.2,295.2,218.4,295.2,232.6z M295.2,120.8c0,11.4,0,22.5,0,33.7
		c4.3,0,8.4,0.2,12.5,0c4.7-0.2,9.2-1.2,13.4-3.5c6.7-3.7,9.2-9.6,8.3-17c-0.8-6.7-5.4-9.9-11.3-11.7
		C310.6,120.1,303,120.3,295.2,120.8z"/>
</g>
<g id="G" class="st0">
	<path class="st7" d="M412.6,184.9c0.4,22-4,43-11.4,63.6c-6,16.6-14.6,31.6-25,45.7c-11.2,15.3-22.5,30.5-33.6,45.8
		c-22.9,31.4-45.7,62.8-68.5,94.3c-4.6,6.4-8.8,13.1-13.6,19.4c-13.8,18.1-38.4,18.1-51.7-0.4c-25.4-35.2-50.6-70.7-75.7-106.1
		c-13.9-19.6-27.7-39.3-41.6-58.9c-24.6-34.8-35.1-73.7-32.2-116c2.7-38.6,17.3-72.5,41.9-102.4c30.2-36.7,69.3-57.4,115.9-62.5
		C275.5,1,325.8,20,365.7,63.1c25.1,27.1,40.7,59.6,45.6,96.6c0.6,4.2,1,8.5,1.2,12.8C412.7,176.7,412.6,180.8,412.6,184.9
		L412.6,184.9z M235.6,268.3c43.9,0.1,80.3-39.6,79.8-80.7c-0.6-45-35.1-80.3-79.6-80.3c-44.3,0-78.8,35.3-79.5,79.9
		C155.6,228.6,192.2,268.2,235.6,268.3L235.6,268.3z"/>
	<rect x="132.6" y="107.3" class="st7" width="211" height="166.4"/>
	<path class="st3" d="M268.3,244.9c0-12.4,0-24.9,0-37.9c-1.1,0-2.1,0-3.2,0c-8.2,0-16.5,0-24.7,0c-8,0-12.9-4.8-12.9-12.5
		c0-6.2,0-12.4,0-18.6c0-7.2,4.7-12.1,12.1-12.2c22.1-0.1,44.2-0.1,66.4,0c7.4,0,12.1,5,12.1,12.1c0,30.8,0,61.5,0,92.3
		c0,5.7-2.6,9.8-7.8,11.6c-30.9,10.5-62.7,14.9-95.1,8.9c-44.1-8.2-72.1-33.8-82.7-75.9c-7.3-29.1-5.2-57.7,8.7-84.8
		c13.8-26.7,36.2-43.9,65.5-52.5c31.1-9.1,62.2-8.3,93,1.7c1.9,0.6,3.7,1.4,5.5,2.3c5.4,2.6,8,8,6.4,13.6c-1.9,6.6-4,13.2-6,19.8
		c-2.5,8-9.5,11.1-17.5,7.9c-18.9-7.6-38.4-8.9-58.2-5c-27.3,5.3-45.3,24.6-48.7,51.4c-1.9,15.2-1.2,30.3,4.9,44.6
		c8.4,19.8,24,30.8,45.5,34.3C243.7,247.9,259.6,247.3,268.3,244.9z"/>
</g>
<g id="O" class="st0">
	<path class="st8" d="M412.5,184.5c0.4,22-4,43-11.4,63.6c-6,16.6-14.6,31.6-25,45.7c-11.2,15.3-22.5,30.5-33.6,45.8
		c-22.9,31.4-45.7,62.8-68.5,94.3c-4.6,6.4-8.8,13.1-13.6,19.4c-13.8,18.1-38.4,18.1-51.7-0.4c-25.4-35.2-50.6-70.7-75.7-106.1
		c-13.9-19.6-27.7-39.3-41.6-58.9c-24.6-34.8-35.1-73.7-32.2-116c2.7-38.6,17.3-72.5,41.9-102.4C131.3,32.8,170.4,12.1,217,7
		c58.4-6.4,108.7,12.6,148.6,55.7c25.1,27.1,40.7,59.6,45.6,96.6c0.6,4.2,1,8.5,1.2,12.8C412.6,176.3,412.5,180.4,412.5,184.5
		L412.5,184.5z M235.5,267.9c43.9,0.1,80.3-39.6,79.8-80.7c-0.6-45-35.1-80.3-79.6-80.3c-44.3,0-78.8,35.3-79.5,79.9
		C155.5,228.2,192.1,267.8,235.5,267.9L235.5,267.9z"/>
	<rect x="132.5" y="106.9" class="st8" width="211" height="166.4"/>
	<path class="st3" d="M342,182.5c-0.3,22.7-3.5,43.5-13.1,62.9c-15.8,31.9-41.5,50.6-76.5,56.5c-21.3,3.6-42,1.4-61.8-7.7
		c-25.1-11.5-41.8-30.9-51.8-56.4c-8.5-21.7-10.6-44.2-8.2-67.2c2.2-21.7,8.6-42,21.2-60c17.4-24.8,41.4-39,71.4-42.7
		c23.4-2.9,45.7,0.7,66.3,12.7c22.3,13,36.6,32.5,45,56.6C339.9,152.2,342,167.9,342,182.5z M289.4,182.9c-0.2-2.4-0.3-6.5-0.8-10.6
		c-1.7-14.5-5.8-28.2-14.7-40.1c-12.3-16.5-32.1-23-51.8-17.2c-15.1,4.4-24.6,14.8-30.9,28.6c-6.4,13.8-8.6,28.5-8.5,43.6
		c0.2,16.6,3.5,32.5,12.5,46.8c11.3,18,28.9,26,49.8,22.4c15.3-2.6,25.9-11.9,33.3-25.1C286.4,216.7,289.2,200.9,289.4,182.9z"/>
</g>
<g id="Q" class="st0">
	<path class="st8" d="M412.9,184.5c0.4,22-4,43-11.4,63.6c-6,16.6-14.6,31.6-25,45.7c-11.2,15.3-22.5,30.5-33.6,45.8
		c-22.9,31.4-45.7,62.8-68.5,94.3c-4.6,6.4-8.8,13.1-13.6,19.4c-13.8,18.1-38.4,18.1-51.7-0.4c-25.4-35.2-50.6-70.7-75.7-106.1
		c-13.9-19.6-27.7-39.3-41.6-58.9c-24.6-34.8-35.1-73.7-32.2-116c2.7-38.6,17.3-72.5,41.9-102.4C131.7,32.8,170.8,12.1,217.4,7
		C275.8,0.6,326.1,19.6,366,62.7c25.1,27.1,40.7,59.6,45.6,96.6c0.6,4.2,1,8.5,1.2,12.8C413,176.3,412.9,180.4,412.9,184.5
		L412.9,184.5z M235.9,267.9c43.9,0.1,80.3-39.6,79.8-80.7c-0.6-45-35.1-80.3-79.6-80.3c-44.3,0-78.8,35.3-79.5,79.9
		C155.9,228.2,192.5,267.8,235.9,267.9L235.9,267.9z"/>
	<rect x="132.9" y="106.9" class="st8" width="211" height="166.4"/>
	<path class="st3" d="M294.5,269.4c9,1.8,17.9,3.6,26.9,5.3c9.6,1.8,13.5,8.2,10.3,17.4c-2.1,6.2-4.3,12.4-6.5,18.6
		c-2.6,7.3-8.2,10.4-15.6,8.3c-25.4-7.5-50.8-15.3-76.3-22.7c-5.8-1.7-12-2.2-18-3.1c-42.8-6.1-74.2-33.4-84.6-74.6
		c-8.2-32.6-6.5-64.9,8.9-95.3c18.9-37.1,50.2-55.5,92.2-55.4c31.7,0.1,57.7,12.6,77,37.7c11.6,15.1,18.1,32.5,20.8,51.2
		c3.3,22.6,2,44.9-5.2,66.7c-5.7,17.2-14.9,32.1-28.8,44.1c-0.5,0.4-1.2,0.7-1.8,1C294.1,268.8,294.3,269.1,294.5,269.4z
		 M280.6,180.8c-0.1-12.1-1.8-23.5-6-34.4c-4.6-12-11.5-22.3-23-29c-16.4-9.5-45.8-9.1-61.8,16.1c-8,12.6-11.4,26.5-12.3,41.2
		c-1.1,17.7,1.4,34.7,10.4,50.4c11.4,19.8,31.1,28.5,52.7,23c14.4-3.7,23.9-13.2,30.5-25.9C278,209.1,280.3,194.9,280.6,180.8z"/>
</g>
<g id="I" class="st0">
	<path class="st8" d="M413.1,184.5c0.4,22-4,43-11.4,63.6c-6,16.6-14.6,31.6-25,45.7c-11.2,15.3-22.5,30.5-33.6,45.8
		c-22.9,31.4-45.7,62.8-68.5,94.3c-4.6,6.4-8.8,13.1-13.6,19.4c-13.8,18.1-38.4,18.1-51.7-0.4c-25.4-35.2-50.6-70.7-75.7-106.1
		c-13.9-19.6-27.7-39.3-41.6-58.9c-24.6-34.8-35.1-73.7-32.2-116c2.7-38.6,17.3-72.5,41.9-102.4C131.9,32.8,171,12.1,217.6,7
		C276,0.6,326.3,19.6,366.2,62.7c25.1,27.1,40.7,59.6,45.6,96.6c0.6,4.2,1,8.5,1.2,12.8C413.2,176.3,413.1,180.4,413.1,184.5
		L413.1,184.5z M236.1,267.9c43.9,0.1,80.3-39.6,79.8-80.7c-0.6-45-35.1-80.3-79.6-80.3c-44.3,0-78.8,35.3-79.5,79.9
		C156.1,228.2,192.7,267.8,236.1,267.9L236.1,267.9z"/>
	<rect x="133.1" y="106.9" class="st8" width="211" height="166.4"/>
	<path class="st3" d="M261.6,190.7c0,33.6,0,67.1,0,100.7c0,7.1-3,12.8-9,13.2c-11.1,0.8-22.2,0.7-33.3,0c-4.9-0.3-7.7-4.6-8.6-9.6
		c-0.2-1.2-0.2-2.4-0.2-3.7c0-67.2,0-134.4,0-201.6c0-7.3,3.1-12,9.1-13.6c1.4-0.4,2.8-0.4,4.2-0.4c8.1,0,16.2,0,24.2,0
		c8.6,0,13.5,4.9,13.5,13.5c0.1,11,0,22.1,0,33.1C261.6,145.1,261.6,167.9,261.6,190.7z"/>
</g>
<g id="K" class="st0">
	<path class="st8" d="M411.9,183.9c0.4,22-4,43-11.4,63.6c-6,16.6-14.6,31.6-25,45.7c-11.2,15.3-22.5,30.5-33.6,45.8
		c-22.9,31.4-45.7,62.8-68.5,94.3c-4.6,6.4-8.8,13.1-13.6,19.4c-13.8,18.1-38.4,18.1-51.7-0.4c-25.4-35.2-50.6-70.7-75.7-106.1
		c-13.9-19.6-27.7-39.3-41.6-58.9c-24.6-34.8-35.1-73.7-32.2-116c2.7-38.6,17.3-72.5,41.9-102.4c30.2-36.7,69.3-57.4,115.9-62.5
		C274.8,0,325.1,19,365,62.1c25.1,27.1,40.7,59.6,45.6,96.6c0.6,4.2,1,8.5,1.2,12.8C412,175.7,411.9,179.8,411.9,183.9L411.9,183.9z
		 M234.9,267.3c43.9,0.1,80.3-39.6,79.8-80.7c-0.6-45-35.1-80.3-79.6-80.3c-44.3,0-78.8,35.3-79.5,79.9
		C154.9,227.6,191.5,267.2,234.9,267.3L234.9,267.3z"/>
	<rect x="131.9" y="106.3" class="st8" width="211" height="166.4"/>
	<path class="st3" d="M211.6,149.5c9.9-12.1,19.7-24.3,29.6-36.4c9-11.1,18.1-22.2,27.1-33.3c2.8-3.5,6.3-5.3,10.9-5.2
		c10.3,0.1,20.7,0.1,31,0c5.6,0,9.8,2.1,12.2,7.1c2.4,5.1,1.2,9.7-2.4,13.9c-22.1,25.8-44.1,51.7-66.1,77.5
		c-0.4,0.5-0.8,0.9-1.4,1.7c0.6,0.9,1.2,1.8,1.8,2.7c23.9,35.3,47.8,70.6,71.7,105.9c1.5,2.2,2.8,4.9,3.2,7.5
		c1,7.1-4.6,13.3-11.8,13.4c-10.6,0.1-21.3,0.1-31.9,0c-4.7,0-8-2.5-10.6-6.3c-13.1-19.6-26.3-39.3-39.4-58.9
		c-6.1-9.1-12.2-18.1-18.4-27.5c-3.5,3.7-6.4,6.8-6.3,12.6c0.4,22.1,0.2,44.2,0.2,66.3c0,9-4.8,13.9-13.7,13.9c-8.1,0-16.2,0-24.2,0
		c-8,0-13-5.1-13-13.1c0-67.8,0-135.7,0-203.5c0-8.2,5-13.1,13.2-13.1c8.3,0,16.6,0,24.9,0c7.8,0,12.9,5.1,12.9,12.9
		c0,19.5,0,39.1,0,58.6c0,1.1,0,2.2,0,3.3C211.1,149.4,211.4,149.5,211.6,149.5z"/>
</g>
<g id="H" class="st0">
	<path class="st8" d="M411.9,184.9c0.4,22-4,43-11.4,63.6c-6,16.6-14.6,31.6-25,45.7c-11.2,15.3-22.5,30.5-33.6,45.8
		c-22.9,31.4-45.7,62.8-68.5,94.3c-4.6,6.4-8.8,13.1-13.6,19.4c-13.8,18.1-38.4,18.1-51.7-0.4c-25.4-35.2-50.6-70.7-75.7-106.1
		c-13.9-19.6-27.7-39.3-41.6-58.9c-24.6-34.8-35.1-73.7-32.2-116c2.7-38.6,17.3-72.5,41.9-102.4c30.2-36.7,69.3-57.4,115.9-62.5
		C274.8,1,325.1,20,365,63.1c25.1,27.1,40.7,59.6,45.6,96.6c0.6,4.2,1,8.5,1.2,12.8C412,176.7,411.9,180.8,411.9,184.9L411.9,184.9z
		 M234.9,268.3c43.9,0.1,80.3-39.6,79.8-80.7c-0.6-45-35.1-80.3-79.6-80.3c-44.3,0-78.8,35.3-79.5,79.9
		C154.9,228.6,191.5,268.2,234.9,268.3L234.9,268.3z"/>
	<rect x="131.9" y="107.3" class="st8" width="211" height="166.4"/>
	<path class="st3" d="M198,158.7c25.1,0,49.7,0,74.7,0c0-1.4,0-2.6,0-3.7c0-22.5,0-45,0-67.5c0-9.9,4.5-14.4,14.4-14.4
		c8,0,16,0,23.9,0c7.8,0,12.9,5,12.9,12.8c0,68,0,136.1,0,204.1c0,7.8-5.1,12.7-13,12.8c-8.3,0-16.6,0-24.9,0
		c-8.4,0-13.4-4.9-13.4-13.3c0-26.3,0-52.6,0-78.9c0-4.1,0-4.1-4.2-4.1c-22.2,0-44.4,0-66.6,0c-1.2,0-2.4,0-3.9,0c0,1.5,0,2.7,0,3.9
		c0,26.1,0,52.2,0,78.3c0,9.2-4.8,14-14,14c-8.1,0-16.2,0-24.2,0c-7.7,0-12.8-5-12.8-12.6c0-68.1,0-136.3,0-204.4
		c0-7.6,5.1-12.6,12.8-12.6c8.4,0,16.8,0,25.2,0c7.9,0,13,5.1,13,13.1c0,22.9,0,45.8,0,68.8C198,156,198,157.2,198,158.7z"/>
</g>
<g id="V" class="st0">
	<path class="st9" d="M412.5,184.5c0.4,22-4,43-11.4,63.6c-6,16.6-14.6,31.6-25,45.7c-11.2,15.3-22.5,30.5-33.6,45.8
		c-22.9,31.4-45.7,62.8-68.5,94.3c-4.6,6.4-8.8,13.1-13.6,19.4c-13.8,18.1-38.4,18.1-51.7-0.4c-25.4-35.2-50.6-70.7-75.7-106.1
		c-13.9-19.6-27.7-39.3-41.6-58.9c-24.6-34.8-35.1-73.7-32.2-116c2.7-38.6,17.3-72.5,41.9-102.4C131.3,32.8,170.4,12.1,217,7
		c58.4-6.4,108.7,12.6,148.6,55.7c25.1,27.1,40.7,59.6,45.6,96.6c0.6,4.2,1,8.5,1.2,12.8C412.6,176.3,412.5,180.4,412.5,184.5
		L412.5,184.5z M235.5,267.9c43.9,0.1,80.3-39.6,79.8-80.7c-0.6-45-35.1-80.3-79.6-80.3c-44.3,0-78.8,35.3-79.5,79.9
		C155.5,228.2,192.1,267.8,235.5,267.9L235.5,267.9z"/>
	<rect x="132.5" y="106.9" class="st9" width="211" height="166.4"/>
	<path class="st3" d="M236.5,240.6c2.9-8.9,5.7-17.2,8.5-25.5c13-38.1,26-76.1,39-114.2c2.6-7.5,6.5-10.3,14.5-10.3
		c8.8,0,17.6,0,26.4,0c10.5,0,16.2,8.2,12.7,18.1c-18,50.4-36,100.7-54,151c-7,19.6-14,39.3-21.1,58.9c-2.6,7.4-6.5,10.1-14.3,10.1
		c-9.1,0-18.2,0-27.4,0c-7.2,0-11.4-3-13.7-10c-22.9-70.1-45.8-140.3-68.7-210.4c-3.2-9.9,2.6-17.7,13-17.7c9,0,18,0,27,0
		c7.5,0,11.6,3,13.9,10.1c14.3,45.2,28.5,90.5,42.7,135.7C235.4,237.6,235.9,238.8,236.5,240.6z"/>
</g>
<g id="T" class="st0">
	<path class="st9" d="M412.2,183.9c0.4,22-4,43-11.4,63.6c-6,16.6-14.6,31.6-25,45.7c-11.2,15.3-22.5,30.5-33.6,45.8
		c-22.9,31.4-45.7,62.8-68.5,94.3c-4.6,6.4-8.8,13.1-13.6,19.4c-13.8,18.1-38.4,18.1-51.7-0.4c-25.4-35.2-50.6-70.7-75.7-106.1
		c-13.9-19.6-27.7-39.3-41.6-58.9c-24.6-34.8-35.1-73.7-32.2-116c2.7-38.6,17.3-72.5,41.9-102.4C131,32.2,170.1,11.5,216.7,6.4
		C275.1,0,325.4,19,365.3,62.1c25.1,27.1,40.7,59.6,45.6,96.6c0.6,4.2,1,8.5,1.2,12.8C412.3,175.7,412.2,179.8,412.2,183.9
		L412.2,183.9z M235.2,267.3c43.9,0.1,80.3-39.6,79.8-80.7c-0.6-45-35.1-80.3-79.6-80.3c-44.3,0-78.8,35.3-79.5,79.9
		C155.2,227.6,191.8,267.2,235.2,267.3L235.2,267.3z"/>
	<rect x="132.2" y="106.3" class="st9" width="211" height="166.4"/>
	<path class="st3" d="M209.4,132c-1.7,0-3,0-4.3,0c-16.3,0-32.6,0-48.8,0c-10.1,0-15.4-5.3-15.4-15.3c0-7.3,0-14.6,0-21.9
		c0.1-8.9,5.6-14.4,14.6-14.4c54.9,0,109.8,0,164.7,0c8.9,0,14.4,5.5,14.5,14.5c0.1,7.5,0.1,15,0,22.6c-0.1,8.9-5.6,14.5-14.5,14.5
		c-16.6,0.1-33.2,0-49.8,0c-1.3,0-2.6,0-4.4,0c0,1.9,0,3.4,0,4.9c0,59.9,0,119.9,0,179.8c0,8.3-3.3,14.5-10,15
		c-12,0.9-24.2,0.8-36.2,0.1c-6.4-0.4-10.1-6.6-10.1-13.6c0-25.9,0-51.9,0-77.8c0-34.8,0-69.6,0-104.4
		C209.4,134.8,209.4,133.6,209.4,132z"/>
</g>
<g id="Y" class="st0">
	<path class="st7" d="M412.5,184.9c0.4,22-4,43-11.4,63.6c-6,16.6-14.6,31.6-25,45.7c-11.2,15.3-22.5,30.5-33.6,45.8
		c-22.9,31.4-45.7,62.8-68.5,94.3c-4.6,6.4-8.8,13.1-13.6,19.4c-13.8,18.1-38.4,18.1-51.7-0.4c-25.4-35.2-50.6-70.7-75.7-106.1
		c-13.9-19.6-27.7-39.3-41.6-58.9c-24.6-34.8-35.1-73.7-32.2-116c2.7-38.6,17.3-72.5,41.9-102.4C131.3,33.2,170.4,12.5,217,7.4
		C275.4,1,325.7,20,365.6,63.1c25.1,27.1,40.7,59.6,45.6,96.6c0.6,4.2,1,8.5,1.2,12.8C412.6,176.7,412.5,180.8,412.5,184.9
		L412.5,184.9z M235.5,268.3c43.9,0.1,80.3-39.6,79.8-80.7c-0.6-45-35.1-80.3-79.6-80.3c-44.3,0-78.8,35.3-79.5,79.9
		C155.5,228.6,192.1,268.2,235.5,268.3L235.5,268.3z"/>
	<rect x="132.5" y="107.3" class="st7" width="211" height="166.4"/>
	<path class="st10" d="M237.7,168.8c7.1-13.6,13.9-26.7,20.6-39.8c5.8-11.2,11.6-22.3,17.3-33.5c2.7-5.3,6.7-7.8,12.7-7.7
		c8.9,0.2,17.8,0,26.7,0c11.2,0,16.6,9.5,11,19.2c-21,36.1-42.2,72.2-63.2,108.3c-1,1.7-1.5,3.9-1.6,5.9
		c-0.1,25.8-0.1,51.5-0.1,77.3c0,6.9-3.1,11.4-8.7,13.1c-0.8,0.2-1.6,0.4-2.3,0.4c-9.3,0-18.6,0.2-27.8,0
		c-6.4-0.1-11.1-5.4-11.2-12.1c0-17.7,0-35.3,0-53c0-8.5,0.1-17-0.1-25.5c0-2-0.6-4.2-1.5-5.9c-19.7-36.1-39.6-72.2-59.4-108.3
		c-1.8-3.4-2.9-6.7-1.8-10.6c1.4-4.9,5.8-8.6,11-8.6c10.1-0.1,20.2-0.1,30.2,0c5.1,0.1,8.5,2.9,10.8,7.3c8,15.7,16,31.5,24,47.2
		C228.7,151,233,159.7,237.7,168.8z"/>
</g>
<g id="X" class="st0">
	<path class="st7" d="M412.5,184.9c0.4,22-4,43-11.4,63.6c-6,16.6-14.6,31.6-25,45.7c-11.2,15.3-22.5,30.5-33.6,45.8
		c-22.9,31.4-45.7,62.8-68.5,94.3c-4.6,6.4-8.8,13.1-13.6,19.4c-13.8,18.1-38.4,18.1-51.7-0.4c-25.4-35.2-50.6-70.7-75.7-106.1
		c-13.9-19.6-27.7-39.3-41.6-58.9c-24.6-34.8-35.1-73.7-32.2-116c2.7-38.6,17.3-72.5,41.9-102.4C131.3,33.2,170.4,12.5,217,7.4
		C275.4,1,325.7,20,365.6,63.1c25.1,27.1,40.7,59.6,45.6,96.6c0.6,4.2,1,8.5,1.2,12.8C412.6,176.7,412.5,180.8,412.5,184.9
		L412.5,184.9z M235.5,268.3c43.9,0.1,80.3-39.6,79.8-80.7c-0.6-45-35.1-80.3-79.6-80.3c-44.3,0-78.8,35.3-79.5,79.9
		C155.5,228.6,192.1,268.2,235.5,268.3L235.5,268.3z"/>
	<rect x="132.5" y="107.3" class="st7" width="211" height="166.4"/>
	<path class="st3" d="M236.7,241.1c-11.3,19.5-22.2,38.4-33,57.2c-1.5,2.5-2.9,5.1-4.4,7.6c-2.5,4.3-6.4,6.4-11.5,6.4
		c-9.9,0-19.8,0-29.7,0c-11-0.1-16.8-9.8-11.1-18.8c14.8-23.5,29.6-47,44.4-70.4c4.5-7.2,9-14.4,13.6-21.5c1.2-1.9,1.2-3.2,0-5.1
		c-18.5-29.6-36.9-59.3-55.4-88.9c-2-3.2-3-6.6-2.1-10.3c1.2-5.2,6.1-9,11.8-9c10.6-0.1,21.3-0.1,31.9,0c5.2,0,8.7,2.7,11.2,6.9
		c9.4,16,18.8,32,28.2,48c2.4,4.1,4.8,8.1,7.4,12.5c0.6-1,1.1-1.6,1.5-2.2c11.7-19.3,23.5-38.6,35.1-58c3-5,7.2-7.4,13.3-7.3
		c9.2,0.2,18.4,0.2,27.5,0c5.6-0.1,10.1,1.5,12.9,6.3c2.8,4.8,1.5,9.3-1.4,13.8c-19,28.9-37.8,57.8-56.8,86.7
		c-1.4,2.1-1.2,3.6,0,5.6c19.8,31.1,39.5,62.2,59.3,93.3c2.5,4,2.8,8.1,0.5,12.2c-2.4,4.2-6.3,6.3-11.3,6.3c-10,0-20-0.1-30,0
		c-5.7,0.1-9.7-2.3-12.5-6.9c-10.2-16.9-20.5-33.8-30.8-50.7C242.7,250.4,239.9,246.1,236.7,241.1z"/>
</g>
<g id="S" class="st0">
	<path class="st7" d="M412.5,184.9c0.4,22-4,43-11.4,63.6c-6,16.6-14.6,31.6-25,45.7c-11.2,15.3-22.5,30.5-33.6,45.8
		c-22.9,31.4-45.7,62.8-68.5,94.3c-4.6,6.4-8.8,13.1-13.6,19.4c-13.8,18.1-38.4,18.1-51.7-0.4c-25.4-35.2-50.6-70.7-75.7-106.1
		c-13.9-19.6-27.7-39.3-41.6-58.9c-24.6-34.8-35.1-73.7-32.2-116c2.7-38.6,17.3-72.5,41.9-102.4C131.3,33.2,170.4,12.5,217,7.4
		C275.4,1,325.7,20,365.6,63.1c25.1,27.1,40.7,59.6,45.6,96.6c0.6,4.2,1,8.5,1.2,12.8C412.6,176.7,412.5,180.8,412.5,184.9
		L412.5,184.9z M235.5,268.3c43.9,0.1,80.3-39.6,79.8-80.7c-0.6-45-35.1-80.3-79.6-80.3c-44.3,0-78.8,35.3-79.5,79.9
		C155.5,228.6,192.1,268.2,235.5,268.3L235.5,268.3z"/>
	<rect x="132.5" y="107.3" class="st7" width="211" height="166.4"/>
	<path class="st11" d="M224.9,329.1c-20.9-0.3-41-3.9-59.9-13.2c-2.3-1.1-4.5-2.4-6.6-3.7c-5.2-3.5-7.4-9.2-5.7-15.3
		c2.4-8.4,4.8-16.7,7.5-25c2.9-8.9,12.1-12.6,20.2-7.9c11,6.3,22.6,10.5,35.2,12.2c9.3,1.3,18.5,1.3,27.6-1.6
		c9.3-3,15.9-8.6,17.5-18.7c1.6-10.3-1.2-19.3-10.2-24.8c-8.1-5-16.8-9.3-25.7-12.9c-13.5-5.5-26.7-11.5-38.6-20.2
		c-44.2-32.1-37.7-99.2,12.9-123.6c18.8-9.1,38.6-11.2,59-9.5c14.9,1.2,29.2,4.5,42.5,11.4c8.3,4.3,10.7,10.4,7.8,19.1
		c-2.4,7.3-4.9,14.6-7.4,21.8c-3.2,9.2-11.6,12.6-20.4,8.2c-15-7.5-30.7-10.8-47.3-7.8c-3.3,0.6-6.7,1.9-9.6,3.6
		c-11.3,6.7-12.8,22.3-3,31.2c7.3,6.6,16.3,10.1,25.1,14c11.5,5.2,23.2,9.9,34.1,16.1c19.4,11.1,33,27.3,37.4,49.9
		c8.3,42-14.9,79.6-56.1,91.7C249.4,327.6,237.3,329.1,224.9,329.1z"/>
</g>
<g id="R" class="st0">
	<path class="st7" d="M412.9,184.9c0.4,22-4,43-11.4,63.6c-6,16.6-14.6,31.6-25,45.7c-11.2,15.3-22.5,30.5-33.6,45.8
		c-22.9,31.4-45.7,62.8-68.5,94.3c-4.6,6.4-8.8,13.1-13.6,19.4c-13.8,18.1-38.4,18.1-51.7-0.4c-25.4-35.2-50.6-70.7-75.7-106.1
		c-13.9-19.6-27.7-39.3-41.6-58.9c-24.6-34.8-35.1-73.7-32.2-116c2.7-38.6,17.3-72.5,41.9-102.4c30.2-36.7,69.3-57.4,115.9-62.5
		C275.8,1,326.1,20,366,63.1c25.1,27.1,40.7,59.6,45.6,96.6c0.6,4.2,1,8.5,1.2,12.8C413,176.7,412.9,180.8,412.9,184.9L412.9,184.9z
		 M235.9,268.3c43.9,0.1,80.3-39.6,79.8-80.7c-0.6-45-35.1-80.3-79.6-80.3c-44.3,0-78.8,35.3-79.5,79.9
		C155.9,228.6,192.5,268.2,235.9,268.3L235.9,268.3z"/>
	<rect x="132.9" y="107.3" class="st7" width="211" height="166.4"/>
	<path class="st3" d="M292.3,196.3c15.3,15.9,19.1,36.5,24,56.7c3,12.5,6.6,24.9,10.1,37.3c0.7,2.4,1.8,4.6,2.7,6.9
		c3.7,9-2,18.5-11.7,18.8c-10.3,0.3-20.7,0.1-31,0c-5.4-0.1-9.8-2.6-11.7-7.6c-3.6-9.6-6.8-19.4-9.6-29.3
		c-3.1-11.1-5.5-22.4-8.1-33.7c-0.2-0.9-0.5-1.7-0.7-2.6c-5.3-18.3-13-24.1-32-24.2c-2.7,0-5.4,0.2-8.1,0c-2.8-0.2-3.6,0.7-3.6,3.5
		c0.1,25.1-0.3,50.3,0.2,75.4c0.3,13.8-5.9,19.5-18.6,18.7c-7.6-0.5-15.3,0-22.9-0.1c-9.2-0.1-14.6-5.5-14.6-14.7
		c0-73.2,0-146.4,0-219.6c0-8.3,4-13.3,12.2-14.7c30.4-5.1,60.9-7.2,91.4-1.7c22,3.9,40.4,14.1,52.2,33.9
		c16.3,27.5,13.8,70.2-17.5,94.8C294.1,194.7,293.3,195.4,292.3,196.3z M212.8,170.2c10.1-0.7,19.9-0.6,29.4-2.2
		c14.1-2.4,22.2-11.5,23.9-24.6c1.6-12.9-3.5-22.8-14.5-27.5c-12.5-5.3-25.6-4.6-38.8-3.6C212.8,131.4,212.8,150.2,212.8,170.2z"/>
</g>
<g id="L" class="st0">
	<path class="st7" d="M412.6,184.9c0.4,22-4,43-11.4,63.6c-6,16.6-14.6,31.6-25,45.7c-11.2,15.3-22.5,30.5-33.6,45.8
		c-22.9,31.4-45.7,62.8-68.5,94.3c-4.6,6.4-8.8,13.1-13.6,19.4c-13.8,18.1-38.4,18.1-51.7-0.4c-25.4-35.2-50.6-70.7-75.7-106.1
		c-13.9-19.6-27.7-39.3-41.6-58.9c-24.6-34.8-35.1-73.7-32.2-116c2.7-38.6,17.3-72.5,41.9-102.4c30.2-36.7,69.3-57.4,115.9-62.5
		C275.5,1,325.8,20,365.7,63.1c25.1,27.1,40.7,59.6,45.6,96.6c0.6,4.2,1,8.5,1.2,12.8C412.7,176.7,412.6,180.8,412.6,184.9
		L412.6,184.9z M235.6,268.3c43.9,0.1,80.3-39.6,79.8-80.7c-0.6-45-35.1-80.3-79.6-80.3c-44.3,0-78.8,35.3-79.5,79.9
		C155.6,228.6,192.2,268.2,235.6,268.3L235.6,268.3z"/>
	<rect x="132.6" y="107.3" class="st7" width="211" height="166.4"/>
	<path class="st3" d="M236.4,239.1c1.5,0,2.7,0,3.9,0c23,0,45.9,0,68.9,0c8.8,0,13.6,4.8,13.6,13.7c0,6.5,0,13.1,0,19.6
		c-0.1,7.6-5.1,12.7-12.7,12.7c-37.1,0-74.2,0-111.2,0c-7.6,0-12.7-5.1-12.7-12.7c0-66.9,0-133.8,0-200.7c0-7.8,5-12.8,12.9-12.8
		c8.1,0,16.1,0,24.2,0c8.3,0,13.1,4.8,13.1,13.1c0,54.2,0,108.4,0,162.6C236.4,236,236.4,237.3,236.4,239.1z"/>
</g>
<g id="W" class="st0">
	<path class="st12" d="M412.5,184.4c0.4,22-4,43-11.4,63.6c-6,16.6-14.6,31.6-25,45.7c-11.2,15.3-22.5,30.5-33.6,45.8
		c-22.9,31.4-45.7,62.8-68.5,94.3c-4.6,6.4-8.8,13.1-13.6,19.4c-13.8,18.1-38.4,18.1-51.7-0.4c-25.4-35.2-50.6-70.7-75.7-106.1
		c-13.9-19.6-27.7-39.3-41.6-58.9c-24.6-34.8-35.1-73.7-32.2-116c2.7-38.6,17.3-72.5,41.9-102.4C131.3,32.7,170.4,12,217,6.9
		c58.4-6.4,108.7,12.6,148.6,55.7c25.1,27.1,40.7,59.6,45.6,96.6c0.6,4.2,1,8.5,1.2,12.8C412.6,176.2,412.5,180.3,412.5,184.4
		L412.5,184.4z M235.5,267.8c43.9,0.1,80.3-39.6,79.8-80.7c-0.6-45-35.1-80.3-79.6-80.3c-44.3,0-78.8,35.3-79.5,79.9
		C155.5,228.1,192.1,267.7,235.5,267.8L235.5,267.8z"/>
	<rect x="118.7" y="104.1" class="st12" width="211" height="166.4"/>
	<path class="st3" d="M185.8,220.3c5.1-19.1,10-37.6,14.9-56.1c4.7-17.8,9.4-35.6,14.1-53.4c1.7-6.6,5.5-9.5,12.3-9.5
		c7.8,0,15.5,0,23.3,0c6.5,0,10.5,3.2,12,9.5c7,29,13.9,58,20.8,86.9c1.6,6.6,3.1,13.2,4.9,20.6c0.5-1.6,0.8-2.5,1.1-3.3
		c9-34.7,18.1-69.4,27.1-104.1c1.8-6.8,5.5-9.7,12.5-9.7c7.3,0,14.6,0,21.9,0c9.7,0,14.6,6.5,12,15.7c-13,45.7-25.9,91.5-38.9,137.2
		c-4.5,15.9-9,31.8-13.5,47.7c-1.9,6.6-5.6,9.4-12.4,9.4c-7.6,0-15.2,0-22.7,0c-7,0-10.9-3.1-12.6-10c-8.2-34-16.5-68.1-24.7-102.1
		c-0.3-1.1-0.5-2.2-1.3-3.4c-0.3,1-0.7,2.1-1,3.1c-9.4,34.1-18.7,68.3-28.1,102.4c-2,7.2-5.5,10-13.1,10c-7.4,0-14.8,0-22.2,0
		c-7,0-10.8-2.9-12.5-9.6c-13.1-51.4-26.1-102.8-39.2-154.3c-2.7-10.6-5.4-21.2-8-31.8c-1.9-7.9,3.1-14.3,11.2-14.3
		c7.8,0,15.5,0,23.3,0c7.8,0,11.5,2.9,13.2,10.5c8.2,35.2,16.5,70.4,24.7,105.6C185.2,218.3,185.4,219,185.8,220.3z"/>
</g>
<g id="D" class="st0">
	<path class="st13" d="M412.3,184.5c0.4,22-4,43-11.4,63.6c-6,16.6-14.6,31.6-25,45.7c-11.2,15.3-22.5,30.5-33.6,45.8
		c-22.9,31.4-45.7,62.8-68.5,94.3c-4.6,6.4-8.8,13.1-13.6,19.4c-13.8,18.1-38.4,18.1-51.7-0.4c-25.4-35.2-50.6-70.7-75.7-106.1
		c-13.9-19.6-27.7-39.3-41.6-58.9c-24.6-34.8-35.1-73.7-32.2-116c2.7-38.6,17.3-72.5,41.9-102.4C131.1,32.8,170.2,12.1,216.8,7
		c58.4-6.4,108.7,12.6,148.6,55.7c25.1,27.1,40.7,59.6,45.6,96.6c0.6,4.2,1,8.5,1.2,12.8C412.4,176.3,412.3,180.4,412.3,184.5
		L412.3,184.5z M235.3,267.9c43.9,0.1,80.3-39.6,79.8-80.7c-0.6-45-35.1-80.3-79.6-80.3c-44.3,0-78.8,35.3-79.5,79.9
		C155.3,228.2,191.9,267.8,235.3,267.9L235.3,267.9z"/>
	<rect x="132.3" y="106.9" class="st13" width="211" height="166.4"/>
	<path class="st3" d="M145.2,188.1c0-33.9,0-67.9,0-101.8c0-10,3.5-14,13.4-15.5c21-3.1,42.2-4.6,63.4-4.2
		c21,0.5,41.7,3.1,61.1,11.7c32,14.3,51.6,39,58.8,73c6.5,30.9,4.2,61.2-8.8,90.2c-13.3,29.6-36.1,48.6-66.9,58.3
		c-24.1,7.7-48.9,9.1-73.9,8c-11.4-0.5-22.9-1.4-34.3-2.2c-8.2-0.6-12.8-5.6-12.9-14C145.2,257.3,145.2,222.7,145.2,188.1z
		 M198.3,260.4c12.8,0.4,25.2,0.7,37.4-1.7c24.6-4.9,42.5-18.2,50.5-42.6c6-18.5,6.7-37.5,2.2-56.5c-4.9-20.7-17.9-34.4-38.2-41.1
		c-10.4-3.4-21.1-4.6-32-4.6c-6.6,0-13.3,0.5-20,0.7C198.3,163.4,198.3,211.7,198.3,260.4z"/>
</g>
<g id="Z" class="st0">
	<path class="st14" d="M412.3,184.9c0.4,22-4,43-11.4,63.6c-6,16.6-14.6,31.6-25,45.7c-11.2,15.3-22.5,30.5-33.6,45.8
		c-22.9,31.4-45.7,62.8-68.5,94.3c-4.6,6.4-8.8,13.1-13.6,19.4c-13.8,18.1-38.4,18.1-51.7-0.4c-25.4-35.2-50.6-70.7-75.7-106.1
		c-13.9-19.6-27.7-39.3-41.6-58.9c-24.6-34.8-35.1-73.7-32.2-116c2.7-38.6,17.3-72.5,41.9-102.4c30.2-36.7,69.3-57.4,115.9-62.5
		C275.2,1,325.5,20,365.4,63.1c25.1,27.1,40.7,59.6,45.6,96.6c0.6,4.2,1,8.5,1.2,12.8C412.4,176.7,412.3,180.8,412.3,184.9
		L412.3,184.9z M235.3,268.3c43.9,0.1,80.3-39.6,79.8-80.7c-0.6-45-35.1-80.3-79.6-80.3c-44.3,0-78.8,35.3-79.5,79.9
		C155.3,228.6,191.9,268.2,235.3,268.3L235.3,268.3z"/>
	<rect x="132.3" y="107.3" class="st14" width="211" height="166.4"/>
	<path class="st3" d="M253.7,124.1c-1.7,0-2.8,0-3.8,0c-24.6,0-49.3,0-73.9,0c-9,0-13.6-4.6-13.6-13.6c0-6.5,0-13,0-19.5
		c0.1-7.6,5-12.5,12.6-12.5c44.6,0,89.2,0,133.8,0c7.5,0,12.4,4.8,12.6,12.3c0.1,4.9,0,9.8,0,14.7c0,3.6-1.4,6.5-3.4,9.4
		c-31.5,46-62.9,92.1-94.3,138.1c-0.8,1.1-1.5,2.3-2.7,4c1.5,0,2.6,0,3.6,0c28.1,0,56.3,0,84.4,0c9.2,0,13.8,4.6,13.8,13.7
		c0,6.5,0,13,0,19.5c-0.1,7.4-5.1,12.4-12.5,12.4c-48.4,0-96.8,0-145.2,0c-7.4,0-12.3-5.1-12.4-12.5c0-4.3,0.1-8.6,0-12.9
		c-0.1-3.8,1-7,3.1-10.1c30-43.9,60-87.7,90-131.6C248.4,131.9,250.9,128.3,253.7,124.1z"/>
</g>
<g id="CH" class="st0">
	<path class="st15" d="M412.5,184.5c0.4,22-4,43-11.4,63.6c-6,16.6-14.6,31.6-25,45.7c-11.2,15.3-22.5,30.5-33.6,45.8
		c-22.9,31.4-45.7,62.8-68.5,94.3c-4.6,6.4-8.8,13.1-13.6,19.4c-13.8,18.1-38.4,18.1-51.7-0.4c-25.4-35.2-50.6-70.7-75.7-106.1
		c-13.9-19.6-27.7-39.3-41.6-58.9c-24.6-34.8-35.1-73.7-32.2-116c2.7-38.6,17.3-72.5,41.9-102.4C131.3,32.8,170.4,12.1,217,7
		c58.4-6.4,108.7,12.6,148.6,55.7c25.1,27.1,40.7,59.6,45.6,96.6c0.6,4.2,1,8.5,1.2,12.8C412.6,176.3,412.5,180.4,412.5,184.5
		L412.5,184.5z M235.5,267.9c43.9,0.1,80.3-39.6,79.8-80.7c-0.6-45-35.1-80.3-79.6-80.3c-44.3,0-78.8,35.3-79.5,79.9
		C155.5,228.2,192.1,267.8,235.5,267.9L235.5,267.9z"/>
	<rect x="132.5" y="106.9" class="st15" width="211" height="166.4"/>
	<path class="st3" d="M172.5,275.2c-16.6-0.2-32.4-3.3-46.8-11.8c-17.7-10.4-29-25.9-34.4-45.5c-6.5-23.6-5.8-47,4.4-69.5
		c11.8-25.8,32.3-41.1,59.9-46.8c18.5-3.8,36.9-2.9,55,3.2c2.1,0.7,4.1,1.6,6.1,2.6c3.9,2,5.7,6.2,4.5,10.4
		c-1.5,5.5-3.1,11-4.8,16.4c-1.8,5.6-7.4,7.7-13.1,5.3c-14.3-6.1-29.1-7-44-2.7c-15.5,4.5-25.3,15-29.9,30.2
		c-4.2,13.9-4.3,28.1,0,42c5.3,17.2,17.2,27.2,34.9,30.2c13.7,2.3,27.1,1,40-4.4c5.6-2.3,11.1,0.4,12.7,6.2c1.4,5,2.7,10,3.9,15
		c1.2,4.8-0.7,9-5.2,11.1c-8.2,3.9-17,5.8-25.9,6.8C184.1,274.5,178.3,274.7,172.5,275.2z"/>
	<path class="st3" d="M264.3,201.4c0,1.2,0,2.1,0,3.1c0,19.6,0,39.1,0,58.7c0,7.1-3.6,10.7-10.6,10.7c-6,0-12,0-18,0
		c-6,0-9.8-3.8-9.8-9.8c0-51.1,0-102.2,0-153.3c0-6.2,3.8-9.9,10-9.9c6.2,0,12.3,0,18.5,0c6.1,0,9.9,3.8,10,9.9
		c0,17.3,0,34.5,0,51.8c0,0.9,0,1.8,0,2.8c18.8,0,37.3,0,56.3,0c0-0.9,0-1.8,0-2.7c0-17,0-34.1,0-51.1c0-7.3,3.4-10.8,10.7-10.8
		c6.1,0,12.2,0,18.3,0c5.8,0,9.6,3.8,9.6,9.5c0,51.3,0,102.6,0,154c0,5.7-3.9,9.5-9.6,9.5c-6,0-12,0-18,0c-7.6,0-10.9-3.4-10.9-11
		c0-19.5,0-39,0-58.5c0-3,0-3-3-3c-16.8,0-33.6,0-50.4,0C266.4,201.4,265.5,201.4,264.3,201.4z"/>
</g>
<g id="C1" class="st0">
	<path class="st16" d="M411.5,184.5c0.4,22-4,43-11.4,63.6c-6,16.6-14.6,31.6-25,45.7c-11.2,15.3-22.5,30.5-33.6,45.8
		c-22.9,31.4-45.7,62.8-68.5,94.3c-4.6,6.4-8.8,13.1-13.6,19.4c-13.8,18.1-38.4,18.1-51.7-0.4c-25.4-35.2-50.6-70.7-75.7-106.1
		c-13.9-19.6-27.7-39.3-41.6-58.9c-24.6-34.8-35.1-73.7-32.2-116c2.7-38.6,17.3-72.5,41.9-102.4C130.3,32.8,169.4,12.1,216,7
		c58.4-6.4,108.7,12.6,148.6,55.7c25.1,27.1,40.7,59.6,45.6,96.6c0.6,4.2,1,8.5,1.2,12.8C411.6,176.3,411.5,180.4,411.5,184.5
		L411.5,184.5z M234.5,267.9c43.9,0.1,80.3-39.6,79.8-80.7c-0.6-45-35.1-80.3-79.6-80.3c-44.3,0-78.8,35.3-79.5,79.9
		C154.5,228.2,191.1,267.8,234.5,267.9L234.5,267.9z"/>
	<rect x="131.5" y="106.9" class="st16" width="211" height="166.4"/>
	<path class="st3" d="M197.7,288.1c-19.1-0.2-37.2-3.8-53.8-13.6c-20.4-12-33.4-29.8-39.6-52.3c-7.5-27.1-6.6-54,5.1-79.8
		c13.5-29.7,37.2-47.3,68.9-53.8c21.3-4.3,42.4-3.3,63.2,3.6c2.4,0.8,4.7,1.8,7,3c4.5,2.4,6.5,7.1,5.2,12
		c-1.7,6.3-3.5,12.6-5.5,18.8c-2.1,6.5-8.5,8.9-15.1,6.1c-16.5-7-33.4-8.1-50.5-3.1c-17.8,5.1-29.1,17.2-34.4,34.8
		c-4.8,16-4.9,32.3,0,48.3c6.1,19.7,19.8,31.2,40.1,34.7c15.7,2.7,31.2,1.1,46-5.1c6.4-2.7,12.7,0.4,14.6,7.1
		c1.6,5.7,3.1,11.5,4.5,17.2c1.4,5.6-0.8,10.3-6,12.8c-9.4,4.5-19.5,6.6-29.8,7.8C211,287.3,204.3,287.6,197.7,288.1z"/>
	<path class="st3" d="M296.6,139.2c-4.8,2.7-9,5.1-13.3,7.5c-7.4,4.1-14.1,1.1-16.2-7.4c-1.4-5.8-2.9-11.6-4.1-17.4
		c-1.1-4.9,0.8-9.4,5-11.8c12.2-7,24.5-13.9,36.8-20.6c1.5-0.8,3.3-1.2,5-1.2c6.3-0.1,12.6-0.1,18.9,0c6.1,0.1,10.4,4.5,10.6,10.9
		c0,0.5,0,1.1,0,1.6c0,57.3,0,114.7-0.1,172c0,2.7-0.8,5.6-2,7.9c-1.7,3.2-4.8,4.6-8.3,4.6c-7.1,0-14.2,0-21.3,0
		c-6.8,0-11-4.4-11-11.6c0-16.8,0-33.6,0-50.4c0-26.9,0-53.7,0-80.6C296.6,141.9,296.6,140.9,296.6,139.2z"/>
</g>
<g id="P" class="st0">
	<path class="st1" d="M411.5,184.5c0.4,22-4,43-11.4,63.6c-6,16.6-14.6,31.6-25,45.7c-11.2,15.3-22.5,30.5-33.6,45.8
		c-22.9,31.4-45.7,62.8-68.5,94.3c-4.6,6.4-8.8,13.1-13.6,19.4c-13.8,18.1-38.4,18.1-51.7-0.4c-25.4-35.2-50.6-70.7-75.7-106.1
		c-13.9-19.6-27.7-39.3-41.6-58.9c-24.6-34.8-35.1-73.7-32.2-116c2.7-38.6,17.3-72.5,41.9-102.4C130.3,32.8,169.4,12.1,216,7
		c58.4-6.4,108.7,12.6,148.6,55.7c25.1,27.1,40.7,59.6,45.6,96.6c0.6,4.2,1,8.5,1.2,12.8C411.6,176.3,411.5,180.4,411.5,184.5
		L411.5,184.5z M234.5,267.9c43.9,0.1,80.3-39.6,79.8-80.7c-0.6-45-35.1-80.3-79.6-80.3c-44.3,0-78.8,35.3-79.5,79.9
		C154.5,228.2,191.1,267.8,234.5,267.9L234.5,267.9z"/>
	<rect x="131.5" y="106.9" class="st1" width="211" height="166.4"/>
	<path class="st3" d="M219,231.8c0,1.8,0,3.2,0,4.6c0,24.6,0,49.1,0,73.7c0,10.7-5.4,16.3-15.8,16.4c-9.2,0-18.4,0.1-27.7,0
		c-9.7-0.1-15.4-5.9-15.4-15.8c0-78.6,0-157.3,0-235.9c0-9.1,4.8-14.5,13.6-15.9c23.1-3.7,46.3-5.2,69.6-4.2
		c20.1,0.9,39.4,4.9,56.6,16.3c20.4,13.6,31.3,33.2,34,57.7c2,18.3-0.1,36.1-8.2,52.8c-10.5,21.6-28,35-49.8,42.9
		c-16.8,6.1-34.2,7.9-52,7.5C222.4,231.8,221,231.8,219,231.8z M219.1,177.4c11.8,1,23.2,0.8,34.2-3c11.7-4,19.2-12.1,21.2-24.7
		c0.8-5,0.8-10.3,0.4-15.4c-0.9-10.2-6.2-17.7-15.5-21.5c-5.4-2.2-11.3-3.8-17-4.3c-7.7-0.7-15.5-0.2-23.3-0.2
		C219.1,131.6,219.1,154.3,219.1,177.4z"/>
</g>
<g id="A" class="st0">
	<path class="st17" d="M411.6,184.9c0.4,22-4,43-11.4,63.6c-6,16.6-14.6,31.6-25,45.7c-11.2,15.3-22.5,30.5-33.6,45.8
		c-22.9,31.4-45.7,62.8-68.5,94.3c-4.6,6.4-8.8,13.1-13.6,19.4c-13.8,18.1-38.4,18.1-51.7-0.4c-25.4-35.2-50.6-70.7-75.7-106.1
		c-13.9-19.6-27.7-39.3-41.6-58.9c-24.6-34.8-35.1-73.7-32.2-116c2.7-38.6,17.3-72.5,41.9-102.4c30.2-36.7,69.3-57.4,115.9-62.5
		C274.5,1,324.8,20,364.7,63.1c25.1,27.1,40.7,59.6,45.6,96.6c0.6,4.2,1,8.5,1.2,12.8C411.7,176.7,411.6,180.8,411.6,184.9
		L411.6,184.9z M234.6,268.3c43.9,0.1,80.3-39.6,79.8-80.7c-0.6-45-35.1-80.3-79.6-80.3c-44.3,0-78.8,35.3-79.5,79.9
		C154.6,228.6,191.2,268.2,234.6,268.3L234.6,268.3z"/>
	<rect x="131.6" y="107.3" class="st17" width="211" height="166.4"/>
	<path class="st10" d="M317.9,303.4c-4.8,0-9.7,0-14.5,0c-7.5,0-11.9-3.2-14.4-10.3c-6.5-19.1-13-38.2-19.4-57.3
		c-0.8-2.4-1.8-3.3-4.4-3.2c-18.1,0.1-36.2,0.1-54.2,0c-2.4,0-3.3,0.8-4,2.9c-6.1,18.8-12.3,37.5-18.5,56.2
		c-2.9,8.9-6.8,11.7-16.4,11.7c-8.6,0-17.3,0-25.9,0c-11.2,0-17.3-8.4-13.7-19c19.2-56.7,38.5-113.4,57.7-170
		c5.9-17.4,11.8-34.8,17.8-52.2c2.7-7.9,6.9-10.9,15.3-10.9c10.2,0,20.4,0,30.7,0c9.3,0,13.1,2.7,16.1,11.6
		C295,136,320,209.1,344.9,282.2c1.2,3.6,2.7,7.1,1.6,11.1c-1.7,6-6.5,10-12.7,10.1C328.5,303.5,323.2,303.4,317.9,303.4
		C317.9,303.4,317.9,303.4,317.9,303.4z M223.3,182.5c10.3,0,20,0,30,0c-5-14.7-9.9-29-15-44.1C233,153.7,228.2,168,223.3,182.5z"/>
</g>
<g id="U" class="st0">
	<path class="st9" d="M411.5,184.6c0.4,22-4,43-11.4,63.6c-6,16.6-14.6,31.6-25,45.7c-11.2,15.3-22.5,30.5-33.6,45.8
		c-22.9,31.4-45.7,62.8-68.5,94.3c-4.6,6.4-8.8,13.1-13.6,19.4c-13.8,18.1-38.4,18.1-51.7-0.4c-25.4-35.2-50.6-70.7-75.7-106.1
		c-13.9-19.6-27.7-39.3-41.6-58.9c-24.6-34.8-35.1-73.7-32.2-116c2.7-38.6,17.3-72.5,41.9-102.4C130.3,32.9,169.4,12.2,216,7.1
		c58.4-6.4,108.7,12.6,148.6,55.7c25.1,27.1,40.7,59.6,45.6,96.6c0.6,4.2,1,8.5,1.2,12.8C411.6,176.4,411.5,180.5,411.5,184.6
		L411.5,184.6z M234.5,268c43.9,0.1,80.3-39.6,79.8-80.7c-0.6-45-35.1-80.3-79.6-80.3c-44.3,0-78.8,35.3-79.5,79.9
		C154.5,228.3,191.1,267.9,234.5,268L234.5,268z"/>
	<rect x="131.5" y="105.3" class="st9" width="211" height="166.4"/>
	<path class="st3" d="M275.9,161.8c0-22.1,0.4-44.1-0.1-66.2c-0.3-12.9,7.4-17.8,18.3-17.2c8.4,0.5,16.9,0.1,25.2,0.1
		c9.3,0,15.1,5.3,15.1,14c0,44,0.1,88.1-0.1,132.1c-0.1,21.4-4.5,42-16.1,60.7c-14,22.7-35.6,35.6-62.9,40.2
		c-20.4,3.4-40.7,2.9-60.6-3.5c-27.1-8.8-44-27.2-53.3-52.1c-5.4-14.4-7.7-29.2-7.8-44.4c-0.1-44.4-0.1-88.7-0.1-133.1
		c0-8.6,5.8-13.9,14.8-13.9c9.3,0,18.8,0,28.1,0c10,0,15.5,5.2,15.6,14.7c0,42.2,0,84.3,0,126.5c0,11.9,0.9,23.6,5.4,34.8
		c4.9,12.1,13.2,21,27.5,23c14.6,2.1,28.1,0.3,38.2-11.2c7.1-8.1,10-17.9,11.3-28.2c0.8-6.8,1.2-13.8,1.2-20.6
		C276,198.9,275.9,180.4,275.9,161.8z"/>
	<path class="st18" d="M284.9,182.9c5.8,0,11.6,0,17.4,0c1.2,0,2.2,1.8,2.3,5.3c0.1,6.5,0.1,13,0,19.5c-0.1,3-0.8,4.8-1.7,5.3
		c-0.2,0.1-0.4,0.1-0.6,0.1c-11.5,0-23.1,0-34.6,0c-1.3,0-2.1-1.8-2.4-5.4c-0.1-0.8-0.1-1.7-0.1-2.5c0-4.7,0-9.4,0-14.2
		c0-5.3,0.8-8.2,2.4-8.2c2.1,0,4.3,0,6.4,0C277.6,182.9,281.3,182.9,284.9,182.9z"/>
</g>
<g id="U1" class="st0">
	<path class="st9" d="M411.5,183.9c0.4,22-4,43-11.4,63.6c-6,16.6-14.6,31.6-25,45.7c-11.2,15.3-22.5,30.5-33.6,45.8
		c-22.9,31.4-45.7,62.8-68.5,94.3c-4.6,6.4-8.8,13.1-13.6,19.4c-13.8,18.1-38.4,18.1-51.7-0.4c-25.4-35.2-50.6-70.7-75.7-106.1
		c-13.9-19.6-27.7-39.3-41.6-58.9c-24.6-34.8-35.1-73.7-32.2-116c2.7-38.6,17.3-72.5,41.9-102.4C130.3,32.2,169.4,11.5,216,6.4
		C274.4,0,324.7,19,364.6,62.1c25.1,27.1,40.7,59.6,45.6,96.6c0.6,4.2,1,8.5,1.2,12.8C411.6,175.7,411.5,179.8,411.5,183.9
		L411.5,183.9z M234.5,267.3c43.9,0.1,80.3-39.6,79.8-80.7c-0.6-45-35.1-80.3-79.6-80.3c-44.3,0-78.8,35.3-79.5,79.9
		C154.5,227.6,191.1,267.2,234.5,267.3L234.5,267.3z"/>
	<rect x="131.5" y="104.6" class="st9" width="211" height="166.4"/>
	<g id="Capa_2_00000067217050054915117510000003051267401774499475_" class="st19">
		<path class="st6" d="M311.6,139.5c-4.8,2.7-9,5.1-13.3,7.5c-7.4,4.1-14.1,1.1-16.2-7.4c-1.4-5.8-2.9-11.6-4.1-17.4
			c-1.1-4.9,0.8-9.4,5-11.8c12.2-7,24.5-13.9,36.8-20.6c1.5-0.8,3.3-1.2,5-1.2c6.3-0.1,12.6-0.1,18.9,0c6.1,0.1,10.4,4.5,10.6,10.9
			c0,0.5,0,1.1,0,1.6c0,57.3,0,114.7-0.1,172c0,2.7-0.8,5.6-2,7.9c-1.7,3.2-4.8,4.6-8.3,4.6c-7.1,0-14.2,0-21.3,0
			c-6.8,0-11-4.4-11-11.6c0-16.8,0-33.6,0-50.4c0-26.9,0-53.7,0-80.6C311.6,142.2,311.6,141.2,311.6,139.5z"/>
		<path class="st6" d="M215.5,154.6c0-17.5,0.3-34.9-0.1-52.4c-0.2-10.2,5.5-14.1,13.6-13.6c6.2,0.4,12.5,0.1,18.7,0.1
			c6.9,0,11.2,4.2,11.2,11.1c0,34.8,0.1,69.7-0.1,104.5c-0.1,16.9-3.3,33.2-11.9,48c-10.4,18-26.4,28.2-46.6,31.8
			c-15.1,2.7-30.2,2.3-44.9-2.8c-20.1-7-32.6-21.5-39.5-41.2c-4-11.4-5.7-23.1-5.8-35.1c-0.1-35.1-0.1-70.2-0.1-105.3
			c0-6.8,4.3-11,11-11c6.9,0,13.9,0,20.8,0c7.4,0,11.5,4.1,11.6,11.6c0,33.4,0,66.7,0,100.1c0,9.4,0.7,18.7,4,27.5
			c3.6,9.6,9.8,16.6,20.4,18.2c10.8,1.7,20.8,0.2,28.3-8.9c5.3-6.4,7.4-14.2,8.4-22.3c0.6-5.4,0.9-10.9,0.9-16.3
			C215.6,184,215.5,169.3,215.5,154.6z"/>
		<path class="st20" d="M285.6,179.9c5.8,0,11.6,0,17.4,0c1.2,0,2.2,1.8,2.3,5.3c0.1,6.5,0.1,13,0,19.5c-0.1,3-0.8,4.8-1.7,5.3
			c-0.2,0.1-0.4,0.1-0.6,0.1c-11.5,0-23.1,0-34.6,0c-1.3,0-2.1-1.8-2.4-5.4c-0.1-0.8-0.1-1.7-0.1-2.5c0-4.7,0-9.4,0-14.2
			c0-5.3,0.8-8.2,2.4-8.2c2.1,0,4.3,0,6.4,0C278.3,179.9,282,179.9,285.6,179.9z"/>
	</g>
</g>
</svg>
