<?xml version="1.0" encoding="utf-8"?>
<!-- Generator: Adobe Illustrator 27.0.0, SVG Export Plug-In . SVG Version: 6.00 Build 0)  -->
<svg version="1.1" xmlns="http://www.w3.org/2000/svg" xmlns:xlink="http://www.w3.org/1999/xlink" x="0px" y="0px"
	 viewBox="0 0 469.3 469.4" style="enable-background:new 0 0 469.3 469.4;" xml:space="preserve">
<style type="text/css">
	.st0{fill:#FFD400;stroke:#FFFFFF;stroke-width:10;stroke-miterlimit:10;}
	.st1{fill:#FFD400;}
	.st2{display:none;fill:#FFD400;stroke:#FFFFFF;stroke-miterlimit:10;}
	.st3{fill:#002397;stroke:#002397;stroke-width:4;stroke-miterlimit:10;}
	.st4{display:none;}
	.st5{display:inline;}
	.st6{display:none;fill:#FFD400;}
</style>
<g id="Capa_1">
	<g id="Capa_1_00000110441065234824621240000015730264172251279239_">
		<g id="Capa_6">
			<path class="st0" d="M411.5,184.5c0.4,22-4,43-11.4,63.6c-6,16.6-14.6,31.6-25,45.7c-11.2,15.3-22.5,30.5-33.6,45.8
				c-22.9,31.4-45.7,62.8-68.5,94.3c-4.6,6.4-8.8,13.1-13.6,19.4c-13.8,18.1-38.4,18.1-51.7-0.4c-25.4-35.2-50.6-70.7-75.7-106.1
				c-13.9-19.6-27.7-39.3-41.6-58.9c-24.6-34.8-35.1-73.7-32.2-116c2.7-38.6,17.3-72.5,41.9-102.4C130.3,32.8,169.4,12.1,216,7
				c58.4-6.4,108.7,12.6,148.6,55.7c25.1,27.1,40.7,59.6,45.6,96.6c0.6,4.2,1,8.5,1.2,12.8C411.6,176.3,411.5,180.4,411.5,184.5
				 M234.5,267.9c43.9,0.1,80.3-39.6,79.8-80.7c-0.6-45-35.1-80.3-79.6-80.3c-44.3,0-78.8,35.3-79.5,79.9
				C154.5,228.2,191.1,267.8,234.5,267.9"/>
			<path class="st1" d="M132.8,71h211v202.3h-211V71z"/>
			<path class="st2" d="M197.7,288.1c-19.1-0.2-37.2-3.8-53.8-13.6c-20.4-12-33.4-29.8-39.6-52.3c-7.5-27.1-6.6-54,5.1-79.8
				c13.5-29.7,37.2-47.3,68.9-53.8c21.3-4.3,42.4-3.3,63.2,3.6c2.4,0.8,4.7,1.8,7,3c4.5,2.4,6.5,7.1,5.2,12
				c-1.7,6.3-3.5,12.6-5.5,18.8c-2.1,6.5-8.5,8.9-15.1,6.1c-16.5-7-33.4-8.1-50.5-3.1c-17.8,5.1-29.1,17.2-34.4,34.8
				c-4.8,16-4.9,32.3,0,48.3c6.1,19.7,19.8,31.2,40.1,34.7c15.7,2.7,31.2,1.1,46-5.1c6.4-2.7,12.7,0.4,14.6,7.1
				c1.6,5.7,3.1,11.5,4.5,17.2c1.4,5.6-0.8,10.3-6,12.8c-9.4,4.5-19.5,6.6-29.8,7.8C211,287.3,204.3,287.6,197.7,288.1 M296.6,139.2
				c-4.8,2.7-9,5.1-13.3,7.5c-7.4,4.1-14.1,1.1-16.2-7.4c-1.4-5.8-2.9-11.6-4.1-17.4c-1.1-4.9,0.8-9.4,5-11.8
				c12.2-7,24.5-13.9,36.8-20.6c1.5-0.8,3.3-1.2,5-1.2c6.3-0.1,12.6-0.1,18.9,0c6.1,0.1,10.4,4.5,10.6,10.9v1.6
				c0,57.3,0,114.7-0.1,172c0,2.7-0.8,5.6-2,7.9c-1.7,3.2-4.8,4.6-8.3,4.6h-21.3c-6.8,0-11-4.4-11-11.6V139.2z"/>
		</g>
	</g>
	<g id="Capa_2_00000060723937293043547630000005546670160372407424_">
		<path class="st3" d="M381.8,113.9c-0.6,0.5-0.8,1.3-1.2,1.9c-0.5,0.7-1.1,1.4-1.7,1.9c-1.9,1.5-4,2.7-6.3,3.7
			c-2,0.9-4.1,1.6-6.2,2.3c-1,0.4-2.1,0.8-3.1,1c-2.3,0.6-4.6,1.5-6.9,2.1c-1.9,0.5-3.7,1.1-5.6,1.6c-1.8,0.4-3.4,1.1-5.2,1.6
			c-1.5,0.5-3,1.1-4,2.5c-0.9,1.4-2.2,2.4-3.3,3.5c-1.3,1.3-2.9,2.4-4.3,3.6c-1.5,1.3-3.3,2.4-4.8,3.7c-0.8,0.7-1.7,1.2-2.6,1.8
			c-1.5,1-2.9,1.9-4.4,2.8c-1.2,0.7-2.4,1.5-3.6,2.2c-1,0.6-2,1.1-3,1.7c-0.3,0.2-0.6,0.2-0.9,0.4c-3.7,2.2-7.7,4-11.5,6
			c-0.1,0.1-0.2,0.1-0.4,0.2c-0.4,1.3-0.9,2.6-1.4,4c-0.4,1.2-0.9,2.4-1.4,3.5c-0.3,0.8-0.7,1.6-1.1,2.4c-0.4,0.8-0.7,1.6-1.1,2.3
			c-0.5,1.1-1.2,2.3-1.8,3.4c-1,1.8-2.1,3.6-3.2,5.4c-1.5,2.4-3.1,4.8-4.7,7.2c-0.6,0.9-1.2,1.7-1.9,2.5c-0.9,1.2-1.9,2.4-2.8,3.6
			c-1,1.3-2.2,2.5-3.2,3.8c-1.3,1.6-2.7,3-4.2,4.3c-1.9,1.7-3.9,3.3-6.2,4.4c-0.7,0.3-1.3,0.6-2.1,0.6c-0.2,0-0.4,0.2-0.6,0.2
			c-1.3,0.2-2.5-0.3-3.6-0.8c0-0.8-0.2-1.6,0-2.2c0.2-0.6,0-1.4,0.5-1.9c-0.1-1.2,0.5-2.2,0.5-3.4c0-0.5,0.3-1,0.4-1.5
			c0-0.2,0.1-0.3,0.1-0.5s0-0.3,0-0.6c-1.7,1.4-3.5,2.5-5.1,3.9c-0.9,0.8-1.9,1.6-2.9,2.3c-4,3.2-7.5,7.1-11.2,10.7
			c-0.6,0.6-1.1,1.3-1.7,1.9c-0.5,0.6-1.2,1.1-1.6,1.8c-0.4,0.6-0.9,1.1-1.4,1.7c-2.6,2.9-4.7,6.1-6.8,9.4c-1.1,1.8-2.2,3.6-3.2,5.4
			c-1.4,2.6-2.8,5.2-4.3,7.8c-2.2,4-4.2,8.2-6.3,12.3c-0.1,0.2-0.3,0.3-0.5,0.7c0.1-0.6,0.1-1.1,0.3-1.4c0.9-1.6,1.3-3.3,2.1-5
			c0.9-1.9,1.7-3.9,2.6-5.8c1-2.1,2.1-4.3,3.2-6.4c1.3-2.5,2.7-5.1,4.3-7.5c1.1-1.7,2-3.4,3.2-5c0.7-1,1.4-2,2.1-3
			c1.4-1.7,2.8-3.3,4.2-5s3.1-3.2,4.6-4.8c1-1.1,2.1-2.2,3.2-3.2c1.1-1,2.1-2,3.3-2.8c0.6-0.4,1.2-1,1.8-1.5
			c1.8-1.5,3.7-2.9,5.6-4.2c1.5-1,3-2,4.6-2.9c0.1,0,0.2-0.1,0.2-0.1c0.1-0.5,0.3-0.9,0.4-1.3c0.1-0.4-0.1-0.9,0.2-1.4
			c0.3-0.3,0.1-0.9,0.2-1.3c0.2-0.5,0.2-1.1,0.3-1.7c0.1-0.4,0.1-0.8,0.2-1.2c0.3-1.3,0.4-2.6,0.6-3.9c0.1-0.5,0.2-1,0.3-1.5
			c0.1-0.5-0.2-1.1,0.2-1.5c0.1-0.1,0-0.3,0-0.4c-0.1-1.3,0.5-2.6,0.3-4c0.5-2.1,0.2-4.2,0.3-6.2c0-0.9-0.2-1.8-0.5-2.7
			c-0.1-0.2,0-0.3,0-0.8c0.3,0.5,0.5,0.8,0.5,1c0.3,2.2,0.8,4.4,0.5,6.7c-0.2,1.4-0.1,2.9-0.3,4.3c-0.1,0.9-0.1,1.8-0.3,2.7
			c-0.2,0.7-0.2,1.4-0.2,2.1c-0.1,0.7-0.1,1.5-0.3,2.1c-0.3,1.3-0.3,2.7-0.7,4.1c-0.2,0.7-0.2,1.4-0.3,2.1c-0.1,1.3-0.7,2.5-0.6,3.7
			c-0.5,0.6-0.1,1.5-0.5,2.2c-0.3,0.7-0.2,1.5-0.3,2.2c-0.2,1.1-0.4,2.1-0.6,3.2c0,0.4-0.3,0.8-0.2,1.3c0.8,0.4,1.7,0.4,2.7,0.1
			c1-0.2,1.9-0.7,2.7-1.1c0.9-0.5,1.7-1.1,2.5-1.7c1.8-1.4,3.3-3,4.8-4.6s2.9-3.3,4.2-5.1c0.5-0.8,1.2-1.5,1.8-2.3
			c1.2-1.6,2.4-3.3,3.5-5c1.2-1.9,2.4-3.7,3.6-5.5c0.4-0.7,0.8-1.4,1.1-2c1.5-2.8,2.9-5.6,4.3-8.4c1.3-2.6,2.2-5.3,3.2-8.1
			c0.4-1.2,0.8-2.5,1.2-4c0.4-0.6,1.2-0.9,1.9-1.3c2.1-1.1,4.2-2,6.2-3.2c0.9-0.5,1.9-1,2.8-1.6s1.8-1.1,2.8-1.6
			c1.6-0.9,3.1-2,4.6-2.9c1.9-1.2,3.8-2.4,5.6-3.7c1.1-0.8,2.2-1.5,3.3-2.3c1.6-1.2,3.2-2.4,4.7-3.7c1-0.8,1.9-1.7,2.9-2.6
			c0.9-0.9,1.9-1.7,2.7-2.7c0.6-0.8,1.3-1.4,1.9-2.1c1.2-1.4,2.9-2.1,4.6-2.7c0.9-0.3,1.7-0.7,2.5-0.9c1.7-0.5,3.4-1.2,5.1-1.6
			c1.4-0.4,2.7-0.9,4.1-1.3c2.6-0.7,5.1-1.7,7.7-2.5c0.8-0.3,1.5-0.9,2.4-0.8c2-1,4.2-1.7,6.1-2.7c1.5-0.8,3.1-1.5,4.2-2.9
			c0.3-0.4,0.6-0.7,0.9-1.1c-0.9-1.8-2.3-3-4.1-3.9c-1.9-1-3.9-1.8-6-2.5c-1.1-0.4-2.3-0.6-3.5-0.9c-0.7-0.2-1.4-0.3-2.2-0.5
			c-0.7-0.2-1.5-0.2-2.2-0.5c-0.7-0.2-1.4-0.2-2.1-0.3c-0.6-0.1-1.3-0.2-1.8-0.4c-0.5-0.1-0.9-0.1-1.3-0.2c-0.9-0.4-1.2-1.1-1.5-2
			c-0.4-1.6-1.1-3.2-2-4.6c-0.6-1-1.1-2-1.9-2.8c-0.5-0.5-0.8-1.2-1.3-1.7c-1.1-1.2-2.1-2.4-3.3-3.5c-0.9-0.9-1.9-1.5-2.9-2.2
			c-0.6-0.3-1.1-0.6-1.7-0.9c-1.5-0.7-4.3-1.7-6-2.1c-1.1-0.3-2.2-0.3-3.3-0.8c-0.1,0-0.2,0-0.3,0c-1.3,0.1-2.6-0.5-4-0.3
			c-1.6-0.5-3.2-0.2-4.8-0.3c-1.6,0-3.3,0-4.9,0c-0.6,0-1.2,0.2-1.7,0.2c-0.6,0-1.3-0.2-1.8,0.1c-0.6,0.3-1.3,0.1-1.9,0.2
			c-0.5,0.1-1.1,0.2-1.6,0.3c-0.5,0.1-1,0.1-1.5,0.2c-0.8,0.3-1.7,0.1-2.5,0.3c-1.2,0.3-2.4,0.2-3.5,0.8c-1.5-0.1-2.8,0.7-4.3,0.8
			c-1.1,0.1-2.1,0.6-3.2,0.9c-2.4,0.7-4.9,1.4-7.3,2.3c-1.2,0.4-2.4,0.9-3.6,1.3s-2.3,1-3.5,1.4c-0.7,0.2-1.3,0.6-2,0.9
			c-3.2,1.5-6.4,2.9-9.5,4.7c-1.9,1.1-3.9,2.2-5.8,3.3c-2.1,1.2-4.1,2.5-6.1,3.8c-1.5,1-3,2.1-4.4,3.2s-2.9,2.1-4.3,3.2
			c-0.9,0.6-1.8,1.4-2.7,2.1c-0.6,0.4-1.1,1-1.7,1.4c-1,0.7-1.8,1.5-2.8,2.2c-1.3,1-2.5,2.2-3.9,3.1c-0.9,0.6-1.7,1.5-2.5,2.2
			c-0.6,0.5-1.2,1-1.8,1.5s-1,1.2-1.8,1.5c-0.1,0-0.1,0.1-0.2,0.2c-1.6,1.5-3.2,3.1-4.9,4.6c-5.2,4.7-10,9.8-15,14.8
			c-1.5,1.5-2.9,3-4.3,4.6c-0.6,0.7-1.2,1.3-2.1,1.5c-0.6,0.1-1.2,0.2-1.8,0.1c-0.3-0.1-0.7-0.2-1-0.2c-5.8,0-11.6,0-17.3,0
			c-1.6,0.4-3.3,0.1-4.9,0.3c-1,0.2-2.1,0.1-3.1,0.2c-1.6,0.3-3.1,0.3-4.7,0.5c-1.5,0.3-3.1,0.4-4.6,0.8c-2.4,0.6-4.9,1.1-7.2,2.2
			c-1.8,0.8-3.6,1.8-5.3,2.8c-0.9,0.6-1.7,1.2-2.5,1.9c-1.2,1-2.4,2.1-3.4,3.2c-0.9,1-1.7,2.1-2.7,3.3c0.3,0.1,0.5,0.1,0.7,0.1
			c1.8,0,3.6,0,5.4,0c1.3,0,2.6,0.5,4,0.3c1.3,0.5,2.8,0.4,4.2,0.8c1.5,0.3,3,0.6,4.4,1.1c2.5,0.8,4.8,1.9,6.6,3.9
			c0.3,0.3,0.5,0.6,0.8,0.8c1.4,1.2,2.4,2.7,3.3,4.2c1.1,1.7,3.4,6.2,4.3,9.3c0.4,1.4,0.8,2.7,1.2,4.1c0.2,0.7,0.2,1.6-0.2,2.4
			c-0.7,1.5-1.2,3-1.6,4.6c-0.2,0.9-0.5,1.8-0.8,2.7s-0.5,1.8-0.8,2.7c-0.4,1.4-0.5,2.8-1,4.2c-0.2,0.5-0.1,1.1-0.3,1.6
			c-0.3,1.2-0.5,2.5-0.8,3.8c-0.1,0.6-0.3,1.3-0.3,2c0,0.5-0.2,0.9-0.3,1.3c-0.1,0.4,0.2,1-0.3,1.4c0,0,0,0.2,0,0.3
			c-0.1,1-0.2,2-0.3,3.1c0,0.5-0.4,0.9-0.3,1.5c0.1,0.4,0.2,1-0.2,1.3v0.1c-0.1,1.2-0.2,2.5-0.3,3.7c-0.1,0.7-0.2,1.4-0.2,2.1
			c0,0.7,0.2,1.6-0.1,2.2c-0.3,0.8-0.2,1.6-0.2,2.4c-0.1,2-0.2,4.1-0.3,6.1c0,2.1,0,4.1,0,6.2c0,0.6,0.1,1.3,0.3,1.9
			c0.2,0.6-0.1,1.2,0.2,1.9c0.2,0.5,0.2,1.2,0.3,1.9c0.3,1.6,0.7,3.2,1.1,4.7c0.9,3.1,2.2,6,3.8,8.8c0.9,1.7,2,3.3,3.1,4.8
			c1.7,2.3,3.6,4.5,5.7,6.5c1.1,1,2.3,2,3.5,2.9c1,0.7,2.1,1.5,3.1,2.2c0.9,0.6,1.9,1,2.8,1.5c0.9,0.5,1.9,0.9,2.9,1.4
			c1.9,0.9,4,1.5,6,2.2c1.1,0.4,2.3,0.6,3.5,0.9c0.7,0.2,1.4,0.3,2.2,0.5c0.7,0.2,1.5,0.2,2.2,0.5c0.4,0.2,1,0.1,1.5,0.3
			c0.6,0.2,1.2,0.2,1.9,0.3c0.6,0.1,1.3,0.1,1.9,0.3c0.8,0.3,1.6,0.1,2.3,0.3c0.7,0.2,1.5,0,2.1,0.3c0.9,0.3,1.7,0.1,2.5,0.2
			c1.4,0.3,2.8,0,4.1,0.3c1.5,0.3,2.9,0.2,4.4,0.2s2.9,0,4.4,0c2,0,3.9-0.5,5.8-0.3c0.9-0.4,1.9-0.2,2.8-0.3
			c0.7-0.1,1.4-0.2,2.1-0.3c0.7-0.1,1.5-0.1,2.1-0.3c0.5-0.1,1.1-0.1,1.6-0.3c0.5-0.2,1-0.1,1.5-0.3c1-0.3,2.1-0.5,3.1-0.7
			c1.1-0.2,2.1-0.6,3.2-0.6c0.6,0,1.2-0.4,1.8-0.5c1.7-0.3,3.3-1,5-1.4c1-0.2,1.9-0.6,2.9-1c1.1-0.5,2.3-0.8,3.4-1.3
			c1-0.5,2.1-0.8,3.2-1.3c2.4-1.1,4.8-2,7.1-3.3c2-1.1,4-2,5.9-3.3c1.4-0.9,2.9-1.6,4.2-2.5c1-0.6,1.9-1.3,2.9-2
			c1.8-1.3,3.7-2.6,5.5-4.1c1.6-1.3,3.2-2.6,4.7-3.9c1.1-0.9,2-1.9,3-2.8c0.6-0.5,1.3-1,1.8-1.6c1.6-1.6,3.2-3.2,4.7-4.9
			c1.1-1.3,2.3-2.5,3.3-3.8c1.5-2,3.1-4,4.6-6c1.4-2,2.8-4.2,4.2-6.2c0.9-1.2,1.6-2.6,2.3-3.9c1.1-2,2.3-4,3.3-6.2
			c0.9-1.9,1.7-3.9,2.6-5.8c0.8-1.8,1.5-3.7,2.2-5.6c0.6-1.5,1.1-3.1,1.5-4.7c0.2-1,0.7-1.9,0.9-2.9c0.3-1.2,0.6-2.5,0.9-3.7
			c0.2-0.7,0.3-1.4,0.5-2.2c0.2-0.7,0.2-1.5,0.5-2.2c0.1-0.3,0-0.7,0-1s0.2-0.6,0.2-1c0.2-1.4,0.4-2.8,0.6-4.1
			c0.1-0.8,0-1.7,0.2-2.4c0.3-0.9,0.1-1.7,0.2-2.5c0.1-1,0.3-2,0.3-3.1c-0.1-1,0-2.1,0.2-3.2c0,0.2,0.1,0.3,0.1,0.5
			c0,2.2,0,4.3,0,6.5c0,0.6-0.2,1.2-0.2,1.9c0,0.6,0.1,1.3,0,1.8c-0.3,0.8-0.2,1.5-0.2,2.3c0,0.5-0.2,0.9-0.2,1.3
			c-0.1,0.4-0.1,0.8-0.2,1.2c-0.2,0.6-0.1,1.3-0.2,2c-0.1,0.6-0.4,1.2-0.3,1.9c0,0.6-0.5,1.1-0.3,1.7c-0.5,0.5,0,1.3-0.5,1.8
			c0,1.8-0.7,3.4-1.1,5.1c-0.5,2.1-1.3,4.1-1.9,6.1c-0.6,1.7-1.1,3.3-1.7,5c-0.2,0.6-0.5,1.1-0.7,1.7c-1.5,3.7-3.3,7.2-5.1,10.7
			c-0.8,1.5-1.7,2.9-2.5,4.4c-0.9,1.5-1.8,3-2.8,4.4c-0.9,1.4-1.9,2.9-3,4.2c-0.9,1.2-1.7,2.4-2.6,3.7c-0.4,0.5-0.8,1-1.2,1.5
			c-0.8,0.9-1.6,1.7-2.3,2.6c-1.1,1.4-2.4,2.5-3.5,3.8c-0.8,0.9-1.6,1.9-2.5,2.6c-1.4,1.2-2.6,2.5-4,3.8c-1.6,1.4-3.2,2.8-4.9,4.1
			c-1.5,1.2-2.9,2.4-4.5,3.4c-1.7,1.1-3.3,2.3-5.1,3.4c-1.8,1.1-3.6,2.1-5.3,3.3c-0.3,0.2-0.7,0.3-1,0.5c-1.8,0.9-3.5,2-5.4,2.8
			c-1.2,0.5-2.4,1.3-3.6,1.7c-1.3,0.4-2.4,1.3-3.8,1.4c-2.9,1.5-6.1,2.2-9.2,3.3c-1.5,0.5-3.1,0.7-4.5,1.2c-1.3,0.4-2.7,0.5-4,1
			c-0.6,0.2-1.2,0.3-1.9,0.3c-0.5,0-0.9,0.2-1.3,0.3c-0.4,0.1-0.9,0-1.4,0.2s-1.1,0.1-1.7,0.3c-1,0.2-2.1,0.2-3.2,0.3
			c-0.6,0.1-1.2,0.2-1.9,0.3c-0.6,0.1-1.2-0.2-1.7,0.3c-1.1,0-2.2-0.2-3.3,0c-1.9,0.4-3.8,0.2-5.7,0.2s-3.8,0-5.7,0
			c-0.8,0-1.6-0.2-2.4-0.2c-0.8,0-1.6,0.2-2.4-0.1c-0.9-0.2-1.7-0.1-2.5-0.2c-1.5-0.3-3-0.3-4.4-0.6c-0.5-0.1-1.1-0.1-1.6-0.3
			c-0.5-0.2-1.1-0.1-1.6-0.3c-1.5-0.5-3.1-0.4-4.5-1c-1.8,0-3.4-0.7-5.1-1.1c-2.2-0.5-4.3-1.3-6.4-2.2c-1.9-0.8-3.7-1.7-5.5-2.7
			c-1.7-0.9-3.2-1.9-4.7-3c-2.5-1.9-4.8-3.9-6.9-6.2c-1.1-1.2-2-2.4-3-3.6c-0.8-1.1-1.6-2.2-2.3-3.3c-1.2-1.6-2-3.5-2.9-5.3
			s-1.6-3.7-2.3-5.7c-0.4-1.1-0.6-2.2-0.9-3.3c-0.1-0.5-0.1-1.2-0.4-1.6c-0.4-0.5,0.2-1.2-0.4-1.6c0,0,0-0.2,0-0.3
			c-0.1-1-0.1-2.1-0.3-3.1c-0.5-2.3-0.2-4.5-0.2-6.8c-0.1-2.3-0.2-4.6,0-6.9c0.2-1.6,0-3.2,0.2-4.8c0.2-1.1,0.1-2.2,0.3-3.3
			c0.2-0.9,0.2-1.9,0.2-2.8c0-0.6,0.3-1.1,0.3-1.7c0-0.6-0.1-1.2,0.2-1.7c0.1-0.1,0-0.3,0-0.4c0.1-1.1,0.1-2.2,0.3-3.2
			c0.1-0.6,0.1-1.3,0.3-1.9c0.2-0.6,0.1-1.3,0.3-1.9c0.2-0.6,0.1-1.1,0.3-1.6s0.1-1.1,0.3-1.6c0.5-1.5,0.6-3,1-4.5
			c0.2-0.7,0.3-1.4,0.4-2.1c0.2-0.7,0.2-1.4,0.4-2.1c0.3-1.3,0.7-2.6,1.1-3.9c0.3-1,0.6-2,1-3s0.7-2,1-3c0.1-0.3,0.1-0.7,0-1
			c-0.6-1.7-1-3.5-1.8-5.1c-0.6-1.4-1-2.9-2.1-4c-0.5-1.5-1.5-2.7-2.5-4c-0.6-0.8-1.4-1.5-2.3-2.1c-0.9-0.7-1.9-1.4-3-1.8
			c-1.2-0.5-2.5-0.9-3.9-1.2c-1.3-0.3-2.6-0.2-3.8-0.7h-0.1c-1.3-0.1-2.7-0.2-4-0.2s-2.5-0.4-3.7-0.3c-1.2,0.1-2.5,0-3.7,0
			c-0.8,0-1.5,0.2-2.3,0.2c-0.7,0-1.5,0-2.3,0c-0.5-0.4-1-0.9-1.5-1.3c-0.4-2.1,0.5-3.8,1.6-5.5c0.5-0.8,0.9-1.6,1.5-2.3
			c0.4-0.5,0.6-1.1,1.1-1.5c1.3-1.5,2.6-3,4-4.3c1.9-1.6,3.9-3.2,6.1-4.4c1.2-0.7,2.5-1.4,3.8-2c1.8-0.8,3.7-1.4,5.7-2
			c1.2-0.3,2.4-0.4,3.6-1c0.5-0.2,1.1-0.1,1.7-0.3c0.8-0.3,1.7-0.2,2.5-0.3c0.5-0.1,1-0.2,1.5-0.3s1.1,0.2,1.5-0.3h0.1
			c1.2-0.1,2.4-0.2,3.6-0.3c0.7-0.1,1.4-0.2,2.1-0.3c0.7,0,1.4,0.1,2.1,0c2.6-0.5,5.2-0.1,7.8-0.2c0.2,0,0.5,0.1,0.7,0
			c1.3-0.5,2.7-0.4,4-0.2c1.4,0.2,2.8,0.2,4.3,0.2s2.9,0,4.4,0c1.3-1.9,3.2-3.3,4.7-5.1c2.9-3.4,6.3-6.5,9.5-9.7
			c1.7-1.6,3.3-3.3,5-4.8c1.1-0.9,2-1.9,3.1-2.8c1.7-1.4,3.3-2.9,4.9-4.4c1.2-1.1,2.5-2.1,3.7-3.2c1.5-1.3,3-2.5,4.5-3.8
			c1.4-1.1,3-2.1,4.3-3.3c1.6-1.4,3.3-2.6,5-3.9c2.6-1.9,5.3-3.7,7.9-5.5c1.9-1.2,3.7-2.5,5.6-3.6c1.5-0.9,3.2-1.7,4.7-2.6
			c2.1-1.2,4.3-2.3,6.4-3.3c1-0.5,2.1-0.9,3.1-1.4c1.1-0.4,2.1-0.9,3.2-1.3c1.2-0.5,2.4-0.9,3.5-1.4c1.4-0.6,2.8-1,4.1-1.5
			c1.2-0.5,2.4-0.8,3.6-1.2c1.5-0.4,2.9-0.9,4.4-1.2c1.2-0.3,2.4-0.5,3.5-0.9c0.6-0.2,1.2-0.2,1.8-0.4c1.2-0.3,2.5-0.6,3.8-0.8
			c0.7-0.1,1.5-0.3,2.3-0.3c0.4,0,0.9-0.2,1.3-0.2c0.5-0.1,1,0.2,1.3-0.3h0.1c0.9,0,1.8-0.1,2.7-0.2c1.5-0.2,3-0.2,4.5-0.3
			c1.5,0,3,0,4.5,0s2.9,0,4.4,0c1.3,0,2.6,0.4,4,0.3c0.6,0.4,1.2,0.2,1.9,0.3c0.6,0.1,1.2,0.2,1.7,0.3c1.3,0.2,2.6,0.6,3.9,0.9
			c1,0.2,2,0.6,2.9,0.9s1.6,0.7,2.5,1.1c0.8,0.3,1.5,0.8,2.3,1.2c2.7,1.4,4.8,3.7,6.8,5.9c1.5,1.7,2.9,3.5,4.1,5.4
			c1,1.7,1.9,3.4,2.5,5.3c0,0.1,0,0.3,0,0.4c0.6,0.1,1.2,0.2,1.8,0.3c0.6,0.1,1.3,0.1,1.9,0.3c1.9,0.7,3.9,0.6,5.7,1.6
			c1.2,0,2.2,0.6,3.3,0.9c2.1,0.7,4.1,1.6,6.1,2.6c1.7,0.9,3.3,2,4.5,3.5c0.7,0.8,1.2,1.7,1.3,2.8c0,0.1,0.2,0.2,0.3,0.3
			C381.8,112,381.8,113,381.8,113.9z"/>
		<path class="st3" d="M236.8,42.5c0.1,0.1,0.2,0.2,0.3,0.3c0.7,0,1.3,0,2,0c1.9,0.1,3.8,0.1,5.7,0.3c0.9,0.1,1.8,0.1,2.7,0.2
			c0.4,0,0.9,0.3,1.3,0.3c0.4,0,0.8-0.1,1.3,0.1c0.4,0.2,0.9,0,1.4,0.1c1.2,0.3,2.3,0.3,3.5,0.5c1.4,0.3,2.9,0.4,4.3,0.8
			c1.6,0.5,3.3,0.7,4.9,1.2c1,0.3,2.1,0.6,3.2,0.8c1.4,0.3,2.7,0.7,4,1.1c1.7,0.5,3.3,1,4.9,1.6c1.7,0.6,3.3,1.2,4.9,1.9
			c2.2,0.9,4.3,1.9,6.4,2.8c2.3,1,4.6,2.2,6.8,3.3c1.9,1,3.8,2,5.6,3.1c2.3,1.4,4.6,2.9,6.9,4.4c1.6,1.1,3.1,2.2,4.7,3.4
			c0.2,0.2,0.6,0.4,0.5,0.9c-1.8-1.2-3.6-2.2-5.4-3.4c-1-0.7-2.2-1.1-3.2-1.7c-2-1.1-4-2.2-6.1-3.2c-1-0.5-2-1-3-1.4s-2-0.8-2.9-1.2
			c-1.1-0.5-2.2-1-3.4-1.4c-1.2-0.5-2.3-1-3.5-1.4c-0.9-0.2-1.6-0.7-2.6-0.9c-0.9-0.1-1.7-0.6-2.6-0.8c-0.9-0.3-1.8-0.6-2.7-0.8
			c-0.9-0.3-1.8-0.5-2.6-0.7c-1.4-0.4-2.8-0.8-4.2-1.1c-0.5-0.1-1-0.3-1.5-0.5c-0.5-0.1-1.1-0.1-1.6-0.3c-0.9-0.3-1.9-0.4-2.8-0.6
			c-0.6-0.2-1.3-0.3-2-0.4c-0.5,0-0.9-0.2-1.3-0.3s-0.9,0-1.4-0.2s-1.1-0.1-1.7-0.3c-0.9-0.2-1.9-0.2-2.8-0.3
			c-0.5-0.1-1-0.2-1.5-0.3s-1,0.1-1.5-0.3h-0.1c-1.4-0.1-2.7-0.2-4.1-0.2c-0.9,0-1.7-0.4-2.5-0.3c-0.8,0.1-1.7,0.2-2.5,0
			c-2.1-0.4-4.2-0.2-6.2-0.2c-1.5-0.1-3,0-4.5,0c-1.9,0-3.8,0.4-5.7,0.3c-1,0.4-2.2,0-3.2,0.3s-2.1-0.1-3.1,0.5
			c-0.1,0.1-0.3,0-0.5,0c-0.6,0-1.2,0-1.8,0.2c-0.5,0.2-1,0-1.6,0.2c-0.6,0.3-1.3,0.2-2,0.3c-1.3,0.2-2.5,0.3-3.7,0.6
			c-1.4,0.3-2.8,0.5-4.2,0.9c-0.9,0.3-1.9,0.4-2.8,0.6c-1.2,0.3-2.3,0.6-3.5,0.9c-1.1,0.3-2.2,0.6-3.3,0.9c-2.5,0.8-4.9,1.5-7.3,2.4
			c-1.5,0.6-3,1.2-4.5,1.8c-4.8,2-9.3,4.3-13.9,6.6c-1,0.5-1.9,1.1-2.9,1.7c-0.7,0.4-1.4,0.8-2.1,1.2c-1.9,1.1-3.7,2.2-5.4,3.5
			c-1.7,1.2-3.4,2.3-5,3.5c-1,0.7-1.8,1.5-2.8,2.2c-1.1,0.8-2.1,1.8-3.3,2.6c-0.6,0.4-1.1,1-1.8,1.5c-1.2,0.9-2.2,2-3.3,3
			c-1.8,1.7-3.6,3.4-5.4,5.2c-1.4,1.3-2.7,2.7-3.9,4.2c-1.1,1.3-2.4,2.6-3.4,4c-1.7,2.2-3.5,4.4-5.2,6.7c-2.2,2.9-4.1,5.9-6.1,8.9
			c-1.5,2.3-2.8,4.6-4.1,7c-1.6,2.9-3,5.8-4.4,8.8c-0.8,1.7-1.5,3.5-2.2,5.2c-1,2.3-1.8,4.6-2.8,6.9c-0.6,1.3-1,2.8-1.4,4.2
			c-0.4,1.3-0.8,2.6-1.2,3.9c-0.3,1.1-0.6,2.3-0.9,3.5s-0.7,2.5-1,3.7c-0.2,1-0.4,1.9-0.6,2.9c-0.2,0.7-0.2,1.5-0.5,2.2
			c-0.1,0.3,0,0.7,0,1s-0.2,0.6-0.3,1c-0.1,0.4-0.2,0.9-0.3,1.3c-0.1,0.4,0.1,0.8-0.3,1.2c-0.1,0.1,0,0.4,0,0.6
			c0.1,0.6-0.1,1.1-0.5,1.7c0.1-0.8-0.2-1.3,0.2-1.9c0.1-0.2,0-0.5,0-0.8c0.1-0.9-0.1-1.8,0.2-2.7c0.3-0.8-0.2-1.7,0.3-2.5v-0.1
			c0.1-1.1,0.2-2.1,0.3-3.2c0.1-0.7,0.4-1.3,0.3-2c0.6-0.5,0-1.3,0.5-1.9c0.3-0.4,0.1-1.1,0.3-1.7c0.2-0.8,0.3-1.6,0.4-2.3
			c0.1-0.8,0.3-1.6,0.4-2.3c0.2-1.2,0.7-2.4,0.9-3.6c0.2-1.3,0.6-2.5,0.9-3.7c0.2-0.9,0.5-1.7,0.7-2.6c0.3-0.9,0.6-1.7,0.9-2.6
			c0.4-1.2,0.8-2.4,1.3-3.6c0.6-1.5,1.1-3.1,1.8-4.6c0.3-0.8,0.7-1.6,0.9-2.4c0.2-0.8,0.7-1.5,1-2.3c0.7-1.7,1.6-3.3,2.5-4.9
			c0.9-1.7,1.8-3.5,2.8-5.2c0.9-1.5,1.9-3,2.7-4.6c1.1-1.9,2.4-3.7,3.6-5.5c0.8-1.1,1.6-2.3,2.4-3.4c1.2-1.6,2.3-3.1,3.6-4.6
			c0.6-0.7,1.2-1.4,1.9-2.1c0.5-0.6,1-1.2,1.5-1.8c0.5-0.6,1.1-1,1.4-1.7c0.1-0.3,0.4-0.4,0.6-0.7c2.2-2.2,4.5-4.5,6.7-6.7
			c1.2-1.2,2.4-2.3,3.7-3.5c1.5-1.3,3-2.6,4.5-3.7c1.9-1.4,3.8-2.9,5.8-4.3c2-1.5,4.1-2.8,6.2-4.2c1.5-1,3.1-1.9,4.6-2.8
			c3.7-2.2,7.7-4.1,11.6-6c2-1,4-1.8,6.1-2.6c1.4-0.5,2.8-1.1,4.2-1.7c1.4-0.6,3-0.9,4.4-1.5c1.9-0.7,3.9-1,5.7-1.8
			c1.4,0,2.5-0.7,3.9-0.9c0.7-0.1,1.6-0.3,2.3-0.6c0.6-0.3,1.1,0,1.7-0.4c0.5-0.3,1.2-0.1,1.7-0.3c1.1-0.4,2.4-0.3,3.5-0.7
			c0.8-0.3,1.7-0.2,2.5-0.3c0.5-0.1,0.9-0.2,1.3-0.3c0.5-0.1,1,0.2,1.4-0.3h0.1c0.4,0,0.9,0,1.3,0c0.4,0,0.8-0.3,1.2-0.2
			c1.6,0.1,3.1-0.5,4.7-0.3c1.8-0.5,3.6-0.1,5.4-0.3c0.2,0,0.6,0.2,0.6-0.3C231.7,42.5,234.2,42.5,236.8,42.5z"/>
		<path class="st3" d="M105.3,221.4c0.6,1.6,1.2,3.1,1.8,4.5c0.2,0.6,0.5,1.3,0.8,1.9c0.8,1.9,1.7,3.8,2.5,5.7
			c1,2.3,2.1,4.5,3.3,6.7c0.9,1.7,1.9,3.4,2.8,5c1.8,3.3,3.9,6.3,5.9,9.5c0.7,1.1,1.6,2.2,2.4,3.3c0.7,1,1.5,1.9,2.2,2.9
			c0.3,0.5,0.8,1,1.2,1.5c1.1,1.4,2.3,2.6,3.4,4c3,3.8,6.6,7,9.9,10.4c0.5,0.5,1.1,0.9,1.7,1.4c0.6,0.5,1,1,1.6,1.4
			c0.7,0.5,1.4,1.2,2,1.8c2,1.7,4.1,3.3,6.2,4.9c2.9,2.3,6,4.2,9,6.3c1,0.7,2.1,1.1,3.1,1.8c1.7,1.1,3.5,2.1,5.2,3
			c2,1.1,4.1,2.3,6.3,3c0.2,0.1,0.4,0.2,0.7,0.3c0.7,0.3,1.4,0.7,2.1,1c0.7,0.2,1.2,0.9,2,0.8c1.4,1,3.2,1.3,4.7,2
			c1.8,0.8,3.7,1.3,5.5,2c1.6,0.6,3.2,1,4.8,1.5c1.5,0.4,3,0.9,4.6,1.2c0.8,0.1,1.7,0.5,2.5,0.7c1,0.2,1.9,0.4,2.9,0.6
			c0.6,0.1,1.4,0,1.8,0.3c0.6,0.4,1.2,0,1.7,0.4c0.4,0.3,1.1,0.1,1.7,0.3c0.8,0.3,1.7,0.2,2.5,0.3c0.5,0.1,0.9,0.2,1.3,0.3
			c0.5,0.1,1-0.1,1.4,0.3c0,0,0.2,0,0.3,0c1.2,0.1,2.5,0.1,3.7,0.3c1.2,0.2,2.4,0,3.6,0.3c1.5,0.3,3,0.1,4.5,0.2
			c0.8,0.1,1.7,0.2,2.5,0.3c0.9,0,1.8,0,2.6,0s1.8,0,2.6,0c1.1-0.1,2.1-0.2,3.2-0.2c1.1,0,2.1,0.1,3.2-0.1c1.1-0.2,2.2-0.1,3.2-0.3
			c0.8-0.2,1.6-0.1,2.4-0.3c0.8-0.2,1.6-0.1,2.4-0.3c0.7-0.2,1.4-0.2,2.1-0.2c0.5-0.6,1.4,0.1,1.9-0.5c0.6,0.1,1.3-0.1,1.9-0.2
			c0.4-0.1,0.9,0,1.4-0.3c0.3-0.2,0.8,0.1,1.2-0.2c0.3-0.3,1,0.2,1.3-0.3c1.1,0.1,2.1-0.5,3.2-0.6c1.2-0.1,2.3-0.5,3.5-0.8
			c1.6-0.4,3.1-0.9,4.6-1.3c1.4-0.3,2.8-0.9,4.2-1.4c1.7-0.6,3.3-1.1,5-1.7c1.1-0.4,2.2-0.8,3.3-1.3c2.2-1,4.4-2,6.6-3
			c1.6-0.7,3.2-1.6,4.7-2.4c2.8-1.5,5.6-3.1,8.3-4.8c1.5-1,3.1-2,4.6-3c0.8-0.5,1.5-1.1,2.3-1.5c0.8-0.5,1.5-1.1,2.2-1.7
			c1.4-1.1,2.9-2.2,4.3-3.3c0.8-0.6,1.5-1.3,2.2-2c0.5-0.4,1.1-0.9,1.6-1.3s0.8-1,1.5-1.2c0.1,0,0.1-0.1,0.2-0.2
			c2.2-2.1,4.4-4.1,6.5-6.3c1.2-1.2,2.3-2.4,3.5-3.7c1.2-1.3,2.4-2.6,3.5-4c0.7-0.9,1.5-1.8,2.3-2.8c0.9-1.1,1.8-2.3,2.7-3.5
			c1.1-1.5,2.2-3,3.2-4.5c0.7-1,1.3-1.9,1.9-2.9c0.7-1.2,1.4-2.3,2.2-3.5c0.5-0.8,1-1.6,1.5-2.4c1.9-3.2,3.5-6.5,5.2-9.8
			c0.5-1,1-2,1.4-3c0.3-1,1-1.9,1.1-3c1-1.4,1.3-3.2,2-4.7c0.8-1.8,1.3-3.7,1.9-5.5c0.6-1.6,1-3.2,1.5-4.8c0.4-1.5,0.8-3,1.2-4.5
			c0.3-1.3,0.4-2.7,1-3.9c-0.2-1.2,0.6-2.2,0.5-3.4c0-0.3,0.2-0.6,0.2-0.9c0.1-0.3,0-0.6,0.2-1c0.3-0.5,0.1-1.1,0.3-1.7
			c0.3-0.8,0.2-1.7,0.3-2.5c0.1-0.5,0.2-0.9,0.3-1.3c0.1-0.5-0.1-1,0.3-1.3v-0.1c-0.2-1.2,0.2-2.4,0.3-3.6c0.1-1.5,0.1-3,0.3-4.4
			c0.3-1.7,0.2-3.4,0.2-5.1c0.1-3.2,0-6.4,0-9.7c0-0.5,0.1-1.1-0.1-1.5c-0.2-0.5-0.1-1-0.1-1.5s0.1-1.1,0-1.6
			c-0.3-0.9-0.2-1.8-0.2-2.7c0-0.5-0.2-1-0.3-1.5c-0.1-0.5,0.1-1-0.3-1.5c-0.1-0.1,0-0.3,0-0.4c0-0.6,0-1.3-0.2-1.9
			c-0.2-0.5,0-1.1-0.3-1.7c-0.3-0.7-0.1-1.6-0.3-2.4c-0.3-1.1-0.4-2.2-0.7-3.3c-0.2-0.5-0.3-1.1-0.3-1.7c0-1-0.5-1.9-0.7-2.9
			c-0.1-0.5,0.2-1.1-0.3-1.4c-0.1-1.2-0.7-2.4-0.9-3.6c-0.1-1-0.6-1.9-0.9-2.9c-0.1-0.3-0.1-0.6-0.2-1.3c0.7,0.9,0.7,1.6,1,2.3
			c0.8,2.3,1.5,4.8,2.2,7.1c0.4,1.3,0.5,2.7,1.1,3.9c-0.1,1.5,0.8,2.8,0.8,4.3c0.5,0.9,0.4,1.9,0.8,2.9c0.2,0.5,0.2,1.2,0.3,1.7
			c0.2,1.2,0.5,2.5,0.6,3.7c0.1,0.7,0,1.4,0.3,2c0.3,0.7,0,1.4,0.3,2c0.3,0.8,0.1,1.6,0.3,2.3c0.2,0.9,0.1,1.8,0.3,2.7
			c0.3,1.3,0,2.5,0.2,3.7c0.4,2.4,0.2,4.9,0.2,7.3c0.1,2.4,0,4.9,0,7.3c0,0.8-0.2,1.5-0.2,2.3c0,0.7,0.1,1.5,0,2.2
			c-0.2,0.9-0.1,1.7-0.2,2.5c-0.3,1.5-0.3,3-0.6,4.4c-0.1,0.6-0.1,1.2-0.2,1.7s-0.1,1.1-0.3,1.6c-0.4,1.7-0.5,3.5-1,5.1
			c-0.2,0.7-0.3,1.4-0.4,2.1c-0.2,0.7-0.2,1.4-0.4,2.1c-0.5,1.4-0.7,2.9-1.2,4.4c-0.4,1.3-0.8,2.7-1.2,4c-0.7,2.2-1.4,4.5-2.2,6.6
			c-0.8,2.2-1.8,4.4-2.7,6.6c-1.4,3.4-3,6.7-4.8,9.9c-1.2,2.2-2.4,4.4-3.8,6.5c-1.3,2-2.5,4.1-3.8,6.1c-1,1.5-2.1,3-3.2,4.4
			c-1.4,1.7-2.7,3.6-4,5.3c-0.7,0.8-1.4,1.6-2.1,2.4c-0.5,0.6-1.1,1.2-1.6,1.9c-0.5,0.6-1.2,1.1-1.6,1.8c-0.3,0.5-0.8,0.9-1.3,1.3
			c-1.6,1.6-3.2,3.3-4.9,4.9c-1.3,1.3-2.7,2.6-4.1,3.8c-1.2,1-2.3,2-3.5,3c-2.1,1.6-4.2,3.2-6.3,4.8c-2.4,1.8-4.8,3.5-7.3,5.1
			c-2,1.3-4,2.5-6,3.6c-1.5,0.8-3,1.6-4.4,2.4c-1.5,0.8-2.9,1.6-4.5,2.3c-1.9,0.8-3.8,1.8-5.7,2.5c-1.2,0.4-2.4,1-3.6,1.5
			c-1.7,0.7-3.4,1.3-5.1,1.9s-3.4,1.1-5.1,1.6c-1.1,0.3-2.2,0.8-3.3,1c-1.2,0.2-2.4,0.7-3.6,0.9c-1,0.2-1.9,0.4-2.9,0.7
			c-0.7,0.2-1.4,0.3-2,0.5c-0.3,0.1-0.7,0-1,0.1c-0.3,0-0.6,0.2-1,0.2c-1.3,0.1-2.5,0.4-3.7,0.6c-1.2,0.2-2.3,0.5-3.5,0.5
			c-0.5,0-0.9,0.3-1.5,0.3c-0.5-0.1-0.9-0.1-1.3,0.2H250c-1.4-0.2-2.6,0.4-4,0.3c-1.3-0.1-2.5,0.4-3.9,0.3c-1.3-0.1-2.7-0.2-4,0
			c-1.2,0.2-2.4,0.3-3.6,0.2c-2.4-0.3-4.9-0.2-7.3-0.2c-1.1-0.4-2.2-0.2-3.3-0.3c-0.6,0-1.1-0.3-1.7-0.3c-0.6,0.1-1.2,0.2-1.7-0.2
			c-0.1,0-0.2,0-0.3,0c-0.6,0-1.2,0-1.9-0.2c-0.6-0.2-1.2-0.1-1.9-0.3c-0.8-0.3-1.8-0.1-2.7-0.3c-1.2-0.3-2.4-0.3-3.5-0.7
			c-0.5-0.2-1.1-0.2-1.6-0.3c-1.1-0.2-2.3-0.5-3.4-0.8c-0.8-0.2-1.7-0.3-2.5-0.6c-1.4-0.4-2.7-0.7-4.1-1.1c-1.5-0.4-3.1-0.8-4.6-1.3
			c-2.4-0.8-4.7-1.7-7-2.5c-2-0.7-3.9-1.6-5.9-2.3c-1.8-0.6-3.4-1.6-5.1-2.4c-1-0.5-2.1-1-3.1-1.5c-1.4-0.8-2.9-1.4-4.2-2.3
			c-0.8-0.6-1.8-0.9-2.7-1.4c-1.2-0.7-2.3-1.4-3.5-2.1c-0.9-0.6-1.7-1.2-2.6-1.7c-0.6-0.4-1.1-0.9-1.7-1.2c-0.6-0.4-1.2-0.8-1.8-1.2
			c-1.4-1.1-2.9-2.1-4.4-3.1c-0.5-0.4-0.9-0.9-1.5-1.2c-0.8-0.5-1.4-1.2-2.1-1.7c-1.7-1.4-3.3-3-5-4.5c-2.5-2.2-4.8-4.6-7.1-7
			c-0.8-0.8-1.5-1.6-2.3-2.5c-1.1-1.3-2.3-2.7-3.5-4c-1.3-1.5-2.5-3.1-3.7-4.7c-1-1.3-1.9-2.7-2.9-4.1c-0.6-0.9-1.3-1.7-1.8-2.5
			c-0.9-1.4-1.8-2.9-2.7-4.3c-1.2-1.9-2.2-3.8-3.3-5.8c-1.1-2-2.2-4-3.1-6.1c-1.1-2.4-2.2-4.7-3.1-7.2c-0.5-1.3-1-2.7-1.6-4
			c-0.7-1.8-1.3-3.7-1.8-5.6c-0.3-1-0.7-1.9-1-2.9C105.3,222.1,105.3,221.9,105.3,221.4z"/>
		<path class="st3" d="M161.8,264.8c-0.8-0.6-1.7-1.3-2.5-2c-1-0.9-1.9-1.9-3-2.7c-2.2-1.7-4-3.8-5.9-5.7c-1-1-2-2-2.8-3.1
			s-1.8-2-2.5-3c-1.1-1.6-2.4-3.1-3.5-4.7c-1.2-1.7-2.4-3.5-3.6-5.3c-0.7-1-1.3-2-1.9-3.1c-1.2-2-2.3-4.1-3.3-6.2
			c-0.7-1.5-1.5-3-2.1-4.5c-0.5-1.2-1-2.4-1.5-3.6c-0.4-1.2-1-2.4-1.4-3.7c-0.4-1.2-0.8-2.5-1.3-3.7c-0.7-1.9-1-3.9-1.8-5.7
			c-0.1-1.4-0.7-2.6-0.9-4c-0.1-0.8-0.3-1.5-0.5-2.3c-0.2-0.7-0.2-1.5-0.5-2.2c-0.2-0.7-0.2-1.5-0.3-2.3c-0.2-0.8-0.1-1.7-0.5-2.5
			c0-0.1,0-0.2-0.1-0.2c-0.1-1.1-0.2-2.2-0.3-3.3c-0.1-0.7-0.2-1.3-0.3-2c0-0.7,0.2-1.4-0.1-2c-0.3-0.9-0.2-1.7-0.2-2.6
			c0-2.9,0-5.7,0-8.6c0-0.8-0.1-1.7,0-2.5s-0.1-1.6,0.2-2.4c0.3-0.7,0.1-1.7,0.1-2.5c0-0.5,0.4-1,0.3-1.6c-0.1-0.5-0.1-1.1,0.2-1.6
			c-0.2-1,0.2-1.9,0.3-2.8c0-0.4,0.2-0.8,0.3-1.2c0.1-0.4,0-0.7,0.2-1.1c0.2-0.5-0.1-1.2,0.3-1.7c0.2-2.2,0.8-4.4,1.4-6.6
			c0.3-1.1,0.6-2.2,0.9-3.3s0.7-2.2,1-3.3c0.4-1.3,0.8-2.7,1.3-4c0.5-1.4,1.1-2.7,1.6-4.1c1.1-2.9,2.4-5.7,3.9-8.4
			c0.9-1.8,1.8-3.6,3-5.3c0.7-1,1.3-2.2,2-3.3c1-1.6,1.8-3.2,3-4.6c0.6-0.7,1.1-1.6,1.6-2.4c0.6-0.8,1.2-1.6,1.8-2.3
			c1.5-1.8,2.9-3.6,4.4-5.3c1.2-1.4,2.5-2.6,3.7-3.9c1.3-1.4,2.7-2.8,4.1-4.1c1.1-1,2.1-2,3.3-2.8c0.7-0.5,1.2-1.1,1.9-1.6
			c1.4-1.2,2.9-2.3,4.4-3.4c1.3-1,2.6-1.8,3.9-2.8c1.2-0.9,2.6-1.6,3.9-2.5c1.2-0.8,2.6-1.4,3.8-2.3c0.3-0.2,0.7-0.3,1-0.5
			c1.5-0.8,2.9-1.6,4.5-2.3c1.6-0.7,3.1-1.4,4.7-2.1c1.7-0.7,3.5-1.4,5.2-2.2c0.8-0.4,1.8-0.6,2.7-0.9c1.7-0.6,3.4-1.1,5.1-1.6
			c1.2-0.4,2.4-0.8,3.7-1c1.2-0.2,2.4-0.5,3.5-0.9c0.6-0.2,1.2-0.2,1.8-0.4c1.2-0.3,2.5-0.5,3.8-0.8c0.8-0.2,1.7-0.2,2.5-0.3
			c0.5-0.1,0.9-0.2,1.3-0.3c0.5-0.1,1,0.2,1.4-0.3c0,0,0.2,0,0.3,0c0.8,0,1.6-0.1,2.4-0.2c1.8-0.2,3.5-0.3,5.3-0.3
			c1.2,0,2.4-0.3,3.6-0.3c1.2,0,2.5,0,3.7,0c1,0,2,0.4,3.1,0.3c1-0.1,2.1-0.2,3,0s1.9,0.2,2.8,0.2c0.5,0,0.9,0.4,1.5,0.3
			c0.4-0.1,1-0.2,1.4,0.2c0.1,0.1,0.3,0,0.5,0c1.5,0,2.9,0.6,4.4,0.5c0.5,0.5,1.3,0.2,1.9,0.5c0.6,0.2,1.4,0.1,2,0.3
			c1.5,0.5,3,0.8,4.5,1.2c2.2,0.6,4.3,1.3,6.5,2c1.6,0.5,3.1,1.1,4.6,1.7c0.6,0.3,1.2,0.6,2,0.7c0.2,0,0.3,0.2,0.5,0.4
			c-0.4,0.3-0.7,0-1.1-0.1c-1.8-0.5-3.6-1.2-5.4-1.6c-1.2-0.3-2.3-0.7-3.5-0.8c-0.5,0-1-0.2-1.4-0.4c-0.4-0.2-0.9,0.1-1.4-0.2
			c-0.4-0.3-0.9,0-1.5-0.3s-1.4-0.2-2.1-0.3c-0.4-0.1-0.8-0.2-1.2-0.3c-0.4-0.1-0.8,0.2-1.1-0.2h-0.2c-1.1-0.1-2.1-0.2-3.2-0.3
			c-0.5-0.1-1.1-0.2-1.6-0.2s-1.1,0.1-1.6,0c-1.2-0.4-2.5,0-3.7-0.3c-3-0.5-5.9-0.2-8.9-0.2c-1.7,0-3.4,0.4-5,0.2
			c-0.9,0.4-2,0-2.9,0.3c-1,0.4-2.2-0.1-3.1,0.5c-0.9-0.2-1.7,0.3-2.5,0.3c-0.4,0-0.8,0.2-1.2,0.2c-0.4,0.1-0.8-0.2-1.1,0.2
			c-0.7,0-1.4,0.1-2.1,0.3c-1,0.2-2.1,0.4-3.1,0.7c-0.9,0.2-1.9,0.4-2.8,0.6c-1.4,0.4-2.8,0.7-4.2,1.1c-2.4,0.7-4.8,1.5-7.1,2.4
			c-1.5,0.6-3,1.2-4.6,1.8c-2,0.8-3.9,1.7-5.8,2.5c-1.4,0.6-2.9,1.2-4.1,2.2c-0.3,0.2-0.7,0.3-1,0.5c-1.7,0.9-3.4,2-5.1,3
			c-2.2,1.3-4.2,2.8-6.4,4.1c-1.3,0.8-2.3,1.8-3.5,2.7c-1.4,1.1-2.8,2.2-4.2,3.3c-3.1,2.4-5.8,5.3-8.6,8.1c-0.6,0.6-1.2,1.1-1.8,1.8
			c-0.9,1.2-2.1,2.2-2.9,3.4c-0.5,0.7-1.1,1.2-1.6,1.9c-1,1.3-2.1,2.6-3.1,4c-0.7,1.1-1.5,2.1-2.3,3.2c-1.1,1.6-2.1,3.2-3,4.8
			c-0.8,1.3-1.6,2.7-2.4,4.1c-0.8,1.5-1.5,3.1-2.4,4.6c-1.1,2-1.9,4.1-2.8,6.1c-0.7,1.5-1.2,3.1-1.8,4.7c-0.6,1.6-1.2,3.1-1.6,4.7
			c-0.4,1.5-0.8,2.9-1.2,4.4s-0.8,3-1.1,4.6c-0.1,0.3-0.1,0.7-0.2,1c-0.1,0.3-0.2,0.6-0.3,1c-0.1,1.2-0.5,2.3-0.6,3.5
			s-0.4,2.3-0.5,3.5c-0.1,0.8,0,1.7-0.3,2.4c-0.3,0.8,0,1.7-0.2,2.4c-0.4,1.2,0,2.3-0.3,3.5c-0.4,1.8-0.2,3.6-0.2,5.5
			c0,1.8,0,3.6,0,5.4c0,0.8,0.2,1.5,0.2,2.3c0,0.7-0.2,1.5,0.1,2.2c0.2,0.8,0.2,1.6,0.2,2.4c0,0.5,0.2,1.1,0.3,1.6
			c0.1,0.5,0,1.1,0.2,1.6c0.2,0.6,0.2,1.3,0.3,2c0.1,1.3,0.4,2.7,0.6,4c0.3,1.7,0.7,3.5,1.2,5.2c0.3,1.2,0.7,2.3,0.9,3.5
			c0.2,1.1,0.5,2.1,0.8,3.1c0.5,1.6,1.1,3.3,1.6,4.9c0.2,0.8,0.6,1.5,0.9,2.3c0.4,0.9,0.6,1.8,1,2.7s0.8,1.8,1.2,2.7
			c1,2.2,2.1,4.4,3.2,6.6c0.8,1.6,1.7,3.2,2.5,4.8c0.8,1.3,1.6,2.6,2.4,3.9c0.8,1.4,1.7,2.7,2.6,4c0.8,1.2,1.6,2.3,2.5,3.5
			c0.7,1,1.5,1.8,2.1,2.8c0.4,0.6,1.1,1.1,1.5,1.8c0.6,0.8,1.4,1.5,2,2.3c2.3,2.8,5.1,5.2,7.6,7.8c0.1,0.1,0.2,0.3,0.3,0.5
			C161.9,264.7,161.9,264.7,161.8,264.8z"/>
	</g>
</g>
<g id="Capa_1_copia" class="st4">
	<g id="Capa_1_00000126325944341919113000000015043811003087464345_" class="st5">
		<g id="Capa_6_00000062890293811968849590000004379469841057354414_">
			<path class="st1" d="M411.5,184.5c0.4,22-4,43-11.4,63.6c-6,16.6-14.6,31.6-25,45.7c-11.2,15.3-22.5,30.5-33.6,45.8
				c-22.9,31.4-45.7,62.8-68.5,94.3c-4.6,6.4-8.8,13.1-13.6,19.4c-13.8,18.1-38.4,18.1-51.7-0.4c-25.4-35.2-50.6-70.7-75.7-106.1
				c-13.9-19.6-27.7-39.3-41.6-58.9c-24.6-34.8-35.1-73.7-32.2-116c2.7-38.6,17.3-72.5,41.9-102.4C130.3,32.8,169.4,12.1,216,7
				c58.4-6.4,108.7,12.6,148.6,55.7c25.1,27.1,40.7,59.6,45.6,96.6c0.6,4.2,1,8.5,1.2,12.8C411.6,176.3,411.5,180.4,411.5,184.5
				 M234.5,267.9c43.9,0.1,80.3-39.6,79.8-80.7c-0.6-45-35.1-80.3-79.6-80.3c-44.3,0-78.8,35.3-79.5,79.9
				C154.5,228.2,191.1,267.8,234.5,267.9"/>
			<path class="st1" d="M131.5,106.9h211v166.4h-211V106.9z"/>
			<path class="st6" d="M197.7,288.1c-19.1-0.2-37.2-3.8-53.8-13.6c-20.4-12-33.4-29.8-39.6-52.3c-7.5-27.1-6.6-54,5.1-79.8
				c13.5-29.7,37.2-47.3,68.9-53.8c21.3-4.3,42.4-3.3,63.2,3.6c2.4,0.8,4.7,1.8,7,3c4.5,2.4,6.5,7.1,5.2,12
				c-1.7,6.3-3.5,12.6-5.5,18.8c-2.1,6.5-8.5,8.9-15.1,6.1c-16.5-7-33.4-8.1-50.5-3.1c-17.8,5.1-29.1,17.2-34.4,34.8
				c-4.8,16-4.9,32.3,0,48.3c6.1,19.7,19.8,31.2,40.1,34.7c15.7,2.7,31.2,1.1,46-5.1c6.4-2.7,12.7,0.4,14.6,7.1
				c1.6,5.7,3.1,11.5,4.5,17.2c1.4,5.6-0.8,10.3-6,12.8c-9.4,4.5-19.5,6.6-29.8,7.8C211,287.3,204.3,287.6,197.7,288.1 M296.6,139.2
				c-4.8,2.7-9,5.1-13.3,7.5c-7.4,4.1-14.1,1.1-16.2-7.4c-1.4-5.8-2.9-11.6-4.1-17.4c-1.1-4.9,0.8-9.4,5-11.8
				c12.2-7,24.5-13.9,36.8-20.6c1.5-0.8,3.3-1.2,5-1.2c6.3-0.1,12.6-0.1,18.9,0c6.1,0.1,10.4,4.5,10.6,10.9v1.6
				c0,57.3,0,114.7-0.1,172c0,2.7-0.8,5.6-2,7.9c-1.7,3.2-4.8,4.6-8.3,4.6h-21.3c-6.8,0-11-4.4-11-11.6V139.2z"/>
		</g>
	</g>
	<g id="Capa_2_00000020364666123985967950000005050693577369269649_" class="st5">
		<path d="M381.8,113.9c-0.6,0.5-0.8,1.3-1.2,1.9c-0.5,0.7-1.1,1.4-1.7,1.9c-1.9,1.5-4,2.7-6.3,3.7c-2,0.9-4.1,1.6-6.2,2.3
			c-1,0.4-2.1,0.8-3.1,1c-2.3,0.6-4.6,1.5-6.9,2.1c-1.9,0.5-3.7,1.1-5.6,1.6c-1.8,0.4-3.4,1.1-5.2,1.6c-1.5,0.5-3,1.1-4,2.5
			c-0.9,1.4-2.2,2.4-3.3,3.5c-1.3,1.3-2.9,2.4-4.3,3.6c-1.5,1.3-3.3,2.4-4.8,3.7c-0.8,0.7-1.7,1.2-2.6,1.8c-1.5,1-2.9,1.9-4.4,2.8
			c-1.2,0.7-2.4,1.5-3.6,2.2c-1,0.6-2,1.1-3,1.7c-0.3,0.2-0.6,0.2-0.9,0.4c-3.7,2.2-7.7,4-11.5,6c-0.1,0.1-0.2,0.1-0.4,0.2
			c-0.4,1.3-0.9,2.6-1.4,4c-0.4,1.2-0.9,2.4-1.4,3.5c-0.3,0.8-0.7,1.6-1.1,2.4c-0.4,0.8-0.7,1.6-1.1,2.3c-0.5,1.1-1.2,2.3-1.8,3.4
			c-1,1.8-2.1,3.6-3.2,5.4c-1.5,2.4-3.1,4.8-4.7,7.2c-0.6,0.9-1.2,1.7-1.9,2.5c-0.9,1.2-1.9,2.4-2.8,3.6c-1,1.3-2.2,2.5-3.2,3.8
			c-1.3,1.6-2.7,3-4.2,4.3c-1.9,1.7-3.9,3.3-6.2,4.4c-0.7,0.3-1.3,0.6-2.1,0.6c-0.2,0-0.4,0.2-0.6,0.2c-1.3,0.2-2.5-0.3-3.6-0.8
			c0-0.8-0.2-1.6,0-2.2c0.2-0.6,0-1.4,0.5-1.9c-0.1-1.2,0.5-2.2,0.5-3.4c0-0.5,0.3-1,0.4-1.5c0-0.2,0.1-0.3,0.1-0.5s0-0.3,0-0.6
			c-1.7,1.4-3.5,2.5-5.1,3.9c-0.9,0.8-1.9,1.6-2.9,2.3c-4,3.2-7.5,7.1-11.2,10.7c-0.6,0.6-1.1,1.3-1.7,1.9c-0.5,0.6-1.2,1.1-1.6,1.8
			c-0.4,0.6-0.9,1.1-1.4,1.7c-2.6,2.9-4.7,6.1-6.8,9.4c-1.1,1.8-2.2,3.6-3.2,5.4c-1.4,2.6-2.8,5.2-4.3,7.8c-2.2,4-4.2,8.2-6.3,12.3
			c-0.1,0.2-0.3,0.3-0.5,0.7c0.1-0.6,0.1-1.1,0.3-1.4c0.9-1.6,1.3-3.3,2.1-5c0.9-1.9,1.7-3.9,2.6-5.8c1-2.1,2.1-4.3,3.2-6.4
			c1.3-2.5,2.7-5.1,4.3-7.5c1.1-1.7,2-3.4,3.2-5c0.7-1,1.4-2,2.1-3c1.4-1.7,2.8-3.3,4.2-5s3.1-3.2,4.6-4.8c1-1.1,2.1-2.2,3.2-3.2
			c1.1-1,2.1-2,3.3-2.8c0.6-0.4,1.2-1,1.8-1.5c1.8-1.5,3.7-2.9,5.6-4.2c1.5-1,3-2,4.6-2.9c0.1,0,0.2-0.1,0.2-0.1
			c0.1-0.5,0.3-0.9,0.4-1.3c0.1-0.4-0.1-0.9,0.2-1.4c0.3-0.3,0.1-0.9,0.2-1.3c0.2-0.5,0.2-1.1,0.3-1.7c0.1-0.4,0.1-0.8,0.2-1.2
			c0.3-1.3,0.4-2.6,0.6-3.9c0.1-0.5,0.2-1,0.3-1.5c0.1-0.5-0.2-1.1,0.2-1.5c0.1-0.1,0-0.3,0-0.4c-0.1-1.3,0.5-2.6,0.3-4
			c0.5-2.1,0.2-4.2,0.3-6.2c0-0.9-0.2-1.8-0.5-2.7c-0.1-0.2,0-0.3,0-0.8c0.3,0.5,0.5,0.8,0.5,1c0.3,2.2,0.8,4.4,0.5,6.7
			c-0.2,1.4-0.1,2.9-0.3,4.3c-0.1,0.9-0.1,1.8-0.3,2.7c-0.2,0.7-0.2,1.4-0.2,2.1c-0.1,0.7-0.1,1.5-0.3,2.1c-0.3,1.3-0.3,2.7-0.7,4.1
			c-0.2,0.7-0.2,1.4-0.3,2.1c-0.1,1.3-0.7,2.5-0.6,3.7c-0.5,0.6-0.1,1.5-0.5,2.2c-0.3,0.7-0.2,1.5-0.3,2.2c-0.2,1.1-0.4,2.1-0.6,3.2
			c0,0.4-0.3,0.8-0.2,1.3c0.8,0.4,1.7,0.4,2.7,0.1c1-0.2,1.9-0.7,2.7-1.1c0.9-0.5,1.7-1.1,2.5-1.7c1.8-1.4,3.3-3,4.8-4.6
			s2.9-3.3,4.2-5.1c0.5-0.8,1.2-1.5,1.8-2.3c1.2-1.6,2.4-3.3,3.5-5c1.2-1.9,2.4-3.7,3.6-5.5c0.4-0.7,0.8-1.4,1.1-2
			c1.5-2.8,2.9-5.6,4.3-8.4c1.3-2.6,2.2-5.3,3.2-8.1c0.4-1.2,0.8-2.5,1.2-4c0.4-0.6,1.2-0.9,1.9-1.3c2.1-1.1,4.2-2,6.2-3.2
			c0.9-0.5,1.9-1,2.8-1.6s1.8-1.1,2.8-1.6c1.6-0.9,3.1-2,4.6-2.9c1.9-1.2,3.8-2.4,5.6-3.7c1.1-0.8,2.2-1.5,3.3-2.3
			c1.6-1.2,3.2-2.4,4.7-3.7c1-0.8,1.9-1.7,2.9-2.6c0.9-0.9,1.9-1.7,2.7-2.7c0.6-0.8,1.3-1.4,1.9-2.1c1.2-1.4,2.9-2.1,4.6-2.7
			c0.9-0.3,1.7-0.7,2.5-0.9c1.7-0.5,3.4-1.2,5.1-1.6c1.4-0.4,2.7-0.9,4.1-1.3c2.6-0.7,5.1-1.7,7.7-2.5c0.8-0.3,1.5-0.9,2.4-0.8
			c2-1,4.2-1.7,6.1-2.7c1.5-0.8,3.1-1.5,4.2-2.9c0.3-0.4,0.6-0.7,0.9-1.1c-0.9-1.8-2.3-3-4.1-3.9c-1.9-1-3.9-1.8-6-2.5
			c-1.1-0.4-2.3-0.6-3.5-0.9c-0.7-0.2-1.4-0.3-2.2-0.5c-0.7-0.2-1.5-0.2-2.2-0.5c-0.7-0.2-1.4-0.2-2.1-0.3c-0.6-0.1-1.3-0.2-1.8-0.4
			c-0.5-0.1-0.9-0.1-1.3-0.2c-0.9-0.4-1.2-1.1-1.5-2c-0.4-1.6-1.1-3.2-2-4.6c-0.6-1-1.1-2-1.9-2.8c-0.5-0.5-0.8-1.2-1.3-1.7
			c-1.1-1.2-2.1-2.4-3.3-3.5c-0.9-0.9-1.9-1.5-2.9-2.2c-0.6-0.3-1.1-0.6-1.7-0.9c-1.5-0.7-4.3-1.7-6-2.1c-1.1-0.3-2.2-0.3-3.3-0.8
			c-0.1,0-0.2,0-0.3,0c-1.3,0.1-2.6-0.5-4-0.3c-1.6-0.5-3.2-0.2-4.8-0.3c-1.6,0-3.3,0-4.9,0c-0.6,0-1.2,0.2-1.7,0.2
			c-0.6,0-1.3-0.2-1.8,0.1c-0.6,0.3-1.3,0.1-1.9,0.2c-0.5,0.1-1.1,0.2-1.6,0.3c-0.5,0.1-1,0.1-1.5,0.2c-0.8,0.3-1.7,0.1-2.5,0.3
			c-1.2,0.3-2.4,0.2-3.5,0.8c-1.5-0.1-2.8,0.7-4.3,0.8c-1.1,0.1-2.1,0.6-3.2,0.9c-2.4,0.7-4.9,1.4-7.3,2.3c-1.2,0.4-2.4,0.9-3.6,1.3
			s-2.3,1-3.5,1.4c-0.7,0.2-1.3,0.6-2,0.9c-3.2,1.5-6.4,2.9-9.5,4.7c-1.9,1.1-3.9,2.2-5.8,3.3c-2.1,1.2-4.1,2.5-6.1,3.8
			c-1.5,1-3,2.1-4.4,3.2s-2.9,2.1-4.3,3.2c-0.9,0.6-1.8,1.4-2.7,2.1c-0.6,0.4-1.1,1-1.7,1.4c-1,0.7-1.8,1.5-2.8,2.2
			c-1.3,1-2.5,2.2-3.9,3.1c-0.9,0.6-1.7,1.5-2.5,2.2c-0.6,0.5-1.2,1-1.8,1.5s-1,1.2-1.8,1.5c-0.1,0-0.1,0.1-0.2,0.2
			c-1.6,1.5-3.2,3.1-4.9,4.6c-5.2,4.7-10,9.8-15,14.8c-1.5,1.5-2.9,3-4.3,4.6c-0.6,0.7-1.2,1.3-2.1,1.5c-0.6,0.1-1.2,0.2-1.8,0.1
			c-0.3-0.1-0.7-0.2-1-0.2c-5.8,0-11.6,0-17.3,0c-1.6,0.4-3.3,0.1-4.9,0.3c-1,0.2-2.1,0.1-3.1,0.2c-1.6,0.3-3.1,0.3-4.7,0.5
			c-1.5,0.3-3.1,0.4-4.6,0.8c-2.4,0.6-4.9,1.1-7.2,2.2c-1.8,0.8-3.6,1.8-5.3,2.8c-0.9,0.6-1.7,1.2-2.5,1.9c-1.2,1-2.4,2.1-3.4,3.2
			c-0.9,1-1.7,2.1-2.7,3.3c0.3,0.1,0.5,0.1,0.7,0.1c1.8,0,3.6,0,5.4,0c1.3,0,2.6,0.5,4,0.3c1.3,0.5,2.8,0.4,4.2,0.8
			c1.5,0.3,3,0.6,4.4,1.1c2.5,0.8,4.8,1.9,6.6,3.9c0.3,0.3,0.5,0.6,0.8,0.8c1.4,1.2,2.4,2.7,3.3,4.2c1.1,1.7,3.4,6.2,4.3,9.3
			c0.4,1.4,0.8,2.7,1.2,4.1c0.2,0.7,0.2,1.6-0.2,2.4c-0.7,1.5-1.2,3-1.6,4.6c-0.2,0.9-0.5,1.8-0.8,2.7s-0.5,1.8-0.8,2.7
			c-0.4,1.4-0.5,2.8-1,4.2c-0.2,0.5-0.1,1.1-0.3,1.6c-0.3,1.2-0.5,2.5-0.8,3.8c-0.1,0.6-0.3,1.3-0.3,2c0,0.5-0.2,0.9-0.3,1.3
			c-0.1,0.4,0.2,1-0.3,1.4c0,0,0,0.2,0,0.3c-0.1,1-0.2,2-0.3,3.1c0,0.5-0.4,0.9-0.3,1.5c0.1,0.4,0.2,1-0.2,1.3v0.1
			c-0.1,1.2-0.2,2.5-0.3,3.7c-0.1,0.7-0.2,1.4-0.2,2.1c0,0.7,0.2,1.6-0.1,2.2c-0.3,0.8-0.2,1.6-0.2,2.4c-0.1,2-0.2,4.1-0.3,6.1
			c0,2.1,0,4.1,0,6.2c0,0.6,0.1,1.3,0.3,1.9c0.2,0.6-0.1,1.2,0.2,1.9c0.2,0.5,0.2,1.2,0.3,1.9c0.3,1.6,0.7,3.2,1.1,4.7
			c0.9,3.1,2.2,6,3.8,8.8c0.9,1.7,2,3.3,3.1,4.8c1.7,2.3,3.6,4.5,5.7,6.5c1.1,1,2.3,2,3.5,2.9c1,0.7,2.1,1.5,3.1,2.2
			c0.9,0.6,1.9,1,2.8,1.5c0.9,0.5,1.9,0.9,2.9,1.4c1.9,0.9,4,1.5,6,2.2c1.1,0.4,2.3,0.6,3.5,0.9c0.7,0.2,1.4,0.3,2.2,0.5
			c0.7,0.2,1.5,0.2,2.2,0.5c0.4,0.2,1,0.1,1.5,0.3c0.6,0.2,1.2,0.2,1.9,0.3c0.6,0.1,1.3,0.1,1.9,0.3c0.8,0.3,1.6,0.1,2.3,0.3
			c0.7,0.2,1.5,0,2.1,0.3c0.9,0.3,1.7,0.1,2.5,0.2c1.4,0.3,2.8,0,4.1,0.3c1.5,0.3,2.9,0.2,4.4,0.2s2.9,0,4.4,0c2,0,3.9-0.5,5.8-0.3
			c0.9-0.4,1.9-0.2,2.8-0.3c0.7-0.1,1.4-0.2,2.1-0.3c0.7-0.1,1.5-0.1,2.1-0.3c0.5-0.1,1.1-0.1,1.6-0.3c0.5-0.2,1-0.1,1.5-0.3
			c1-0.3,2.1-0.5,3.1-0.7c1.1-0.2,2.1-0.6,3.2-0.6c0.6,0,1.2-0.4,1.8-0.5c1.7-0.3,3.3-1,5-1.4c1-0.2,1.9-0.6,2.9-1
			c1.1-0.5,2.3-0.8,3.4-1.3c1-0.5,2.1-0.8,3.2-1.3c2.4-1.1,4.8-2,7.1-3.3c2-1.1,4-2,5.9-3.3c1.4-0.9,2.9-1.6,4.2-2.5
			c1-0.6,1.9-1.3,2.9-2c1.8-1.3,3.7-2.6,5.5-4.1c1.6-1.3,3.2-2.6,4.7-3.9c1.1-0.9,2-1.9,3-2.8c0.6-0.5,1.3-1,1.8-1.6
			c1.6-1.6,3.2-3.2,4.7-4.9c1.1-1.3,2.3-2.5,3.3-3.8c1.5-2,3.1-4,4.6-6c1.4-2,2.8-4.2,4.2-6.2c0.9-1.2,1.6-2.6,2.3-3.9
			c1.1-2,2.3-4,3.3-6.2c0.9-1.9,1.7-3.9,2.6-5.8c0.8-1.8,1.5-3.7,2.2-5.6c0.6-1.5,1.1-3.1,1.5-4.7c0.2-1,0.7-1.9,0.9-2.9
			c0.3-1.2,0.6-2.5,0.9-3.7c0.2-0.7,0.3-1.4,0.5-2.2c0.2-0.7,0.2-1.5,0.5-2.2c0.1-0.3,0-0.7,0-1s0.2-0.6,0.2-1
			c0.2-1.4,0.4-2.8,0.6-4.1c0.1-0.8,0-1.7,0.2-2.4c0.3-0.9,0.1-1.7,0.2-2.5c0.1-1,0.3-2,0.3-3.1c-0.1-1,0-2.1,0.2-3.2
			c0,0.2,0.1,0.3,0.1,0.5c0,2.2,0,4.3,0,6.5c0,0.6-0.2,1.2-0.2,1.9c0,0.6,0.1,1.3,0,1.8c-0.3,0.8-0.2,1.5-0.2,2.3
			c0,0.5-0.2,0.9-0.2,1.3c-0.1,0.4-0.1,0.8-0.2,1.2c-0.2,0.6-0.1,1.3-0.2,2c-0.1,0.6-0.4,1.2-0.3,1.9c0,0.6-0.5,1.1-0.3,1.7
			c-0.5,0.5,0,1.3-0.5,1.8c0,1.8-0.7,3.4-1.1,5.1c-0.5,2.1-1.3,4.1-1.9,6.1c-0.6,1.7-1.1,3.3-1.7,5c-0.2,0.6-0.5,1.1-0.7,1.7
			c-1.5,3.7-3.3,7.2-5.1,10.7c-0.8,1.5-1.7,2.9-2.5,4.4c-0.9,1.5-1.8,3-2.8,4.4c-0.9,1.4-1.9,2.9-3,4.2c-0.9,1.2-1.7,2.4-2.6,3.7
			c-0.4,0.5-0.8,1-1.2,1.5c-0.8,0.9-1.6,1.7-2.3,2.6c-1.1,1.4-2.4,2.5-3.5,3.8c-0.8,0.9-1.6,1.9-2.5,2.6c-1.4,1.2-2.6,2.5-4,3.8
			c-1.6,1.4-3.2,2.8-4.9,4.1c-1.5,1.2-2.9,2.4-4.5,3.4c-1.7,1.1-3.3,2.3-5.1,3.4c-1.8,1.1-3.6,2.1-5.3,3.3c-0.3,0.2-0.7,0.3-1,0.5
			c-1.8,0.9-3.5,2-5.4,2.8c-1.2,0.5-2.4,1.3-3.6,1.7c-1.3,0.4-2.4,1.3-3.8,1.4c-2.9,1.5-6.1,2.2-9.2,3.3c-1.5,0.5-3.1,0.7-4.5,1.2
			c-1.3,0.4-2.7,0.5-4,1c-0.6,0.2-1.2,0.3-1.9,0.3c-0.5,0-0.9,0.2-1.3,0.3c-0.4,0.1-0.9,0-1.4,0.2s-1.1,0.1-1.7,0.3
			c-1,0.2-2.1,0.2-3.2,0.3c-0.6,0.1-1.2,0.2-1.9,0.3c-0.6,0.1-1.2-0.2-1.7,0.3c-1.1,0-2.2-0.2-3.3,0c-1.9,0.4-3.8,0.2-5.7,0.2
			s-3.8,0-5.7,0c-0.8,0-1.6-0.2-2.4-0.2c-0.8,0-1.6,0.2-2.4-0.1c-0.9-0.2-1.7-0.1-2.5-0.2c-1.5-0.3-3-0.3-4.4-0.6
			c-0.5-0.1-1.1-0.1-1.6-0.3c-0.5-0.2-1.1-0.1-1.6-0.3c-1.5-0.5-3.1-0.4-4.5-1c-1.8,0-3.4-0.7-5.1-1.1c-2.2-0.5-4.3-1.3-6.4-2.2
			c-1.9-0.8-3.7-1.7-5.5-2.7c-1.7-0.9-3.2-1.9-4.7-3c-2.5-1.9-4.8-3.9-6.9-6.2c-1.1-1.2-2-2.4-3-3.6c-0.8-1.1-1.6-2.2-2.3-3.3
			c-1.2-1.6-2-3.5-2.9-5.3s-1.6-3.7-2.3-5.7c-0.4-1.1-0.6-2.2-0.9-3.3c-0.1-0.5-0.1-1.2-0.4-1.6c-0.4-0.5,0.2-1.2-0.4-1.6
			c0,0,0-0.2,0-0.3c-0.1-1-0.1-2.1-0.3-3.1c-0.5-2.3-0.2-4.5-0.2-6.8c-0.1-2.3-0.2-4.6,0-6.9c0.2-1.6,0-3.2,0.2-4.8
			c0.2-1.1,0.1-2.2,0.3-3.3c0.2-0.9,0.2-1.9,0.2-2.8c0-0.6,0.3-1.1,0.3-1.7c0-0.6-0.1-1.2,0.2-1.7c0.1-0.1,0-0.3,0-0.4
			c0.1-1.1,0.1-2.2,0.3-3.2c0.1-0.6,0.1-1.3,0.3-1.9c0.2-0.6,0.1-1.3,0.3-1.9c0.2-0.6,0.1-1.1,0.3-1.6s0.1-1.1,0.3-1.6
			c0.5-1.5,0.6-3,1-4.5c0.2-0.7,0.3-1.4,0.4-2.1c0.2-0.7,0.2-1.4,0.4-2.1c0.3-1.3,0.7-2.6,1.1-3.9c0.3-1,0.6-2,1-3s0.7-2,1-3
			c0.1-0.3,0.1-0.7,0-1c-0.6-1.7-1-3.5-1.8-5.1c-0.6-1.4-1-2.9-2.1-4c-0.5-1.5-1.5-2.7-2.5-4c-0.6-0.8-1.4-1.5-2.3-2.1
			c-0.9-0.7-1.9-1.4-3-1.8c-1.2-0.5-2.5-0.9-3.9-1.2c-1.3-0.3-2.6-0.2-3.8-0.7h-0.1c-1.3-0.1-2.7-0.2-4-0.2s-2.5-0.4-3.7-0.3
			c-1.2,0.1-2.5,0-3.7,0c-0.8,0-1.5,0.2-2.3,0.2c-0.7,0-1.5,0-2.3,0c-0.5-0.4-1-0.9-1.5-1.3c-0.4-2.1,0.5-3.8,1.6-5.5
			c0.5-0.8,0.9-1.6,1.5-2.3c0.4-0.5,0.6-1.1,1.1-1.5c1.3-1.5,2.6-3,4-4.3c1.9-1.6,3.9-3.2,6.1-4.4c1.2-0.7,2.5-1.4,3.8-2
			c1.8-0.8,3.7-1.4,5.7-2c1.2-0.3,2.4-0.4,3.6-1c0.5-0.2,1.1-0.1,1.7-0.3c0.8-0.3,1.7-0.2,2.5-0.3c0.5-0.1,1-0.2,1.5-0.3
			s1.1,0.2,1.5-0.3h0.1c1.2-0.1,2.4-0.2,3.6-0.3c0.7-0.1,1.4-0.2,2.1-0.3c0.7,0,1.4,0.1,2.1,0c2.6-0.5,5.2-0.1,7.8-0.2
			c0.2,0,0.5,0.1,0.7,0c1.3-0.5,2.7-0.4,4-0.2c1.4,0.2,2.8,0.2,4.3,0.2s2.9,0,4.4,0c1.3-1.9,3.2-3.3,4.7-5.1
			c2.9-3.4,6.3-6.5,9.5-9.7c1.7-1.6,3.3-3.3,5-4.8c1.1-0.9,2-1.9,3.1-2.8c1.7-1.4,3.3-2.9,4.9-4.4c1.2-1.1,2.5-2.1,3.7-3.2
			c1.5-1.3,3-2.5,4.5-3.8c1.4-1.1,3-2.1,4.3-3.3c1.6-1.4,3.3-2.6,5-3.9c2.6-1.9,5.3-3.7,7.9-5.5c1.9-1.2,3.7-2.5,5.6-3.6
			c1.5-0.9,3.2-1.7,4.7-2.6c2.1-1.2,4.3-2.3,6.4-3.3c1-0.5,2.1-0.9,3.1-1.4c1.1-0.4,2.1-0.9,3.2-1.3c1.2-0.5,2.4-0.9,3.5-1.4
			c1.4-0.6,2.8-1,4.1-1.5c1.2-0.5,2.4-0.8,3.6-1.2c1.5-0.4,2.9-0.9,4.4-1.2c1.2-0.3,2.4-0.5,3.5-0.9c0.6-0.2,1.2-0.2,1.8-0.4
			c1.2-0.3,2.5-0.6,3.8-0.8c0.7-0.1,1.5-0.3,2.3-0.3c0.4,0,0.9-0.2,1.3-0.2c0.5-0.1,1,0.2,1.3-0.3h0.1c0.9,0,1.8-0.1,2.7-0.2
			c1.5-0.2,3-0.2,4.5-0.3c1.5,0,3,0,4.5,0s2.9,0,4.4,0c1.3,0,2.6,0.4,4,0.3c0.6,0.4,1.2,0.2,1.9,0.3c0.6,0.1,1.2,0.2,1.7,0.3
			c1.3,0.2,2.6,0.6,3.9,0.9c1,0.2,2,0.6,2.9,0.9s1.6,0.7,2.5,1.1c0.8,0.3,1.5,0.8,2.3,1.2c2.7,1.4,4.8,3.7,6.8,5.9
			c1.5,1.7,2.9,3.5,4.1,5.4c1,1.7,1.9,3.4,2.5,5.3c0,0.1,0,0.3,0,0.4c0.6,0.1,1.2,0.2,1.8,0.3c0.6,0.1,1.3,0.1,1.9,0.3
			c1.9,0.7,3.9,0.6,5.7,1.6c1.2,0,2.2,0.6,3.3,0.9c2.1,0.7,4.1,1.6,6.1,2.6c1.7,0.9,3.3,2,4.5,3.5c0.7,0.8,1.2,1.7,1.3,2.8
			c0,0.1,0.2,0.2,0.3,0.3C381.8,112,381.8,113,381.8,113.9z"/>
		<path d="M236.8,42.5c0.1,0.1,0.2,0.2,0.3,0.3c0.7,0,1.3,0,2,0c1.9,0.1,3.8,0.1,5.7,0.3c0.9,0.1,1.8,0.1,2.7,0.2
			c0.4,0,0.9,0.3,1.3,0.3c0.4,0,0.8-0.1,1.3,0.1c0.4,0.2,0.9,0,1.4,0.1c1.2,0.3,2.3,0.3,3.5,0.5c1.4,0.3,2.9,0.4,4.3,0.8
			c1.6,0.5,3.3,0.7,4.9,1.2c1,0.3,2.1,0.6,3.2,0.8c1.4,0.3,2.7,0.7,4,1.1c1.7,0.5,3.3,1,4.9,1.6c1.7,0.6,3.3,1.2,4.9,1.9
			c2.2,0.9,4.3,1.9,6.4,2.8c2.3,1,4.6,2.2,6.8,3.3c1.9,1,3.8,2,5.6,3.1c2.3,1.4,4.6,2.9,6.9,4.4c1.6,1.1,3.1,2.2,4.7,3.4
			c0.2,0.2,0.6,0.4,0.5,0.9c-1.8-1.2-3.6-2.2-5.4-3.4c-1-0.7-2.2-1.1-3.2-1.7c-2-1.1-4-2.2-6.1-3.2c-1-0.5-2-1-3-1.4s-2-0.8-2.9-1.2
			c-1.1-0.5-2.2-1-3.4-1.4c-1.2-0.5-2.3-1-3.5-1.4c-0.9-0.2-1.6-0.7-2.6-0.9c-0.9-0.1-1.7-0.6-2.6-0.8c-0.9-0.3-1.8-0.6-2.7-0.8
			c-0.9-0.3-1.8-0.5-2.6-0.7c-1.4-0.4-2.8-0.8-4.2-1.1c-0.5-0.1-1-0.3-1.5-0.5c-0.5-0.1-1.1-0.1-1.6-0.3c-0.9-0.3-1.9-0.4-2.8-0.6
			c-0.6-0.2-1.3-0.3-2-0.4c-0.5,0-0.9-0.2-1.3-0.3s-0.9,0-1.4-0.2s-1.1-0.1-1.7-0.3c-0.9-0.2-1.9-0.2-2.8-0.3
			c-0.5-0.1-1-0.2-1.5-0.3s-1,0.1-1.5-0.3h-0.1c-1.4-0.1-2.7-0.2-4.1-0.2c-0.9,0-1.7-0.4-2.5-0.3c-0.8,0.1-1.7,0.2-2.5,0
			c-2.1-0.4-4.2-0.2-6.2-0.2c-1.5-0.1-3,0-4.5,0c-1.9,0-3.8,0.4-5.7,0.3c-1,0.4-2.2,0-3.2,0.3s-2.1-0.1-3.1,0.5
			c-0.1,0.1-0.3,0-0.5,0c-0.6,0-1.2,0-1.8,0.2c-0.5,0.2-1,0-1.6,0.2c-0.6,0.3-1.3,0.2-2,0.3c-1.3,0.2-2.5,0.3-3.7,0.6
			c-1.4,0.3-2.8,0.5-4.2,0.9c-0.9,0.3-1.9,0.4-2.8,0.6c-1.2,0.3-2.3,0.6-3.5,0.9c-1.1,0.3-2.2,0.6-3.3,0.9c-2.5,0.8-4.9,1.5-7.3,2.4
			c-1.5,0.6-3,1.2-4.5,1.8c-4.8,2-9.3,4.3-13.9,6.6c-1,0.5-1.9,1.1-2.9,1.7c-0.7,0.4-1.4,0.8-2.1,1.2c-1.9,1.1-3.7,2.2-5.4,3.5
			c-1.7,1.2-3.4,2.3-5,3.5c-1,0.7-1.8,1.5-2.8,2.2c-1.1,0.8-2.1,1.8-3.3,2.6c-0.6,0.4-1.1,1-1.8,1.5c-1.2,0.9-2.2,2-3.3,3
			c-1.8,1.7-3.6,3.4-5.4,5.2c-1.4,1.3-2.7,2.7-3.9,4.2c-1.1,1.3-2.4,2.6-3.4,4c-1.7,2.2-3.5,4.4-5.2,6.7c-2.2,2.9-4.1,5.9-6.1,8.9
			c-1.5,2.3-2.8,4.6-4.1,7c-1.6,2.9-3,5.8-4.4,8.8c-0.8,1.7-1.5,3.5-2.2,5.2c-1,2.3-1.8,4.6-2.8,6.9c-0.6,1.3-1,2.8-1.4,4.2
			c-0.4,1.3-0.8,2.6-1.2,3.9c-0.3,1.1-0.6,2.3-0.9,3.5s-0.7,2.5-1,3.7c-0.2,1-0.4,1.9-0.6,2.9c-0.2,0.7-0.2,1.5-0.5,2.2
			c-0.1,0.3,0,0.7,0,1s-0.2,0.6-0.3,1c-0.1,0.4-0.2,0.9-0.3,1.3c-0.1,0.4,0.1,0.8-0.3,1.2c-0.1,0.1,0,0.4,0,0.6
			c0.1,0.6-0.1,1.1-0.5,1.7c0.1-0.8-0.2-1.3,0.2-1.9c0.1-0.2,0-0.5,0-0.8c0.1-0.9-0.1-1.8,0.2-2.7c0.3-0.8-0.2-1.7,0.3-2.5v-0.1
			c0.1-1.1,0.2-2.1,0.3-3.2c0.1-0.7,0.4-1.3,0.3-2c0.6-0.5,0-1.3,0.5-1.9c0.3-0.4,0.1-1.1,0.3-1.7c0.2-0.8,0.3-1.6,0.4-2.3
			c0.1-0.8,0.3-1.6,0.4-2.3c0.2-1.2,0.7-2.4,0.9-3.6c0.2-1.3,0.6-2.5,0.9-3.7c0.2-0.9,0.5-1.7,0.7-2.6c0.3-0.9,0.6-1.7,0.9-2.6
			c0.4-1.2,0.8-2.4,1.3-3.6c0.6-1.5,1.1-3.1,1.8-4.6c0.3-0.8,0.7-1.6,0.9-2.4c0.2-0.8,0.7-1.5,1-2.3c0.7-1.7,1.6-3.3,2.5-4.9
			c0.9-1.7,1.8-3.5,2.8-5.2c0.9-1.5,1.9-3,2.7-4.6c1.1-1.9,2.4-3.7,3.6-5.5c0.8-1.1,1.6-2.3,2.4-3.4c1.2-1.6,2.3-3.1,3.6-4.6
			c0.6-0.7,1.2-1.4,1.9-2.1c0.5-0.6,1-1.2,1.5-1.8c0.5-0.6,1.1-1,1.4-1.7c0.1-0.3,0.4-0.4,0.6-0.7c2.2-2.2,4.5-4.5,6.7-6.7
			c1.2-1.2,2.4-2.3,3.7-3.5c1.5-1.3,3-2.6,4.5-3.7c1.9-1.4,3.8-2.9,5.8-4.3c2-1.5,4.1-2.8,6.2-4.2c1.5-1,3.1-1.9,4.6-2.8
			c3.7-2.2,7.7-4.1,11.6-6c2-1,4-1.8,6.1-2.6c1.4-0.5,2.8-1.1,4.2-1.7c1.4-0.6,3-0.9,4.4-1.5c1.9-0.7,3.9-1,5.7-1.8
			c1.4,0,2.5-0.7,3.9-0.9c0.7-0.1,1.6-0.3,2.3-0.6c0.6-0.3,1.1,0,1.7-0.4c0.5-0.3,1.2-0.1,1.7-0.3c1.1-0.4,2.4-0.3,3.5-0.7
			c0.8-0.3,1.7-0.2,2.5-0.3c0.5-0.1,0.9-0.2,1.3-0.3c0.5-0.1,1,0.2,1.4-0.3h0.1c0.4,0,0.9,0,1.3,0c0.4,0,0.8-0.3,1.2-0.2
			c1.6,0.1,3.1-0.5,4.7-0.3c1.8-0.5,3.6-0.1,5.4-0.3c0.2,0,0.6,0.2,0.6-0.3C231.7,42.5,234.2,42.5,236.8,42.5z"/>
		<path d="M105.3,221.4c0.6,1.6,1.2,3.1,1.8,4.5c0.2,0.6,0.5,1.3,0.8,1.9c0.8,1.9,1.7,3.8,2.5,5.7c1,2.3,2.1,4.5,3.3,6.7
			c0.9,1.7,1.9,3.4,2.8,5c1.8,3.3,3.9,6.3,5.9,9.5c0.7,1.1,1.6,2.2,2.4,3.3c0.7,1,1.5,1.9,2.2,2.9c0.3,0.5,0.8,1,1.2,1.5
			c1.1,1.4,2.3,2.6,3.4,4c3,3.8,6.6,7,9.9,10.4c0.5,0.5,1.1,0.9,1.7,1.4c0.6,0.5,1,1,1.6,1.4c0.7,0.5,1.4,1.2,2,1.8
			c2,1.7,4.1,3.3,6.2,4.9c2.9,2.3,6,4.2,9,6.3c1,0.7,2.1,1.1,3.1,1.8c1.7,1.1,3.5,2.1,5.2,3c2,1.1,4.1,2.3,6.3,3
			c0.2,0.1,0.4,0.2,0.7,0.3c0.7,0.3,1.4,0.7,2.1,1c0.7,0.2,1.2,0.9,2,0.8c1.4,1,3.2,1.3,4.7,2c1.8,0.8,3.7,1.3,5.5,2
			c1.6,0.6,3.2,1,4.8,1.5c1.5,0.4,3,0.9,4.6,1.2c0.8,0.1,1.7,0.5,2.5,0.7c1,0.2,1.9,0.4,2.9,0.6c0.6,0.1,1.4,0,1.8,0.3
			c0.6,0.4,1.2,0,1.7,0.4c0.4,0.3,1.1,0.1,1.7,0.3c0.8,0.3,1.7,0.2,2.5,0.3c0.5,0.1,0.9,0.2,1.3,0.3c0.5,0.1,1-0.1,1.4,0.3
			c0,0,0.2,0,0.3,0c1.2,0.1,2.5,0.1,3.7,0.3c1.2,0.2,2.4,0,3.6,0.3c1.5,0.3,3,0.1,4.5,0.2c0.8,0.1,1.7,0.2,2.5,0.3
			c0.9,0,1.8,0,2.6,0s1.8,0,2.6,0c1.1-0.1,2.1-0.2,3.2-0.2c1.1,0,2.1,0.1,3.2-0.1c1.1-0.2,2.2-0.1,3.2-0.3c0.8-0.2,1.6-0.1,2.4-0.3
			c0.8-0.2,1.6-0.1,2.4-0.3c0.7-0.2,1.4-0.2,2.1-0.2c0.5-0.6,1.4,0.1,1.9-0.5c0.6,0.1,1.3-0.1,1.9-0.2c0.4-0.1,0.9,0,1.4-0.3
			c0.3-0.2,0.8,0.1,1.2-0.2c0.3-0.3,1,0.2,1.3-0.3c1.1,0.1,2.1-0.5,3.2-0.6c1.2-0.1,2.3-0.5,3.5-0.8c1.6-0.4,3.1-0.9,4.6-1.3
			c1.4-0.3,2.8-0.9,4.2-1.4c1.7-0.6,3.3-1.1,5-1.7c1.1-0.4,2.2-0.8,3.3-1.3c2.2-1,4.4-2,6.6-3c1.6-0.7,3.2-1.6,4.7-2.4
			c2.8-1.5,5.6-3.1,8.3-4.8c1.5-1,3.1-2,4.6-3c0.8-0.5,1.5-1.1,2.3-1.5c0.8-0.5,1.5-1.1,2.2-1.7c1.4-1.1,2.9-2.2,4.3-3.3
			c0.8-0.6,1.5-1.3,2.2-2c0.5-0.4,1.1-0.9,1.6-1.3s0.8-1,1.5-1.2c0.1,0,0.1-0.1,0.2-0.2c2.2-2.1,4.4-4.1,6.5-6.3
			c1.2-1.2,2.3-2.4,3.5-3.7c1.2-1.3,2.4-2.6,3.5-4c0.7-0.9,1.5-1.8,2.3-2.8c0.9-1.1,1.8-2.3,2.7-3.5c1.1-1.5,2.2-3,3.2-4.5
			c0.7-1,1.3-1.9,1.9-2.9c0.7-1.2,1.4-2.3,2.2-3.5c0.5-0.8,1-1.6,1.5-2.4c1.9-3.2,3.5-6.5,5.2-9.8c0.5-1,1-2,1.4-3
			c0.3-1,1-1.9,1.1-3c1-1.4,1.3-3.2,2-4.7c0.8-1.8,1.3-3.7,1.9-5.5c0.6-1.6,1-3.2,1.5-4.8c0.4-1.5,0.8-3,1.2-4.5
			c0.3-1.3,0.4-2.7,1-3.9c-0.2-1.2,0.6-2.2,0.5-3.4c0-0.3,0.2-0.6,0.2-0.9c0.1-0.3,0-0.6,0.2-1c0.3-0.5,0.1-1.1,0.3-1.7
			c0.3-0.8,0.2-1.7,0.3-2.5c0.1-0.5,0.2-0.9,0.3-1.3c0.1-0.5-0.1-1,0.3-1.3v-0.1c-0.2-1.2,0.2-2.4,0.3-3.6c0.1-1.5,0.1-3,0.3-4.4
			c0.3-1.7,0.2-3.4,0.2-5.1c0.1-3.2,0-6.4,0-9.7c0-0.5,0.1-1.1-0.1-1.5c-0.2-0.5-0.1-1-0.1-1.5s0.1-1.1,0-1.6
			c-0.3-0.9-0.2-1.8-0.2-2.7c0-0.5-0.2-1-0.3-1.5c-0.1-0.5,0.1-1-0.3-1.5c-0.1-0.1,0-0.3,0-0.4c0-0.6,0-1.3-0.2-1.9
			c-0.2-0.5,0-1.1-0.3-1.7c-0.3-0.7-0.1-1.6-0.3-2.4c-0.3-1.1-0.4-2.2-0.7-3.3c-0.2-0.5-0.3-1.1-0.3-1.7c0-1-0.5-1.9-0.7-2.9
			c-0.1-0.5,0.2-1.1-0.3-1.4c-0.1-1.2-0.7-2.4-0.9-3.6c-0.1-1-0.6-1.9-0.9-2.9c-0.1-0.3-0.1-0.6-0.2-1.3c0.7,0.9,0.7,1.6,1,2.3
			c0.8,2.3,1.5,4.8,2.2,7.1c0.4,1.3,0.5,2.7,1.1,3.9c-0.1,1.5,0.8,2.8,0.8,4.3c0.5,0.9,0.4,1.9,0.8,2.9c0.2,0.5,0.2,1.2,0.3,1.7
			c0.2,1.2,0.5,2.5,0.6,3.7c0.1,0.7,0,1.4,0.3,2c0.3,0.7,0,1.4,0.3,2c0.3,0.8,0.1,1.6,0.3,2.3c0.2,0.9,0.1,1.8,0.3,2.7
			c0.3,1.3,0,2.5,0.2,3.7c0.4,2.4,0.2,4.9,0.2,7.3c0.1,2.4,0,4.9,0,7.3c0,0.8-0.2,1.5-0.2,2.3c0,0.7,0.1,1.5,0,2.2
			c-0.2,0.9-0.1,1.7-0.2,2.5c-0.3,1.5-0.3,3-0.6,4.4c-0.1,0.6-0.1,1.2-0.2,1.7s-0.1,1.1-0.3,1.6c-0.4,1.7-0.5,3.5-1,5.1
			c-0.2,0.7-0.3,1.4-0.4,2.1c-0.2,0.7-0.2,1.4-0.4,2.1c-0.5,1.4-0.7,2.9-1.2,4.4c-0.4,1.3-0.8,2.7-1.2,4c-0.7,2.2-1.4,4.5-2.2,6.6
			c-0.8,2.2-1.8,4.4-2.7,6.6c-1.4,3.4-3,6.7-4.8,9.9c-1.2,2.2-2.4,4.4-3.8,6.5c-1.3,2-2.5,4.1-3.8,6.1c-1,1.5-2.1,3-3.2,4.4
			c-1.4,1.7-2.7,3.6-4,5.3c-0.7,0.8-1.4,1.6-2.1,2.4c-0.5,0.6-1.1,1.2-1.6,1.9c-0.5,0.6-1.2,1.1-1.6,1.8c-0.3,0.5-0.8,0.9-1.3,1.3
			c-1.6,1.6-3.2,3.3-4.9,4.9c-1.3,1.3-2.7,2.6-4.1,3.8c-1.2,1-2.3,2-3.5,3c-2.1,1.6-4.2,3.2-6.3,4.8c-2.4,1.8-4.8,3.5-7.3,5.1
			c-2,1.3-4,2.5-6,3.6c-1.5,0.8-3,1.6-4.4,2.4c-1.5,0.8-2.9,1.6-4.5,2.3c-1.9,0.8-3.8,1.8-5.7,2.5c-1.2,0.4-2.4,1-3.6,1.5
			c-1.7,0.7-3.4,1.3-5.1,1.9s-3.4,1.1-5.1,1.6c-1.1,0.3-2.2,0.8-3.3,1c-1.2,0.2-2.4,0.7-3.6,0.9c-1,0.2-1.9,0.4-2.9,0.7
			c-0.7,0.2-1.4,0.3-2,0.5c-0.3,0.1-0.7,0-1,0.1c-0.3,0-0.6,0.2-1,0.2c-1.3,0.1-2.5,0.4-3.7,0.6c-1.2,0.2-2.3,0.5-3.5,0.5
			c-0.5,0-0.9,0.3-1.5,0.3c-0.5-0.1-0.9-0.1-1.3,0.2H250c-1.4-0.2-2.6,0.4-4,0.3c-1.3-0.1-2.5,0.4-3.9,0.3c-1.3-0.1-2.7-0.2-4,0
			c-1.2,0.2-2.4,0.3-3.6,0.2c-2.4-0.3-4.9-0.2-7.3-0.2c-1.1-0.4-2.2-0.2-3.3-0.3c-0.6,0-1.1-0.3-1.7-0.3c-0.6,0.1-1.2,0.2-1.7-0.2
			c-0.1,0-0.2,0-0.3,0c-0.6,0-1.2,0-1.9-0.2c-0.6-0.2-1.2-0.1-1.9-0.3c-0.8-0.3-1.8-0.1-2.7-0.3c-1.2-0.3-2.4-0.3-3.5-0.7
			c-0.5-0.2-1.1-0.2-1.6-0.3c-1.1-0.2-2.3-0.5-3.4-0.8c-0.8-0.2-1.7-0.3-2.5-0.6c-1.4-0.4-2.7-0.7-4.1-1.1c-1.5-0.4-3.1-0.8-4.6-1.3
			c-2.4-0.8-4.7-1.7-7-2.5c-2-0.7-3.9-1.6-5.9-2.3c-1.8-0.6-3.4-1.6-5.1-2.4c-1-0.5-2.1-1-3.1-1.5c-1.4-0.8-2.9-1.4-4.2-2.3
			c-0.8-0.6-1.8-0.9-2.7-1.4c-1.2-0.7-2.3-1.4-3.5-2.1c-0.9-0.6-1.7-1.2-2.6-1.7c-0.6-0.4-1.1-0.9-1.7-1.2c-0.6-0.4-1.2-0.8-1.8-1.2
			c-1.4-1.1-2.9-2.1-4.4-3.1c-0.5-0.4-0.9-0.9-1.5-1.2c-0.8-0.5-1.4-1.2-2.1-1.7c-1.7-1.4-3.3-3-5-4.5c-2.5-2.2-4.8-4.6-7.1-7
			c-0.8-0.8-1.5-1.6-2.3-2.5c-1.1-1.3-2.3-2.7-3.5-4c-1.3-1.5-2.5-3.1-3.7-4.7c-1-1.3-1.9-2.7-2.9-4.1c-0.6-0.9-1.3-1.7-1.8-2.5
			c-0.9-1.4-1.8-2.9-2.7-4.3c-1.2-1.9-2.2-3.8-3.3-5.8c-1.1-2-2.2-4-3.1-6.1c-1.1-2.4-2.2-4.7-3.1-7.2c-0.5-1.3-1-2.7-1.6-4
			c-0.7-1.8-1.3-3.7-1.8-5.6c-0.3-1-0.7-1.9-1-2.9C105.3,222.1,105.3,221.9,105.3,221.4z"/>
		<path d="M161.8,264.8c-0.8-0.6-1.7-1.3-2.5-2c-1-0.9-1.9-1.9-3-2.7c-2.2-1.7-4-3.8-5.9-5.7c-1-1-2-2-2.8-3.1s-1.8-2-2.5-3
			c-1.1-1.6-2.4-3.1-3.5-4.7c-1.2-1.7-2.4-3.5-3.6-5.3c-0.7-1-1.3-2-1.9-3.1c-1.2-2-2.3-4.1-3.3-6.2c-0.7-1.5-1.5-3-2.1-4.5
			c-0.5-1.2-1-2.4-1.5-3.6c-0.4-1.2-1-2.4-1.4-3.7c-0.4-1.2-0.8-2.5-1.3-3.7c-0.7-1.9-1-3.9-1.8-5.7c-0.1-1.4-0.7-2.6-0.9-4
			c-0.1-0.8-0.3-1.5-0.5-2.3c-0.2-0.7-0.2-1.5-0.5-2.2c-0.2-0.7-0.2-1.5-0.3-2.3c-0.2-0.8-0.1-1.7-0.5-2.5c0-0.1,0-0.2-0.1-0.2
			c-0.1-1.1-0.2-2.2-0.3-3.3c-0.1-0.7-0.2-1.3-0.3-2c0-0.7,0.2-1.4-0.1-2c-0.3-0.9-0.2-1.7-0.2-2.6c0-2.9,0-5.7,0-8.6
			c0-0.8-0.1-1.7,0-2.5s-0.1-1.6,0.2-2.4c0.3-0.7,0.1-1.7,0.1-2.5c0-0.5,0.4-1,0.3-1.6c-0.1-0.5-0.1-1.1,0.2-1.6
			c-0.2-1,0.2-1.9,0.3-2.8c0-0.4,0.2-0.8,0.3-1.2c0.1-0.4,0-0.7,0.2-1.1c0.2-0.5-0.1-1.2,0.3-1.7c0.2-2.2,0.8-4.4,1.4-6.6
			c0.3-1.1,0.6-2.2,0.9-3.3s0.7-2.2,1-3.3c0.4-1.3,0.8-2.7,1.3-4c0.5-1.4,1.1-2.7,1.6-4.1c1.1-2.9,2.4-5.7,3.9-8.4
			c0.9-1.8,1.8-3.6,3-5.3c0.7-1,1.3-2.2,2-3.3c1-1.6,1.8-3.2,3-4.6c0.6-0.7,1.1-1.6,1.6-2.4c0.6-0.8,1.2-1.6,1.8-2.3
			c1.5-1.8,2.9-3.6,4.4-5.3c1.2-1.4,2.5-2.6,3.7-3.9c1.3-1.4,2.7-2.8,4.1-4.1c1.1-1,2.1-2,3.3-2.8c0.7-0.5,1.2-1.1,1.9-1.6
			c1.4-1.2,2.9-2.3,4.4-3.4c1.3-1,2.6-1.8,3.9-2.8c1.2-0.9,2.6-1.6,3.9-2.5c1.2-0.8,2.6-1.4,3.8-2.3c0.3-0.2,0.7-0.3,1-0.5
			c1.5-0.8,2.9-1.6,4.5-2.3c1.6-0.7,3.1-1.4,4.7-2.1c1.7-0.7,3.5-1.4,5.2-2.2c0.8-0.4,1.8-0.6,2.7-0.9c1.7-0.6,3.4-1.1,5.1-1.6
			c1.2-0.4,2.4-0.8,3.7-1c1.2-0.2,2.4-0.5,3.5-0.9c0.6-0.2,1.2-0.2,1.8-0.4c1.2-0.3,2.5-0.5,3.8-0.8c0.8-0.2,1.7-0.2,2.5-0.3
			c0.5-0.1,0.9-0.2,1.3-0.3c0.5-0.1,1,0.2,1.4-0.3c0,0,0.2,0,0.3,0c0.8,0,1.6-0.1,2.4-0.2c1.8-0.2,3.5-0.3,5.3-0.3
			c1.2,0,2.4-0.3,3.6-0.3c1.2,0,2.5,0,3.7,0c1,0,2,0.4,3.1,0.3c1-0.1,2.1-0.2,3,0s1.9,0.2,2.8,0.2c0.5,0,0.9,0.4,1.5,0.3
			c0.4-0.1,1-0.2,1.4,0.2c0.1,0.1,0.3,0,0.5,0c1.5,0,2.9,0.6,4.4,0.5c0.5,0.5,1.3,0.2,1.9,0.5c0.6,0.2,1.4,0.1,2,0.3
			c1.5,0.5,3,0.8,4.5,1.2c2.2,0.6,4.3,1.3,6.5,2c1.6,0.5,3.1,1.1,4.6,1.7c0.6,0.3,1.2,0.6,2,0.7c0.2,0,0.3,0.2,0.5,0.4
			c-0.4,0.3-0.7,0-1.1-0.1c-1.8-0.5-3.6-1.2-5.4-1.6c-1.2-0.3-2.3-0.7-3.5-0.8c-0.5,0-1-0.2-1.4-0.4c-0.4-0.2-0.9,0.1-1.4-0.2
			c-0.4-0.3-0.9,0-1.5-0.3s-1.4-0.2-2.1-0.3c-0.4-0.1-0.8-0.2-1.2-0.3c-0.4-0.1-0.8,0.2-1.1-0.2h-0.2c-1.1-0.1-2.1-0.2-3.2-0.3
			c-0.5-0.1-1.1-0.2-1.6-0.2s-1.1,0.1-1.6,0c-1.2-0.4-2.5,0-3.7-0.3c-3-0.5-5.9-0.2-8.9-0.2c-1.7,0-3.4,0.4-5,0.2
			c-0.9,0.4-2,0-2.9,0.3c-1,0.4-2.2-0.1-3.1,0.5c-0.9-0.2-1.7,0.3-2.5,0.3c-0.4,0-0.8,0.2-1.2,0.2c-0.4,0.1-0.8-0.2-1.1,0.2
			c-0.7,0-1.4,0.1-2.1,0.3c-1,0.2-2.1,0.4-3.1,0.7c-0.9,0.2-1.9,0.4-2.8,0.6c-1.4,0.4-2.8,0.7-4.2,1.1c-2.4,0.7-4.8,1.5-7.1,2.4
			c-1.5,0.6-3,1.2-4.6,1.8c-2,0.8-3.9,1.7-5.8,2.5c-1.4,0.6-2.9,1.2-4.1,2.2c-0.3,0.2-0.7,0.3-1,0.5c-1.7,0.9-3.4,2-5.1,3
			c-2.2,1.3-4.2,2.8-6.4,4.1c-1.3,0.8-2.3,1.8-3.5,2.7c-1.4,1.1-2.8,2.2-4.2,3.3c-3.1,2.4-5.8,5.3-8.6,8.1c-0.6,0.6-1.2,1.1-1.8,1.8
			c-0.9,1.2-2.1,2.2-2.9,3.4c-0.5,0.7-1.1,1.2-1.6,1.9c-1,1.3-2.1,2.6-3.1,4c-0.7,1.1-1.5,2.1-2.3,3.2c-1.1,1.6-2.1,3.2-3,4.8
			c-0.8,1.3-1.6,2.7-2.4,4.1c-0.8,1.5-1.5,3.1-2.4,4.6c-1.1,2-1.9,4.1-2.8,6.1c-0.7,1.5-1.2,3.1-1.8,4.7c-0.6,1.6-1.2,3.1-1.6,4.7
			c-0.4,1.5-0.8,2.9-1.2,4.4s-0.8,3-1.1,4.6c-0.1,0.3-0.1,0.7-0.2,1c-0.1,0.3-0.2,0.6-0.3,1c-0.1,1.2-0.5,2.3-0.6,3.5
			s-0.4,2.3-0.5,3.5c-0.1,0.8,0,1.7-0.3,2.4c-0.3,0.8,0,1.7-0.2,2.4c-0.4,1.2,0,2.3-0.3,3.5c-0.4,1.8-0.2,3.6-0.2,5.5
			c0,1.8,0,3.6,0,5.4c0,0.8,0.2,1.5,0.2,2.3c0,0.7-0.2,1.5,0.1,2.2c0.2,0.8,0.2,1.6,0.2,2.4c0,0.5,0.2,1.1,0.3,1.6
			c0.1,0.5,0,1.1,0.2,1.6c0.2,0.6,0.2,1.3,0.3,2c0.1,1.3,0.4,2.7,0.6,4c0.3,1.7,0.7,3.5,1.2,5.2c0.3,1.2,0.7,2.3,0.9,3.5
			c0.2,1.1,0.5,2.1,0.8,3.1c0.5,1.6,1.1,3.3,1.6,4.9c0.2,0.8,0.6,1.5,0.9,2.3c0.4,0.9,0.6,1.8,1,2.7s0.8,1.8,1.2,2.7
			c1,2.2,2.1,4.4,3.2,6.6c0.8,1.6,1.7,3.2,2.5,4.8c0.8,1.3,1.6,2.6,2.4,3.9c0.8,1.4,1.7,2.7,2.6,4c0.8,1.2,1.6,2.3,2.5,3.5
			c0.7,1,1.5,1.8,2.1,2.8c0.4,0.6,1.1,1.1,1.5,1.8c0.6,0.8,1.4,1.5,2,2.3c2.3,2.8,5.1,5.2,7.6,7.8c0.1,0.1,0.2,0.3,0.3,0.5
			C161.9,264.7,161.9,264.7,161.8,264.8z"/>
	</g>
</g>
</svg>
