<svg xmlns="http://www.w3.org/2000/svg" xml:space="preserve" viewBox="0 0 2048 1520"><style>.st2{stroke:#000;stroke-miterlimit:10}.st2,.st3,.st4,.st5{display:inline;fill:none}.st4,.st5{stroke:#ff521f;stroke-miterlimit:10}.st5{stroke:#0050bf}.st6,.st7{stroke:#0050bf;enable-background:new}.st6{display:inline;opacity:.19;fill:none;stroke-miterlimit:10}.st7{opacity:.31}.st7,.st8,.st9{display:inline;fill:none;stroke-miterlimit:10}.st8{opacity:.14;stroke:#0050bf;enable-background:new}.st9{stroke:#000;stroke-width:1.75}.st10{stroke-width:2}.st10,.st11,.st13{display:inline;fill:none;stroke:#000;stroke-miterlimit:10}.st11{stroke-width:.75}.st13{stroke-linecap:round}.st14,.st15{fill:none;stroke-width:1}.st14{display:inline;stroke:#000;stroke-miterlimit:9.9991}.st15{stroke-miterlimit:9.9985}.st15,.st17,.st18{display:inline;stroke:#000}.st17{stroke-width:1;stroke-miterlimit:10.0003}.st18{stroke-miterlimit:10}.st21{stroke:#000;stroke-width:1;stroke-miterlimit:9.9994}.st21,.st22,.st23{display:inline;fill:none}.st22{stroke:#000;stroke-width:1;stroke-miterlimit:9.9988}.st23{stroke-miterlimit:9.9997}.st23,.st24,.st25{stroke:#000;stroke-width:1}.st24{display:inline;fill:none;stroke-miterlimit:10}.st25{stroke-miterlimit:9.9994}.st25,.st27{display:inline}.st28{fill:#009366;stroke-width:2}.st28,.st29,.st30,.st31,.st33{stroke:#000;stroke-miterlimit:10}.st29{fill:#01c78a;stroke-width:2}.st30,.st31,.st33{fill:none}.st31,.st33{stroke-width:2}.st33{display:inline;stroke-width:.5}.st35,.st39{stroke-width:2}.st35{display:inline;fill:#6b779b;stroke:#000;stroke-miterlimit:10}.st39{fill:#bf8251}.st39,.st40,.st42{display:inline;stroke:#000;stroke-miterlimit:10}.st40{fill:#ba70b5;stroke-width:2}.st42{fill:#0e8447}.st52{stroke-width:2}.st52,.st53,.st54{display:inline;opacity:.22;fill:none;stroke:#000;stroke-miterlimit:10;enable-background:new}.st54{stroke-width:.75}.st56{fill:#0e8447}.st56,.st57,.st58{stroke:#000;stroke-miterlimit:10}.st57{display:none;fill:#118447}.st58{fill:#0e8447}.st58,.st59{display:none}.st60,.st61,.st62{stroke-miterlimit:10}.st60{display:inline;fill:#118447;stroke:#000}.st61,.st62{fill:#0e8447;stroke:#0e8447;stroke-width:.25}.st62{fill:#118447}.st65,.st67,.st70,.st71,.st72{display:inline;stroke:#000;stroke-width:1}.st65{fill:none;stroke-miterlimit:9.9995}.st67,.st70,.st71,.st72{stroke-miterlimit:10.0001}.st70,.st71,.st72{fill:none;stroke-miterlimit:9.9998}.st71,.st72{stroke-miterlimit:9.9996}.st72{stroke-miterlimit:9.9999}.st78,.st79{stroke:#000;stroke-miterlimit:10}.st78{fill:none;stroke-linecap:round}.st79{fill:#fcc772;stroke-width:2}.st80,.st82,.st83,.st92{fill:none;stroke:#000;stroke-width:1;stroke-miterlimit:9.9995}.st82,.st83,.st92{stroke-miterlimit:9.9997}.st83,.st92{fill:#080882;stroke-width:2}.st92{fill:none;stroke-width:.75;stroke-miterlimit:10}.st100,.st101,.st102,.st93,.st96,.st99{fill:#b53594;stroke:#000;stroke-width:2;stroke-miterlimit:10}.st100,.st101,.st102,.st96,.st99{fill:#068ec4}.st100,.st101,.st102,.st99{fill:#ba70b5}.st100,.st101,.st102{fill:#bf8251}.st101,.st102{fill:#6b779b}.st102{fill:none;stroke-width:.5}</style><g id="Capa_1"><path d="m1532.9 1165.7-72.4-17.9-20.2 5.3-29.9 12-32.3 22.7-42.8 113 67.3 68.7 55.8 55.5 123.1-247.2z" class="st30"/><path d="m1395.9 1369.5-65.9-67.7 45.2-118 32.4-22.7s46-19.7 53.3-18.3 84.1 21.7 84.1 21.7l44.8 10.8-129.2 261.3z" class="st30"/><ellipse cx="1369.2" cy="1106.4" rx="20.4" ry="19.8" style="fill:none;stroke:#000;stroke-width:1.75;stroke-miterlimit:9.9998" transform="matrix(.013 -.9999 .9999 .013 245.063 2461.115)"/><path d="m1368.8 1219.7 4.2-10.2 3.4-8.5 7.9 2.3 6.7 8.7 3.5-1.7 1.4 1.9M1379.4 1213.2l-6.8-2.9M1379.9 1202l25-19 10.7 14.9M1384.3 1203.3l22.8-17.2M1382.6 1202.8l23.7-17.9M1381.1 1202.4l24.5-18.4M1626.5 1138l145.3 37 87.8-235.5-124.3-63.5zM2047.6 122.2 1964 321l83.6 19.6" class="st30"/><g id="Capa_18"><path d="m1519.8 1185.9 3-14.5c.4-3-.7-5.9-2.9-7.2-3-1.8-7.9-.5-10.1 3.8l-39.9-9.8c-.3-4.6-2.7-8.3-5.5-8.9-3.6-.8-9.2 3.4-9.8 10.8l-10-1.7v-3.2c-.6-.3-1.7-.6-3-.6-1.6 0-2.7.5-3.3.8l-4.6 15.8c-7.2-5.1-17.2-3.1-21.6 3.9-4.6 7.2-1.9 17.4 6.2 21.6l-27.3 20c-.9-.6-7.3-4.7-13.4-2.2-.9.4-3.2 1.4-4.5 3.7s-1.6 5.6.2 8.3c1.7 2.6 4.3 3.3 5 3.4-7.3 19.7-14.7 39.4-22.1 59.2-3.7-1.2-7.8.1-10 3.3-2 2.9-2 6.9 0 9.9l29.4 11.1 32.4-85.7 29.8 8.2 2.5-9.5 53.5 14.4 5.9-21.1 3.5.9 9-35.2c2.5.1 5 .3 7.6.5z" class="st28"/><path d="m1519.8 1185.9-5.2 14.9-5.4-1.4 3-14.2z" class="st30"/><path d="m1517.8 1191.7 2.8.5 1.3-5.3-2.3-.5" class="st30"/><path d="m1437.7 1235.7-.8 3.3-29.8-8.1" class="st31"/></g><path d="m1742.7 846.9 128.6 65.4 117-292.3-122.9-68.2zM2047.6 484l-41.8 108.2-125.4-68.1 73.5-176.7 93.7 24.7M1832.8 1192.5l-35.4-10.5 48.7-130 117.8 52.8c4.9 1.8 9.8.6 10.8-1.6 1-2.3-1.4-7.1-7-9l-118.1-51.3 162.9-403.4c10.4 5.7 14.1 8.3 38.1 22.8M2048 616.2l-22.3-14.5 21.9-57.6M0 1073.2h41.2l41.9-111.4 62.7-87.2-109.2-79.9L0 849M0 771l16.5 14.4L0 807.1M1024 0 487.3 837.4l-63.5-41.7 317.6-496.3c.9-1.5 4.3-7.5 2.9-15.4-1.7-9.4-8.9-14.1-10.1-14.9L685 233l-62.1-45.5 73.2-104.9 61.7 46.1L685 233" class="st30"/><path d="M693.9 239.5 768 136.4l56 39.1-51.5 77c-2.1 3.8-.7 8.7 3.1 10.8s8.7.7 10.8-3.1C842.5 173.5 898.4 86.8 954.3 0M753.2 0l61.2 35.1L839.8 0" class="st30"/><path d="m850.8 0-26.7 39.9 64.5 39.4L943.5 0M703.6 70.9l57.7 42.5L808.8 47l-60.5-37zM775.5 123.9l57.1 42L883.8 93 823 55.7zM340.6 1073.4l133.7-215.1-61.9-42.7-147.1 257.6zM77.2 1073.4h165l57.2-95.4L172 892.3l-66.6 104.1zM184.5 872.8l125.4 87.8L418 780.2l-121.9-81.9zM0 743.6l29.6 20.7 108.3-173.5-108.8-73.7L.7 560.7M47.8 777.1l110.7 77.5 265-418.3-112.8-72zM0 525.4l163.2-255.3L.2 166M40.4 499.7l107.5 75.1 140.4-225.1-106.2-67.5zM0 132.2l176.8 116.4L335.8 0M366.1 0l-12.2 18.6 84.6 49.5 41-68.1M308.8 678.5l121.6 81L568.6 529l-116.5-74.4zM463.1 437.4l115.5 76.1 145.3-225.1-115.3-78.6zM601.2 0l-85.8 124.9-36.3-25L323 345l111.7 73.6L681.1 29.7 634.3 0M195.8 261.2l104.7 69 143.1-229.4-100.8-65.1z" class="st30"/><path d="m506.5 0-45.8 73.4 54.2 28.4L587.6 0M742.5 540.7l145.2-236.9 774.6 12.7-92 232.7zM1465.8.2l303.3 46.1-96.9 245.3L901.6 281 1073.9 0" class="st30"/><path d="m975.7 543.1 58.6-147.3c.4-.4 5.2-5.1 11.5-3.8 3.6.7 5.9 2.9 6.7 3.8l-53.3 147.3M1022.8 543.6l70-188.1c3-3.3 7.6-4.6 11.8-3.4 5.3 1.6 7.2 6.6 7.4 7.2l-70.1 184.4M1490.4 716.5l-5.5 30.3M1481.5 661.6l-4.9 28.3c.2 1.6.9 5.4 3.9 9 2.5 3 5.4 4.5 6.9 5.1 1.4.3 5.4 1.2 9.9-.6 4.7-1.8 7.1-5.3 7.8-6.5 12.1-29.6 24.2-59.2 36.4-88.8.2-1.3.5-5.2-1.8-9.3-1.8-3.1-4.3-4.8-5.5-5.4-5.8-.1-11.6-.3-17.4-.4l-12.2 72.9z" class="st30"/><path d="m1494.6 588.8 22.8 4.2-13 72.9-22.9-4.3z" style="fill:#dd7c5e;stroke:#000;stroke-width:2;stroke-miterlimit:10"/><path d="m1471.2 585.5 22.7 4M1467.4 606.2l23 4.3M1436 667.3l-1.4 9.3 18.1 2.8.7-5v-.4l.6-4.3M1478.6 678.2l-25.2-4.2M1428.5 673.8l2.4.3.5-5.3-2.7-.2zM1405.9 689.3l.1-4.1-6-.8M1464.9 700l1.8-11.7-28.5-4.5-.9 11.2M1438.2 686.9l27.7 4.6M1417.6 686.6l19.8 3.5M1417.9 683.9l17.8 3.7.5-4.6-17.5-3-1.3 6.8-1 4.6M1381.2 672.1l-6.2-.9-.8 8.3M1366.3 685.8l1-6.3 6.3.3" class="st30"/><path d="m1370.5 679.4.4-4.9-6.3-.4c-.4 3.5-.9 7-1.3 10.5-.5-.1-1-.1-1.6-.2-.7.2-1.2.8-1.2 1.4-.1.6.3 1.2.8 1.6l1.2.3-1.7 9.8c.8 0 1.7 0 2.5.1M1430.8 729.3l-1.9 11.5 15.7 2.6M1455.2 745l13.6 1.8 5.1-28.5-11.3-1.7M1363.7 713.2l-1.5 9.8 13.3 2.7.6-2.9" class="st30"/><path d="m1365 713.2-1 8.5 10.1 1.9v-1.1M1473.7 772.9l11-25.7 12.2-29.6c-11.3-1.9-22.5-3.8-33.8-5.7" class="st30"/><path d="M1484.4 747.9q-41.25 3.6-41.4 9c0 .4.1.8.5 1.2l31.2 13.5M1443.1 757.8l-48 111.8 30.2 30.4M1469.7 784l-31.8-14.1M1473.4 783.4l-3.1 6.9c0 .1-.2.7-.9 1-.5.2-1 .1-1.2.1-.2-.1-.5-.4-.8-.8-.6-.9-.3-1.9-.2-2.1.6-1.5 1.3-3.1 1.9-4.6M1469.2 784l.9-2M1363.2 581.6l1.7.3M1361.2 605.8h-1.7l4-24.1M1359.5 605.8c-.1.7-.2 1.3-.4 2 0 .1.2.4.5.5.4.1.7-.3.8-.4.5-.6.4-1.4.4-1.6M1350.8 660.3h-1.1l6.9-39.9c.1-.3.4-.5.8-.5.3 0 .6.3.7.6M1445.9 580.7l-79.1 1M1372.1 775.2l48.5 20.2-16.4 38.8-11.6-4.8-22.1-10c-1.1-1.5-2.5-4-3.3-7.3-.7-2.7-.8-5-.7-6.7 1.9-10 3.7-20.1 5.6-30.2z" class="st30"/><path d="M1405 823.3h2.8v2.8h-2.8z" style="fill:none;stroke:#000;stroke-width:1;stroke-linecap:round;stroke-miterlimit:10.0003" transform="rotate(-64.26 1406.37 824.672)"/><path d="M1410.2 791.2c-.1 0-.4.2-.6.6-.1.3 0 .6 0 .7 3 1.3 6 2.6 9.1 4-3.9 9-7.7 18-11.6 27M1393.8 829.9c-.3-.5-.4-1-.1-1.5s.8-.6.9-.7c2.9 1.4 5.8 2.7 8.7 4.1l2.4-5.7M1376.2 767.2l3.1 4.6 28.8 7.4 9-5.4 4.2-24.6c.1-1.1.1-4.3-1.9-7.5-2.3-3.8-5.9-5-6.9-5.4l-30-5.1zM1382.2 731.1l-2.2-.4-6.1 36.1 2.3.4" class="st78"/><path d="m1363.1 756.5 6.7 1 .6-3.4-6.9-1.1zM1361.7 766.8l6.5.9.4-3.4-6.6-.8zM1368.7 757.4l-.9 6.8M1366.5 757.2l-.8 6.6M1367.7 757.4l-1 6.6M1310.4 680.4l-1.6 8.5 21.6 3.4 1.6-8.7M1355.6 796.4l5.5 8.4.9-7zM1357.6 784.7l-.5 4.8 6.6.5.5-4.7zM1359.3 773.2l-.1 4.9 6.5.4.4-4.8zM1366.2 775.9h2.1v2l-2.3-.1" class="st30"/><path d="m1364.8 778.4-.6 6.9-2.4-.3.6-6.6M1362.8 790.2l-1 7.5-2.7-.6 1.2-7.1M1330.8 803.9l-16.1 6.2-7.4-.6.7-6.7 5.5.5.6-5.1-12.3-1.4-.5 5.2 12 1M1306.8 787.2l8.8 1.5-10.2 7.9zM1315.6 788.8l-.1 4-.9-.1-.1 5.6h.7M1331.5 709.2l1.2-9.5-28-4.5-2.7 16.4-13.6-2.2" class="st30"/><path d="m1109.8 947.2 19.8 3.6 6.6-37.6-19.8-3.6z" class="st79"/><path d="m1484.7 747.2 4.1-.1-11.6 27.8M1498.4 589.6l.5-3.5 1.7-11.8 53.7 1.2s5 .7 2.6 7.5-68.3 164.1-68.3 164.1" class="st30"/><path d="m1498.9 586.1 50.6 2.1 4.8-12.7M1186.5 572.3l122.4.6 38.5.4 2.7 2.7 12.4.2 3.5-2.5 134.1 4" class="st30"/><path d="m1362.3 576.3-.1 2.2 83.8-2.4M1461.3 804.4c.6-.8 1.7-1.1 2.4-.6.6.4.9 1.1.8 1.9l-30.4 73.6c-.7.9-1.9 1-2.5.5-.5-.4-.7-1.2-.5-1.9z" class="st30"/><path d="m1434.1 879.2-53.5 129-13.2-2.5" class="st30"/><path d="m1349.2 988.5 6.9.7 1.6-9.9-2.9-.5 1-6.1 3.3.5 1.1-7.1-3-.6.8-6.2-3.3-.5zM1365.1 949.4l-3.8-.4-1.6 10.5 1.5.3 1.6-10.3" class="st31"/><path d="m1358.9 931.5 8 7.6-.8 5.9" class="st30"/><path stroke-width=".99995" d="m1309.263 584.305.25-11.197 11.397.256-.25 11.196z" class="st80"/><path stroke-width=".99995" d="m1307.565 586.347.298-13.296 14.796.331-.298 13.296z" class="st80"/><path d="m1322.5 582.7 26.6 4.8-.5 3.2M1303.9 589.7l21.3.5M1301.1 606l20.7 3.9M1299.8 613.3l20.7 3.6M1277.5 766.8l42.4 8.2M1289.1 837.2l35 5.9 3.9-24.2-14.4-2.7-22.6 9zM1294.3 1072c6.1.1 9.6-1.3 12.2-2.5 1.2-.5 5.4-2.4 9.8-6.5 3.9-3.7 4.3-5.7 8.4-10.4 3.1-3.6 6.2-6 8.2-7.5 2.6-1.9 6.8-4.8 12.5-7.3 6.4-2.8 8-2.3 13.3-5.1 2.1-1.1 7.7-4.3 13-10.2 1.2-1.3 3.9-4.5 6.5-9.2 1.1-1.9 1.8-3.7 2.4-5" class="st30"/><path d="M1294.4 1069c5.8.1 8.9-1.2 11.4-2.3 1.1-.5 5-2.4 9.1-6.5 3.8-3.7 4.3-5.4 8.3-10.1 3-3.6 6-5.9 7.9-7.4 2.4-1.9 6.5-4.5 11.9-7 6-2.8 8.2-2 13.2-4.8 1.9-1.1 7.3-4.3 12.4-10.3 1.1-1.3 3.7-4.6 6.2-9.3 1-1.9 1-2.3 1.5-3.6" class="st30"/><path d="M1371.9 1006.6c-.4.7-1 1.9-1.9 3.3-5.3 8-12.9 11.5-15.2 12.6-8.5 4.2-30.2 18.3-61.1 39.1" class="st30"/><path d="m1293.7 1072.8.3-11.8" class="st31"/><path d="m1331.7 1036.5-23.4 24.8c0 .2.1.7.4 1 .5.5 1.4.5 2.2.1 8.9-9.9 17.9-19.8 26.9-29.8M1370.2 1006.3l-76.8 51.1-2.8.8-2.3-.7-4.2-8.5 4.7-26.2 30-24 6.9.9 5.1 32.8M1324.1 999.5l5.5 33.8" class="st30"/><path d="m1284.5 1049.8 9.6-5.7 5.6-30M1290.1 990.8l24.3 4.2 10.5-8.3 7.2-41-4.6-6.2M1273.2 929.5l63.2 11.6M1299.9 934.4l-5.1 29.4M1213.9 1008.1l50.5 9.1M1249.7 1014.6l1.6-10.2 3.4.4 7.5-48.3 28.5 5.3 4.8-28.2" class="st30"/><path d="m1265.6 957.1-.3 1.8 9 1.5M1257.1 989.3l12 1.8M1258.9 977.4l12.3 1.8M1274.3 922.6l63.3 11.9M1230.5 834.9l37.6 6.5M1229.3 842.2l37.5 6.7M1259 839.9l5.5-32.6 9.5 1.6-4.1 25.7M1233.8 815.2l11.9-11 12.8 2-5.7 32.8M1212.3 1016.6l50.6 8.8M1225.1 1018.8s-2.1 8.4.9 10.2 35.1 6.2 35.1 6.2M1174.7 1017.8l17.2 3.2M1160.5 1017.3l-.9 7.3 9-5.9M1225.8 942.5l3.6-20.7 23.9 4.3M1188 919.9l.9-5.7 34.5 6.5-3.4 20.8M1257.6 847.2l-5 28.7 9 1.6M1260.1 887.4l-24-3.8-5.5 31 24 4.2M1197 850.1l-10.3 56.2 38.4 7.2 11.9-69.9M1219.7 900l7.5 1.3M1151.2 827.3l2.8.4-12.4 70.8 39.1 7.1 9.9-56.8M1151.6 841.7l56.1 10.3M1152.8 834.5l56.2 9.9M1260.2 572.7l-8.8 46.8 17.7 3.2s-6.4 32-2.1 34.5" class="st30"/><circle cx="1281.4" cy="1062" r="3.1" class="st30"/><circle cx="1265.9" cy="1058.5" r="3.6" class="st30"/><circle cx="1265.9" cy="1058.5" r="5.3" class="st30"/><path d="m1271.2 1058.7 5.5.1c-.2 1-.5 3.7-2.8 6.1-.4.4-2.2 2.3-5.2 3.1-1.4.4-2.6.4-3.1.4-.4 0-1.9-.1-3.6-.7-.9-.3-3-1.1-4.7-3.1-2.3-2.9-2.1-6.3-2.1-7.2 1.7 0 3.5.1 5.2.1" class="st30"/><path d="M1114.2 1062.7c-1 3.3-.9 6-.7 7.6.1 1.1.3 2.1.9 3.2 1.4 2.6 4.1 3.6 5.1 3.9l20.6.5c2.2-.4 10-2 15.8-9.1 0 0 4.6-5.6 5.7-13.6.1-.9.3-2.4.1-4.5-.2-2.3-.9-4.1-1.4-5.2l7-1.8-.1 2.4 6.7-2.2-.1 2.4 6.1-2.2-.1 2.7 6.5-2.6-.1 2.8 6.7-2.6-.1 2.7 6.3-2.6-.1 3.1 6.5-2.9-.1 3 6.6-2.8-.1 3 6.4-2.8-.1 2.9 6.2-2.8-.1 2.6 6.8-2.4-.1 2.4 6.3-2.3 23 26.8c11.2.2 22.5.5 33.7.8" class="st30"/><path d="m1114.4 1073.5 26.1.6c1.1-.2 7-1.3 10.9-6.9 3.8-5.4 3.1-11.1 2.9-12.3l-7.8-24.7c-.5 4-1 8-1.4 12.1" class="st30"/><path stroke-width=".99995" d="m1135.077 941.018 6.269-35.245 23.037 4.097-6.268 35.245z" class="st80"/><path d="m1149.6 1074.3 24.8-.2 86.3-2.1" class="st30"/><path d="M1174.4 1074.1c.3-1 .9-2.4 2-3.9 1.1-1.6 2.4-2.7 3.3-3.3l56.2-.7c.6.3 2.2 1.1 3.3 2.8.9 1.4 1.1 2.8 1.2 3.6" class="st30"/><path d="m1203.3 1066.5 2.6 3.6 33.6-.6M1197.2 1066.6l-.2 6.9M1184.1 1066.7l-.1 6.9M1184.1 1068.6l-2.5-.1-.1 5.4M1198.2 1066.6c.2.1 1.7 1 1.9 2.5.3 1.7-1 3.6-3.1 4.2M1163.4 967l-93-16 8.1-46.5" class="st30"/><path d="m1131.3 961.5 2.3-13 18.8 3.2-2.1 13M1118.4 948.7l-1.7 10.3M1094.4 947.7l7.4 1.1 1.8-10.2 7.5 1.2M1102.4 945.6l7.5 1.2M1095.5 941l7.5 1.3M1087.5 896l30.9 5.8M1088.7 889.5l30.3 5.5M1096.4 845l30.4 5.6M1097.7 837.9l30.4 5.6M1093.7 859.7l-3.8 20.2M1089.3 859l-3.7 20.1M1075.4 847.9l-4.2-.7-4.9 28.4" class="st30"/><path d="m1056.3 957 31.6 5.2-8.5 47.2 25.5 4.2-5.7 33.2-51.6-9.2 9.6-53.2-5.7-.7z" class="st79"/><path d="m1003.9 946.5 157.9 27.9M1130.2 968.8l-1.5 9.9 15.5 2.3c.3.3.7.8 1 1.5.6 1.3.4 2.5.3 3" class="st30"/><path d="M1134.7 970.2h6.2v6.2h-6.2z" style="fill:none;stroke:#000;stroke-width:1;stroke-miterlimit:9.9996" transform="rotate(-80.078 1137.898 973.387)"/><path d="m1113.9 966-1.8 12.8-4.7-.7-4.1 26.1 3.8.6M1188.3 568.8l312 5.5M1189.9 572.3l-6.7 40c0 .7.1 2 .8 3.5.7 1.4 1.7 2.2 1.8 2.6l22.8 4.4-.9 5.7c19.4 3.4 39.5 6.8 58.9 10.2" class="st30"/><path d="m1187.3 572.3-7.1 39.8c-.2 1.2-.6 4.3.9 7.7 1.2 2.9 3.2 4.6 4.2 5.4l3.2.1.1-3 13.8 1.5 3.9 6.5 40.8 7.2c1.6.7 5.4 2.4 8.3 6.6 3.4 4.8 3.5 9.8 3.4 11.4L1235.3 790l-71-12.9 17.5-85.4-3.6-.2-7.1-65.6c-2-21.1-6.8-36.5-10.4-41.9-2.7-4.2-5.9-7.3-5.9-7.3-2.4-2.3-4.7-4-6.4-5.2zM1188.6 622.2l-6.7-.8M1189.7 573.5l18.9 3.3.6-4.4" class="st30"/><path d="m1164.1 571.8 3.7 5.5 6.8.2.1-5.5" class="st30"/><path d="m1168.6 571.9-.1 4.3 5.1.1.1-4.3M1226.3 797.3l7.7 9.5 8.4-8.1 1.2-14.5zM1228.5 788.8l-16.7 12.9-3.5 21.7-13.2-2.2M1196.4 821.4l-3.7 20.1" class="st30"/><path stroke-width=".99997" d="m1193.56 837.232 1.415-7.873 3.543.636-1.415 7.874zM1195.011 829.358l1.415-7.874 5.118.92-1.415 7.874z" class="st82"/><path stroke-width=".99997" d="m1200.108 830.294 1.416-7.874 5.117.92-1.415 7.874zM1197.085 837.892l1.415-7.873 7.874 1.415-1.415 7.874zM1192.686 841.54l.761-4.232 4.232.76-.76 4.233z" class="st82"/><path d="m1079.7 897.3-1.6 9.6M1051.2 892l-9.5 53.8 21.6 3.5 9.3-53.6M1164.3 777.1l-54.1-9.3-24.8-4.1M1098 1054.9l1.4-8.3M1015.2 822.6l-.1 3.6 6 5.1 55.6 9.7M1009.4 828.4l10.3 10 44.8 7.7-5 28.3" class="st30"/><path d="m1019.7 838.4-7.7 3.4-1.5 8.4 4.4 4.1-3.7 18.3" class="st30"/><path stroke-width=".99997" d="m1008.278 902.631 2.6-14.467 9.449 1.698-2.6 14.468z" class="st82"/><path stroke-width="1.99994" d="m1003.927 921.773 2.901-16.141 34.644 6.227-2.901 16.14z" class="st83"/><path d="M1113.5 1070.3c-7.3.9-14.7 1.7-22.1 2.6 1.2-.1 2.3.7 2.6 1.9s-.5 2.5-1.8 2.8l-133.1-.9c-1-.3-3.2-1.3-5-3.7-2.5-3.4-2-7.2-1.9-7.9l21.3-112.7 16.5-11.8 11.1-65.3c.2-1.4.8-6.8-2.7-12-2.9-4.4-7-6.1-8.4-6.6l-24.7-4.3c-.9-.3-3.1-1.2-4.7-3.5-2.5-3.5-1.7-7.3-1.6-7.9l3.2 5.3 31.6 5.5 5-3.7" class="st30"/><path d="m1091.5 1072.9-60.9-10.3c-.6-.3-1.9-1.3-2.8-3-1.1-2.3-.6-4.5-.5-5.1l3.1-18.8 9.5 1.5.3-1.4 9.1 1.7-1.5 8.8c19.6 3.4 39.2 6.8 58.8 10.1" class="st30"/><path d="m1056.5 957.1-16.6-2.8-19.1 112.5c-.1.3-.4 2.6 1.2 4.5 1.5 1.9 3.7 2.1 4.1 2.2l60.4.3v-1.7M1026.6 1032.6l21.2 4.3" class="st30"/><path stroke-width="1.99994" d="m986.289 1044.588 17.637-98.124 20.176 3.626-17.637 98.125z" class="st83"/><path d="m1011.8 869.8-3.7 2.7-8.7 50 6.5 16.2-1.6 7.9" class="st30"/><path d="m1004.5 945.7-9.6-1.3-15.9 12.9-17.7 94c-.2 1.1-1.6 7.8 2.8 14 3.8 5.3 9.3 6.6 10.6 6.8l31.4.9c1.3-.7 3.6-2.3 5.4-5.1 3.2-5.2 1.9-10.7 1.6-11.8 3.1.5 6.2.9 9.2 1.4" class="st30"/><path d="M986.8 944h7.6v2.9h-7.6z" style="stroke:#000;stroke-width:1;stroke-miterlimit:9.9998" transform="rotate(-40.1 990.536 945.465)"/><path d="m1041.7 945.8-7.4-1.3 3.1-16.7M1011.4 884.7l-3.8 21.1M1004.4 921.8l-.1 4.7 5.9 13.2 17 3 2.7-16.3M1005.9 938.7l4.3.8M1004.4 924.7l25 4.5M986.8 1044.7l-5.5-1.1-2.8 14.3-5.1-1-1.3 7 20.5 3.8 4.1-21.1" class="st30"/><path stroke-width=".99997" d="m999.488 1050.517.584-3.248 6.397 1.15-.583 3.248z" class="st82"/><path d="m1003.8 947.6-7.4-1.3-14.1 13.7-3.4 19.2 3.2 6.4-5.2 5.4-3.2 19.4 3.7 6.3-4.9 5.4-1.6 13.8 3.4 6.1-4.8 5.3-1.8 14.8 4.6.6M974.3 1042l12.2 1.7M977.4 1016.7l12.2 1.8M982.1 985.6l12.2 1.4M1144.7 571.7l-.4 8.3c2.1 1.7 4.5 4.7 7.4 8.2 5.9 7.2 9.2 14.4 12.3 23.7 5.3 16 7.5 23.9 8.9 34.9s2.2 27.7-2.2 47.3c-3.6 16.2-9.5 28.9-14.5 37.7-1.4 3.1-3.8 7.5-7.8 11.7-3 3.2-6 5.5-8.4 7-1.3 7.4-2.5 14.5-3.8 21.9M1162.4 586.8l9.6 46.4" class="st30"/><path d="M858 573.5c147.7-2.2 255.5-2.1 268.1.1 8.9 1.5 15.4 6.2 15.4 6.2 1.3 1 6 4.3 10.3 11.5 16.4 27.1 19.1 57.2 19.1 57.2 4.6 50.9-16.6 84.8-23.2 92.2-4.8 5.5-10.5 8.7-10.5 8.7s-7 4-16.1 4.9c-12.1 1.2-123.6-.7-276.3-4.5" class="st30"/><path d="m1148.4 571.5-290.3-2.6-.8 37.1-19-.4" class="st30"/><path d="M837.3 731.8c1 1.9 2.4 4.2 4.7 6.5 1.1 1.1 2.2 2.1 3.2 2.8l274.7 4.2c3.4-.1 9-.8 14.7-4.1 5.8-3.4 9.3-8.3 12.1-13.6 20.2-38.5 15.9-77.5 15.9-77.5-1.3-11.7-4.9-30.3-16.3-51.2-1.3-2.5-4-6.9-9-10.8-4.8-3.7-9.6-5.2-12.3-5.8l-216.2-.9c-3.5.2-9.7 1.1-16.4 4.9-5.4 3-8.9 6.7-11 9.2l-52.1 77.9c-1.8 3.6-4.2 9.6-4.7 17.3-.3 4.8.3 9 1 12.1z" style="fill:#79ae35;stroke:#000;stroke-miterlimit:10"/><path stroke-width=".99995" d="m1148.263 571.45.072-3.2 15.595.35-.071 3.2zM1172.992 571.977l.072-3.199 14.196.318-.072 3.2z" class="st80"/><path d="M736.7 573.6c-.1.5.1 1 .4 1.3.5.3 1.3.2 1.7-.4l5.7-9.2c37.9 1.2 75.7 2.4 113.6 3.6M1136.9 768.5l-51.4-9.4-.3 11.7-131.4-1.4.2-8.6" class="st30"/><path d="m901.8 751.2-.3 13.1 52.4 1.2M901.7 757.3l183.8 2.1M901.6 759.9l183.8 2.7M953.9 762.8l131.3 1.2M953.8 767.7l131.3 1.3M953.9 766l131.4 1.5M953.9 764.4l131.4 1.3M1033.2 758.8l-.2 11.2M857.9 581.4h22.7c-18.9 29.6-34 51.4-44.8 66.5s-21.6 29.5-19.5 46.5c.7 5.8 2.6 13.5 6.2 23.4 3.2 8.7 6.5 15.7 8.9 20.5.7 1.7 2.1 4.2 4.6 6.5 1.2 1.1 2.3 1.8 3 2.2" class="st30"/><path d="m780.5 567.8 72.2 47.9-62.1 93.7-36.5-24.2-6.9 11.7-4.3-3-31.4 25.5c-3 1.1-6.5 0-8.2-2.6-1.6-2.3-1.5-5.5.2-7.9l10.3-8.6-15.1-11.8 3.2-4 7.2 5.4 12-18-7.9-5.9 3-3.9 7.8 5.6 1.1-1.3-7.1-5.2z" style="fill:#b22606;stroke:#000;stroke-width:2;stroke-miterlimit:10"/><path d="m824.3 567.9-.3 28.7M803.3 582.9l6.5-15.5M661.5 663.6l37.2 24.8M705.3 677.3l5.6 4-4.7 6.3M690.4 676.2l11.3 8.5" class="st30"/><path d="m691.5 674.7 14.1 10.8 2.8-3.8-4.1-3.1M671.6 670.3l-4.3 5.9 4.1 2.4-13.8 19.6" class="st30"/><path d="m669.8 677.7-13.6 19.6 8 5.3 17.2-25.8" class="st30"/><path d="m662.7 701.6-194.1 302c-.6 2.2-.2 4.3 1.1 5.3.6.4 1.6.9 2.5.5.4-.1.9-.4 1.2-.9.5-.7.5-1.5.4-1.8v-6.1" class="st30"/><path d="m470.5 1000.7 81.5.9 3.2 8.7 66.7.2 14.5 60.8s.7 2.3 1.8 2.4 98.9.3 98.9.3l190.8.3 2.9-14c.3-2-1.1-3.9-3-4.2s-3.7.9-4.1 2.8c-.7 2.8-1.4 5.7-2.1 8.5l-5.9-2.3-.8 2.3-5.5-2.4-.7 2.1-5.7-2.2-.5 2.4-5.9-2.3-.7 2.5-5.7-2.6-.5 2.6-5.8-2.4-.7 2.1-5.7-2.2-.7 2.1-5.7-2.1-.7 2.1-5.6-2-.7 2.3-5.7-2.2-.6 2.2-5.6-2.2-.8 2-5.7-2.1-.6 2-6-2.1-.2 2.3-6.2-2.6-.2 2.5-5.9-2.2v2.2l-6.4-2.3v2.3l-6.2-2.3-.1 2.1-6.3-1.9-.1 2.4-6.4-2.4v2.3l-6.2-2.3-.9 4.3-42.5-.7-1.3 1.5v3.9" class="st30"/><path d="M749.7 1070.2h174.8l3.2-13.9M930.7 1060.5l21.6 4.6M723.3 581.3l-28 41.3-6 .3 31-46.2 3 4.6 13.3-7.7 6-9.2c.3-.5.9-1.3 2-2 .9-.5 1.8-.7 2.3-.7l442.2 7.2M689.4 622.9 662.1 664 539.3 848.8s2.5 10.2 7.9 5.8S664 673.2 664 673.2M658.3 669.6l9.3 6.2" class="st30"/><path d="m678.9 638.7 49.4 2.6 49.6-74.9M664.7 665.7l17.4-25.8 35.1 22.8M691.7 646.1l29 1.5-8 12.1" class="st30"/><path d="m703.9 654.1 1.7-2.4 6.2 4.2-1.5 2.3z" style="stroke:#000;stroke-miterlimit:10"/><path d="m547.2 854.6-119.7 187.3-3.7 16.2h2.2l-2 8.7 5.8 1.7.9-1.4 6 1.8.2-1.7 6.1 1.7.1-1.6 6.3 1.5.5-2 6.4 2 .5-1.9 6.1 2 .5-1.8 5.6 1.8.5-1.8 6.4 1.6.4-1.6 6.1 1.8.4-2 5.8 1.7.4-1.6 6.3 1.8.5-1.8 5.9 1.8.5-1.7 6.2 1.6.4-1.8 6 2" class="st30"/><path d="m535 873.7-5-10.9-124.2 187c-4.9 8.4-5.4 16.9-1.4 20.9.8.8 2.1 1.7 4.2 2.3l107.2.6s1 0 1.7-2.1 3.1-13.3 3.1-13.3c-.2-.8-.8-1.3-1.5-1.3-.8 0-1.2.7-1.2.7l-2.9 11.2s-.3 1.4-.8 1.4-91.9-.2-91.9-.2c-1-.3-9.4-3.1-12-11.3-1.1-3.5-.7-6.6-.3-8.4l33-48.8 11.6-1.8M661.4 671.7 541.1 853.2M530.9 866.8l-89.3 134.7" class="st30"/><path d="M515.5 1026.4c3.2 1.5 5.1 4.4 5 7.3-.1 2.3-1.4 5-2.7 5-1 0-2.5-1.8-4.1-10.1l-6.5 1.9v-1.8l-7 1.7v-1.5l-6.5 1.8v-1.7l-6.5 1.7-.6-1.7-6.4 1.6v-1.4l-6.5 1.4v-1.7l-6.8 1.6-.2-1.7-6.1 1.7-.6-1.8c-2 .5-4.1.9-6.1 1.4 0 0 2.5 6 2.1 8s-6.9.8-6.9.8c-2.7-.9-4.6-3.2-4.9-6-.3-3 1.4-5.9 4.2-7.2l67.1.9M608.5 1023.5l-58.3-.3s-1.9 1.1-1.8 1.7-3 11.7-3 11.7c-.5 1.9.7 3.8 2.3 4.1 1.3.2 2.8-.6 3.4-2l-1.3-7.2 6.1-1.9.1 2 6.9-1.7v1.9l6.7-1.9v2.1l6.7-2.2v2.3l6.5-2.2.1 2.3 6.9-2 .1 2.2 6.2-2.4-.1 2.6 7-2.2.2 2.4 5.9-2.6 2.8 13.1c.3 1.4 1.5 2 2.1 1.8.5-.2.9-1.1.7-2.1 0 0-4.1-18.5-5-18.9-.7-.4-1.2-.6-1.2-.6z" class="st30"/><path d="M549.9 1031.5h-1.6l-1 4.7c-.1 1.3.8 2.4 1.9 2.4.8 0 1.5-.6 1.8-1.5M550.7 1025.4l17.4.4c.4.1.8.5.8.9.1.5-.3 1-.8 1.2l-17.3-.4c-.7.1-1.2-.5-1.2-1.1 0-.5.5-.9 1.1-1zM571.9 1025.9l17.4.4c.4.1.8.5.8.9.1.5-.3 1-.8 1.2l-17.3-.4c-.7.1-1.2-.5-1.2-1.1 0-.5.5-1 1.1-1zM592.9 1026.5l15.8.3c.4.1.7.4.8.8.1.5-.2.9-.7 1.1l-15.7-.3c-.6 0-1.1-.4-1.1-1-.1-.5.3-.9.9-.9zM637.4 1073.4l-19.4-.2-1.8.8-75.5-.5-.9-.1" class="st30"/><path d="m618 1073.2-2.4-12.7c-.2-2.6-1.6-4.3-2.7-4.3-1.2 0-2.7 2-2.6 5l-1.8 7.5-6-1.2v1.9l-6.7-2.2v2l-6.4-2.1v2.2l-6.3-2.3v2.2l-6.7-2.4v2.3l-6.7-2.3v2.3l-6.2-2.5-.1 2.6-6.6-2.7-.1 2.6-6.8-2.7-.1 2.6-5.8-1.7 1.9-7.6c0-1.8-.6-3.3-1.5-3.5-1-.2-2.6 1.2-3.1 3.8l-2.4 10.5.9 3.1c-7.7-.2-15.4-.3-23.1-.5" class="st30"/><path d="M545.5 1061c-.1-.1-.6-.4-1.3-.3-.6.1-.9.5-1 .6l-1.7 7.3s-.2 1 .4 1.6c.4.4.9.4 1.1.4l71 .6c.3-.5.5-1.1.7-1.7 1-3.6-.7-6.9-1.4-8-.1-.1-.5-.7-1.3-.9-.9-.2-1.5.4-1.6.5" class="st30"/><circle cx="805.5" cy="733.3" r="4.1" class="st30"/><circle cx="817.9" cy="878" r="6.9" class="st30"/><path d="m953.5 975.9 7.2-34.8 15.7-10.5c.8-.5 1-1.5.7-2.2-.3-.6-1-1-1.7-1l-7.7.5v-5.3h1.6l.2-6.6h1.2l.2-6.3h1.3l.1-6.4h1.3l.1-5.7h1.3l.2-6.4h1.2l.2-6.3h1.3l.1-6.4 8.9-.5c1.7-.6 2.9-2.1 3-3.7 0-2-1.7-4-4.1-4.1l-21.8-4c-2 .5-3.3 2.3-3.1 4.1.1 1.3 1.1 2.5 2.4 3.1l10.7-.4-.1 5.9h-1.4l-.2 6.3h-1.2l-.2 5.8h-1.2l-.1 6.3h-1.3l-.1 6.3h-1.3l-.1 6.5h-1.4l-.1 5.6h-1.4l-.1 6.2h-1l-.2 6.5h-1.5l-.1 6.2h-1.3l-.2 6.2h-1.3l-.2 6h-1.2l-.1 6.3H955l-.2 6.3h-1.3l-.2 6.6-8.4-.1s-.7.2-.8.8c-.2.5.1 1.1.6 1.4l7.3 7.6c.2.4.5.7.9.7.3-.2.5-.4.6-.5zM819.7 1027s-2-9.2-3.3-8.9-25.4 14.1-25.4 14.1c-.3.6-.6 1.6-.7 2.7-.1 1-.3 2.6.4 4.3 1.1 2.7 3.6 3.7 4.1 3.8.8.3 2.5.9 3.4.1.7-.7.5-1.9.4-2.2l-2.5-7.1 5-1.7 1 1.7 5.8-1.8.7 1.7 5.7-1.7.7 2 5.7-1.9.7 1.7 5.6-1.7.8 1.8 5.2-1.4.9 1.5 5.7-2.1 1 1.8 5.5-1.9.9 2.1 5.3-2.2 1.1 2 5.7-1.9.6 2.1 5.3-2 .5 2 6.1-2 .6 2 6-1.7v1.7l6-1.5v1.7l6.8-1.5v1.5l6.5-1.3v1.4l5.9-1.2v1.2l5.8-1.5v1.1l7-1.4v1.8l6.5-1.8v1.9l6.3-1.9 2.7 8.5c.1.1 1 1.6 2.8 1.7 1.3 0 2.6-.8 3.2-2.1l3.5-22.7c-1.8-.6-5.5-1.8-8.2-1.7-1 0-1.7.2-2 .6-.3.5.1 1.2.2 1.4 1.4 2.8 3 5.9 2.5 7.4-.3.9-1.5 1.9-6 2.2v-2.1l-6.8 2.3.1-2.3-6 2.2.1-2.1-6.9 2.2v-2.2l-6 2.1.1-2.3-6.7 2.3.1-2.5-6.4 2.5.1-2.4-6.6 2.3v-2.3l-6.3 2.5.1-2.6-6.7 2.5.1-2.6-6.3 2.6.1-2.6-6 2.5v-2.6l-6.2 2.8.1-2.8-6.8 2.9v-2.8l-6 2.4.1-2.6-6.8 2.5.1-2.8-6.6 2.9v-2.7zM1253 688.8l-10.9-1.7-16 90.7 11 1.9M1227.1 772.3l11 1.9M1228.1 766.8l10.9 1.9M1229 761.4l10.9 2M1230 756.1l10.8 2.1M1230.9 750.8l10.9 2.1M1231.8 745.3l11 2M1232.7 740.3l10.9 1.9M1233.7 734.8l10.9 2M1234.7 729.3l10.8 2M1235.6 724l10.8 2.1M1236.5 718.8l10.9 1.8M1237.5 713.4l10.8 1.9M1238.4 708.1l10.9 1.9M1239.4 702.7l10.8 2M1240.3 697.5l10.8 1.8M1241.2 692.1l10.9 1.8M1166.8 766.7l10.9 2.3 15.1-75-10.8-2.1M1178.8 763.5l-10.9-2.3M1179.9 758l-10.9-2.2M1181 752.7l-10.9-2.1M1182.1 747.4l-10.9-2M1183.1 742.2l-10.9-2.1M1184.2 736.7l-10.8-2.2M1185.2 731.6l-10.8-2.1M1186.3 726.2l-10.8-2.2M1187.4 720.7l-10.8-2M1188.5 715.4l-10.8-1.9M1189.6 710.2l-10.8-2.2M1190.7 704.9l-10.9-2.2M1191.7 699.6l-10.8-2.1M1183 780.5l2.1-11 32.4 6.4-2.1 10.5M1190.6 770.6l-2.1 10.9M1196.1 771.7l-2.1 10.9M1201.4 772.8l-2.2 10.8M1206.7 773.8l-2.3 10.8M1212 774.8l-2.3 10.9M1192.8 758.9l21.6 4.4 13.8-69.5-21.3-4zM1203.4 761.1l14-69.5M1193.9 753.5l21.6 4.2M1195 748.2l21.6 4.1M1196 743l21.6 4.1M1197.1 737.7l21.6 4M1198.2 732.2l21.6 4M1199.3 726.7l21.5 4.2M1200.4 721.5l21.4 4.3M1201.5 716.2l21.4 4.2M1202.6 710.8l21.4 4.2M1203.6 705.7l21.4 4.2M1204.7 700.2l21.4 4M1205.8 694.9l21.4 3.9M1192.1 641.6c-1.2-.2-2.8 1.1-3.1 3.2l-1.4 16.4c0 1.3.8 2.3 2 2.6 1.3.4 2.8-.4 3.3-1.8l5.1-11.4-5.8-2.3.4-1.1c1.2-.9 1.8-2.3 1.4-3.6-.2-.8-1-1.8-1.9-2zM1239.9 660.8l5.3-10c1-.7 2.2-.9 3.3-.4s1.8 1.6 1.9 2.8l-2.8 16.4c-.4.9-1.3 1.4-2.3 1.3-.9-.2-1.6-.9-1.8-1.8l2.1-5z" class="st30"/><path d="m1196.8 652.9 5.5 2.8 1.9-3.9-5.6-2.6-.6 1.4M1235.1 657.4l-1.8 4.1-5.5-2.5-.6 1.3-5.7-2.7" class="st30"/><path d="m1234 659.8 5.4 2.9.9-1.7M1204.2 651.8l.7-1.5 5.6 3 .9-1.8 5 2.5M1192.5 662.7l5.1 2.8 4.7-9.8M1198.3 664.2l5.6 2.6 4.8-10" class="st30"/><path d="m1204.6 665.2 5.4 3 4.6-10.2" class="st30"/><path d="m1210.7 666.6 5.7 2.7 4.4-10.1M1217.1 667.7l5.5 2.7 4.6-10.1M1223.3 668.9l5.5 2.5 4.5-9.9" class="st30"/><path d="m1229.5 669.8 5.4 2.9 4.5-10" class="st30"/><path d="m1235.6 671 5.5 2.9 2.6-5.1M1194 643.9l2.9-5.7 5.8 2.8-4.5 9.2M1202.7 641l.7-1.5 5.4 2.5-4.1 8.7" class="st30"/><path d="m1208.8 642 .7-1.4 5.7 2.6-4.2 9.2M1215.2 643.2l.7-1.6 5.4 2.6-4.5 9" class="st30"/><path d="m1221.3 644.2.7-1.3 5.3 2.5-4.7 9.6-1.8 4.2-5.6-2.6M1227.3 645.4l.8-1.5 5.6 2.6-4.9 9.8" class="st30"/><path d="m1235.9 655.7 4.5-9.4 5.3 2.5-4.6 9.7-5.2-2.8-.8 1.7-5.5-2.6-.8 1.5-5.4-2.8-.8 1.5-5.4-2.6-2.6 5.6-5.2-2.4-.7 1.2-5.7-2.6" class="st30"/><path d="m1233.7 646.5.8-1.4 5.2 2.6M523 919l21.3.5M524.7 916.3l40.7.9-.2 5.7 37 .8-.7 27 3.9 3.7-.1 4.4" class="st30"/><path d="M599.3 925.8h1.3L600 951l4.1 3.9v3.8M474.3 994.8l58.7 1.3 7.8-8.2 15.9.3M530.5 996l10.3-10.7" class="st30"/><path d="m556.5 993.2-14.2-.3s-3.2 3-3 3.1l17 .4M581.1 994.9l26.3.6 3.6 3.1 13.2.3M622 987.4l10.1 48.2 74.6 26.8 17.1.4" class="st30"/><path d="m616 987.3 1.3 5.7 1.4 5.8M617.3 993l5.9.2M617.7 994.4l5.8.2M618 995.7l5.8.1M618.4 997.2l5.7.2M711.6 719.3l-42 33.7" class="st30"/><path d="M644.7 758.4h27.5v5.6h-27.5z" style="fill:none;stroke:#000;stroke-width:1;stroke-miterlimit:10.0002" transform="rotate(-38.922 658.467 761.157)"/><path d="m648.1 770.3-34.6 27.8c-5.8 5.9-21.1 22.9-24.9 49.6-2.9 20.1 2 36.3 4.8 43.6 3.4 9.1 7.7 16.1 11.2 20.9l102.9 147c29-16.1 58.2-32.3 87.2-48.5M670.9 754.7l3.4-5.4M649.5 772l-6.3 2.3M823.1 836.9l-48.2 33.7 35.1 50.7 42.3-29.4c.2.2 3.4 3 7.7 2 3-.8 5.3-3.1 6.1-6.2.7-3.6-.8-7.2-3.7-9-3.2-2-6.7-.8-7.2-.6l-29.8-42.9c-.5-.3-1.1-.3-1.6 0-.6.3-.9 1-.7 1.7z" class="st30"/><path d="m823.1 836.9 32.6 45.4 4 .1-.1 2.4 3.3.1-.1 3.1h-3.6v1.4l-3.9-.1.1-3.1 2.4.1" class="st30"/><path d="m855.7 882.3-.1 2 3.9.1M857.8 884.4v1.9h1.5l-.1 1.4M808.8 919.5l46.6-32.5M814.7 913.2c11.7-8 23.3-16.1 35-24.2-.3-.8-1-3-.2-5.6.5-1.7 1.5-2.9 2.1-3.5l-24.7-35.3c-.5.3-2 1.2-4 1.1-2.8-.2-4.4-2.3-4.6-2.6L783 867.7c.3.6 1 2.2.8 4.2-.3 2.7-2 4.3-2.4 4.8l24.4 34.9c.7-.3 2.6-.9 4.9-.4 2.1.3 3.5 1.4 4 2z" class="st30"/><path d="M814.6 877.2h4.4v2.1h-4.4z" style="stroke:#000;stroke-width:1;stroke-miterlimit:9.9995" transform="rotate(-88.716 816.825 878.239)scale(.99995)"/><path d="m675.6 1013.7 133.8-93.4M808.3 918.8l-133.8 93.4M731.8 702.9l92.1 132.2M730.5 703.9l93 133.5M747.3 696.8l10 6.3 56.9 66" class="st30"/><path d="M785.5 735.8c-.3.9-.8 2.6-.1 4.1.1.1.1.3.2.4.8-.5 1.6-1.1 2.3-1.7M785.2 735.9c-.9.2-2.7.4-4.1-.6l-.3-.3 2-2M912.7 827.2c5 5.8 12.4 15.9 17.1 30.2 5.9 18.1 4.5 33.7 3.2 41.8-1.2 6.7-3.6 16.2-9.3 26.4-8.2 14.7-19 23.6-25.4 28.1M892.6 957.4l-97.3 54-20.3-35.5 94.8-52c4.1-2.3 15.7-9.5 21-23.8 6.2-16.5 1.6-36-11.6-50.2l-67.9-77.8 29.9-26.1 71.1 81.9" class="st30"/><path d="m780.1 973 1.9 3.2-3.5 1.9M784.8 970.5l1.8 3.2-3.2 1.8M789.5 967.9l1.8 3.3-3.3 1.8M794.3 965.3l1.9 3.2-3.6 1.9M799.2 962.6l1.7 3.3-3.2 1.8M803.9 960l1.7 3.3-3.2 1.8M808.6 957.5l1.8 3.2-3.3 1.8M813.3 954.9l1.7 3.3-3.2 1.8M818.1 952.3l1.7 3.2-3.3 1.9M822.8 949.7l1.8 3.2-3.1 1.8M827.7 947l1.8 3.3-3.4 1.8M832.3 944.5l1.9 3.2-3.2 1.8M837.2 941.8l1.9 3.2-3.6 2M842 939.2l1.8 3.2-3.4 1.9M846.6 936.6l1.9 3.3-3.1 1.7M851.3 934l1.9 3.3-3.2 1.8M814.7 776l3-2.3-2.5-2.8M818.3 780.1l2.8-2.4-2.4-2.8M821.8 784.1l2.9-2.3-2.4-2.7M825.6 788.4l2.7-2.5-2.6-3M829.2 792.6l2.8-2.5-2.7-3.1M832.7 796.5l2.8-2.5-2.5-2.8M836.3 800.6l2.7-2.5-2.7-3.1M839.8 804.8l2.9-2.6-2.5-2.8M843.4 808.8l2.8-2.5-2.5-2.9M847 813l2.9-2.5-2.7-3M850.5 817l2.8-2.5-2.4-2.8M854.2 821.1l2.8-2.5-2.6-2.9M857.7 825.2l2.7-2.7-2.7-3.1M861.2 829.2l2.8-2.5-2.4-2.8M864.8 833.4l2.8-2.7-2.5-2.8M856.2 931.4l1.9 3.3-3.2 1.7M861 928.8l1.8 3.3-3 1.6M865.7 926.2l1.9 3.3-3.2 1.7M871.9 922.7l2 3.3-4.5 2.5M876.5 919.4l2.4 3-3.3 2.5M880.9 915.5l2.7 2.5-3.2 3.1M868.3 837.4l2.9-2.5-2.6-3M872 841.6l2.8-2.6-2.5-2.9M875.6 845.8l2.9-2.6-2.8-3.2M879.2 849.8l2.8-2.6-2.6-3M883.6 855.2l2.9-2.7-3.6-4.3M886.9 860.3l3.3-2.4-2.9-4.4M889.4 865.5l3.7-1.8-2.2-4.5M891.4 871l3.8-1.5-1.5-4.3M892.7 876.2l4-.3-1-5.1M893.5 882.3l3.8.1-.4-5.2M897.3 883.8c0 2.5-.1 5.7-.7 9.1-.5 2.8-1.2 5.3-1.9 7.4M890.6 900.6l3.5 1.4-2.1 4.6M888.1 905.9l3.1 2.1-2.5 3.9M884.8 910.9l2.9 2.4-2.8 3.4M844.9 838.1l-5.1 3.8-8-10.8 5.1-3.8" class="st30"/><path d="m794 1009.1 105.2-58.9c6.2-4.8 16.9-14.3 24.4-30 9.4-19.5 8.5-37.5 7.5-45.9-2-16.7-8.6-28.9-12.8-35.3-26.2-30.6-52.3-61.2-78.5-91.9" class="st30"/><path d="m793.1 1007.7 103.6-58c6.2-4.8 17.7-14.8 25.2-30.5 9.4-19.5 7.7-37 6.7-45.5-2-16.7-8.6-28.9-12.8-35.3-26.2-30.6-51.3-59.5-77.5-90.1" class="st30"/><path d="m792.3 1006.2 101.3-56.8c6.2-4.8 18-13.4 25.5-29.1 9.4-19.5 8.3-37.7 7.3-46.2-2-16.7-7.8-28.5-12-34.9-26.2-30.6-51.2-59.2-77.3-89.8" class="st30"/><path d="m791.6 1004.6 100.2-56.3c6.2-4.8 17-11.6 24.6-27.3 9.4-19.5 9.2-36.9 8.2-45.3-2-16.7-7.9-28.9-12-35.4-26.2-30.6-50.8-58.9-77-89.5" class="st30"/><path d="m790.6 1003.2 100.6-56.3c6.2-4.8 17-13.9 24.5-29.6 9.4-19.5 6.8-37.3 5.8-45.7-2-16.7-6.8-24.4-11-30.9-26.2-30.6-50-58.2-76.2-88.8" class="st30"/><path d="m789.8 1001.8 99-55.4c6.2-4.8 17.7-15 25.2-30.7 9.4-19.5 6.3-36.7 5.3-45.1-2-16.7-6.6-23.3-10.7-29.8-26.2-30.6-49.4-57.1-75.5-87.7" class="st30"/><path d="m789 1000.3 97.7-55.2c6.2-4.8 16.7-12.8 24.2-28.5 9.4-19.5 7.5-37.1 6.5-45.5-2-16.7-6.1-22.6-10.3-29-26.2-30.6-49.3-57.2-75.5-87.8" class="st30"/><path d="m788.1 998.8 96.8-54.8c6.2-4.8 16.1-11.2 23.6-26.8 9.4-19.5 8.2-36.4 7.2-44.8-2-16.7-6.2-22.6-10.3-29.1-26.2-30.6-48.9-57.2-75.1-87.8" class="st30"/><path d="m787.3 997.4 95.3-54.1c6.2-4.8 16-10.3 23.5-26 9.4-19.5 8.7-36.6 7.7-45-2-16.7-6.4-21.6-10.5-28.1-26.2-30.6-48.4-56.8-74.6-87.4" class="st30"/><path d="m786.4 995.9 93.9-53.2c6.2-4.8 16.5-10.1 24-25.8 9.4-19.5 8.7-36.7 7.7-45.1-2-16.7-6.3-20-10.4-26.5-26.2-30.6-48.1-56.6-74.3-87.2" class="st30"/><path d="m785.5 994.2 93.5-53c6.2-4.8 16.3-9.6 23.8-25.3 9.4-19.5 8.3-36.5 7.3-44.9-2-16.7-6.3-18.7-10.5-25.1-26.2-30.6-47.6-55.9-73.8-86.6" class="st30"/><path d="m784.5 992.4 91.8-51.9c6.2-4.8 16.7-9 24.2-24.7 9.4-19.5 8.3-37.3 7.3-45.8-2-16.7-5.5-16.5-9.7-23-26.2-30.6-47.8-55.8-73.9-86.4" class="st30"/><path d="M783.3 990.4 874 940c6.2-4.8 17-8.4 24.5-24.1 9.4-19.5 8.6-36.9 7.6-45.3-2-16.7-6.1-16.6-10.2-23.1-26.2-30.6-47-54.8-73.1-85.4" class="st30"/><path d="M779.2 983.2 884 923.9c3.2-3.3 19.3-20.9 17.3-46.1-.9-10.4-4.2-18.5-7.2-23.5-25.6-29.2-51.2-58.3-76.8-87.5M800.2 971.5l4.1 7.2M798.5 972.3l4.1 7.3M807.6 967.2l4.1 7.4M801.7 974l7.4-4.1M845.3 945.9l4.1 7.7M843.6 946.9l4.1 7.7M853.1 941.5l4.2 7.7M846.9 949l7.9-4.3M873.8 929.9l4.3 7.3M880.3 926.2l4 6.9M882.4 925l3.8 6.7M875.8 933.2l6.4-3.8M833.2 784.9l5.2-4.4M830.8 782.2l5.4-4.3M838.9 791.3l5.2-4.2M841.2 794l5.2-4.2M835.5 783l5.6 6.6M865.1 821.3l4.7-4.2M867.7 824.2l4.6-4.2M873.2 830.4l4.4-4.1M875.3 832.9l4.4-4M870 822.1l5.4 6.2M889.2 848.7l4.2-4M893.6 853.8l4.3-3.4M895.3 856.5l4.9-3.4M821 763.9l13.3 15.4M844.4 791.5l23.6 27.2M878 830l13.9 16.1M819.1 765.2l13.4 15.6M842.9 792.7l23.5 27.4M876.6 831.7l13.9 15.8M782 987.6l19.1-10.7M780.3 985.2l19.4-10.9M810.3 972.1l36-20.1M808.8 969.4l35.9-19.9M855.9 946.7l20.9-11.8M854.4 943.9l20.8-11.7" class="st30"/><path d="M897.8 854.8c2.5 5 5.5 13.5 6.3 24 1 15-3.8 25.8-5.5 29.4-4.4 9.7-10.1 16.4-14.2 20.1M818.6 933.2l-3.7-5.2 11-7.7 3.7 5.2M719.6 1052.4l-.2 10.2M846.3 751.8l55.5 1.2 218.1 4.2" class="st30"/><path d="m885.5 778.7 38.5 44.7c4.4 6.1 9.5 13.4 13.6 22.5 5.5 12.3 8.5 23 11.3 32l-15.9 78c-1 3.9-4 6.8-7.7 7.4-3.8.6-6.8-1.6-7.3-2l-8.1-7.9 10.7-11.2c5.3-6.8 18.5-25.7 20.2-53.4 1.8-30.4-11.4-52.2-16-59.2l-42-48.4c6.2-5.5 12.4-11.1 18.5-16.7M795.3 1011.5l1.2 2.1 20.2-11.8 19.5.4 3.8-14.4 5.9 1.5.5-1.9 5.9 2.1.3-1.9 6.2 2.3.6-2.2 5.7 1.8.4-1.6 5.9 1.9.9-1.8 5.5 1.8.8-1.7 5.5 1.8 1-1.7 5.4 1.9 1.2-1.7 5.2 1.8 1.1-1.6 4.7 1.7 1.6-1.8 5.3 1.4 1.3-1.3 5 1.4.7-1.3 5.6 1.2.6-1 5.7 1v-1.8l5.9 1.6-3.2 10.8c6.1 2.9 12.1.4 13.4-3.4.9-2.5-.3-5.7-2.6-8.1l-30-8.8M918.1 961.1l-8.6 28.7M863.3 973.7l-4.1 14.2M870.7 969.6l-5.7 19.6" class="st30"/><path d="m872.6 968.5 34.4 9.9-2.7 9.9M871.5 780.8l11.5.2M890.2 774.5l1.7 1.8c.1.1 2.7 1.8 5.1.6 1.1-.5 1.7-1.4 2-1.9l-4.3-4.6M891.9 776.3c1 1.8 1 4-.1 5.4-.7 1-1.7 1.4-2.2 1.6M737.3 1070.4l-94.5-.2c-.4-.1-1.1-.3-1.8-.8-.9-.7-1.2-1.6-1.3-1.9l-6-24.3 76 27.2" class="st30"/><path d="m796.1 1012.8-72 39.7-.3 15.1 11 .2c.3 0 .8.2 1.3.6.9.7 1 1.7 1 1.9v3.8" class="st30"/><path d="m1557.2 1107.9 1.8-2.8 8.1 4.4-1.3 2.4 6.3 2.9 30.8-66.3 7.5 3.8 8-17.6-8-3.8 19.1-40.1-6.1-2.8-1.3 2.9-9-4.3 1.3-2.6-13.6-6.3s-2.7-2-3.8-.3c-.2.3-.3.6-.4.8-.1.5.2.4.2.6l2.6 2.1.5.4-13.3 27.8-.8 1.7 2.7 8.7-12.4 3.8s-2.8-3.9-6.5-4.4c-1.5-.2-3.1.1-4.9 1.6-6.5 5.2 4.7 26.5 4.5 26.8l-23.9 50.9s-5.2-2.8-4.8.8c.1.8 1.4 1.5 3 2.3l4.6 2.3c4.7 2 9.1 4.3 9.1 4.3z" style="fill:#78b7ba;stroke:#000;stroke-width:2;stroke-miterlimit:10"/><path d="m1568.4 781.8 4.7 4.6 4.6-4.6 51.1 48.3-9 9.4 9.9 4.5-4.2 7.6-6.6-3-2.3 6.1-15.3-7.3.3-2.4-33.2-30.3-1.7.9-12.6-12.3 6.2-6.6-3-2.8z" style="fill:#b7a11c;stroke:#000;stroke-width:2;stroke-miterlimit:10"/><path d="m1694.2 879.9-103.9 244.3-129.6-31.1s-22.7-16.6-15.6-35.6 40.2-88.1 40.2-88.1l7.2-2.9 21.9 10.7 22.9-8.6 12.3 31.7-4.2 1.3 11.2 29.7 6.6-1.9" class="st30"/><path d="m1580.9 900-9.1-4.3 18.1-39.6 21.3 10.1" class="st31"/><path d="m1652.1 841.8-87.4-80.7M1550.3 1014.1l3.6-1.3 3.4 9.7 28.7-10.7M1586.8 1009c-2.8-2.8-1.2-7.8-1.2-7.8l11.2-22.2" class="st30"/><path d="M1586 1010.7s-4.6-3.2-.6-11.5l4.1-8.3 7.6-14.9M1599.4 976.9l-18.1-8 .7-20.4" class="st30"/><path d="m1582 948.9-5.9-2.8-.5 19.9s-3.5.8-8.1-12.5l-4.6-13.3 13 5.8M1512.5 976.1l26.7-9.6 3.2 9.1 29.2-11.7.5-.2M1538.9 966.7l28.9-11.1M1540 968.5l28.9-10.9M1540.7 970.6l28.9-11M1541.8 973l29-11.3M1540.3 976.5l2.3-1M1536.2 967.8l.3.7M1567.6 938.3l8.1 4 4-7.7-8.7-4z" class="st30"/><path d="m1571.7 932.7-2.3 5 5.4 2.6 2.5-4.8zM1563.9 940.8l18.1-38.6M1562.8 940.3l16.2-35.8M1562.9 940.4s-4.5-8.9-2.5-10c.6-.3 1.5-.7 2.4-1 2.5-.9 5.8-1.8 5.8-1.8M1562.8 929.3s-4.4-5.9-1.1-12 11.1-21.1 11.1-21.1M1568.6 927.2s-2.1-1.5-.7-5 9.2-18.7 9.2-18.7" class="st30"/><path d="M1567 927.9s-2.4-2.7-.8-6.8c1.7-4.4 8.7-18.6 8.7-18.6M1570.7 900.5l.1-.2 9.8 4.9M1572 897.7l10 4.8M1588.6 837.5l10.1 5.1M1587.2 838.6l14.1 6.8M1600.5 850.7l14.7 7.1-4 8.4-1 2.2M1586.4 840.1l14.9 7.3M1584.9 841.4l15.8 7.5M1583.8 843l17.4 8" class="st30"/><path d="M1600.6 851.3v-2.5l3.8.3M1554 829.3l27.3 12.9M1580.9 842.3l7.5-8.5M1588.7 837.1l-5.3 5.9M1588.4 837.5l-1.1-2.3M1583.6 842.8l-1.9-1.5" class="st30"/><path d="m1514.4 912.4 14.1 4.6 3.6-1.9 22.2 6.3s2.3-4 2.2-4.2-4.3-11.2-4.3-11.2l-12.4-5.7-7.2 2.2-11.2-5.4z" class="st92"/><path d="m1522.1 899.6 10.6 5.3 6.5-2.7 11.2 4.9 3.5 8.7v3.2l-21.4-6.5-4.5 1.8-10.6-3.2zM1497.4 944l13.9 5.5 3.9-9.5-14.3-5.4z" class="st92"/><path d="m1502.2 937 10.7 4-2.3 6.1-11-4.2zM1566.1 763.3l-3.5 9.7 2.1.9-14 33.4 4.1 20 26.9 12.8" class="st92"/><path d="m1564.7 762.1-4.6 12.1 2.3.7-12.8 32.5 4.4 21.7" class="st92"/><path d="m1531.8 883.4-17.2 13.4-56.4 130.3M1448.6 1040.6l69.7-166.3 7.3-6.6 26.4-64.8-2.6-18.6L1855.6 0" class="st30"/><path d="m1511.3 891.6-.6.8c-23.2 55.4-46.4 110.9-69.6 166.3-.3 2-.6 4.5-.5 7.3.1 3.3.6 6.1 1.2 8.2.8 3.1 2.4 7.8 6 12.8 3.6 5.1 7.7 8.2 10.4 9.9l138.7 33.8L1827.5 570l219.8-529.8M1858.3.8l-293.6 761.3" class="st30"/><path d="M1510.8 892.5c-.8.4-1.6.8-2.4 1.3-23.8 54.8-47.5 109.6-71.3 164.4-.5 4-1.4 16.6 6.7 28.7 4.3 6.4 9.4 10.2 12.9 12.3 41.3 10 102 24.9 143.3 34.9L2048 47.4M1237.9 1520.8l84.5-192 199.1 192" class="st30"/><path d="m1337.1 1520.8 12.2-26.5c.9-2.5 3.8-3.7 5.9-2.7 1.8.8 2.9 3 2.3 5.2-3.1 8-6.1 16-9.2 24M1899.4 1247.7l-56.2 61.1-59-52.1c-.2-.5-1.7-4.9.4-7.2 2.2-2.5 8.3-2.3 13.3 2.6l46.1 42 43.7-48.5-277.4-65-28.7 67.7 143.9 96.7 78.3 76.7-14.5 14.3-79.7-75.2-134.9-89-99.1 180.4c22.9 22.5 45.7 45 68.6 67.6" class="st30"/><g id="Capa_15"><path d="m0 1271.8 58.4-147.4h425.2l-77.2 300.2c-.7 2.8-2.6 12.7 2.5 23.4s14 15.3 16.6 16.6l124 31.8c3.8-.8 10.7-2.7 17.3-8.2 11.4-9.5 13.5-22.5 13.9-25.9l73-337.9h12.7L618 1358.1l32.6 4.8-17.4 75.7c-.7 4-.1 7.6 1.6 8.5 2 1 6-1 8.9-6.8l46.2-189.4-31.9-5.7 29.3-120.7h177.1l-50 209.2c-.8 7.6 1.6 12.3 4.1 13 2.7.7 6.8-3 9.9-11.9l47.9-210.2H1059l-8.2 49.2c-.8 6.9 2.5 12.5 6 13.2 3.9.8 10.2-3.9 11-12.5l9.6-49.9h202.3c4.4 1.8 16.2 7.2 24.7 20.2 10 15.3 8.7 30.9 8.2 35.3-45 113.4-90.1 226.7-135.1 340.1" class="st30"/><path d="m0 1333.3 86.7 35c1.1.6 7.5 4.1 14.9 1.6 4.4-1.5 7.1-4.5 8.2-5.9l130.1-163.7c3.1-3.9 7.2-5.2 8.9-4.1 1.8 1.2 2.2 6.1-1.2 10.8L117 1370.7c-1.5 1.9-5.1 6-11.2 8.4-7.7 3-14.5 1.4-16.7.7L0 1346.2M590 1520l9.4-31.4c1.9-3.4 5.6-5.1 8.8-4.1 3.5 1 4.7 4.5 4.9 4.9-2.7 10.2-5.4 20.4-8.1 30.7M935.6 1520l18.7-50-67.3-20.3c-2.9-3.4-3.7-8.1-2.2-12.2 2.2-5.6 7.7-7.2 8.3-7.4l70.6 19.1 21.6-55.8-73.1-18.4c-.5-1-2.8-6.1-.6-11.8 1.9-5 6.6-8.6 12.1-9.5l67.4 16.3 1.9-4.4 22.9 6.7-46.1 114.7 49.2 19.9c.3.4 3.4 3.9 2.4 8.4-.5 2.4-1.9 3.9-2.6 4.6" class="st30"/><path d="m956.3 1520 5.8-13.9 39.9 13.9M506.7 1124.5H638l-22.1 90.9-121.4-45.4zM489.4 1185l120.6 46.3-53.8 243.1-133-36.5z" class="st30"/></g><path d="M1832.8 1192.5c68.4 23.5 187.6 18.5 214.9-49.8M1899.5 1248c39.6 2.2 125.8-4.4 148.2-46.2M1554.1 829.8l-22.4 54.2" class="st30"/><path d="m1366.1 945-9.2-1.3 3-18.3M1339.8 922l-3.4 19.1M1339.8 922l20.1 3.4" class="st31"/></g><g id="Areas_de_servicios"><path d="m1327.4 920.5 32.6 5.4 1.3-8h-2.1l8.9-51.7 2.7.1.2-7.3-24.9-4.5 1.9-12c6.9 1.4 12.2-3.3 12.5-8.2.2-4.2-3.7-8.2-7.9-8.6-5.1-.5-10.1 4.2-9.9 11.3z" class="st93"/><path d="m1399.5 689.4 65.5 11.7-6 32.8-59.6-10.3v3.7l-25.9-4.9.7-7.9-12.7-2.1 4.7-25.4 7.1.5.8-7.2 7 .8.7-8.2 19.7 3z" style="fill:#7a962f;stroke:#000;stroke-width:2;stroke-miterlimit:10"/><path d="m1365.9 582.8-14.2 77.9 25.2 4.4 14.4-77.6-26.3-5.1" style="fill:#7f44ad;stroke:#000;stroke-width:2;stroke-miterlimit:10"/><path d="m1252.3 933.4 19.9 3.5 7.7-45.8c-6.5-.9-12.8-2.8-19.6-3.5zM1295 964.4l-20.1-3.9-4.7 26.1c6.9 1.6 13.6 2.7 20.2 3.8zM1078.6 905.1l22.3 4.1-6.3 39.1-22.9-3.7zM1168.2 826.1l25.4 4.5 6.5-36.9-25.7-3.9zM1105.7 1061.7l35.3 6.3 4.2-25.2-9.5-1.7 9.8-55-34.2-5.2-4.3 25.8 8.3 1.2zM1009.257 884.886l3.36-18.497 77.924 14.153-3.36 18.497zM928.8 766l43.2 8.1.1-3.5 51.7 10.1-6.9 36.2 2.7-.2-.6 2.8-10.2 10.2-2.8.1-3.4 19.4-44.1-7.9 5.7-32.6-8.3-1.3 2.2-13-34-6.3z" class="st96"/><path d="m540 985.8 16.9.4-.3 11 9.6.2.1-1.2 14.9.3.2-9.5 45 1.1.6-28.3-28.3-.6.8-32.9-37.2-.8.2-5-19.2-.4-.2 10-2.9-.1-1.2 55.8z" style="fill:#ce0505;stroke:#000;stroke-width:2;stroke-miterlimit:10"/><path d="m1598.5 863.4-17.8 38.1 14.2 7.4-17.2 37.6 62 29.2 35.7-76.3z" style="fill:#1aa81a;stroke:#000;stroke-width:2;stroke-miterlimit:10"/><path d="m1652.1 842.2 41.1 38.7-9.6 10.4-9.6-8.6-5.3 6.1-8.2-6.9 1.9-2-8.3-7.4-1.5 1.6-6.6-6.3 5.7-6-9.1-9z" class="st96"/><path stroke-width="2.00002" d="m641.186 458.5 62.975 41.83-14.11 21.241-62.974-41.83z" class="st96"/><path d="m1336.6 941.7-10.2 58.2 40.7 7.4 9.6-54.6-11.1-1.7.7-5.4M1336.6 941.7l29.7 3.9" class="st93"/><path stroke-width="2.0001" d="m461.893 737.208 63.306 41.148-14.279 21.968-63.306-41.147z" class="st96"/><path d="m508.7 804.6-14.2 22-15.9-10.3-2.1 3.4-33.4-21.7 2.2-3.3-14.1-9.2 14.3-22z" class="st96"/></g><g id="Fcultad_de_educacion"><path d="m1206.2 938.9 19.6 3.6-17 93.4-19-3zM1171.9 917l19.3 3.5-16.8 99.2-19.9-3.5zM1090.9 764.7l19.3 3.1-16.5 91.9-19.8-3.3zM1214.8 810.7l19.2 3.3-14.6 86.2-19.4-3.9zM1131.5 823.9l-15.1 85.7 19.8 3.6 15-85.9z" class="st99"/></g><g id="quimica"><path d="m1325.7 587.2 22.5 3.6-16.1 92.4-22.6-3.5zM1276.2 774c-.6 4.9-1.2 9.8-1.8 14.8-.1.4-1.7 4.5-5.9 5.8-3 .9-5.6-.3-6.2-.6-.4-.2-2.9-2-3.3-5.3-.4-3.2 1.4-5.5 1.7-5.8.6-.7 1.8-1.7 3.5-2.5 1.5-.6 2.6-.7 3.4-.7 0-1.8.2-3.6.2-5.4l-21.3-3.6 6.8-39.9-1.8-.2 1.3-6.7 1.5.2 4.6-24.5-1.5-.2 2.6-14.9 2.2.3 2-12.1 29.5 4.7zM1281.5 574.4l24.4 3.9-15.9 91-24.5-3.5zM1209 622.7l24.8 4.6 1.8-10.1 15.7 2.7 7-37.7-36.9-6.6-1.1 7.5-12.6-2.3-1.7 11.9-16.7-2.5-3.8 25.5 23.8 4.5z" class="st100"/></g><g id="facultad_de_ciencias_economico_administrativas"><path d="m1446.7 581.1 23.7 4.2-15.6 84.4-23.4-3.8zM1398.2 625l23.5 3.9 7.4-43-23.3-3.9zM1315.3 801.1l20.2 3.7 16-91.9-20-3.7zM1269.4 834.5l-9.2 52.5c6.8.8 13 2.7 19.6 3.5l8.9-52.7zM1270 986l-10.8 60 20.5 4 10.6-60.2c-6.7-1.1-13.4-2.2-20.3-3.8z" class="st101"/></g><g id="Capa_5_00000124124709796989007300000015415700654192893109_"><path d="m1442.3 759.8 31.4 13.6M1438.9 767.7l31.8 13.9" class="st102"/><path d="m1510.5 786.7 40.2 17.9" class="st30"/><path d="m1509.3 789 40.7 18M1506 797.4l40.9 17.2" class="st102"/><path d="m1505.2 800 40.7 17M1509.5 788.9l-4-1.9 89.5-221.1c.1 0 1.3-.9 2.7-.3 1.2.5 1.5 1.7 1.5 1.9-29.7 73.1-59.5 146.4-89.2 219.5M1502 796l4.1 1.8-103.6 256c-.4.1-1.6.3-2.9-.4-.9-.5-1.4-1.2-1.6-1.6 34.7-85.3 69.4-170.6 104-255.8z" class="st30"/><path d="M1510.5 786.7" class="st102"/><path d="m1510 787-.9 2.2M1469.8 781.5l4.3 1.9M1473.2 772.8l4.5 2.1M487 1098v-3.4c-22.7-.1-45.3-.1-68-.1-.3.3-.8 1.1-.9 2.1-.2 1.5.5 2.5.7 2.8h68.1v-.4c.1-.3.1-.7.1-1zM515.2 1094.5v4.8l123.8.1v-4.6zM694.2 1094.5v4.8l228.4.1v-4.6zM1025.8 1094.6c-22.3 0-44.5 0-66.8-.1v4.8h66.8c-.3-1.6-.2-3.2 0-4.7zM1266 1094.8c-65.7 0-131.3-.1-197-.1v4.7h197z" class="st30"/></g><g id="Capa_4_00000132064932801506428080000013371843114738846897_"><circle cx="1545.4" cy="874.7" r="8.2" class="st92"/><path d="M1531.4 884.1c3 4.5 8.2 7.5 14.1 7.5 9.3 0 16.9-7.6 16.9-16.9s-7.6-16.9-16.9-16.9c-1.1 0-2.1.1-3.1.3" class="st30"/></g><g id="Capa_3_00000114035880535407239020000012640205808126748333_"><g id="Capa_2_00000072279094532187335100000015931732306945326516_"><path d="M1547.3 875.3c0 .9-.7 1.6-1.6 1.6s-1.6-.7-1.6-1.6.7-1.6 1.6-1.6 1.6.7 1.6 1.6z" class="st61"/><path d="M1545.7 873.1c-.1.1-.2.1-.3-.1-.4-.6-1.1-2.2-.9-3.9.2-1.9 1.5-2.8 1.6-2.7s-.2.4-.2 1c0 .8.4 1.5.6 1.9.3.8.4 2-.8 3.8zM1547.2 873.7c-.1 0-.2-.1-.1-.2.2-.7.7-2.4 2.1-3.4 1.4-1.2 3-1 3-.8 0 .1-.4.2-.9.6-.6.6-.7 1.3-.9 1.7-.3.7-1.1 1.6-3.2 2.1zM1547.8 875.2c-.1-.1-.1-.2.1-.3.6-.4 2.2-1.1 3.9-1 1.9.2 2.8 1.4 2.7 1.6-.1.1-.4-.2-1.1-.2-.8 0-1.5.4-1.9.6-.7.4-1.8.5-3.7-.7zM1547.2 876.8c0-.1.1-.2.2-.1.7.2 2.3.8 3.4 2.1 1.1 1.5.9 3 .7 3-.1 0-.1-.4-.6-.9-.6-.6-1.3-.8-1.7-.9-.7-.3-1.5-1.1-2-3.2zM1545.6 877.5c.1-.1.2-.1.3.1.3.6 1 2.3.7 3.9-.3 1.8-1.6 2.7-1.7 2.6s.2-.4.2-1c0-.8-.3-1.5-.5-1.9-.3-.8-.3-1.9 1-3.7zM1544 876.7c.1 0 .2.1.1.2-.3.7-1 2.3-2.4 3.2-1.6 1-3.1.6-3.1.5s.4-.1.9-.5c.6-.5.9-1.3 1.1-1.6.4-.8 1.2-1.6 3.4-1.8zM1543.5 875.2c.1.1.1.2-.1.3-.6.3-2.2 1.1-3.9.9-1.8-.2-2.8-1.5-2.7-1.6s.4.2 1 .2c.8 0 1.5-.4 1.9-.5.8-.5 2-.5 3.8.7zM1544.1 873.8c0 .1-.1.2-.2.2-.7-.1-2.4-.6-3.5-1.9-1.2-1.4-1.1-3-1-3s.2.4.7.8c.6.5 1.4.7 1.8.8.7.3 1.5 1 2.2 3.1z" class="st62"/></g><g id="Capa_3_00000045593482944200930030000010472110892670205082_"><path d="M1388.4 738.9c0 .9-.7 1.6-1.6 1.6s-1.6-.7-1.6-1.6.7-1.6 1.6-1.6 1.6.7 1.6 1.6z" class="st61"/><path d="M1386.8 736.8c-.1.1-.2.1-.3-.1-.4-.6-1.1-2.2-.9-3.9.2-1.9 1.5-2.8 1.6-2.7s-.2.4-.2 1c0 .8.4 1.5.6 1.9.3.8.3 1.9-.8 3.8zM1388.2 737.3c-.1 0-.2-.1-.1-.2.2-.7.7-2.4 2.1-3.4 1.4-1.2 3-1 3-.8 0 .1-.4.2-.9.6-.6.6-.7 1.3-.9 1.7-.3.8-1 1.6-3.2 2.1zM1388.9 738.8c-.1-.1-.1-.2.1-.3.6-.4 2.2-1.1 3.9-1 1.9.2 2.8 1.4 2.7 1.6-.1.1-.4-.2-1.1-.2-.8 0-1.5.4-1.9.6-.7.4-1.8.5-3.7-.7zM1388.3 740.4c0-.1.1-.2.2-.1.7.2 2.3.8 3.4 2.1 1.1 1.5.9 3 .7 3-.1 0-.1-.4-.6-.9-.6-.6-1.3-.8-1.7-.9-.7-.3-1.5-1.1-2-3.2zM1386.7 741.1c.1-.1.2-.1.3.1.3.6 1 2.3.7 3.9-.3 1.8-1.6 2.7-1.7 2.6s.2-.4.2-1c0-.8-.3-1.5-.5-1.9-.3-.8-.3-1.9 1-3.7zM1385.1 740.3c.1 0 .2.1.1.2-.3.7-1 2.3-2.4 3.2-1.6 1-3.1.6-3.1.5s.4-.1.9-.5c.6-.5.9-1.3 1.1-1.6.4-.8 1.2-1.5 3.4-1.8zM1384.6 738.8c.1.1.1.2-.1.3-.6.3-2.2 1.1-3.9.9-1.8-.2-2.8-1.5-2.7-1.6s.4.2 1 .2c.8 0 1.5-.4 1.9-.5.8-.4 2-.4 3.8.7zM1385.1 737.4c0 .1-.1.2-.2.2-.7-.1-2.4-.6-3.5-1.9-1.2-1.4-1.1-3-1-3s.2.4.7.8c.6.5 1.4.7 1.8.8.7.3 1.6 1 2.2 3.1z" class="st62"/><path d="M1383.7 766.8c0 .9-.7 1.6-1.6 1.6s-1.6-.7-1.6-1.6.7-1.6 1.6-1.6 1.6.7 1.6 1.6z" class="st61"/><path d="M1382.1 764.6c-.1.1-.2.1-.3-.1-.4-.6-1.1-2.2-.9-3.9.2-1.9 1.5-2.8 1.6-2.7s-.2.4-.2 1c0 .8.4 1.5.6 1.9.4.8.4 2-.8 3.8zM1383.6 765.2c-.1 0-.2-.1-.1-.2.2-.7.7-2.4 2.1-3.4 1.4-1.2 3-1 3-.8 0 .1-.4.2-.9.6-.6.6-.7 1.3-.9 1.7-.3.7-1.1 1.6-3.2 2.1zM1384.3 766.7c-.1-.1-.1-.2.1-.3.6-.4 2.2-1.1 3.9-1 1.9.2 2.8 1.4 2.7 1.6-.1.1-.4-.2-1.1-.2-.8 0-1.5.4-1.9.6-.7.4-1.9.5-3.7-.7zM1383.6 768.3c0-.1.1-.2.2-.1.7.2 2.3.8 3.4 2.1 1.1 1.5.9 3 .7 3-.1 0-.1-.4-.6-.9-.6-.6-1.3-.8-1.7-.9-.7-.3-1.5-1.1-2-3.2zM1382 769c.1-.1.2-.1.3.1.3.6 1 2.3.7 3.9-.3 1.8-1.6 2.7-1.7 2.6s.2-.4.2-1c0-.8-.3-1.5-.5-1.9-.3-.8-.2-1.9 1-3.7zM1380.4 768.2c.1 0 .2.1.1.2-.3.7-1 2.3-2.4 3.2-1.6 1-3.1.6-3.1.5s.4-.1.9-.5c.6-.5.9-1.3 1.1-1.6.4-.8 1.3-1.5 3.4-1.8zM1379.9 766.7c.1.1.1.2-.1.3-.6.3-2.2 1.1-3.9.9-1.8-.2-2.8-1.5-2.7-1.6s.4.2 1 .2c.8 0 1.5-.4 1.9-.5.9-.4 2-.5 3.8.7zM1380.5 765.3c0 .1-.1.2-.2.2-.7-.1-2.4-.6-3.5-1.9-1.2-1.4-1.1-3-1-3s.2.4.7.8c.6.5 1.4.7 1.8.8.7.3 1.6 1 2.2 3.1z" class="st62"/><path d="M1410 770.4c0 .9-.7 1.6-1.6 1.6s-1.6-.7-1.6-1.6.7-1.6 1.6-1.6 1.6.7 1.6 1.6z" class="st61"/><path d="M1408.4 768.3c-.1.1-.2.1-.3-.1-.4-.6-1.1-2.2-.9-3.9.2-1.9 1.5-2.8 1.6-2.7s-.2.4-.2 1c0 .8.4 1.5.6 1.9.3.8.4 1.9-.8 3.8zM1409.8 768.8c-.1 0-.2-.1-.1-.2.2-.7.7-2.4 2.1-3.4 1.4-1.2 3-1 3-.8 0 .1-.4.2-.9.6-.6.6-.7 1.3-.9 1.7-.3.8-1 1.6-3.2 2.1zM1410.5 770.4c-.1-.1-.1-.2.1-.3.6-.4 2.2-1.1 3.9-1 1.9.2 2.8 1.4 2.7 1.6-.1.1-.4-.2-1.1-.2-.8 0-1.5.4-1.9.6-.7.4-1.8.4-3.7-.7zM1409.9 771.9c0-.1.1-.2.2-.1.7.2 2.3.8 3.4 2.1 1.1 1.5.9 3 .7 3-.1 0-.1-.4-.6-.9-.6-.6-1.3-.8-1.7-.9-.7-.3-1.5-1.1-2-3.2zM1408.3 772.6c.1-.1.2-.1.3.1.3.6 1 2.3.7 3.9-.3 1.8-1.6 2.7-1.7 2.6s.2-.4.2-1c0-.8-.3-1.5-.5-1.9-.3-.8-.3-1.9 1-3.7zM1406.7 771.8c.1 0 .2.1.1.2-.3.7-1 2.3-2.4 3.2-1.6 1-3.1.6-3.1.5s.4-.1.9-.5c.6-.5.9-1.3 1.1-1.6.4-.8 1.2-1.5 3.4-1.8zM1406.2 770.4c.1.1.1.2-.1.3-.6.3-2.2 1.1-3.9.9-1.8-.2-2.8-1.5-2.7-1.6s.4.2 1 .2c.8 0 1.5-.4 1.9-.5.8-.5 2-.5 3.8.7zM1406.8 768.9c0 .1-.1.2-.2.2-.7-.1-2.4-.6-3.5-1.9-1.2-1.4-1.1-3-1-3s.2.4.7.8c.6.5 1.4.7 1.8.8.6.3 1.5 1 2.2 3.1z" class="st62"/><path d="M1414 744.7c0 .9-.7 1.6-1.6 1.6s-1.6-.7-1.6-1.6.7-1.6 1.6-1.6 1.6.7 1.6 1.6z" class="st61"/><path d="M1412.4 742.6c-.1.1-.2.1-.3-.1-.4-.6-1.1-2.2-.9-3.9.2-1.9 1.5-2.8 1.6-2.7s-.2.4-.2 1c0 .8.4 1.5.6 1.9.3.8.3 1.9-.8 3.8zM1413.8 743.1c-.1 0-.2-.1-.1-.2.2-.7.7-2.4 2.1-3.4 1.4-1.2 3-1 3-.8 0 .1-.4.2-.9.6-.6.6-.7 1.3-.9 1.7-.3.8-1 1.6-3.2 2.1zM1414.5 744.7c-.1-.1-.1-.2.1-.3.6-.4 2.2-1.1 3.9-1 1.9.2 2.8 1.4 2.7 1.6-.1.1-.4-.2-1.1-.2-.8 0-1.5.4-1.9.6-.7.3-1.8.4-3.7-.7zM1413.9 746.2c0-.1.1-.2.2-.1.7.2 2.3.8 3.4 2.1 1.1 1.5.9 3 .7 3-.1 0-.1-.4-.6-.9-.6-.6-1.3-.8-1.7-.9-.7-.3-1.5-1.1-2-3.2zM1412.3 746.9c.1-.1.2-.1.3.1.3.6 1 2.3.7 3.9-.3 1.8-1.6 2.7-1.7 2.6s.2-.4.2-1c0-.8-.3-1.5-.5-1.9-.3-.8-.3-1.9 1-3.7zM1410.7 746.1c.1 0 .2.1.1.2-.3.7-1 2.3-2.4 3.2-1.6 1-3.1.6-3.1.5s.4-.1.9-.5c.6-.5.9-1.3 1.1-1.6.4-.8 1.2-1.5 3.4-1.8zM1410.2 744.6c.1.1.1.2-.1.3-.6.3-2.2 1.1-3.9.9-1.8-.2-2.8-1.5-2.7-1.6s.4.2 1 .2c.8 0 1.5-.4 1.9-.5.8-.4 2-.4 3.8.7zM1410.7 743.2c0 .1-.1.2-.2.2-.7-.1-2.4-.6-3.5-1.9-1.2-1.4-1.1-3-1-3s.2.4.7.8c.6.5 1.4.7 1.8.8.7.3 1.6 1 2.2 3.1z" class="st62"/><path d="M1387.3 751.5c0 1-.8 1.7-1.9 1.7-1 0-1.9-.8-1.9-1.7s.8-1.7 1.9-1.7c1 0 1.9.7 1.9 1.7z" class="st61"/><path d="M1385.4 749.2c-.1.1-.2.1-.3-.1-.4-.7-1.3-2.4-1.1-4.3.3-2 1.7-3.1 1.9-2.9.1.1-.2.4-.2 1.2 0 .9.5 1.6.7 2 .3.8.4 2-1 4.1zM1387.1 749.8c-.1 0-.2-.1-.2-.2.2-.8.9-2.6 2.4-3.8 1.7-1.3 3.5-1.1 3.6-.9 0 .1-.5.2-1 .7-.7.7-.9 1.5-1 1.9-.4.8-1.3 1.7-3.8 2.3zM1387.9 751.5c-.1-.1-.1-.2.1-.3.7-.4 2.6-1.3 4.6-1.1 2.2.2 3.3 1.6 3.2 1.7s-.5-.2-1.2-.2c-1 0-1.7.5-2.2.6-1 .5-2.3.5-4.5-.7zM1387.2 753.1c0-.1.1-.2.3-.2.8.2 2.8.9 4 2.3 1.3 1.6 1.1 3.3.9 3.3-.1 0-.2-.4-.7-1-.7-.6-1.6-.8-2-1-1-.1-2-1-2.5-3.4zM1385.2 753.9c.1-.1.2-.1.3.1.4.7 1.2 2.5.9 4.3-.4 2-1.9 3-2 2.9s.2-.4.3-1.1c0-.9-.4-1.6-.6-2.1-.4-.9-.3-2.1 1.1-4.1zM1383.4 753c.1 0 .2.1.1.3-.3.7-1.2 2.5-2.8 3.5-1.8 1.1-3.6.7-3.6.5 0-.1.5-.1 1.1-.6.7-.6 1-1.4 1.3-1.8.3-.7 1.3-1.6 3.9-1.9zM1382.8 751.5c.1.1.1.2-.1.3-.7.4-2.6 1.2-4.6.9-2.2-.3-3.3-1.7-3.1-1.8.1-.1.5.2 1.2.2 1 0 1.7-.4 2.2-.6.9-.3 2.2-.4 4.4 1zM1383.5 749.9c0 .1-.1.2-.3.2-.8-.2-2.8-.7-4.2-2.1-1.5-1.5-1.3-3.2-1.1-3.3.1 0 .2.4.8.9.7.6 1.6.7 2.1.9.9.3 1.9 1.1 2.7 3.4z" class="st62"/><path d="M1400.5 741.8c0 1.1-.9 1.9-1.9 1.9-1.1 0-1.9-.9-1.9-1.9s.9-1.9 1.9-1.9c1.1 0 1.9.8 1.9 1.9z" class="st61"/><path d="M1398.6 739.2c-.1.1-.2.1-.3-.1-.4-.8-1.4-2.7-1.1-4.8.3-2.3 1.8-3.4 1.9-3.3s-.2.5-.2 1.3c0 1 .5 1.8.7 2.3.4.9.4 2.3-1 4.6zM1400.4 739.9c-.1 0-.2-.1-.2-.3.2-.9.9-2.9 2.5-4.2 1.8-1.4 3.6-1.2 3.6-1 0 .1-.5.2-1 .8-.7.7-.9 1.7-1.1 2.1-.3.9-1.3 1.9-3.8 2.6zM1401.2 741.8c-.1-.1-.1-.2.1-.3.8-.4 2.6-1.4 4.7-1.2 2.2.2 3.4 1.8 3.3 1.9s-.5-.2-1.3-.2c-1 0-1.8.5-2.2.7-1 .4-2.4.5-4.6-.9zM1400.4 743.6c0-.1.1-.2.3-.2.8.2 2.8 1 4.1 2.6 1.4 1.8 1.1 3.7.9 3.7-.1 0-.2-.5-.7-1.1-.7-.7-1.6-.9-2.1-1.1-.9-.3-1.9-1.2-2.5-3.9zM1398.5 744.5c.1-.1.2-.1.3.1.4.8 1.2 2.8.9 4.8-.4 2.3-1.9 3.3-2.1 3.2-.1-.1.2-.5.3-1.3 0-1-.4-1.8-.6-2.3-.4-.9-.3-2.3 1.2-4.5zM1396.6 743.5c.1 0 .2.1.1.3-.3.8-1.2 2.8-2.9 3.9-1.9 1.2-3.7.8-3.7.6 0-.1.5-.1 1.1-.7.8-.7 1.1-1.5 1.3-2 .4-.8 1.4-1.7 4.1-2.1zM1396 741.8c.1.1.1.2-.1.3-.8.4-2.7 1.3-4.7 1.1-2.2-.3-3.4-1.9-3.2-2 .1-.1.5.2 1.3.2 1 0 1.8-.5 2.3-.7.8-.4 2.1-.4 4.4 1.1zM1396.6 740c0 .1-.1.2-.3.2-.9-.2-2.9-.7-4.3-2.3-1.5-1.7-1.4-3.6-1.2-3.7.1 0 .2.5.8 1 .8.7 1.7.8 2.1 1 1.1.4 2.2 1.2 2.9 3.8z" class="st62"/><path d="M1414.3 757.2c0 1.1-.9 2.1-1.9 2.1-1.1 0-1.9-.9-1.9-2.1 0-1.1.9-2.1 1.9-2.1 1.1 0 1.9 1 1.9 2.1z" class="st61"/><path d="M1412.4 754.4c-.1.1-.2.1-.3-.1-.4-.8-1.4-2.9-1.1-5.1.3-2.4 1.8-3.6 1.9-3.5s-.2.5-.2 1.4c0 1.1.5 1.9.7 2.4.4 1 .4 2.5-1 4.9zM1414.2 755.2c-.1 0-.2-.1-.2-.3.2-.9.9-3.1 2.5-4.5 1.8-1.5 3.6-1.3 3.6-1.1 0 .1-.5.2-1 .8-.7.8-.9 1.8-1.1 2.3-.3 1-1.3 2.1-3.8 2.8zM1415 757.2c-.1-.1-.1-.2.1-.3.8-.5 2.6-1.5 4.7-1.3 2.2.3 3.4 1.9 3.3 2.1-.1.1-.5-.2-1.3-.2-1 0-1.8.6-2.2.8-1 .3-2.4.3-4.6-1.1zM1414.2 759.2c0-.1.1-.2.3-.2.8.3 2.8 1 4.1 2.8 1.4 1.9 1.1 3.9.9 4-.1 0-.2-.5-.7-1.1-.7-.8-1.6-1-2.1-1.2-.9-.5-1.9-1.5-2.5-4.3zM1412.3 760.1c.1-.1.2-.1.3.1.4.8 1.2 2.9.9 5.1-.4 2.4-1.9 3.6-2.1 3.4-.1-.1.2-.5.3-1.4 0-1.1-.4-2-.6-2.5-.4-.9-.3-2.4 1.2-4.7zM1410.4 759c.1 0 .2.1.1.3-.3.9-1.2 3-2.9 4.2-1.9 1.3-3.7.8-3.7.6 0-.1.5-.1 1.1-.7.8-.7 1.1-1.6 1.3-2.1.4-.9 1.4-1.9 4.1-2.3zM1409.8 757.2c.1.1.1.3-.1.3-.8.4-2.7 1.4-4.7 1.1-2.2-.3-3.4-2-3.2-2.1.1-.1.5.2 1.3.2 1 0 1.8-.5 2.3-.7.8-.4 2.2-.4 4.4 1.2zM1410.4 755.3c0 .1-.1.2-.3.2-.9-.2-2.9-.8-4.3-2.5-1.5-1.8-1.4-3.9-1.2-3.9.1 0 .2.5.8 1.1.8.7 1.7.9 2.1 1 1.1.4 2.2 1.4 2.9 4.1z" class="st62"/><path d="M1396.9 767.9c0 1.1-.8 1.9-1.9 1.9s-1.9-.9-1.9-1.9c0-1.1.8-1.9 1.9-1.9s1.9.8 1.9 1.9z" class="st61"/><path d="M1395 765.3c-.1.1-.2.1-.3-.1-.4-.8-1.3-2.7-1.1-4.8.3-2.3 1.7-3.4 1.9-3.3.1.1-.2.5-.2 1.3 0 1 .5 1.8.7 2.3.3.9.4 2.3-1 4.6zM1396.7 766c-.1 0-.2-.1-.2-.3.2-.9.9-2.9 2.4-4.2 1.7-1.4 3.5-1.2 3.5-1 0 .1-.5.2-1 .8-.7.7-.9 1.7-1 2.1-.3.9-1.2 1.9-3.7 2.6zM1397.5 767.8c-.1-.1-.1-.2.1-.3.7-.4 2.6-1.4 4.6-1.2 2.2.2 3.3 1.8 3.2 1.9s-.5-.2-1.2-.2c-1 0-1.7.5-2.2.7-1 .5-2.3.5-4.5-.9zM1396.8 769.7c0-.1.1-.2.3-.2.8.2 2.8 1 4 2.6 1.3 1.8 1.1 3.7.9 3.7-.1 0-.2-.5-.7-1.1-.7-.7-1.6-.9-2-1.1-1-.3-2-1.3-2.5-3.9zM1394.9 770.6c.1-.1.2-.1.3.1.4.8 1.2 2.8.9 4.8-.4 2.3-1.9 3.3-2 3.2s.2-.5.3-1.3c0-1-.4-1.8-.6-2.3-.4-.9-.4-2.3 1.1-4.5zM1393 769.6c.1 0 .2.1.1.3-.3.8-1.1 2.8-2.8 3.9-1.8 1.2-3.6.8-3.6.6 0-.1.5-.1 1.1-.7.7-.7 1-1.5 1.3-2 .3-.8 1.4-1.8 3.9-2.1zM1392.4 767.8c.1.1.1.2-.1.3-.7.4-2.6 1.3-4.6 1.1-2.2-.3-3.3-1.9-3.1-2 .1-.1.5.2 1.2.2 1 0 1.7-.5 2.2-.7.9-.3 2.3-.3 4.4 1.1zM1393.1 766.1c0 .1-.1.2-.3.2-.8-.2-2.8-.7-4.1-2.3-1.5-1.7-1.3-3.6-1.1-3.7.1 0 .2.5.8 1 .7.7 1.6.8 2.1 1 .8.3 1.8 1.2 2.6 3.8z" class="st62"/><path d="M1399.8 755.1c0 1.2-1.1 2.2-2.4 2.2s-2.4-1-2.4-2.2 1.1-2.2 2.4-2.2 2.4 1 2.4 2.2z" class="st61"/><path d="M1397.4 752.2c-.1.1-.3.1-.4-.1-.5-.9-1.7-3-1.4-5.4.3-2.5 2.2-3.8 2.4-3.7.1.1-.3.5-.3 1.4 0 1.1.6 2 .9 2.6.5 1.1.6 2.6-1.2 5.2zM1399.6 753c-.2 0-.3-.1-.2-.3.3-1 1.1-3.2 3.1-4.7 2.2-1.6 4.5-1.3 4.5-1.1 0 .1-.6.2-1.3.9-.8.8-1.1 1.9-1.3 2.4-.4.9-1.6 2-4.8 2.8zM1400.6 755.1c-.1-.1-.1-.3.1-.4.9-.5 3.3-1.6 5.8-1.3 2.8.3 4.2 2 4 2.2-.1.1-.6-.2-1.6-.2-1.2 0-2.2.6-2.8.8-.9.4-2.7.4-5.5-1.1zM1399.7 757.2c0-.1.1-.2.3-.2 1 .3 3.5 1.1 5.1 2.9 1.7 2 1.4 4.2 1.1 4.2-.1 0-.2-.6-.9-1.2-.9-.8-2-1-2.6-1.3-1-.4-2.3-1.5-3-4.4zM1397.3 758.1c.1-.1.3-.1.4.1.5.9 1.5 3.1 1.1 5.4-.5 2.5-2.4 3.7-2.6 3.6-.1-.1.3-.5.3-1.4 0-1.1-.5-2.1-.7-2.6-.4-1-.4-2.6 1.5-5.1zM1394.9 757c.2 0 .3.1.2.3-.4.9-1.5 3.1-3.6 4.4-2.3 1.4-4.6.9-4.6.7 0-.1.6-.1 1.4-.7.9-.7 1.3-1.7 1.6-2.2.5-1 1.8-2.1 5-2.5zM1394.2 755.1c.1.1.1.3-.1.4-.9.5-3.3 1.5-5.8 1.2-2.8-.3-4.2-2.1-4-2.3.1-.1.6.3 1.6.3 1.2 0 2.2-.5 2.8-.7 1-.5 2.7-.6 5.5 1.1zM1395 753.1c0 .1-.1.3-.3.2-1.1-.2-3.6-.8-5.3-2.6-1.9-1.9-1.7-4.1-1.4-4.1.1 0 .3.5 1 1.1.9.7 2.1.9 2.7 1.1 1 .4 2.4 1.4 3.3 4.3z" class="st62"/></g><g id="Capa_4_00000012449652161485876340000003452814625745386402_"><path d="M1377.8 1202.5q0 .3-.3.3c-.3 0-.3-.1-.3-.3s.1-.3.3-.3.3.1.3.3z" class="st61"/><path d="M1377.4 1202c-.1-.1-.3-.5-.2-.8 0-.4.3-.6.3-.5v.2c0 .2.1.3.1.4.1.1.1.4-.2.7zM1377.7 1202.1c0-.2.1-.5.4-.7s.6-.2.6-.2-.1 0-.2.1-.2.3-.2.3c0 .3-.1.4-.6.5zM1377.9 1202.4c.1-.1.5-.3.8-.2.4 0 .6.3.6.3h-.2c-.2 0-.3.1-.4.1-.2.1-.4.1-.8-.2zM1377.7 1202.8c0-.1.1-.1 0 0 .2 0 .5.1.8.4.2.3.2.6.2.6s0-.1-.1-.2-.3-.2-.4-.2c-.2-.1-.4-.2-.5-.6zM1377.4 1202.9c.1.1.3.5.2.8-.1.4-.3.5-.4.5v-.2c0-.2-.1-.3-.1-.4s0-.3.3-.7zM1377.1 1202.7s0 .1 0 0c0 .2-.2.5-.5.7s-.7.1-.6.1c0 0 .1 0 .2-.1s.2-.3.2-.3c0-.2.2-.3.7-.4zM1377 1202.4q0 .15 0 0c-.1.1-.5.3-.8.2-.4-.1-.6-.3-.6-.3h.2c.2 0 .3-.1.4-.1s.4 0 .8.2zM1377.1 1202.2c-.2 0-.5-.1-.8-.3-.3-.3-.2-.6-.2-.6s0 .1.1.2.3.1.4.2c.2-.1.4 0 .5.5z" class="st62"/><path d="M1374.7 1209.6q0 .3-.3.3t-.3-.3.3-.3.3.3z" class="st61"/><path d="M1374.4 1209.2s-.1 0 0 0c-.1-.1-.3-.5-.2-.8 0-.4.3-.6.3-.5v.2c0 .2.1.3.1.4s0 .3-.2.7zM1374.7 1209.3s-.1 0 0 0c0-.2.1-.5.4-.7s.6-.2.6-.2-.1 0-.2.1-.2.3-.2.3c0 .2-.2.4-.6.5zM1374.8 1209.6s0-.1 0 0c.1-.1.5-.3.8-.2.4 0 .6.3.6.3h-.2c-.2 0-.3.1-.4.1s-.4 0-.8-.2zM1374.7 1209.9c.2 0 .5.1.8.4.2.3.2.6.2.6s0-.1-.1-.2-.3-.2-.4-.2c-.2 0-.4-.2-.5-.6zM1374.4 1210c.1.1.3.5.2.8-.1.4-.3.5-.4.5v-.2c0-.2-.1-.3-.1-.4s0-.3.3-.7zM1374 1209.9s.1 0 0 0c0 .2-.2.5-.5.7s-.7.1-.6.1c0 0 .1 0 .2-.1s.2-.3.2-.3c.1-.2.3-.4.7-.4zM1373.9 1209.6c-.1.1-.5.3-.8.2-.4-.1-.6-.3-.6-.3h.2c.2 0 .3-.1.4-.1.2 0 .4-.1.8.2zM1374 1209.3c-.2 0-.5-.1-.8-.3-.3-.3-.2-.6-.2-.6s0 .1.1.2.3.1.4.2c.2-.1.4.1.5.5z" class="st62"/><path d="M1381.7 1211.2c0 .2-.2.4-.4.4s-.4-.2-.4-.4.2-.4.4-.4.4.2.4.4z" class="st61"/><path d="M1381.3 1210.7s-.1 0 0 0q-.3-.3-.3-.9c.1-.4.4-.6.4-.6v.2c0 .2.1.3.1.4 0 .2.1.5-.2.9zM1381.6 1210.8c0-.2.1-.6.5-.8.4-.3.7-.2.7-.2s-.1 0-.2.1-.2.3-.2.4c-.1.2-.2.4-.8.5zM1381.8 1211.1c.2-.1.6-.3 1-.3.5 0 .7.3.7.4h-.3c-.2 0-.4.1-.5.1-.2.1-.4.1-.9-.2zM1381.6 1211.5s.1 0 0 0c.2 0 .6.1.9.4s.2.7.2.7 0-.1-.2-.2c-.1-.1-.3-.2-.4-.2s-.3-.2-.5-.7zM1381.2 1211.6q.15 0 0 0c.1.2.3.5.2.9s-.4.6-.4.6 0-.1.1-.2c0-.2-.1-.3-.1-.4-.1-.2-.1-.4.2-.9zM1380.9 1211.5c0 .2-.2.6-.6.8s-.8.1-.8.1.1 0 .2-.1c.2-.1.2-.3.3-.4.1-.2.3-.4.9-.4zM1380.7 1211.1c.1.1 0 .1 0 0-.2.1-.6.3-1 .3-.5-.1-.7-.3-.7-.4h.3c.2 0 .4-.1.5-.1.2 0 .5 0 .9.2zM1380.9 1210.8q0 .15 0 0c-.2 0-.6-.1-.9-.4s-.3-.7-.2-.7c0 0 0 .1.2.2s.3.2.4.2c.1.1.3.3.5.7z" class="st62"/><path d="M1387.4 1209.5c0 .2-.2.4-.4.4s-.4-.2-.4-.4.2-.4.4-.4.4.1.4.4z" class="st61"/><path d="M1386.9 1208.9c-.2-.2-.4-.6-.3-1.1s.4-.8.4-.7c0 0-.1.1 0 .3 0 .2.1.4.2.5.1.2.1.5-.3 1zM1387.3 1209.1s0-.1 0 0c0-.3.2-.7.5-1 .4-.3.8-.3.8-.2 0 0-.1 0-.2.2-.2.2-.2.4-.2.5-.1.1-.3.3-.9.5zM1387.5 1209.5s0-.1 0 0c.2-.2.6-.4 1.1-.3s.8.4.7.4h-.3c-.2 0-.4.1-.5.2-.1 0-.5 0-1-.3zM1387.4 1209.9s0-.1 0 0c.3 0 .7.2 1 .5.3.4.3.8.2.8 0 0 0-.1-.2-.2-.2-.2-.4-.2-.5-.3-.2 0-.4-.2-.5-.8zM1386.9 1210.1s.1 0 0 0c.2.2.4.6.3 1.1s-.4.7-.5.7c0 0 .1-.1.1-.3s-.1-.4-.1-.5c-.1-.2-.1-.5.2-1zM1386.5 1209.9c0 .2-.2.7-.6.9-.4.3-.9.2-.9.1 0 0 .1 0 .3-.1s.2-.3.3-.4c0-.2.3-.5.9-.5zM1386.3 1209.5q.15 0 0 0c-.2.2-.6.4-1.1.3s-.8-.4-.7-.5c0 0 .1.1.3.1s.4-.1.5-.1c.2-.1.5-.2 1 .2zM1386.5 1209.1c-.3 0-.7-.1-1-.5s-.3-.8-.3-.8 0 .1.2.2.4.2.5.2c.2.1.4.3.6.9z" class="st62"/></g></g></svg>