<?xml version="1.0" encoding="UTF-8"?>
<svg id="Capa_2" data-name="Capa 2" xmlns="http://www.w3.org/2000/svg" viewBox="0 0 469.34 469.4">
  <defs>
    <style>
      .cls-1 {
        fill: #f44336;
      }
    </style>
  </defs>
  <path class="cls-1" d="M411.97,184.23c.42,21.96-4.04,43.01-11.44,63.64-5.95,16.61-14.63,31.58-25,45.7-11.21,15.27-22.48,30.49-33.63,45.8-22.86,31.41-45.68,62.84-68.46,94.3-4.63,6.39-8.82,13.1-13.59,19.36-13.8,18.13-38.39,18.1-51.71-.36-25.43-35.24-50.55-70.71-75.73-106.13-13.92-19.58-27.7-39.26-41.56-58.88-24.59-34.83-35.13-73.72-32.21-116,2.67-38.57,17.26-72.47,41.9-102.38C130.77,32.57,169.84,11.84,216.48,6.74c58.45-6.39,108.7,12.64,148.64,55.72,25.13,27.1,40.69,59.6,45.63,96.64,.56,4.24,.97,8.51,1.18,12.78,.2,4.1,.04,8.23,.04,12.35Zm-176.95,83.37c43.9,.09,80.26-39.62,79.75-80.71-.57-44.99-35.08-80.3-79.61-80.29-44.28,.01-78.8,35.28-79.51,79.91-.67,41.39,35.91,81,79.37,81.09Z"/>
</svg>