<?xml version="1.0" encoding="UTF-8"?>
<svg id="Capa_1" data-name="Capa 1" xmlns="http://www.w3.org/2000/svg" viewBox="0 0 469.34 469.4">
  <defs>
    <style>
      .cls-1 {
        fill: blue;
      }
    </style>
  </defs>
  <path class="cls-1" d="M186.84,252.97c11.07,19.73,27.07,29.35,47.2,29.7,11.26,.39,21.57-3.27,30.86-10.15,4.4-3.26,8.14-7.85,11.83-12.24,10.25-12.23,14.27-27.44,12.95-43.98-1.24-15.63-6.63-29.31-17.17-40.21-11.08-11.46-23.92-17.04-38.29-17.13-12.2-.08-23.45,4.45-33.63,12.86-10.99,9.06-17.56,21.74-20.96,36.02-3.75,15.8-.49,31.39,7.21,45.12ZM137.75,18.92c9.24-1.9,18.55-3.44,27.76-5.58,3.25-.75,3.91,.3,3.9,3.75-.09,16.36-.05,32.7-.06,49.06,0,5.91-.35,11.86,.08,17.73,.67,9.24-1.84,17.25-5.77,24.95-2.47,4.82-1.92,7.06,2.21,9.63,7.64,4.78,17.63,4,23.72-1.72,1.89-1.76,2.6-3.81,1.14-6.03-7.7-11.65-7.69-25.15-7.44-38.89,.35-18.95,.41-37.91,.41-56.88,0-3.71,.96-5.37,4.21-5.98,14.71-2.8,29.31-6.54,44.09-8.49,6.8-.9,13.97,1.19,20.88,2.53,15.51,3.02,30.95,6.44,46.45,9.63,19.99,4.13,40,8.13,59.99,12.29,24.96,5.19,49.88,10.55,74.84,15.72,10.18,2.11,20.38,4.07,30.6,5.83,3.34,.59,4.47,2.17,4.31,6.14-.41,10.87,1.58,9.15-8.79,11.11-14.24,2.71-28.43,5.79-42.67,8.5-14.6,2.79-29.25,5.25-43.85,8.01-11.69,2.2-23.38,4.46-35.02,7.07-8.32,1.87-8.23,2.14-8.29,11.89-.08,14.7,.04,29.41-.47,44.11-.28,7.97,1.35,15.03,4.22,22.13,3.29,8.11,6.41,16.42,8.71,24.97,4.29,15.89,5.19,32.23,2.17,48.62-1.7,9.23-3.11,18.65-5.97,27.39-6.49,19.94-13.31,39.78-20.92,59.17-5.67,14.41-12.48,28.27-19.35,41.99-5.8,11.58-12.18,22.79-18.72,33.84-6.08,10.28-12.64,20.19-19.13,30.11-6.63,10.13-13.41,20.11-20.21,30.08-1.66,2.44-3.65,4.58-6.05,7.55-3.6-5.41-6.94-10.33-10.21-15.32-8-12.2-16.08-24.32-23.9-36.66-5.85-9.26-11.59-18.63-16.92-28.3-7.48-13.6-15.07-27.18-21.65-41.38-7.02-15.17-13.08-30.93-19.2-46.63-3.87-9.93-7.34-20.11-10.55-30.36-4.76-15.23-8.27-30.89-8.79-47.16-.57-17.26,2.96-33.69,8.67-49.52,1.97-5.44,4.27-10.72,6.01-16.24,.96-3.03,1.49-6.44,1.48-9.66-.09-18.26-.45-36.53-.61-54.8-.03-3.41-1.27-5.02-4.04-5.53-16.11-3-32.21-5.97-48.3-9.11-19.08-3.71-38.15-7.63-57.24-11.34-8.23-1.61-16.49-3-24.77-4.3-3.04-.48-4.52-1.72-4.48-5.7,.09-9.71-.08-9.75,8.16-11.46,23.7-4.91,47.41-9.78,71.11-14.68,19.41-4.03,38.81-8.1,58.23-12.09Z"/>
</svg>